<?xml version="1.0" standalone="no"?>
<!DOCTYPE svg PUBLIC "-//W3C//DTD SVG 20010904//EN"
 "http://www.w3.org/TR/2001/REC-SVG-20010904/DTD/svg10.dtd">
<svg version="1.0" xmlns="http://www.w3.org/2000/svg"
 width="640.000000pt" height="512.000000pt" viewBox="0 0 640.000000 512.000000"
 preserveAspectRatio="xMidYMid meet">
<metadata>
Created by potrace 1.15, written by Peter Selinger 2001-2017
</metadata>
<g transform="translate(0.000000,512.000000) scale(0.100000,-0.100000)"
fill="#000000" stroke="none">
<path d="M3121 4372 l-31 -49 -1 -179 c0 -98 -4 -201 -10 -229 -5 -27 -14
-270 -21 -540 -9 -393 -9 -565 1 -865 20 -560 20 -564 58 -630 18 -30 56 -79
86 -108 44 -43 65 -56 122 -72 52 -15 75 -28 93 -50 13 -16 27 -30 32 -30 5 0
21 17 35 37 31 46 34 124 8 239 -14 66 -15 90 -5 177 17 147 9 536 -12 602
-20 63 -20 161 0 301 8 60 19 213 24 339 5 127 14 347 20 489 l10 259 -44 81
c-57 104 -146 192 -243 240 -40 20 -77 36 -82 36 -5 0 -23 -22 -40 -48z"/>
<path d="M2862 1113 c-41 -72 -53 -103 -63 -169 -12 -78 -11 -83 15 -155 23
-62 38 -83 89 -132 37 -35 95 -75 142 -99 l80 -41 85 11 c47 6 103 17 125 24
38 12 40 16 49 66 8 47 12 54 37 59 49 10 54 26 29 90 -36 89 -77 169 -127
244 -39 58 -58 76 -123 114 -56 33 -99 50 -155 60 -131 25 -126 27 -183 -72z"/>
</g>
</svg>
