<?xml version="1.0" standalone="no"?>
<!DOCTYPE svg PUBLIC "-//W3C//DTD SVG 20010904//EN"
 "http://www.w3.org/TR/2001/REC-SVG-20010904/DTD/svg10.dtd">
<svg version="1.0" xmlns="http://www.w3.org/2000/svg"
 width="640.000000pt" height="512.000000pt" viewBox="0 0 640.000000 512.000000"
 preserveAspectRatio="xMidYMid meet">
<metadata>
Created by potrace 1.15, written by Peter Selinger 2001-2017
</metadata>
<g transform="translate(0.000000,512.000000) scale(0.100000,-0.100000)"
fill="#000000" stroke="none">
<path d="M4250 4045 c-8 -2 -36 -7 -63 -10 -46 -6 -49 -9 -99 -83 -54 -80 -60
-96 -137 -362 -36 -121 -50 -191 -56 -264 -7 -92 -11 -109 -61 -217 -53 -117
-54 -120 -54 -214 l0 -95 -88 -44 c-74 -37 -103 -46 -186 -56 -70 -8 -121 -21
-177 -45 -103 -44 -275 -71 -381 -59 l-73 9 -6 70 c-4 39 -7 122 -8 185 -1
109 6 178 60 555 11 77 23 163 26 192 l6 52 -78 86 c-43 47 -85 85 -94 85 -9
0 -43 -32 -75 -70 -55 -63 -63 -78 -93 -182 -29 -96 -37 -148 -54 -348 -14
-165 -28 -272 -49 -360 -16 -69 -37 -163 -46 -210 -10 -47 -20 -88 -24 -93 -3
-4 -76 -16 -161 -27 -86 -11 -218 -34 -295 -50 -125 -28 -146 -35 -207 -77
-38 -26 -71 -53 -74 -60 -9 -23 27 -135 68 -209 45 -82 24 -74 239 -94 80 -8
147 -8 220 -1 58 5 108 7 112 3 4 -4 -2 -43 -12 -87 -11 -44 -19 -112 -20
-152 0 -39 -3 -79 -6 -88 -4 -9 -59 -43 -123 -75 -102 -51 -119 -64 -145 -104
-32 -52 -41 -58 -111 -75 -135 -32 -123 -24 -166 -118 -21 -47 -39 -95 -39
-106 0 -12 14 -57 31 -100 23 -57 37 -78 53 -82 11 -2 59 -11 104 -20 46 -8
89 -18 95 -22 12 -7 125 -91 140 -103 5 -4 -1 -26 -12 -49 -12 -22 -24 -61
-27 -85 -6 -41 -3 -48 63 -147 49 -73 98 -129 161 -187 49 -45 95 -82 100 -82
5 0 31 37 57 82 47 82 47 84 41 152 -8 85 26 271 60 331 12 22 30 68 39 103
10 34 22 65 27 68 5 3 57 19 116 35 83 22 129 29 202 29 92 0 98 1 150 35 30
19 60 35 65 35 6 0 37 -48 69 -107 32 -60 86 -145 120 -190 l61 -82 118 -42
117 -42 19 24 c10 13 35 44 55 69 l36 45 0 135 0 136 73 69 c126 123 129 125
221 150 105 29 358 77 551 105 l140 20 77 82 c76 81 77 84 77 133 -1 28 -4 74
-7 103 -7 51 -9 54 -112 148 l-105 95 -140 -6 c-120 -5 -157 -12 -260 -42 -66
-19 -132 -41 -146 -48 -21 -12 -36 -11 -90 2 -35 9 -69 21 -75 27 -9 8 -5 33
14 98 24 84 28 89 106 167 l81 80 140 16 c183 20 362 54 625 120 118 30 227
56 243 60 l27 5 0 158 c0 86 -4 163 -9 170 -4 7 -68 29 -141 48 l-132 36 -97
-36 c-71 -26 -120 -37 -186 -42 -49 -3 -131 -15 -182 -25 l-92 -18 -74 34
c-41 18 -77 37 -80 42 -3 5 5 47 19 93 13 47 33 144 45 215 11 72 38 203 60
292 21 90 42 205 45 256 l7 93 -45 80 c-46 79 -60 90 -108 79z m-715 -1792
c19 -9 35 -20 35 -25 0 -19 -118 -200 -169 -257 -128 -146 -102 -129 -235
-152 -95 -16 -133 -27 -183 -55 l-63 -36 -105 59 c-57 32 -105 61 -105 64 0 3
20 20 45 39 50 38 51 42 29 136 -19 83 -17 86 111 138 74 29 119 39 250 56 88
11 196 26 240 34 108 18 109 18 150 -1z"/>
</g>
</svg>
