<?xml version="1.0" standalone="no"?>
<!DOCTYPE svg PUBLIC "-//W3C//DTD SVG 20010904//EN"
 "http://www.w3.org/TR/2001/REC-SVG-20010904/DTD/svg10.dtd">
<svg version="1.0" xmlns="http://www.w3.org/2000/svg"
 width="640.000000pt" height="512.000000pt" viewBox="0 0 640.000000 512.000000"
 preserveAspectRatio="xMidYMid meet">
<metadata>
Created by potrace 1.15, written by Peter Selinger 2001-2017
</metadata>
<g transform="translate(0.000000,512.000000) scale(0.100000,-0.100000)"
fill="#000000" stroke="none">
<path d="M3864 4194 c-18 -31 -36 -90 -54 -178 -21 -101 -39 -155 -78 -237
-43 -93 -54 -108 -79 -113 -15 -3 -85 -15 -155 -27 -93 -15 -165 -35 -267 -74
-129 -48 -147 -58 -214 -119 -72 -64 -75 -68 -95 -143 -19 -71 -53 -350 -52
-431 0 -20 31 -94 85 -202 52 -103 85 -182 85 -201 0 -26 19 -49 124 -153 132
-130 141 -145 128 -224 -5 -32 -25 -65 -82 -137 -73 -93 -76 -97 -96 -192
l-20 -98 -75 -40 c-40 -23 -83 -47 -94 -54 -18 -12 -36 -7 -144 38 -68 28
-130 51 -137 51 -13 0 -44 -86 -44 -124 0 -11 22 -54 50 -95 38 -59 70 -92
145 -150 52 -40 95 -76 95 -80 0 -3 -7 -31 -16 -61 -10 -33 -19 -123 -24 -225
-5 -93 -12 -206 -16 -250 l-6 -80 52 -115 52 -115 81 -59 c44 -32 88 -61 97
-63 13 -3 32 16 69 69 46 66 51 78 51 127 0 30 8 98 17 150 l17 96 66 75 c54
61 72 90 95 155 15 44 31 83 34 87 4 5 72 17 150 28 l144 20 117 75 c84 54
135 95 179 144 l61 69 0 101 c0 109 -21 263 -45 331 -21 59 -105 169 -175 230
-37 32 -57 56 -54 65 3 8 -4 26 -15 41 -12 15 -21 41 -21 60 0 19 -5 43 -12
53 -9 15 -5 28 20 73 36 63 39 85 16 152 -15 43 -15 52 1 114 9 37 25 119 35
182 12 72 32 147 53 200 24 60 40 122 52 210 10 69 22 129 26 135 5 5 9 21 9
36 l0 26 88 -18 c48 -10 92 -18 99 -19 11 0 97 113 108 142 4 9 -33 44 -97 94
l-103 81 -18 91 -19 90 26 102 c14 57 26 115 26 129 0 21 -20 45 -96 111 -52
47 -102 86 -109 88 -7 2 -26 -18 -41 -44z m-259 -891 c-5 -45 -18 -75 -57
-138 l-51 -80 28 -108 28 -109 -33 -119 -33 -120 -74 -46 c-42 -26 -78 -42
-82 -37 -5 5 -33 43 -64 84 -65 89 -106 196 -114 295 l-5 70 89 127 88 127
105 44 c106 45 158 65 174 66 4 1 5 -25 1 -56z m151 -1474 c63 -34 74 -44 74
-66 0 -15 8 -35 17 -45 14 -16 15 -25 6 -61 -6 -23 -9 -74 -6 -115 l6 -73 -32
-12 c-18 -7 -31 -18 -31 -29 0 -11 -12 -21 -37 -27 -96 -26 -250 -61 -265 -61
-22 0 -22 7 -2 148 l15 113 87 134 c48 74 89 135 91 135 2 0 37 -18 77 -41z"/>
</g>
</svg>
