<?xml version="1.0" standalone="no"?>
<!DOCTYPE svg PUBLIC "-//W3C//DTD SVG 20010904//EN"
 "http://www.w3.org/TR/2001/REC-SVG-20010904/DTD/svg10.dtd">
<svg version="1.0" xmlns="http://www.w3.org/2000/svg"
 width="640.000000pt" height="512.000000pt" viewBox="0 0 640.000000 512.000000"
 preserveAspectRatio="xMidYMid meet">
<metadata>
Created by potrace 1.15, written by Peter Selinger 2001-2017
</metadata>
<g transform="translate(0.000000,512.000000) scale(0.100000,-0.100000)"
fill="#000000" stroke="none">
<path d="M4181 3832 c-11 -21 -36 -58 -55 -81 -29 -35 -36 -51 -36 -87 0 -44
-1 -45 -55 -71 -59 -29 -63 -38 -40 -84 15 -28 14 -32 -10 -73 -14 -24 -50
-63 -80 -85 -59 -45 -64 -58 -39 -116 15 -36 14 -40 -11 -104 -46 -113 -179
-328 -275 -441 -64 -76 -90 -122 -90 -160 0 -25 -14 -52 -54 -104 -47 -61 -62
-94 -112 -238 -55 -158 -61 -171 -121 -241 -50 -59 -71 -76 -98 -81 -41 -8
-42 -12 -11 -51 22 -27 23 -31 9 -65 -19 -45 -189 -355 -217 -395 -13 -18 -31
-76 -45 -145 -23 -114 -23 -115 -82 -181 l-59 -67 1 -73 c0 -47 9 -97 22 -138
l22 -65 75 -23 c41 -12 80 -23 87 -23 21 0 78 101 128 225 26 66 65 153 87
193 22 41 55 110 73 153 40 93 104 190 145 221 25 18 30 29 30 64 0 49 39 142
81 193 21 26 29 46 29 76 0 29 8 52 29 81 16 21 37 68 46 104 33 118 181 381
237 419 41 28 90 99 117 169 12 29 32 74 46 101 13 27 28 68 31 91 5 30 13 44
25 47 15 4 19 15 19 49 0 41 2 45 41 65 40 20 41 22 36 62 -4 31 0 50 18 81
13 23 26 61 30 86 11 65 73 200 149 320 60 95 66 110 66 158 0 36 8 68 25 102
14 27 25 57 25 65 0 16 -173 105 -205 105 -8 0 -23 -17 -34 -38z"/>
<path d="M2653 3311 c-17 -11 -37 -30 -43 -42 -7 -12 -30 -41 -52 -65 -39 -42
-40 -46 -34 -93 4 -29 0 -76 -9 -120 -22 -106 -19 -187 9 -262 13 -35 29 -94
36 -130 13 -63 15 -67 60 -92 36 -20 66 -27 138 -33 l91 -7 64 39 c118 71 147
151 147 407 l0 168 -42 72 c-43 76 -115 142 -170 157 -16 5 -59 12 -96 15 -57
5 -72 3 -99 -14z"/>
<path d="M4200 1760 c-14 -4 -59 -23 -100 -42 -102 -48 -120 -73 -120 -175 0
-49 -8 -102 -20 -143 -22 -72 -26 -191 -10 -252 9 -32 17 -39 49 -48 28 -7 48
-23 72 -55 29 -38 45 -48 109 -70 41 -14 83 -25 92 -25 10 0 78 30 152 67
l134 67 16 60 c9 34 20 88 25 121 5 33 17 80 25 104 9 24 16 53 16 64 0 12
-28 63 -62 114 -53 78 -69 94 -103 105 -26 9 -41 20 -45 35 -14 57 -146 100
-230 73z"/>
</g>
</svg>
