<?xml version="1.0" standalone="no"?>
<!DOCTYPE svg PUBLIC "-//W3C//DTD SVG 20010904//EN"
 "http://www.w3.org/TR/2001/REC-SVG-20010904/DTD/svg10.dtd">
<svg version="1.0" xmlns="http://www.w3.org/2000/svg"
 width="640.000000pt" height="512.000000pt" viewBox="0 0 640.000000 512.000000"
 preserveAspectRatio="xMidYMid meet">
<metadata>
Created by potrace 1.15, written by Peter Selinger 2001-2017
</metadata>
<g transform="translate(0.000000,512.000000) scale(0.100000,-0.100000)"
fill="#000000" stroke="none">
<path d="M3123 4083 c-47 -35 -53 -44 -73 -113 -52 -175 -60 -215 -60 -320 0
-60 -7 -129 -15 -160 -9 -32 -15 -100 -15 -163 0 -95 3 -114 25 -156 24 -48
43 -61 92 -61 19 0 25 11 43 70 12 39 37 107 56 151 27 65 34 94 34 147 0 38
9 98 20 137 25 86 50 265 50 360 0 69 -1 72 -38 108 -21 20 -45 37 -53 37 -8
0 -38 -17 -66 -37z"/>
<path d="M3523 4053 c-59 -69 -73 -121 -73 -277 0 -72 -6 -120 -20 -166 -11
-36 -25 -102 -32 -148 -10 -70 -10 -94 5 -165 9 -45 19 -108 23 -139 4 -34 11
-58 18 -58 6 0 34 22 61 50 46 47 51 57 93 197 29 99 46 179 52 243 4 54 19
130 34 175 19 60 26 101 26 166 l0 85 -54 47 c-30 26 -61 47 -69 47 -8 0 -36
-26 -64 -57z"/>
</g>
</svg>
