<?xml version="1.0" standalone="no"?>
<!DOCTYPE svg PUBLIC "-//W3C//DTD SVG 20010904//EN"
 "http://www.w3.org/TR/2001/REC-SVG-20010904/DTD/svg10.dtd">
<svg version="1.0" xmlns="http://www.w3.org/2000/svg"
 width="640.000000pt" height="512.000000pt" viewBox="0 0 640.000000 512.000000"
 preserveAspectRatio="xMidYMid meet">
<metadata>
Created by potrace 1.15, written by Peter Selinger 2001-2017
</metadata>
<g transform="translate(0.000000,512.000000) scale(0.100000,-0.100000)"
fill="#000000" stroke="none">
<path d="M3660 3935 c-128 -147 -225 -339 -280 -550 -19 -74 -47 -134 -160
-340 -119 -216 -139 -258 -145 -310 -4 -33 -20 -93 -37 -135 -24 -62 -42 -88
-105 -152 l-76 -76 7 -56 c6 -55 6 -56 -58 -159 -36 -58 -95 -165 -132 -238
-61 -122 -69 -144 -85 -249 -11 -63 -19 -136 -19 -161 0 -37 22 -156 55 -296
7 -29 191 -306 268 -404 l62 -78 95 -32 c52 -17 121 -45 152 -60 32 -16 66
-29 76 -29 22 0 237 131 351 215 47 35 127 107 177 162 l91 98 13 105 c7 58
14 176 16 264 l2 159 99 53 c54 30 143 68 198 85 55 17 103 35 108 38 12 11
67 213 67 246 0 50 -43 235 -54 235 -6 0 -54 -30 -107 -66 -92 -63 -102 -67
-246 -103 l-150 -38 -74 37 c-70 36 -76 42 -115 111 -34 60 -44 91 -54 160
-11 84 -11 87 15 150 33 77 96 168 211 305 87 102 88 104 139 251 33 93 73
184 109 245 l56 97 0 121 0 121 -104 48 -104 49 -7 69 -7 70 -71 61 c-40 34
-79 62 -88 62 -8 0 -49 -38 -89 -85z m-288 -2097 c30 -46 72 -114 93 -151 l38
-69 -13 -91 c-13 -91 -14 -93 -98 -220 l-86 -127 -65 -19 c-60 -18 -73 -18
-139 -7 -94 17 -103 26 -95 94 6 51 9 56 69 105 35 29 64 60 64 70 0 9 -11 34
-25 55 l-25 38 36 90 c20 49 53 114 75 144 21 30 53 81 71 113 18 31 35 57 39
57 3 0 31 -37 61 -82z"/>
</g>
</svg>
