<?xml version="1.0" standalone="no"?>
<!DOCTYPE svg PUBLIC "-//W3C//DTD SVG 20010904//EN"
 "http://www.w3.org/TR/2001/REC-SVG-20010904/DTD/svg10.dtd">
<svg version="1.0" xmlns="http://www.w3.org/2000/svg"
 width="640.000000pt" height="512.000000pt" viewBox="0 0 640.000000 512.000000"
 preserveAspectRatio="xMidYMid meet">
<metadata>
Created by potrace 1.15, written by Peter Selinger 2001-2017
</metadata>
<g transform="translate(0.000000,512.000000) scale(0.100000,-0.100000)"
fill="#000000" stroke="none">
<path d="M3116 4173 c-14 -29 -26 -76 -30 -118 -4 -38 -16 -104 -26 -145 -14
-58 -20 -134 -25 -335 -7 -249 -6 -262 14 -307 11 -27 26 -48 34 -48 22 0 78
47 124 103 40 49 43 56 43 113 0 34 9 104 19 155 10 52 22 123 26 159 4 36 13
96 21 133 20 97 17 124 -19 194 -31 59 -115 143 -144 143 -7 0 -23 -21 -37
-47z"/>
</g>
</svg>
