<?xml version="1.0" standalone="no"?>
<!DOCTYPE svg PUBLIC "-//W3C//DTD SVG 20010904//EN"
 "http://www.w3.org/TR/2001/REC-SVG-20010904/DTD/svg10.dtd">
<svg version="1.0" xmlns="http://www.w3.org/2000/svg"
 width="640.000000pt" height="512.000000pt" viewBox="0 0 640.000000 512.000000"
 preserveAspectRatio="xMidYMid meet">
<metadata>
Created by potrace 1.15, written by Peter Selinger 2001-2017
</metadata>
<g transform="translate(0.000000,512.000000) scale(0.100000,-0.100000)"
fill="#000000" stroke="none">
<path d="M3553 4134 c3 -3 -7 -20 -23 -38 -17 -17 -30 -35 -30 -39 0 -5 -5 -5
-12 -1 -7 5 -8 3 -3 -5 7 -13 -60 -85 -80 -86 -5 0 -10 -7 -10 -15 0 -17 -53
-76 -65 -73 -5 1 -14 -5 -22 -15 -12 -16 -11 -16 7 -2 11 8 2 -4 -20 -27 -22
-23 -43 -40 -46 -37 -4 2 -5 -5 -2 -16 3 -11 1 -20 -5 -20 -6 0 -8 -10 -4 -22
3 -13 1 -19 -5 -15 -7 5 -9 0 -6 -13 3 -11 0 -20 -6 -20 -6 0 -11 -8 -11 -18
0 -22 -43 -65 -55 -55 -4 5 -5 2 -1 -4 4 -7 3 -13 -2 -13 -6 0 -9 -6 -8 -13 0
-7 -21 -32 -47 -55 -27 -23 -45 -42 -42 -42 3 0 -15 -19 -42 -41 -58 -51 -62
-54 -43 -45 8 4 3 -2 -12 -14 -25 -20 -28 -28 -28 -85 0 -61 -14 -115 -31
-115 -4 0 -5 -10 -1 -22 4 -15 2 -19 -8 -13 -8 5 -11 3 -8 -6 3 -8 -1 -20 -9
-27 -9 -10 -13 -44 -13 -118 0 -110 -22 -210 -43 -197 -6 4 -8 0 -4 -10 3 -10
2 -17 -3 -17 -6 0 -10 -21 -10 -46 0 -32 3 -43 12 -38 8 5 9 -3 5 -30 -3 -20
-2 -34 2 -32 4 3 11 -187 15 -422 5 -341 10 -441 23 -495 8 -37 19 -67 23 -67
5 0 6 -9 3 -20 -3 -11 -1 -20 5 -20 6 0 10 -20 8 -49 -1 -27 2 -47 6 -45 4 3
8 -10 8 -28 0 -36 49 -189 64 -199 5 -4 6 -14 3 -24 -5 -11 -3 -14 5 -9 8 5 9
2 5 -9 -3 -10 -3 -17 1 -17 5 0 18 -31 31 -70 12 -38 26 -70 31 -70 5 0 7 -7
4 -15 -4 -8 -1 -15 5 -15 6 0 8 -7 4 -17 -4 -11 -3 -14 5 -9 8 5 19 -9 32 -40
12 -26 28 -53 38 -60 9 -7 14 -15 11 -19 -4 -3 5 -18 20 -34 46 -48 66 -76 63
-88 -1 -6 3 -15 9 -19 8 -5 10 -2 5 7 -4 8 2 3 13 -10 12 -13 21 -20 21 -15 0
4 20 -13 45 -38 25 -25 45 -44 45 -42 0 2 9 -4 19 -13 11 -9 17 -21 14 -26 -3
-6 -2 -7 4 -4 5 3 38 -23 72 -58 34 -36 67 -65 72 -65 5 0 20 9 32 20 12 11
27 18 35 15 7 -2 10 0 7 5 -3 6 5 14 19 20 14 5 26 14 26 19 0 6 6 8 13 6 9
-4 11 17 6 92 -5 98 -26 170 -54 186 -8 4 -19 22 -25 41 -7 23 -22 39 -45 51
-19 9 -35 18 -35 21 0 3 5 2 10 -1 6 -3 10 -4 10 -1 0 2 -22 18 -48 34 -31 19
-59 47 -76 76 -15 25 -34 46 -42 46 -9 0 -12 5 -8 12 5 8 2 9 -9 5 -10 -3 -17
-3 -17 2 0 4 -11 14 -25 21 -13 7 -22 16 -20 20 3 5 -2 11 -11 14 -9 4 -14 13
-10 21 3 8 1 15 -3 15 -5 0 -20 17 -32 38 -13 20 -26 38 -31 40 -4 2 -5 9 -2
17 3 7 0 16 -7 21 -8 5 -10 3 -4 -6 6 -9 4 -11 -4 -6 -7 5 -10 15 -7 23 3 8 2
11 -4 8 -5 -3 -16 10 -25 29 -9 19 -22 37 -29 39 -9 4 -12 33 -12 101 1 53 -3
96 -7 96 -5 0 -5 10 -2 21 4 13 3 19 -2 16 -17 -11 -62 165 -67 256 0 15 -4
27 -8 27 -5 0 -8 68 -8 150 0 90 4 150 10 150 5 0 7 7 4 15 -4 8 1 17 9 21 9
3 23 23 31 45 9 22 20 38 24 35 4 -2 7 9 7 24 0 16 -2 28 -5 27 -3 -1 -16 10
-30 24 -23 23 -25 30 -22 112 3 85 25 155 48 150 5 -1 9 25 9 57 0 32 -3 56
-7 53 -5 -2 -8 16 -8 41 0 25 4 46 9 46 5 0 7 10 3 22 -4 16 -2 19 8 13 10 -6
12 -4 7 8 -3 10 -2 17 2 17 5 0 15 33 22 73 12 70 44 137 72 154 8 4 22 21 32
36 11 17 24 26 32 23 8 -3 11 -1 8 4 -3 5 5 15 19 21 15 7 30 26 37 46 6 20
15 30 22 26 6 -4 8 0 4 10 -3 10 -3 17 1 17 5 0 16 18 26 41 10 22 24 43 32
46 8 3 11 9 8 15 -5 8 31 52 84 102 12 11 38 36 57 54 19 18 48 38 65 43 25 9
31 18 36 50 4 21 11 36 16 33 6 -4 7 2 3 15 -4 12 -2 21 4 21 7 0 11 36 11
100 0 109 4 101 -90 180 -14 12 -19 18 -11 14 9 -5 12 -3 7 5 -4 6 -12 9 -17
6 -5 -4 -12 1 -15 9 -3 9 -15 16 -27 16 -11 0 -18 -3 -14 -6z"/>
</g>
</svg>
