<?xml version="1.0" standalone="no"?>
<!DOCTYPE svg PUBLIC "-//W3C//DTD SVG 20010904//EN"
 "http://www.w3.org/TR/2001/REC-SVG-20010904/DTD/svg10.dtd">
<svg version="1.0" xmlns="http://www.w3.org/2000/svg"
 width="640.000000pt" height="512.000000pt" viewBox="0 0 640.000000 512.000000"
 preserveAspectRatio="xMidYMid meet">
<metadata>
Created by potrace 1.15, written by Peter Selinger 2001-2017
</metadata>
<g transform="translate(0.000000,512.000000) scale(0.100000,-0.100000)"
fill="#000000" stroke="none">
<path d="M3106 3935 c-12 -18 -16 -49 -16 -129 0 -140 14 -200 62 -257 30 -37
38 -55 38 -87 0 -79 20 -137 56 -161 42 -29 119 -161 129 -221 4 -25 34 -100
66 -168 32 -67 61 -144 65 -170 8 -51 58 -176 99 -246 22 -38 25 -54 25 -140
0 -58 -7 -123 -16 -160 -11 -43 -14 -77 -9 -116 4 -30 8 -131 9 -225 l1 -170
-37 -113 c-20 -62 -47 -130 -60 -150 -13 -20 -30 -53 -39 -73 -9 -20 -39 -55
-67 -78 -39 -33 -55 -56 -73 -103 -19 -51 -29 -65 -67 -87 -112 -66 -250 -172
-366 -281 l-68 -65 6 -79 c6 -69 11 -86 39 -123 22 -29 46 -47 76 -58 63 -21
71 -20 136 27 32 23 84 51 115 62 52 19 67 32 151 131 52 60 149 165 216 232
120 120 122 123 142 195 11 40 23 98 27 128 6 46 15 65 59 120 51 63 53 68 64
155 31 255 34 296 26 347 -5 29 -8 79 -8 111 1 49 5 63 27 86 35 37 33 47 -14
71 -43 22 -44 29 -19 98 14 37 10 120 -12 277 -17 119 -28 162 -56 224 -56
121 -90 220 -103 301 -11 66 -18 82 -61 135 l-49 60 6 71 7 72 -62 41 c-39 27
-61 49 -61 61 0 30 -76 167 -139 250 -31 42 -62 94 -69 115 -11 33 -25 47 -76
78 -34 20 -67 37 -73 37 -6 0 -18 -11 -27 -25z"/>
</g>
</svg>
