<?xml version="1.0" standalone="no"?>
<!DOCTYPE svg PUBLIC "-//W3C//DTD SVG 20010904//EN"
 "http://www.w3.org/TR/2001/REC-SVG-20010904/DTD/svg10.dtd">
<svg version="1.0" xmlns="http://www.w3.org/2000/svg"
 width="640.000000pt" height="512.000000pt" viewBox="0 0 640.000000 512.000000"
 preserveAspectRatio="xMidYMid meet">
<metadata>
Created by potrace 1.15, written by Peter Selinger 2001-2017
</metadata>
<g transform="translate(0.000000,512.000000) scale(0.100000,-0.100000)"
fill="#000000" stroke="none">
<path d="M2999 2048 c-43 -32 -46 -33 -149 -33 -88 0 -105 -3 -108 -16 -2 -12
10 -20 43 -29 25 -7 45 -19 45 -26 0 -8 -4 -14 -10 -14 -21 0 -8 -16 37 -45
40 -25 175 -127 207 -156 13 -11 -18 -44 -54 -59 -24 -10 -35 -9 -67 8 -80 41
-115 52 -166 52 -29 0 -57 4 -63 10 -16 16 -97 23 -171 15 l-68 -8 43 -18 c23
-10 42 -21 42 -24 0 -3 -7 -32 -17 -65 l-16 -60 23 -26 c21 -21 23 -28 11 -45
-7 -12 -11 -22 -9 -24 2 -2 35 -10 74 -19 72 -15 164 -56 196 -88 10 -10 23
-18 28 -18 24 0 5 -19 -55 -54 -52 -30 -80 -39 -129 -43 -56 -5 -64 -9 -83
-37 -12 -17 -25 -57 -28 -89 -7 -56 -9 -58 -54 -82 -25 -13 -44 -24 -41 -24 3
-1 32 4 65 9 l60 10 36 -42 36 -42 49 30 c27 16 65 38 84 49 19 10 46 29 59
42 13 13 27 23 32 23 4 0 14 3 22 6 16 6 31 -42 19 -61 -3 -5 -5 -22 -4 -36 4
-31 -35 -65 -140 -123 -72 -40 -80 -55 -52 -94 17 -25 103 -72 132 -72 11 0
50 11 87 26 54 20 85 41 149 101 l81 76 8 -54 c6 -34 4 -90 -4 -151 -12 -96
-12 -98 12 -132 23 -34 105 -76 148 -76 20 0 91 47 91 61 0 6 -12 26 -26 45
-30 38 -26 61 11 70 27 7 31 26 15 68 -11 30 -7 33 56 45 38 7 56 5 91 -10 25
-10 59 -19 76 -19 27 0 35 6 51 41 20 40 20 41 1 76 -25 46 -80 89 -182 143
-69 38 -82 48 -87 74 -3 17 -8 41 -12 54 -6 20 -3 22 22 18 16 -2 36 -6 44 -9
86 -30 115 -36 178 -42 39 -4 72 -5 72 -2 0 3 -4 17 -10 31 -11 31 -7 32 70
11 30 -8 56 -12 59 -9 5 4 -18 155 -24 162 -9 10 -132 -32 -146 -50 -15 -20
-17 -20 -43 -3 -27 18 -76 101 -76 129 0 9 15 19 38 25 20 5 56 15 80 21 74
19 135 49 129 64 -3 8 11 25 35 42 l39 29 -4 106 c-4 99 -7 109 -33 143 -34
42 -41 43 -95 15 -46 -23 -56 -20 -40 9 17 32 13 42 -14 42 -14 0 -44 9 -67
21 l-41 21 -19 -23 c-12 -15 -17 -37 -16 -59 2 -23 -11 -67 -37 -129 l-40 -93
-67 -34 -68 -34 0 81 c0 45 5 110 12 145 13 75 15 73 -92 127 -57 28 -74 32
-137 31 -70 -1 -73 -1 -73 22 0 18 11 29 48 48 46 24 46 24 22 34 -66 25 -84
24 -131 -10z"/>
</g>
</svg>
