<?xml version="1.0" standalone="no"?>
<!DOCTYPE svg PUBLIC "-//W3C//DTD SVG 20010904//EN"
 "http://www.w3.org/TR/2001/REC-SVG-20010904/DTD/svg10.dtd">
<svg version="1.0" xmlns="http://www.w3.org/2000/svg"
 width="640.000000pt" height="512.000000pt" viewBox="0 0 640.000000 512.000000"
 preserveAspectRatio="xMidYMid meet">
<metadata>
Created by potrace 1.15, written by Peter Selinger 2001-2017
</metadata>
<g transform="translate(0.000000,512.000000) scale(0.100000,-0.100000)"
fill="#000000" stroke="none">
<path d="M3213 3243 c-10 -21 -29 -57 -43 -80 l-24 -43 17 -72 c20 -86 24
-382 6 -484 -11 -63 -11 -64 -47 -70 -21 -3 -84 -17 -142 -30 -120 -29 -193
-27 -319 8 -40 11 -77 16 -81 11 -4 -4 -15 -66 -25 -137 -14 -108 -15 -130 -4
-141 25 -22 133 -45 215 -45 49 0 105 -8 149 -20 43 -12 100 -20 149 -20 l78
0 -7 -230 -7 -230 61 -69 c60 -67 63 -69 127 -80 35 -7 69 -9 74 -6 6 4 10 33
10 66 0 40 8 79 25 121 30 73 30 75 8 159 -16 65 -16 67 6 122 41 99 140 163
291 186 41 7 107 20 146 30 l71 18 44 -33 c24 -18 47 -34 50 -34 14 0 79 109
89 152 15 59 5 135 -18 147 -74 38 -490 71 -586 47 -22 -5 -24 -1 -39 77 -9
45 -21 129 -27 187 -13 123 -43 296 -68 395 l-18 70 -59 32 c-33 18 -65 33
-71 33 -7 0 -20 -17 -31 -37z"/>
</g>
</svg>
