<?xml version="1.0" standalone="no"?>
<!DOCTYPE svg PUBLIC "-//W3C//DTD SVG 20010904//EN"
 "http://www.w3.org/TR/2001/REC-SVG-20010904/DTD/svg10.dtd">
<svg version="1.0" xmlns="http://www.w3.org/2000/svg"
 width="640.000000pt" height="512.000000pt" viewBox="0 0 640.000000 512.000000"
 preserveAspectRatio="xMidYMid meet">
<metadata>
Created by potrace 1.15, written by Peter Selinger 2001-2017
</metadata>
<g transform="translate(0.000000,512.000000) scale(0.100000,-0.100000)"
fill="#000000" stroke="none">
<path d="M3713 2239 c-45 -15 -117 -30 -160 -34 -43 -3 -109 -13 -148 -20 -38
-8 -142 -19 -230 -25 -174 -11 -274 -23 -375 -44 -36 -8 -96 -17 -135 -21 -40
-4 -83 -15 -101 -26 -17 -10 -34 -17 -37 -14 -4 3 -5 2 -3 -1 5 -7 -31 -44
-43 -44 -13 0 -21 -40 -8 -40 12 -1 73 -80 70 -91 -1 -3 3 -6 10 -6 7 0 44 -5
82 -11 125 -19 247 -24 325 -12 41 7 85 13 97 13 11 1 20 4 18 7 -7 12 58 32
90 28 18 -2 31 0 29 4 -3 4 7 8 22 8 15 0 55 5 89 11 51 10 74 9 137 -5 l75
-17 79 35 c44 19 97 42 119 52 22 9 76 31 120 48 l79 31 18 63 c23 76 20 80
-73 115 l-64 24 -82 -28z"/>
</g>
</svg>
