<?xml version="1.0" standalone="no"?>
<!DOCTYPE svg PUBLIC "-//W3C//DTD SVG 20010904//EN"
 "http://www.w3.org/TR/2001/REC-SVG-20010904/DTD/svg10.dtd">
<svg version="1.0" xmlns="http://www.w3.org/2000/svg"
 width="640.000000pt" height="512.000000pt" viewBox="0 0 640.000000 512.000000"
 preserveAspectRatio="xMidYMid meet">
<metadata>
Created by potrace 1.15, written by Peter Selinger 2001-2017
</metadata>
<g transform="translate(0.000000,512.000000) scale(0.100000,-0.100000)"
fill="#000000" stroke="none">
<path d="M3070 4019 c0 -12 -15 -47 -34 -78 -18 -31 -44 -87 -56 -124 -20 -63
-22 -81 -16 -215 16 -399 56 -829 91 -992 8 -39 16 -159 20 -300 4 -184 10
-250 25 -305 10 -38 21 -97 25 -130 3 -33 16 -109 28 -170 18 -95 21 -138 19
-313 -3 -210 5 -278 49 -456 16 -64 19 -96 13 -170 l-6 -93 36 -64 c33 -56 46
-69 106 -101 38 -21 75 -38 83 -38 7 0 34 24 59 53 l46 54 7 164 c6 135 4 175
-9 225 -9 34 -16 95 -16 135 0 46 -8 99 -20 139 -19 58 -20 82 -14 230 6 164
6 166 -32 345 -40 189 -40 188 -63 695 -6 140 -16 282 -21 315 -6 33 -10 104
-10 157 0 84 -4 108 -29 170 -16 40 -32 105 -35 143 -4 39 -14 98 -22 133 -8
35 -14 105 -14 155 0 122 -18 190 -67 262 -28 42 -43 76 -47 111 -7 45 -11 53
-42 67 -45 22 -54 21 -54 -4z"/>
</g>
</svg>
