<?xml version="1.0" standalone="no"?>
<!DOCTYPE svg PUBLIC "-//W3C//DTD SVG 20010904//EN"
 "http://www.w3.org/TR/2001/REC-SVG-20010904/DTD/svg10.dtd">
<svg version="1.0" xmlns="http://www.w3.org/2000/svg"
 width="640.000000pt" height="512.000000pt" viewBox="0 0 640.000000 512.000000"
 preserveAspectRatio="xMidYMid meet">
<metadata>
Created by potrace 1.15, written by Peter Selinger 2001-2017
</metadata>
<g transform="translate(0.000000,512.000000) scale(0.100000,-0.100000)"
fill="#000000" stroke="none">
<path d="M3569 4176 c-2 -2 -67 -10 -144 -16 -232 -19 -510 -115 -595 -205
-19 -20 -64 -52 -100 -70 -87 -44 -148 -116 -183 -215 -43 -120 -59 -212 -55
-305 3 -93 13 -110 65 -121 30 -6 34 -3 60 41 94 159 142 222 204 265 35 24
96 73 137 108 78 69 95 76 275 112 121 24 199 10 312 -59 44 -27 108 -63 143
-80 60 -30 64 -35 96 -104 18 -40 39 -104 46 -142 7 -39 26 -97 43 -130 38
-76 56 -158 57 -260 0 -44 5 -98 11 -119 9 -32 8 -52 -5 -100 -27 -101 -46
-218 -46 -277 0 -67 -43 -169 -120 -289 -37 -58 -51 -91 -60 -145 -7 -38 -23
-91 -36 -117 -29 -58 -30 -81 -4 -123 l20 -33 -54 -68 c-37 -47 -74 -80 -115
-104 -53 -31 -63 -42 -93 -104 -29 -60 -45 -79 -133 -151 -55 -46 -111 -95
-125 -110 -52 -56 -144 -118 -232 -156 -129 -55 -188 -95 -188 -126 0 -14 14
-82 31 -152 l31 -126 46 -31 c42 -28 60 -33 167 -45 183 -20 618 -23 695 -6
48 12 79 12 142 4 80 -10 80 -10 149 24 66 31 72 32 114 21 25 -7 49 -12 54
-12 5 0 23 24 39 53 30 52 82 248 82 308 0 33 -57 125 -108 173 l-31 29 -93
-12 c-121 -16 -211 -38 -271 -68 -43 -22 -55 -23 -115 -16 l-67 8 -3 60 c-2
60 -2 60 51 120 72 81 128 167 157 240 13 33 40 94 61 135 20 41 49 104 64
140 35 83 112 348 136 465 10 50 27 117 39 150 35 101 81 333 91 460 5 66 11
138 15 160 5 35 0 50 -36 113 -42 72 -43 75 -47 185 -4 96 -9 124 -38 197 -18
47 -36 109 -40 138 -15 115 -107 274 -196 341 -49 37 -59 50 -59 74 0 30 0 30
-49 24 -44 -5 -54 -3 -87 24 -32 26 -90 39 -105 25z"/>
</g>
</svg>
