<?xml version="1.0" standalone="no"?>
<!DOCTYPE svg PUBLIC "-//W3C//DTD SVG 20010904//EN"
 "http://www.w3.org/TR/2001/REC-SVG-20010904/DTD/svg10.dtd">
<svg version="1.0" xmlns="http://www.w3.org/2000/svg"
 width="640.000000pt" height="512.000000pt" viewBox="0 0 640.000000 512.000000"
 preserveAspectRatio="xMidYMid meet">
<metadata>
Created by potrace 1.15, written by Peter Selinger 2001-2017
</metadata>
<g transform="translate(0.000000,512.000000) scale(0.100000,-0.100000)"
fill="#000000" stroke="none">
<path d="M2820 4111 c0 -13 -19 -19 -173 -51 -165 -35 -147 -33 -147 -16 0 8
-5 18 -12 22 -7 5 -8 2 -3 -7 5 -8 4 -11 -1 -6 -5 5 -9 16 -9 25 0 28 -33 25
-61 -5 -15 -15 -23 -21 -18 -13 5 9 1 7 -10 -5 -10 -11 -22 -19 -26 -18 -10 3
-81 -83 -74 -89 2 -3 -4 -11 -13 -19 -17 -13 -17 -13 -3 6 14 19 14 19 -4 5
-23 -18 -59 -99 -52 -117 4 -9 1 -11 -6 -7 -8 5 -9 2 -5 -10 4 -9 3 -15 -2
-12 -17 11 -32 -52 -29 -125 l3 -74 79 -3 c72 -3 80 -5 102 -32 22 -26 29 -28
72 -24 57 6 118 21 153 39 22 12 34 11 95 -11 64 -22 75 -23 147 -14 71 10 84
9 160 -14 77 -23 92 -24 242 -19 131 5 171 3 217 -11 31 -9 72 -16 92 -16 20
0 36 -3 36 -8 0 -4 18 -6 40 -4 23 2 40 0 40 -6 0 -6 15 -14 33 -17 46 -11
204 -63 241 -80 31 -15 31 -15 28 -85 -2 -38 -7 -70 -12 -70 -5 0 -12 -9 -15
-20 -3 -11 -13 -20 -21 -20 -8 0 -13 -4 -10 -8 2 -4 -4 -14 -16 -21 -16 -10
-19 -10 -13 1 3 7 -1 4 -10 -7 -9 -11 -21 -19 -26 -18 -5 2 -9 -2 -9 -7 0 -6
-7 -10 -15 -10 -8 0 -15 -4 -15 -10 0 -5 -7 -10 -15 -10 -8 0 -15 -7 -15 -16
0 -8 -4 -12 -10 -9 -5 3 -10 1 -10 -4 0 -6 -7 -11 -16 -11 -8 0 -13 -4 -10 -8
3 -5 -8 -16 -25 -26 -16 -9 -29 -14 -29 -9 0 4 -5 0 -11 -10 -6 -9 -14 -15
-20 -12 -5 4 -12 -1 -15 -9 -3 -9 -12 -16 -20 -16 -8 0 -14 -7 -14 -16 0 -8
-4 -13 -9 -9 -6 3 -15 -3 -20 -13 -12 -23 -67 -62 -57 -41 4 8 -1 4 -10 -8 -9
-13 -20 -23 -24 -23 -5 0 -30 -10 -57 -22 -26 -12 -51 -21 -55 -20 -5 1 -8 -2
-8 -7 0 -5 -9 -11 -20 -14 -24 -6 -25 -17 -4 -43 8 -10 12 -12 8 -4 -4 8 -3
11 1 7 11 -10 16 -37 7 -38 -4 0 -77 -4 -164 -8 -103 -5 -161 -11 -172 -20 -8
-7 -19 -10 -25 -7 -5 3 -11 3 -13 -1 -3 -8 -148 -62 -177 -67 -8 -2 -17 -8
-19 -14 -2 -7 -10 -12 -17 -12 -19 0 -48 -49 -42 -71 3 -11 1 -16 -5 -13 -6 4
-9 -17 -6 -59 2 -38 -1 -63 -6 -59 -5 3 -6 -2 -3 -12 4 -9 3 -15 -2 -12 -9 6
-42 -74 -44 -106 -1 -9 -4 -15 -8 -12 -10 6 -42 -104 -33 -117 4 -7 3 -9 -3
-6 -9 6 -23 -76 -23 -133 0 -19 30 -19 115 1 22 5 105 12 185 15 139 5 220 22
220 46 0 4 11 8 25 8 14 0 25 -4 25 -8 0 -4 15 -6 34 -4 18 2 37 -1 40 -7 5
-7 46 -11 110 -11 57 0 139 -5 183 -11 55 -7 102 -7 152 0 72 10 121 1 121
-21 0 -5 4 -7 9 -3 6 3 14 -3 20 -12 6 -10 11 -15 11 -10 0 4 14 0 31 -8 24
-13 45 -15 96 -9 40 4 64 3 60 -3 -3 -5 3 -33 13 -63 10 -30 19 -52 19 -48 1
4 12 3 25 -2 15 -5 38 -5 62 2 21 5 60 7 88 4 l51 -7 -3 -55 c-2 -30 0 -54 5
-53 27 5 73 -3 73 -12 0 -5 -4 -8 -9 -5 -11 7 -53 -93 -44 -107 4 -6 1 -7 -7
-2 -10 6 -12 4 -7 -9 4 -9 3 -15 -2 -12 -5 3 -12 -1 -15 -10 -3 -8 -10 -13
-15 -9 -6 3 -13 -1 -18 -8 -4 -7 -16 -16 -25 -20 -10 -3 -18 -14 -18 -22 0 -9
-4 -14 -9 -11 -10 6 -70 -63 -114 -131 -24 -39 -37 -48 -52 -40 -2 1 -10 -6
-17 -15 -7 -9 -20 -18 -28 -20 -8 -2 -21 -9 -28 -16 -8 -7 -27 -16 -43 -19
-16 -3 -29 -10 -29 -15 0 -6 -9 -8 -20 -5 -10 3 -20 2 -22 -3 -2 -4 -50 -19
-107 -34 -92 -25 -131 -29 -350 -36 -135 -5 -279 -14 -318 -20 -62 -8 -85 -7
-160 10 -66 16 -104 19 -154 14 -41 -4 -88 -2 -121 6 -97 21 -198 53 -198 61
0 5 -7 6 -15 3 -8 -4 -15 -1 -15 5 0 7 -31 11 -90 11 -69 0 -90 3 -90 13 0 19
-35 49 -45 40 -4 -5 -5 -2 -1 5 4 7 2 20 -5 28 -15 18 -84 12 -132 -11 -15 -8
-25 -9 -22 -4 4 5 4 9 1 9 -16 0 -54 -93 -60 -145 -3 -33 -14 -106 -23 -162
-15 -87 -15 -105 -4 -115 11 -11 13 -10 6 0 -6 11 -3 11 13 1 12 -7 19 -16 17
-19 -6 -10 58 -66 85 -75 14 -4 46 -18 72 -31 44 -22 51 -23 126 -13 68 9 84
8 111 -5 17 -9 31 -21 31 -26 0 -5 7 -7 15 -4 8 4 15 2 15 -3 0 -21 113 -52
258 -72 l154 -20 41 20 c36 19 41 19 49 5 5 -9 14 -13 20 -10 7 5 8 2 3 -5 -4
-7 2 -22 16 -37 20 -22 30 -24 108 -24 81 0 86 1 110 30 14 16 33 31 41 32 8
2 18 6 21 11 3 4 39 1 81 -7 70 -14 81 -13 154 5 83 22 145 20 254 -6 107 -26
198 -27 280 -4 41 11 81 21 88 21 6 1 12 5 12 10 0 4 6 8 12 8 7 0 33 21 57
48 24 26 40 41 36 33 -5 -9 -4 -12 3 -7 14 9 15 49 3 94 l-10 32 52 1 c29 1
55 1 59 0 4 0 15 10 24 24 9 14 20 22 25 20 12 -8 37 35 45 80 4 24 22 58 45
86 21 25 36 48 34 51 -3 3 3 11 12 19 17 13 17 13 4 -6 -15 -20 -14 -20 7 0
16 15 23 34 24 72 2 28 5 49 7 47 8 -7 41 138 34 149 -3 5 -2 7 4 4 12 -8 46
109 37 125 -4 7 -2 8 4 4 7 -4 12 -6 12 -4 0 2 7 41 15 88 8 47 15 115 15 151
0 82 -19 181 -33 172 -6 -3 -7 -1 -3 5 9 16 -14 133 -25 126 -5 -3 -6 2 -3 11
7 17 -14 65 -28 65 -4 0 -22 15 -39 33 -17 17 -28 26 -24 19 6 -11 3 -11 -13
-1 -17 11 -18 15 -6 38 8 14 14 31 14 37 0 15 -37 47 -57 50 -9 2 -23 11 -32
20 -15 17 -15 17 4 4 15 -11 14 -8 -4 13 -14 15 -27 25 -29 22 -3 -3 -10 -1
-16 4 -6 5 -42 14 -81 20 -38 7 -99 23 -136 36 -37 13 -105 26 -152 30 -57 5
-84 11 -82 19 6 15 -49 92 -63 89 -7 -2 -9 4 -5 14 4 9 2 14 -3 11 -5 -4 -8
12 -8 35 l1 42 74 27 c41 15 80 28 87 28 7 0 15 8 19 18 3 9 17 29 31 44 14
16 21 31 17 39 -5 7 -4 10 1 6 6 -3 39 25 75 61 51 51 70 80 83 120 9 29 14
58 10 64 -4 6 -3 8 3 5 12 -7 46 100 37 116 -4 7 -3 9 1 4 11 -10 35 47 35 83
0 29 -23 94 -31 86 -2 -2 -5 5 -5 17 -2 32 -29 119 -34 114 -3 -3 -6 15 -7 39
-2 48 -19 88 -33 79 -6 -4 -7 1 -3 11 5 13 3 15 -8 9 -8 -4 -11 -5 -7 -1 8 9
-28 82 -46 93 -6 4 -17 8 -25 10 -8 1 -35 24 -60 51 -44 48 -49 51 -131 66
-88 16 -107 28 -151 95 l-16 25 -102 -11 c-56 -7 -109 -17 -116 -23 -8 -7 -18
-9 -24 -6 -5 3 -11 1 -13 -6 -4 -10 -9 -8 -21 4 -26 26 -146 66 -218 73 -37 3
-104 1 -149 -5 -64 -9 -85 -9 -94 1 -8 9 -7 10 4 4 8 -5 11 -4 7 0 -4 5 -13
10 -20 11 -42 9 -133 39 -135 46 -5 11 -42 10 -42 -1z"/>
</g>
</svg>
