<?xml version="1.0" standalone="no"?>
<!DOCTYPE svg PUBLIC "-//W3C//DTD SVG 20010904//EN"
 "http://www.w3.org/TR/2001/REC-SVG-20010904/DTD/svg10.dtd">
<svg version="1.0" xmlns="http://www.w3.org/2000/svg"
 width="640.000000pt" height="512.000000pt" viewBox="0 0 640.000000 512.000000"
 preserveAspectRatio="xMidYMid meet">
<metadata>
Created by potrace 1.15, written by Peter Selinger 2001-2017
</metadata>
<g transform="translate(0.000000,512.000000) scale(0.100000,-0.100000)"
fill="#000000" stroke="none">
<path d="M3341 4198 c-6 -16 -25 -31 -54 -42 -34 -13 -54 -29 -80 -69 -20 -29
-38 -62 -42 -75 -4 -15 -17 -25 -36 -29 -33 -6 -73 -67 -114 -177 -14 -36 -42
-101 -63 -144 -21 -42 -49 -106 -62 -142 -14 -39 -53 -105 -96 -165 -40 -55
-93 -135 -118 -178 -25 -42 -86 -137 -135 -210 -49 -73 -101 -157 -116 -187
-15 -30 -46 -80 -70 -110 -23 -30 -68 -98 -100 -150 -31 -52 -74 -119 -94
-150 -41 -60 -159 -304 -188 -387 l-18 -53 28 -77 c15 -43 32 -103 38 -133 24
-113 152 -214 303 -241 62 -10 71 -10 137 15 52 19 89 26 144 26 l74 0 11 -42
c6 -24 16 -59 22 -78 7 -23 9 -108 4 -265 -7 -249 -3 -294 42 -434 l27 -83 77
-39 c43 -21 80 -39 83 -39 2 0 18 26 33 57 40 80 60 202 72 448 6 116 15 266
20 335 6 69 11 138 13 155 2 26 6 30 44 37 22 3 59 16 81 27 21 11 61 25 88
32 27 6 81 29 120 49 l70 38 70 -14 c56 -13 85 -13 158 -4 49 6 97 15 107 20
41 22 162 43 269 45 63 2 137 9 164 17 47 12 50 15 63 61 7 26 17 47 21 47 5
0 37 -10 72 -22 l63 -21 23 27 c18 20 40 29 96 40 68 13 76 13 111 -5 34 -18
40 -18 66 -5 45 24 107 105 127 169 17 55 17 59 0 114 -10 32 -34 80 -52 108
-27 39 -34 60 -34 97 l0 48 -61 31 -62 31 -166 -41 c-91 -23 -211 -48 -266
-55 -314 -45 -319 -46 -397 -83 l-78 -37 -24 23 -24 22 -153 -40 c-85 -22
-194 -47 -244 -57 -49 -9 -101 -22 -115 -29 -25 -13 -27 -11 -55 32 l-28 45
17 72 c10 46 16 114 16 193 0 112 2 126 29 185 52 117 101 330 101 441 0 47 7
72 39 135 40 80 72 199 112 421 20 111 21 131 10 202 -8 50 -25 107 -47 152
-19 39 -34 81 -34 93 0 12 -7 27 -15 34 -12 10 -16 8 -24 -12z m-498 -1539
c24 -11 25 -15 30 -148 4 -75 3 -179 -1 -231 -6 -88 -9 -96 -32 -107 -36 -17
-176 -50 -242 -58 l-58 -6 0 66 c0 56 5 76 39 143 21 42 53 111 71 152 23 55
48 92 93 138 34 34 65 62 69 62 4 0 18 -5 31 -11z"/>
</g>
</svg>
