<?xml version="1.0" standalone="no"?>
<!DOCTYPE svg PUBLIC "-//W3C//DTD SVG 20010904//EN"
 "http://www.w3.org/TR/2001/REC-SVG-20010904/DTD/svg10.dtd">
<svg version="1.0" xmlns="http://www.w3.org/2000/svg"
 width="640.000000pt" height="512.000000pt" viewBox="0 0 640.000000 512.000000"
 preserveAspectRatio="xMidYMid meet">
<metadata>
Created by potrace 1.15, written by Peter Selinger 2001-2017
</metadata>
<g transform="translate(0.000000,512.000000) scale(0.100000,-0.100000)"
fill="#000000" stroke="none">
<path d="M3500 3990 c-25 -4 -70 -10 -101 -14 -53 -7 -61 -12 -144 -89 -48
-44 -118 -119 -155 -165 -67 -83 -68 -85 -75 -161 -6 -72 -9 -79 -61 -147 -32
-42 -54 -81 -54 -96 0 -41 -28 -194 -59 -323 -16 -66 -35 -167 -41 -225 -8
-66 -22 -127 -37 -165 -18 -42 -28 -92 -34 -165 -15 -175 -30 -436 -35 -606
-5 -155 -4 -163 20 -217 13 -31 28 -81 31 -112 7 -56 8 -57 61 -83 l53 -26 58
50 c32 28 90 71 129 96 58 37 73 53 87 89 16 41 24 47 120 96 85 44 113 53
172 58 l70 6 51 -73 c59 -86 98 -184 115 -294 l12 -79 -36 -70 c-19 -39 -57
-91 -84 -117 l-48 -48 -155 -30 c-255 -49 -293 -52 -411 -36 -300 43 -410 77
-555 173 -29 19 -56 33 -61 30 -4 -3 -23 -35 -42 -70 l-35 -65 19 -62 c15 -49
27 -69 60 -96 31 -25 47 -48 61 -90 17 -49 27 -62 79 -99 103 -72 130 -84 216
-101 l83 -16 28 34 c15 18 28 36 28 41 0 4 21 -3 48 -16 47 -24 101 -40 195
-58 28 -5 66 -21 84 -35 27 -20 40 -24 61 -18 15 4 86 8 157 9 165 2 202 14
223 71 13 36 26 47 141 115 l126 75 5 85 c5 80 7 88 51 154 41 61 49 82 64
168 15 87 16 118 5 275 -13 189 -22 228 -90 402 -47 118 -96 205 -167 292 -48
59 -62 69 -132 98 l-79 31 -85 -26 c-53 -16 -105 -40 -141 -66 -31 -22 -91
-56 -134 -75 -42 -20 -85 -43 -95 -51 -9 -9 -20 -13 -25 -9 -4 4 -8 58 -10
120 -3 101 0 129 33 269 20 86 47 189 61 229 46 137 63 221 69 363 7 131 9
143 36 185 16 25 55 66 87 92 46 37 74 51 139 67 45 12 114 21 155 21 57 1 83
6 118 24 l45 24 56 -28 c76 -39 203 -70 283 -70 46 0 86 -8 133 -25 64 -24 72
-25 138 -14 81 13 194 46 213 62 10 8 12 28 7 80 -7 63 -5 70 16 94 l24 25
-31 26 c-41 36 -56 78 -52 148 l3 59 -69 -3 -70 -3 -36 42 -36 42 -71 -17
c-98 -22 -114 -21 -185 15 -60 30 -61 30 -142 20 -54 -7 -103 -7 -146 -1 -75
11 -244 11 -310 0z"/>
</g>
</svg>
