<?xml version="1.0" standalone="no"?>
<!DOCTYPE svg PUBLIC "-//W3C//DTD SVG 20010904//EN"
 "http://www.w3.org/TR/2001/REC-SVG-20010904/DTD/svg10.dtd">
<svg version="1.0" xmlns="http://www.w3.org/2000/svg"
 width="640.000000pt" height="512.000000pt" viewBox="0 0 640.000000 512.000000"
 preserveAspectRatio="xMidYMid meet">
<metadata>
Created by potrace 1.15, written by Peter Selinger 2001-2017
</metadata>
<g transform="translate(0.000000,512.000000) scale(0.100000,-0.100000)"
fill="#000000" stroke="none">
<path d="M3773 3823 c-143 -141 -231 -240 -307 -347 -34 -47 -80 -97 -114
-122 -58 -43 -121 -125 -200 -259 -22 -38 -63 -96 -89 -129 -123 -151 -175
-227 -243 -359 -40 -78 -84 -156 -98 -174 -13 -18 -33 -61 -43 -95 -11 -35
-40 -112 -65 -173 -45 -106 -49 -112 -110 -158 -54 -40 -64 -52 -64 -78 0 -17
-10 -52 -21 -80 -23 -52 -22 -67 7 -141 l18 -47 -28 -68 c-28 -67 -28 -68 -21
-233 9 -205 26 -274 92 -371 26 -38 64 -98 83 -133 19 -35 54 -88 78 -119 37
-48 53 -59 122 -87 78 -32 104 -33 196 -15 18 4 25 -3 38 -36 l17 -42 127 6
c137 6 194 18 323 69 l84 33 12 75 c6 41 23 118 37 170 30 110 33 200 11 360
-8 58 -15 132 -15 164 0 49 -6 70 -36 125 -21 36 -60 95 -89 131 -28 36 -66
90 -83 121 -29 51 -46 66 -185 158 -83 55 -163 110 -176 121 l-23 20 78 157
c65 132 87 167 138 218 34 33 106 123 160 200 55 77 137 190 182 250 77 102
83 115 89 172 6 51 11 63 31 72 13 5 34 26 46 45 20 31 32 37 96 51 l72 16 45
77 c38 65 45 85 45 131 0 30 7 81 17 114 15 57 15 62 -2 115 l-19 55 28 50
c23 41 25 52 14 62 -11 11 -112 45 -131 45 -3 0 -59 -53 -124 -117z m-866
-2158 c45 -14 146 -58 225 -98 l142 -72 28 -90 c33 -106 35 -172 11 -297 l-17
-88 -78 -46 -78 -46 -87 7 c-111 9 -197 50 -298 140 -62 56 -73 72 -97 137
-16 41 -28 81 -28 88 0 8 21 83 47 168 47 151 48 154 93 187 25 19 47 35 49
35 3 0 42 -11 88 -25z"/>
</g>
</svg>
