<?xml version="1.0" standalone="no"?>
<!DOCTYPE svg PUBLIC "-//W3C//DTD SVG 20010904//EN"
 "http://www.w3.org/TR/2001/REC-SVG-20010904/DTD/svg10.dtd">
<svg version="1.0" xmlns="http://www.w3.org/2000/svg"
 width="640.000000pt" height="512.000000pt" viewBox="0 0 640.000000 512.000000"
 preserveAspectRatio="xMidYMid meet">
<metadata>
Created by potrace 1.15, written by Peter Selinger 2001-2017
</metadata>
<g transform="translate(0.000000,512.000000) scale(0.100000,-0.100000)"
fill="#000000" stroke="none">
<path d="M3622 3864 c-5 -8 -43 -24 -86 -35 -63 -16 -87 -18 -134 -10 -180 31
-337 19 -440 -33 l-48 -25 -51 36 -51 35 -50 -16 c-64 -21 -137 -14 -214 21
l-57 26 -75 -27 c-69 -26 -80 -33 -121 -88 -46 -61 -108 -180 -120 -230 -5
-20 1 -41 25 -82 27 -48 37 -57 73 -66 23 -6 58 -16 77 -22 44 -14 1155 -20
1254 -7 47 6 96 6 155 -3 47 -7 177 -12 288 -12 112 -1 203 -2 203 -2 0 -1
-13 -32 -28 -70 -16 -38 -37 -103 -47 -144 -10 -41 -35 -110 -57 -153 -21 -43
-58 -128 -82 -190 -24 -62 -68 -168 -98 -237 -30 -69 -67 -157 -82 -197 -21
-54 -32 -72 -50 -77 -13 -3 -108 -12 -211 -21 -170 -14 -196 -14 -273 1 -82
15 -85 15 -146 -7 -33 -12 -67 -27 -73 -32 -9 -6 -13 -36 -13 -84 0 -74 0 -76
-39 -112 -37 -35 -39 -40 -66 -179 l-27 -142 42 -65 c23 -36 47 -65 54 -65 6
-1 98 -5 204 -9 106 -5 198 -13 203 -18 12 -12 -13 -153 -51 -283 -54 -181
-80 -327 -79 -440 1 -58 0 -116 -2 -130 -4 -24 -2 -25 52 -23 49 1 58 -1 62
-18 6 -22 15 -21 112 10 l49 16 47 108 c34 79 49 128 54 180 8 77 44 171 105
277 21 36 46 94 56 130 17 65 64 160 87 178 7 5 44 20 82 32 105 34 160 65
184 104 21 33 23 33 60 24 30 -8 52 -6 95 6 54 16 57 19 87 79 17 34 49 79 72
100 41 36 41 38 22 52 -59 42 -57 39 -50 87 6 39 12 47 41 62 45 21 35 36 -23
36 l-45 0 16 25 c15 23 15 25 -3 34 -14 8 -174 41 -197 41 -2 0 -4 54 -4 120
l0 121 51 75 c56 84 98 171 139 289 15 44 48 113 74 153 50 79 93 177 122 282
9 36 32 99 49 140 43 102 56 254 28 332 -11 30 -26 53 -38 58 -11 4 -76 15
-145 24 -69 10 -156 26 -195 37 l-70 20 -115 -44 -115 -45 -56 29 c-47 23 -78
30 -185 39 -71 7 -141 18 -156 26 -35 18 -45 18 -56 -2z"/>
</g>
</svg>
