<?xml version="1.0" standalone="no"?>
<!DOCTYPE svg PUBLIC "-//W3C//DTD SVG 20010904//EN"
 "http://www.w3.org/TR/2001/REC-SVG-20010904/DTD/svg10.dtd">
<svg version="1.0" xmlns="http://www.w3.org/2000/svg"
 width="640.000000pt" height="512.000000pt" viewBox="0 0 640.000000 512.000000"
 preserveAspectRatio="xMidYMid meet">
<metadata>
Created by potrace 1.15, written by Peter Selinger 2001-2017
</metadata>
<g transform="translate(0.000000,512.000000) scale(0.100000,-0.100000)"
fill="#000000" stroke="none">
<path d="M3094 3841 c-10 -17 -22 -31 -27 -31 -4 0 -6 -4 -3 -8 7 -12 -5 -25
-43 -46 -19 -10 -42 -27 -53 -38 -10 -10 -23 -16 -29 -13 -5 4 -8 2 -7 -3 4
-14 -52 -63 -63 -56 -5 3 -8 2 -7 -3 4 -12 -53 -68 -66 -65 -6 2 -8 1 -5 -3 8
-8 -40 -61 -52 -57 -5 1 -8 -1 -7 -5 2 -5 -5 -18 -16 -29 -65 -76 -74 -88
-104 -146 -7 -16 -17 -28 -22 -28 -5 0 -16 -18 -26 -40 -10 -21 -20 -37 -24
-35 -3 2 -7 -6 -7 -17 -1 -12 -6 -24 -11 -27 -5 -3 -19 -42 -31 -86 -12 -44
-26 -89 -31 -100 -12 -28 -28 -116 -36 -203 -7 -75 11 -222 27 -222 5 0 6 -7
3 -15 -4 -8 -2 -21 4 -28 13 -16 52 -129 52 -150 0 -18 -42 -67 -57 -67 -5 0
-18 -9 -28 -20 -10 -11 -22 -20 -26 -20 -4 0 -18 -10 -31 -23 -15 -14 -48 -28
-90 -37 -38 -7 -68 -17 -68 -21 0 -3 -10 -9 -22 -12 -37 -8 -128 -45 -143 -57
-8 -6 -17 -26 -21 -43 -10 -47 -81 -197 -94 -197 -5 0 -10 -5 -10 -10 0 -6 -8
-23 -17 -37 -21 -32 -42 -105 -43 -148 -1 -71 48 -229 78 -248 6 -4 12 -28 12
-53 0 -55 12 -80 42 -87 13 -4 32 -14 44 -24 29 -26 76 -58 97 -66 9 -3 17
-11 17 -17 0 -6 26 -10 62 -10 36 0 68 -5 77 -13 9 -7 35 -20 59 -27 47 -15
72 -42 72 -77 0 -13 11 -29 25 -39 14 -9 25 -22 25 -29 0 -15 33 -45 50 -45 7
0 21 7 30 15 15 13 25 12 94 -11 48 -16 89 -38 111 -59 19 -17 37 -30 40 -27
3 3 5 -1 5 -9 0 -23 61 -76 95 -83 17 -3 93 -10 170 -16 152 -12 252 -28 261
-41 3 -5 43 -9 89 -9 46 0 112 -7 147 -15 35 -8 93 -17 131 -21 37 -4 67 -11
67 -15 0 -5 11 -9 24 -9 13 0 29 -7 36 -15 7 -8 18 -15 26 -15 7 0 16 -5 20
-12 5 -7 3 -8 -6 -3 -9 5 -11 4 -6 -3 8 -13 56 -16 56 -4 0 17 75 43 137 49
35 3 66 10 69 14 3 5 14 9 25 9 11 0 23 8 26 18 4 9 9 19 13 22 10 8 49 141
56 193 4 26 11 47 15 47 5 0 9 14 9 30 0 17 -4 30 -9 30 -5 0 -13 10 -16 23
-10 32 -49 131 -55 137 -3 3 -12 18 -20 34 -8 16 -23 34 -33 40 -10 6 -40 32
-67 57 -31 30 -62 49 -85 53 -33 7 -35 9 -35 49 0 53 -6 62 -55 84 -22 10 -54
32 -72 48 -17 17 -49 46 -70 65 -39 36 -89 110 -125 188 -11 23 -23 42 -27 42
-15 0 -11 58 4 64 8 3 20 17 25 31 6 15 15 23 20 20 6 -4 9 -3 8 2 -4 14 56
73 74 73 9 0 29 -11 43 -25 21 -19 34 -23 58 -18 18 3 34 10 38 14 8 13 183
48 272 56 42 3 77 10 77 14 0 5 16 9 35 9 40 0 115 34 115 52 0 6 3 9 6 6 3
-4 22 5 41 18 20 13 42 24 49 24 7 0 19 6 26 13 15 14 60 32 138 55 30 8 57
19 60 24 3 4 37 17 75 29 39 12 73 26 76 31 3 5 8 9 10 7 11 -7 111 35 117 50
5 13 32 46 68 82 5 5 37 31 72 59 34 28 62 57 62 64 0 7 9 24 20 36 22 25 64
110 62 123 -1 4 2 7 7 7 5 0 11 40 13 89 2 74 7 95 26 121 21 28 27 75 12 90
-12 12 -40 82 -40 100 0 11 -4 20 -9 20 -4 0 -6 11 -3 25 2 15 0 25 -7 25 -6
0 -11 10 -11 23 0 21 -88 117 -107 117 -5 0 -18 8 -29 19 -39 36 -186 89 -169
60 4 -5 -1 -9 -9 -9 -8 0 -23 -11 -33 -23 -25 -33 -55 -47 -98 -47 -97 0 -245
-37 -245 -61 0 -6 -5 -7 -12 -3 -6 4 -8 3 -5 -3 6 -10 -33 -74 -63 -103 -8 -9
-34 -25 -58 -35 -46 -22 -55 -40 -50 -101 l3 -39 107 -5 c58 -3 112 -11 120
-17 10 -9 163 -53 183 -53 12 0 3 -25 -22 -66 -27 -42 -30 -43 -81 -44 -69 0
-252 -31 -252 -42 0 -4 -6 -8 -14 -8 -16 0 -109 -40 -116 -50 -3 -4 -30 -18
-60 -30 -30 -13 -60 -29 -66 -36 -19 -24 -59 -33 -100 -23 -24 5 -62 5 -99 -1
-90 -15 -209 -43 -215 -50 -11 -15 -132 -39 -222 -46 -70 -5 -98 -11 -102 -21
-3 -8 -11 -11 -17 -7 -7 4 -9 3 -6 -3 4 -6 -4 -18 -18 -27 -23 -15 -43 -16
-198 -6 -164 10 -217 22 -217 49 0 4 -12 13 -26 19 -14 7 -22 17 -19 22 4 6 1
9 -6 8 -19 -4 -41 142 -35 232 7 90 32 211 46 220 5 3 17 30 25 58 10 33 20
50 27 46 6 -4 8 -3 5 3 -8 12 50 79 65 75 5 -1 7 2 3 8 -3 5 -2 10 4 10 5 0
13 9 16 21 4 12 26 29 51 40 24 11 49 25 56 32 7 7 37 24 66 37 28 14 52 28
52 31 0 3 26 18 58 32 l59 27 91 -15 c88 -14 142 -31 142 -45 0 -3 23 -14 50
-24 28 -10 55 -26 60 -36 5 -10 25 -27 45 -39 24 -14 37 -30 41 -51 4 -16 10
-30 14 -30 11 0 30 -107 30 -172 0 -44 5 -63 19 -77 11 -11 17 -21 15 -24 -2
-2 2 -10 11 -17 23 -19 18 -45 -15 -82 -44 -48 -40 -58 25 -58 30 0 55 4 55 8
0 5 18 17 39 27 35 15 46 30 92 121 29 57 58 105 66 108 7 3 13 10 13 17 0 6
9 22 20 36 11 14 20 36 20 49 0 12 5 24 12 26 17 6 17 170 0 176 -6 2 -12 13
-12 23 0 31 -37 106 -66 132 -19 18 -27 37 -31 73 -8 93 -8 93 -74 111 -51 14
-63 22 -71 45 -6 15 -14 28 -18 28 -5 0 -10 10 -12 23 -3 24 13 21 -269 46
-91 9 -139 9 -176 1 -40 -9 -67 -8 -124 4 -41 8 -122 18 -180 21 l-107 7 -18
-31z m-183 -2001 c36 -11 108 -47 159 -78 l93 -57 23 -80 c29 -100 29 -112 1
-205 l-23 -75 -94 -3 c-52 -1 -112 1 -134 7 -163 38 -228 73 -392 213 -91 78
-94 85 -54 153 10 17 20 42 24 56 5 22 20 32 98 62 82 32 101 36 163 32 39 -2
100 -13 136 -25z"/>
</g>
</svg>
