<?xml version="1.0" standalone="no"?>
<!DOCTYPE svg PUBLIC "-//W3C//DTD SVG 20010904//EN"
 "http://www.w3.org/TR/2001/REC-SVG-20010904/DTD/svg10.dtd">
<svg version="1.0" xmlns="http://www.w3.org/2000/svg"
 width="640.000000pt" height="512.000000pt" viewBox="0 0 640.000000 512.000000"
 preserveAspectRatio="xMidYMid meet">
<metadata>
Created by potrace 1.15, written by Peter Selinger 2001-2017
</metadata>
<g transform="translate(0.000000,512.000000) scale(0.100000,-0.100000)"
fill="#000000" stroke="none">
<path d="M2848 4264 c-3 -5 -8 -22 -12 -37 -5 -23 -20 -34 -79 -61 -62 -28
-78 -41 -111 -89 -21 -31 -61 -75 -87 -97 -49 -41 -49 -42 -49 -101 0 -58 -2
-63 -70 -157 -38 -53 -106 -160 -150 -238 -76 -134 -80 -144 -80 -203 0 -46
-7 -77 -28 -124 -56 -122 -65 -187 -58 -395 11 -320 17 -369 53 -438 21 -41
50 -75 90 -108 38 -31 68 -67 86 -102 27 -54 27 -54 75 -54 37 0 71 -12 160
-56 l113 -57 72 11 c40 6 108 14 152 18 130 10 223 31 278 63 29 16 75 35 102
41 32 7 57 20 70 36 12 15 40 30 71 38 l51 13 6 -116 c5 -84 3 -132 -7 -176
-8 -33 -18 -92 -21 -131 -7 -64 -4 -81 21 -155 27 -79 29 -93 27 -229 -1 -100
-8 -179 -22 -255 -24 -128 -27 -243 -7 -348 8 -41 18 -107 22 -146 3 -39 10
-74 15 -77 5 -3 41 12 81 33 63 33 74 43 83 75 5 20 13 39 17 43 3 3 29 -5 57
-19 28 -14 53 -26 56 -26 10 0 62 125 88 211 34 113 57 230 57 293 0 28 7 98
15 156 8 58 15 173 15 257 0 83 4 163 10 178 5 14 26 105 45 203 19 97 47 211
62 253 l27 77 -32 113 c-28 99 -32 129 -32 234 0 65 5 167 12 225 l12 106 -39
105 -38 104 21 60 c19 51 22 82 22 205 0 79 5 193 12 252 11 95 10 121 -6 216
-10 59 -22 111 -26 116 -11 11 -92 -21 -141 -56 -21 -15 -41 -28 -45 -28 -3 0
-31 20 -62 44 -32 24 -77 54 -102 66 -25 13 -55 31 -68 41 -13 10 -49 23 -80
29 -91 18 -89 17 -99 68 l-8 47 -160 6 c-97 4 -181 12 -213 22 -63 18 -217 33
-224 21z m337 -424 c28 -17 93 -52 145 -79 79 -41 103 -60 142 -109 26 -32 64
-70 83 -83 33 -22 36 -27 32 -64 -2 -22 -12 -61 -22 -86 l-18 -45 37 -55 c20
-29 36 -63 36 -74 0 -11 7 -73 16 -138 17 -116 17 -120 -6 -250 l-23 -132 -50
-52 c-39 -41 -59 -53 -91 -58 -23 -4 -108 -23 -191 -43 -147 -36 -153 -37
-340 -36 l-190 1 -95 39 c-94 39 -95 39 -127 99 -38 71 -73 169 -73 204 0 51
40 183 109 358 105 269 129 317 219 428 136 167 131 163 207 190 85 30 129 26
200 -15z"/>
</g>
</svg>
