<?xml version="1.0" standalone="no"?>
<!DOCTYPE svg PUBLIC "-//W3C//DTD SVG 20010904//EN"
 "http://www.w3.org/TR/2001/REC-SVG-20010904/DTD/svg10.dtd">
<svg version="1.0" xmlns="http://www.w3.org/2000/svg"
 width="640.000000pt" height="512.000000pt" viewBox="0 0 640.000000 512.000000"
 preserveAspectRatio="xMidYMid meet">
<metadata>
Created by potrace 1.15, written by Peter Selinger 2001-2017
</metadata>
<g transform="translate(0.000000,512.000000) scale(0.100000,-0.100000)"
fill="#000000" stroke="none">
<path d="M3132 3541 c-38 -5 -46 -12 -82 -66 -44 -67 -47 -81 -24 -140 15 -41
15 -42 -20 -102 -34 -58 -36 -66 -36 -152 l0 -91 46 -72 c47 -73 54 -90 74
-166 9 -37 17 -45 62 -68 45 -23 59 -25 111 -19 75 8 98 17 154 60 76 58 100
99 114 196 12 83 11 90 -20 225 -21 90 -45 165 -69 213 -35 71 -40 76 -90 94
-45 17 -56 26 -69 59 -15 37 -17 38 -62 36 -25 0 -65 -4 -89 -7z"/>
<path d="M3038 1933 c-31 -32 -99 -122 -151 -199 -73 -110 -98 -157 -113 -210
-10 -38 -67 -166 -126 -284 -59 -118 -108 -222 -108 -230 0 -23 93 -150 110
-150 9 0 42 10 75 23 54 21 62 28 93 82 72 128 124 194 184 239 73 54 132 130
190 246 l43 85 3 180 3 180 -58 48 c-32 26 -65 47 -73 47 -9 0 -41 -26 -72
-57z"/>
</g>
</svg>
