<?xml version="1.0" standalone="no"?>
<!DOCTYPE svg PUBLIC "-//W3C//DTD SVG 20010904//EN"
 "http://www.w3.org/TR/2001/REC-SVG-20010904/DTD/svg10.dtd">
<svg version="1.0" xmlns="http://www.w3.org/2000/svg"
 width="640.000000pt" height="512.000000pt" viewBox="0 0 640.000000 512.000000"
 preserveAspectRatio="xMidYMid meet">
<metadata>
Created by potrace 1.15, written by Peter Selinger 2001-2017
</metadata>
<g transform="translate(0.000000,512.000000) scale(0.100000,-0.100000)"
fill="#000000" stroke="none">
<path d="M3047 3538 c-34 -48 -37 -59 -37 -120 0 -50 -7 -86 -30 -145 -16 -42
-30 -88 -30 -100 0 -13 22 -67 49 -121 39 -79 50 -111 56 -172 7 -67 12 -80
49 -127 22 -29 48 -53 58 -53 24 0 165 53 236 89 l59 30 16 75 c9 42 20 114
23 159 l7 84 -58 154 c-53 142 -62 158 -113 211 -58 60 -76 67 -198 83 l-50 7
-37 -54z"/>
<path d="M3144 1953 c-35 -3 -48 -11 -81 -51 -22 -26 -57 -76 -77 -112 l-38
-65 4 -162 4 -161 51 -79 c28 -43 65 -103 82 -134 33 -61 40 -64 131 -74 51
-6 59 -4 118 33 72 45 107 89 147 185 l29 69 -12 107 c-7 59 -12 127 -12 151
0 30 -12 74 -36 130 -35 84 -38 87 -104 128 -71 44 -83 46 -206 35z"/>
</g>
</svg>
