<?xml version="1.0" standalone="no"?>
<!DOCTYPE svg PUBLIC "-//W3C//DTD SVG 20010904//EN"
 "http://www.w3.org/TR/2001/REC-SVG-20010904/DTD/svg10.dtd">
<svg version="1.0" xmlns="http://www.w3.org/2000/svg"
 width="640.000000pt" height="512.000000pt" viewBox="0 0 640.000000 512.000000"
 preserveAspectRatio="xMidYMid meet">
<metadata>
Created by potrace 1.15, written by Peter Selinger 2001-2017
</metadata>
<g transform="translate(0.000000,512.000000) scale(0.100000,-0.100000)"
fill="#000000" stroke="none">
<path d="M3532 3127 c-6 -7 -12 -33 -14 -57 -3 -42 -6 -46 -52 -71 -27 -15
-84 -34 -127 -44 -71 -15 -81 -20 -113 -60 -30 -36 -49 -48 -114 -69 l-78 -26
-75 -96 c-41 -52 -81 -104 -89 -115 -11 -14 -37 -22 -95 -30 -72 -10 -85 -15
-137 -57 -32 -26 -76 -72 -98 -104 -40 -56 -40 -57 -40 -147 0 -75 5 -102 25
-151 19 -46 25 -77 25 -137 0 -74 2 -80 36 -123 39 -50 99 -91 218 -152 43
-22 106 -61 140 -87 122 -93 128 -95 214 -83 52 7 93 7 133 0 57 -10 72 -21
120 -90 3 -4 45 -15 93 -24 85 -16 91 -16 165 4 44 11 93 18 117 15 l41 -5 7
59 c5 32 12 114 17 183 4 69 11 141 15 161 6 35 5 36 -43 54 -26 10 -95 41
-153 70 -58 29 -139 61 -180 70 -41 10 -106 31 -145 47 -38 16 -106 38 -150
49 -60 15 -86 27 -102 47 -13 15 -23 32 -23 37 0 6 21 23 48 40 26 16 76 55
112 85 36 31 83 69 105 85 22 16 75 61 117 98 60 54 93 75 150 95 l73 27 37
75 c31 64 37 85 37 145 1 38 -6 104 -15 146 l-17 76 -74 36 c-80 40 -95 44
-111 24z"/>
</g>
</svg>
