<?xml version="1.0" standalone="no"?>
<!DOCTYPE svg PUBLIC "-//W3C//DTD SVG 20010904//EN"
 "http://www.w3.org/TR/2001/REC-SVG-20010904/DTD/svg10.dtd">
<svg version="1.0" xmlns="http://www.w3.org/2000/svg"
 width="640.000000pt" height="512.000000pt" viewBox="0 0 640.000000 512.000000"
 preserveAspectRatio="xMidYMid meet">
<metadata>
Created by potrace 1.15, written by Peter Selinger 2001-2017
</metadata>
<g transform="translate(0.000000,512.000000) scale(0.100000,-0.100000)"
fill="#000000" stroke="none">
<path d="M3953 2949 c-6 -6 -28 -15 -49 -20 -36 -9 -99 -14 -494 -39 -74 -4
-160 -15 -190 -24 -55 -15 -55 -15 -137 15 l-83 31 -69 -25 c-39 -15 -114 -33
-168 -42 -76 -12 -112 -24 -170 -56 l-73 -40 0 -59 c0 -54 38 -188 60 -213 5
-5 39 -4 76 2 59 9 79 8 147 -10 107 -27 174 -14 230 44 l38 39 48 -45 c73
-68 80 -71 169 -53 42 8 108 18 147 22 41 4 94 18 130 34 33 14 90 34 128 43
l67 17 71 -36 c39 -19 75 -32 80 -27 4 4 30 36 56 70 26 34 74 82 106 108 62
52 64 57 43 145 -12 53 -15 56 -77 93 -71 41 -71 41 -86 26z"/>
<path d="M3420 2233 c-68 -10 -351 -76 -390 -90 -32 -12 -70 -16 -130 -15
-111 3 -257 -30 -271 -62 -11 -21 -86 -63 -104 -57 -5 1 -7 0 -3 -4 7 -7 -27
-45 -41 -45 -13 0 -21 -40 -8 -40 14 -1 73 -81 69 -93 -1 -5 2 -6 8 -2 5 3 13
-2 17 -12 4 -10 22 -42 42 -71 l35 -54 45 7 c117 16 229 48 281 80 53 32 57
33 110 23 29 -5 70 -18 90 -28 20 -10 73 -24 119 -30 81 -11 82 -11 134 19 29
16 80 34 114 40 97 18 258 98 323 162 47 45 59 64 73 117 21 78 19 81 -94 122
-78 29 -85 30 -158 20 -61 -8 -87 -7 -131 5 -54 14 -80 16 -130 8z"/>
</g>
</svg>
