<?xml version="1.0" standalone="no"?>
<!DOCTYPE svg PUBLIC "-//W3C//DTD SVG 20010904//EN"
 "http://www.w3.org/TR/2001/REC-SVG-20010904/DTD/svg10.dtd">
<svg version="1.0" xmlns="http://www.w3.org/2000/svg"
 width="640.000000pt" height="512.000000pt" viewBox="0 0 640.000000 512.000000"
 preserveAspectRatio="xMidYMid meet">
<metadata>
Created by potrace 1.15, written by Peter Selinger 2001-2017
</metadata>
<g transform="translate(0.000000,512.000000) scale(0.100000,-0.100000)"
fill="#000000" stroke="none">
<path d="M2861 3091 c-17 -21 -31 -48 -31 -58 0 -44 35 -131 79 -197 26 -39
66 -105 89 -146 37 -67 52 -83 145 -152 100 -75 106 -78 181 -88 88 -13 219
-67 230 -96 12 -31 -44 -95 -129 -146 -43 -26 -103 -71 -134 -101 -34 -33 -86
-70 -131 -92 -41 -21 -102 -61 -135 -90 -33 -29 -92 -68 -131 -88 l-71 -36
-17 -65 c-23 -94 -21 -107 32 -177 27 -35 59 -89 71 -120 20 -52 25 -57 59
-63 89 -14 101 -11 371 101 l154 64 84 85 c45 47 83 92 83 99 0 9 21 16 61 20
l61 7 25 57 c14 31 33 85 42 121 l17 65 90 11 c108 12 194 34 194 48 0 6 -15
21 -34 34 l-34 23 24 55 c40 90 29 259 -26 401 -21 52 -31 65 -82 97 -37 25
-89 46 -145 61 -80 20 -273 94 -341 129 -15 8 -52 35 -82 60 -30 26 -61 51
-69 58 -8 6 -86 35 -175 64 -88 28 -183 61 -209 73 -67 29 -81 27 -116 -18z"/>
</g>
</svg>
