<?xml version="1.0" standalone="no"?>
<!DOCTYPE svg PUBLIC "-//W3C//DTD SVG 20010904//EN"
 "http://www.w3.org/TR/2001/REC-SVG-20010904/DTD/svg10.dtd">
<svg version="1.0" xmlns="http://www.w3.org/2000/svg"
 width="640.000000pt" height="512.000000pt" viewBox="0 0 640.000000 512.000000"
 preserveAspectRatio="xMidYMid meet">
<metadata>
Created by potrace 1.15, written by Peter Selinger 2001-2017
</metadata>
<g transform="translate(0.000000,512.000000) scale(0.100000,-0.100000)"
fill="#000000" stroke="none">
<path d="M3445 4355 c-6 -9 -75 -40 -155 -70 l-144 -55 -92 -91 -92 -92 -7
-115 -8 -114 56 -52 c47 -42 64 -68 101 -151 24 -55 50 -101 57 -103 8 -1 59
29 114 68 55 39 115 75 135 80 109 29 447 110 461 110 36 0 42 -24 29 -117
-11 -75 -21 -102 -66 -183 -76 -138 -138 -215 -329 -412 -169 -175 -171 -176
-368 -302 -109 -70 -250 -152 -313 -184 l-116 -57 6 -85 c9 -138 20 -179 79
-303 l57 -118 -50 -74 c-28 -41 -50 -81 -50 -89 0 -9 39 -42 88 -74 l87 -59
38 -124 c20 -68 40 -126 45 -130 8 -7 282 -79 300 -79 9 0 12 40 12 139 l0
139 -61 104 c-73 123 -149 272 -149 292 0 7 20 38 43 67 24 30 55 83 69 119
l26 65 76 10 c71 9 78 13 123 57 32 31 78 61 136 87 104 48 194 124 342 291
53 60 128 132 165 161 51 39 71 60 76 83 3 17 35 119 70 227 35 108 64 207 64
221 0 53 -75 265 -159 450 -48 106 -93 207 -99 223 -12 28 -42 52 -212 172
-39 28 -64 35 -196 57 -178 30 -176 30 -189 11z"/>
<path d="M2931 972 l-105 -89 -23 -104 c-34 -157 -44 -139 115 -218 177 -89
291 -136 302 -125 16 17 100 233 100 256 -1 13 -11 68 -24 123 l-22 100 -115
72 c-63 40 -116 73 -119 73 -3 0 -52 -40 -109 -88z"/>
</g>
</svg>
