<?xml version="1.0" standalone="no"?>
<!DOCTYPE svg PUBLIC "-//W3C//DTD SVG 20010904//EN"
 "http://www.w3.org/TR/2001/REC-SVG-20010904/DTD/svg10.dtd">
<svg version="1.0" xmlns="http://www.w3.org/2000/svg"
 width="640.000000pt" height="512.000000pt" viewBox="0 0 640.000000 512.000000"
 preserveAspectRatio="xMidYMid meet">
<metadata>
Created by potrace 1.15, written by Peter Selinger 2001-2017
</metadata>
<g transform="translate(0.000000,512.000000) scale(0.100000,-0.100000)"
fill="#000000" stroke="none">
<path d="M3213 2986 c-46 -42 -56 -46 -144 -61 -57 -10 -100 -23 -111 -33 -45
-46 -212 -239 -279 -323 -75 -94 -76 -94 -97 -199 -16 -75 -37 -136 -74 -212
l-52 -107 28 -68 c26 -63 27 -72 21 -172 -6 -95 -4 -119 23 -236 26 -117 35
-142 95 -245 36 -63 106 -166 154 -228 77 -98 105 -124 217 -207 107 -78 138
-96 185 -106 31 -6 92 -20 136 -30 59 -14 118 -19 225 -19 l145 0 114 70 115
69 62 113 c35 62 63 120 64 129 0 9 -18 65 -40 124 -22 59 -40 113 -40 119 0
6 30 47 66 91 l65 80 -6 115 c-6 104 -4 125 19 217 14 56 26 110 26 119 0 10
-48 144 -106 298 -105 276 -109 283 -200 416 l-93 135 -119 68 c-92 52 -144
75 -228 97 -60 17 -112 30 -115 30 -4 0 -29 -20 -56 -44z m368 -281 l87 -60
50 -170 c53 -178 92 -340 92 -381 0 -19 -10 -29 -46 -47 l-46 -22 -76 40 c-41
22 -94 52 -116 66 -83 53 -100 55 -247 26 -73 -15 -136 -30 -140 -34 -4 -5
-33 -64 -64 -133 l-57 -125 7 -130 7 -130 42 -48 c151 -175 149 -173 280 -222
66 -26 131 -51 144 -56 17 -6 51 -2 124 16 55 14 102 24 105 21 11 -10 -101
-189 -149 -239 -37 -39 -62 -48 -290 -107 -33 -9 -46 -6 -119 30 -46 22 -91
40 -100 40 -10 0 -35 17 -57 37 -54 53 -152 281 -203 473 -38 143 -39 147 -39
331 0 167 3 198 29 316 l28 130 88 129 c87 129 88 130 213 217 90 63 133 87
155 87 28 0 64 9 122 30 27 9 72 -12 176 -85z m-58 -798 c23 -70 27 -101 27
-195 0 -125 3 -120 -84 -141 -27 -7 -68 -25 -92 -42 -51 -35 -60 -36 -67 -8
-3 12 -10 18 -16 14 -11 -6 -17 61 -13 127 2 27 107 229 144 277 16 21 51 47
68 50 3 1 18 -36 33 -82z"/>
</g>
</svg>
