<?xml version="1.0" standalone="no"?>
<!DOCTYPE svg PUBLIC "-//W3C//DTD SVG 20010904//EN"
 "http://www.w3.org/TR/2001/REC-SVG-20010904/DTD/svg10.dtd">
<svg version="1.0" xmlns="http://www.w3.org/2000/svg"
 width="640.000000pt" height="512.000000pt" viewBox="0 0 640.000000 512.000000"
 preserveAspectRatio="xMidYMid meet">
<metadata>
Created by potrace 1.15, written by Peter Selinger 2001-2017
</metadata>
<g transform="translate(0.000000,512.000000) scale(0.100000,-0.100000)"
fill="#000000" stroke="none">
<path d="M2801 4025 c-167 -44 -243 -59 -419 -79 -118 -14 -216 -27 -218 -29
-3 -2 -28 -87 -58 -188 l-54 -184 -16 -305 c-25 -461 -23 -540 21 -852 l37
-266 -44 -236 -44 -236 39 -121 39 -120 -39 -233 -39 -233 48 -56 c47 -56 120
-122 228 -211 l58 -46 293 -44 c238 -36 349 -48 586 -61 161 -9 295 -15 296
-13 10 10 116 390 112 401 -8 22 -431 97 -602 108 -82 5 -168 14 -190 19 -22
5 -103 15 -180 21 -77 6 -143 14 -146 17 -22 24 -49 395 -49 675 0 236 -19
521 -61 907 -18 169 -20 229 -15 450 7 247 7 256 29 275 12 11 99 66 192 122
l170 102 255 -40 255 -40 143 20 c79 10 145 21 148 24 7 7 -204 350 -234 378
-25 24 -295 130 -326 128 -6 0 -103 -25 -215 -54z"/>
</g>
</svg>
