<?xml version="1.0" standalone="no"?>
<!DOCTYPE svg PUBLIC "-//W3C//DTD SVG 20010904//EN"
 "http://www.w3.org/TR/2001/REC-SVG-20010904/DTD/svg10.dtd">
<svg version="1.0" xmlns="http://www.w3.org/2000/svg"
 width="640.000000pt" height="512.000000pt" viewBox="0 0 640.000000 512.000000"
 preserveAspectRatio="xMidYMid meet">
<metadata>
Created by potrace 1.15, written by Peter Selinger 2001-2017
</metadata>
<g transform="translate(0.000000,512.000000) scale(0.100000,-0.100000)"
fill="#000000" stroke="none">
<path d="M2562 3838 c-6 -6 -12 -23 -12 -37 0 -15 -10 -67 -22 -118 l-22 -92
21 -23 c71 -77 137 -136 203 -184 41 -30 95 -72 120 -94 44 -38 52 -41 289
-95 l243 -55 217 0 218 0 21 -152 c12 -84 22 -169 22 -189 0 -19 -23 -91 -51
-160 -27 -68 -83 -218 -123 -334 -41 -115 -95 -263 -121 -327 l-47 -117 91
-288 c50 -158 91 -293 91 -300 0 -6 -44 -52 -97 -103 -84 -79 -114 -101 -217
-152 l-120 -60 -295 7 -296 7 -90 -158 c-49 -87 -91 -163 -92 -168 -2 -6 30
-31 70 -55 39 -24 116 -71 169 -103 l97 -60 218 36 c120 20 323 47 452 61
l235 25 173 113 173 112 0 41 c0 40 -39 556 -61 809 -13 147 -10 177 44 410
19 83 45 224 57 315 20 158 24 172 92 345 39 99 118 289 174 422 57 133 104
247 104 252 0 6 -42 90 -92 186 l-93 175 -309 0 c-335 0 -865 29 -996 55 -41
8 -142 24 -225 35 -82 11 -161 23 -175 26 -14 2 -31 -1 -38 -8z"/>
</g>
</svg>
