<?xml version="1.0" standalone="no"?>
<!DOCTYPE svg PUBLIC "-//W3C//DTD SVG 20010904//EN"
 "http://www.w3.org/TR/2001/REC-SVG-20010904/DTD/svg10.dtd">
<svg version="1.0" xmlns="http://www.w3.org/2000/svg"
 width="640.000000pt" height="512.000000pt" viewBox="0 0 640.000000 512.000000"
 preserveAspectRatio="xMidYMid meet">
<metadata>
Created by potrace 1.15, written by Peter Selinger 2001-2017
</metadata>
<g transform="translate(0.000000,512.000000) scale(0.100000,-0.100000)"
fill="#000000" stroke="none">
<path d="M3370 3434 c0 -5 -40 -52 -88 -104 -49 -52 -106 -122 -129 -155 -55
-83 -135 -293 -183 -484 -33 -134 -40 -176 -40 -258 l1 -98 51 -38 c29 -20 59
-37 68 -37 8 0 36 26 61 58 37 45 50 72 64 132 26 110 74 222 158 372 41 73
82 160 91 193 17 60 36 85 66 85 18 0 72 -137 91 -230 6 -31 28 -82 51 -118
35 -57 128 -275 128 -301 0 -6 19 -62 41 -123 43 -115 104 -208 138 -208 18 0
91 107 91 134 0 9 -14 44 -31 78 -17 34 -50 129 -74 212 -48 167 -87 275 -135
381 -18 39 -40 102 -50 140 -14 62 -125 285 -172 347 -10 14 -34 19 -105 24
-54 4 -93 3 -93 -2z"/>
</g>
</svg>
