<?xml version="1.0" standalone="no"?>
<!DOCTYPE svg PUBLIC "-//W3C//DTD SVG 20010904//EN"
 "http://www.w3.org/TR/2001/REC-SVG-20010904/DTD/svg10.dtd">
<svg version="1.0" xmlns="http://www.w3.org/2000/svg"
 width="640.000000pt" height="512.000000pt" viewBox="0 0 640.000000 512.000000"
 preserveAspectRatio="xMidYMid meet">
<metadata>
Created by potrace 1.15, written by Peter Selinger 2001-2017
</metadata>
<g transform="translate(0.000000,512.000000) scale(0.100000,-0.100000)"
fill="#000000" stroke="none">
<path d="M3996 759 c5 -8 -1 -10 -19 -7 -15 3 -24 1 -21 -3 3 -5 -4 -9 -15 -9
-12 0 -21 -5 -21 -11 0 -7 -10 -9 -27 -5 -18 4 -23 3 -15 -2 17 -11 -52 -27
-70 -16 -7 4 -8 3 -4 -4 5 -9 -12 -12 -59 -12 -45 0 -64 -3 -60 -11 5 -7 -19
-10 -78 -7 -48 2 -83 -1 -80 -6 3 -5 -8 -7 -25 -4 -17 2 -28 0 -25 -5 3 -5
-11 -7 -30 -6 -19 2 -42 -3 -50 -10 -11 -8 -38 -12 -81 -9 -35 1 -62 -1 -59
-5 3 -5 -45 -7 -105 -5 -61 2 -108 0 -105 -4 2 -5 -32 -8 -76 -8 -52 0 -81 -4
-81 -11 0 -7 -20 -10 -54 -7 -30 1 -52 -1 -49 -6 3 -4 -17 -7 -45 -5 -27 2
-48 1 -46 -2 2 -4 -28 -10 -66 -14 -42 -4 -67 -11 -64 -17 4 -6 -18 -9 -59 -6
-36 1 -63 -1 -60 -5 3 -5 -19 -7 -50 -5 -30 1 -53 0 -50 -4 2 -5 -1 -8 -8 -8
-6 0 -17 -7 -23 -15 -6 -9 -22 -17 -34 -18 -12 -1 -21 -6 -18 -12 2 -6 -7 -16
-20 -22 -18 -8 -23 -8 -18 0 3 7 0 5 -8 -4 -7 -8 -21 -18 -30 -22 -30 -11 -15
-62 18 -62 9 0 22 -9 28 -20 6 -11 18 -25 26 -32 13 -11 12 -12 -5 -6 -16 6
-15 2 7 -22 23 -24 34 -29 68 -27 22 2 40 -2 40 -8 0 -6 24 -10 56 -10 30 0
53 -3 51 -8 -3 -4 29 -6 70 -4 52 3 73 0 69 -7 -5 -8 25 -11 99 -11 74 0 104
3 99 11 -4 7 14 10 59 7 37 -2 63 1 60 6 -3 5 6 7 21 4 14 -3 26 -1 26 5 0 5
9 7 21 4 16 -4 19 -2 15 10 -5 12 -1 14 19 11 16 -4 29 0 34 9 6 11 22 14 65
12 44 -3 55 -1 51 9 -4 11 9 13 59 10 35 -1 62 1 59 6 -3 5 10 7 30 4 20 -2
33 0 31 4 -3 4 20 8 51 8 31 0 54 -4 51 -8 -2 -4 11 -6 31 -4 20 3 33 0 30 -4
-3 -5 12 -8 34 -6 31 3 38 1 34 -10 -4 -11 2 -13 30 -10 19 2 32 8 29 13 -2 5
16 14 41 20 25 6 45 16 45 21 0 6 11 8 25 6 13 -3 22 -1 19 3 -2 4 11 11 31
15 19 3 35 11 35 16 0 6 7 7 16 4 10 -4 13 -2 8 6 -5 7 1 9 19 6 15 -3 24 -1
21 3 -3 5 2 9 10 9 8 0 22 7 31 16 9 9 25 14 35 11 13 -3 18 -1 14 5 -5 7 2 9
19 6 15 -3 24 -1 21 3 -3 5 4 9 15 9 12 0 21 4 21 10 0 5 20 15 45 21 25 6 45
16 45 21 0 5 4 6 10 3 6 -3 7 1 4 10 -4 8 -2 21 4 28 5 6 13 31 17 55 4 23 11
40 16 36 5 -3 9 3 9 13 0 20 -14 45 -24 44 -22 -3 -36 0 -32 8 3 4 -6 6 -21 3
-17 -3 -24 -1 -19 6 4 6 -1 8 -14 5 -18 -5 -55 19 -44 29 3 3 -7 3 -22 0 -19
-3 -25 -1 -20 7 5 7 -2 11 -19 11 -17 0 -24 -4 -19 -11z"/>
</g>
</svg>
