<?xml version="1.0" standalone="no"?>
<!DOCTYPE svg PUBLIC "-//W3C//DTD SVG 20010904//EN"
 "http://www.w3.org/TR/2001/REC-SVG-20010904/DTD/svg10.dtd">
<svg version="1.0" xmlns="http://www.w3.org/2000/svg"
 width="640.000000pt" height="512.000000pt" viewBox="0 0 640.000000 512.000000"
 preserveAspectRatio="xMidYMid meet">
<metadata>
Created by potrace 1.15, written by Peter Selinger 2001-2017
</metadata>
<g transform="translate(0.000000,512.000000) scale(0.100000,-0.100000)"
fill="#000000" stroke="none">
<path d="M2934 4468 c-3 -10 -10 -16 -15 -12 -5 3 -9 2 -8 -3 3 -20 -2 -34
-11 -28 -6 4 -10 3 -9 -2 3 -19 -2 -34 -9 -29 -5 3 -9 0 -9 -7 0 -24 -35 -87
-46 -80 -6 4 -8 0 -4 -11 4 -10 1 -19 -7 -22 -8 -3 -21 -24 -29 -47 -77 -209
-97 -271 -97 -297 0 -37 -22 -110 -33 -110 -5 0 -5 -4 -2 -10 3 -5 1 -10 -5
-10 -6 0 -9 -4 -6 -9 4 -5 2 -11 -3 -13 -9 -3 -96 -215 -105 -258 -3 -14 -8
-47 -10 -75 -12 -112 -35 -233 -56 -285 -12 -30 -26 -77 -30 -105 -4 -27 -13
-63 -19 -78 -14 -36 -61 -262 -61 -293 0 -13 -3 -24 -7 -24 -5 0 -9 -28 -11
-62 -1 -34 -7 -65 -13 -69 -7 -4 -9 -11 -5 -17 3 -6 3 -12 -1 -14 -5 -1 -16
-25 -25 -53 -53 -160 -110 -315 -133 -363 -20 -43 -25 -64 -20 -93 10 -56 -20
-278 -60 -444 -8 -33 -19 -103 -25 -155 -12 -104 -44 -245 -67 -300 -8 -19
-21 -50 -29 -68 -8 -18 -14 -52 -14 -77 0 -24 -15 -101 -34 -172 -31 -116 -35
-145 -38 -285 -2 -131 -1 -155 11 -150 8 3 12 1 9 -4 -3 -5 19 -10 50 -11 31
-2 59 -8 63 -14 4 -7 16 -9 28 -6 12 3 19 1 15 -4 -3 -5 8 -9 25 -9 16 0 42
-5 57 -10 25 -10 26 -9 22 15 -3 14 -1 25 5 25 5 0 7 9 4 20 -3 10 -1 20 3 22
4 2 33 109 65 238 31 129 64 240 71 246 8 6 11 14 7 17 -3 4 2 9 11 13 9 3 16
10 16 15 0 6 5 15 10 22 6 7 34 48 63 91 39 57 62 82 83 89 16 5 36 11 44 14
8 3 27 6 42 6 15 0 26 3 23 6 -6 10 273 64 286 55 7 -4 9 -3 6 3 -8 12 91 34
283 63 74 12 142 24 150 27 8 3 47 4 87 3 41 -1 74 3 78 9 3 6 30 11 59 11 53
0 54 -1 117 -68 35 -37 77 -92 93 -122 16 -30 36 -60 45 -67 9 -7 12 -13 7
-13 -6 0 -3 -6 6 -12 28 -22 65 -99 98 -208 18 -58 36 -106 41 -108 4 -2 5
-10 2 -18 -3 -8 -1 -14 4 -14 9 0 13 -13 14 -52 0 -10 3 -17 7 -16 15 4 73
-12 69 -19 -3 -5 9 -9 26 -10 18 -2 33 -7 35 -11 1 -5 14 -7 29 -4 17 3 24 1
19 -6 -4 -6 2 -8 16 -4 11 3 19 1 16 -4 -4 -5 6 -9 20 -10 15 0 34 -2 42 -5
10 -3 14 2 12 15 -2 10 1 15 6 12 10 -6 68 73 64 87 -1 4 3 7 9 7 5 0 8 4 5 9
-3 5 1 12 10 15 8 3 13 10 10 15 -3 5 1 12 10 15 8 3 12 11 9 16 -4 6 -1 18 6
26 10 12 9 26 -2 72 -7 31 -13 61 -11 65 1 5 -2 6 -7 3 -11 -7 -42 91 -34 110
3 8 0 14 -6 14 -6 0 -8 7 -5 15 4 8 1 15 -6 15 -7 0 -10 7 -6 15 3 8 1 15 -5
15 -6 0 -9 6 -6 14 3 8 2 16 -3 18 -11 4 -70 229 -70 268 0 33 47 80 81 80 5
0 8 4 5 8 -6 10 68 54 78 47 3 -3 4 -2 1 2 -7 9 46 43 57 37 5 -3 7 52 6 122
l-3 128 -133 -3 c-161 -3 -173 2 -197 86 -9 32 -21 72 -28 88 -6 17 -10 34 -9
40 2 5 0 7 -4 3 -15 -16 -50 69 -44 106 1 5 -2 12 -7 15 -11 8 -37 70 -59 138
-9 30 -21 50 -26 47 -6 -4 -7 2 -3 16 5 14 3 20 -3 16 -11 -7 -54 108 -44 118
3 3 0 6 -7 6 -8 0 -11 8 -8 20 3 11 2 18 -3 15 -4 -3 -12 8 -18 23 -6 15 -14
36 -18 47 -4 11 -6 23 -6 28 1 4 -2 7 -7 7 -5 0 -12 11 -15 25 -4 14 -15 34
-25 44 -18 18 -78 144 -122 256 -13 33 -30 71 -38 84 -9 13 -17 33 -18 45 -2
12 -8 22 -13 24 -5 2 -6 10 -3 19 4 10 2 14 -5 9 -13 -8 -26 29 -16 45 5 8 3
9 -6 4 -10 -6 -12 -4 -7 8 4 10 2 17 -4 17 -6 0 -9 7 -5 15 3 8 2 15 -2 15
-10 0 -82 194 -85 227 0 7 -5 11 -11 10 -6 -1 -10 6 -8 17 2 12 -1 16 -9 10
-8 -4 -10 -3 -5 4 7 11 5 17 -28 80 -10 17 -15 36 -12 41 6 10 -61 207 -91
266 -21 40 -128 281 -153 343 -7 18 -15 30 -18 27 -7 -7 -42 47 -36 56 2 4 -1
11 -7 15 -8 5 -10 2 -5 -7 4 -8 -2 -3 -13 11 -11 14 -21 35 -21 47 0 12 -5 25
-12 29 -7 5 -9 2 -4 -7 4 -8 0 -5 -8 6 -9 11 -29 33 -44 49 -15 17 -20 26 -12
22 9 -4 8 -2 -2 7 -10 8 -16 16 -13 19 3 2 -2 5 -10 5 -8 0 -17 -9 -21 -19z
m133 -1324 c15 -14 63 -194 63 -235 0 -10 3 -19 8 -19 11 0 30 -80 47 -195 18
-127 22 -141 57 -192 15 -23 28 -46 28 -52 0 -6 4 -11 9 -11 5 0 13 -15 16
-32 4 -18 11 -37 15 -43 12 -16 57 -199 79 -327 23 -131 27 -245 8 -269 -18
-23 -211 -81 -487 -144 -63 -15 -119 -30 -125 -35 -5 -4 -26 -11 -45 -15 -27
-5 -42 -2 -60 13 -14 10 -42 25 -62 31 -21 7 -40 17 -44 22 -7 13 16 309 27
330 4 9 11 49 15 90 3 41 13 92 21 114 8 22 23 72 33 110 10 39 31 104 46 145
14 41 34 98 44 126 10 28 29 75 43 105 58 125 126 311 147 406 13 56 31 79 70
86 14 2 26 5 28 6 2 0 10 -6 19 -15z"/>
</g>
</svg>
