<?xml version="1.0" standalone="no"?>
<!DOCTYPE svg PUBLIC "-//W3C//DTD SVG 20010904//EN"
 "http://www.w3.org/TR/2001/REC-SVG-20010904/DTD/svg10.dtd">
<svg version="1.0" xmlns="http://www.w3.org/2000/svg"
 width="640.000000pt" height="512.000000pt" viewBox="0 0 640.000000 512.000000"
 preserveAspectRatio="xMidYMid meet">
<metadata>
Created by potrace 1.15, written by Peter Selinger 2001-2017
</metadata>
<g transform="translate(0.000000,512.000000) scale(0.100000,-0.100000)"
fill="#000000" stroke="none">
<path d="M3499 2974 c-12 -15 -12 -17 0 -9 10 6 12 4 6 -4 -4 -7 -15 -11 -25
-8 -12 3 -17 0 -13 -9 6 -15 -58 -31 -78 -18 -8 5 -10 3 -4 -6 6 -9 -4 -11
-43 -9 -27 2 -48 1 -45 -3 3 -7 -63 -13 -114 -11 -7 1 -11 -3 -8 -7 5 -9 -141
-23 -154 -15 -5 3 -11 0 -13 -6 -2 -6 -27 -14 -56 -17 -31 -3 -49 -8 -45 -15
4 -6 -10 -8 -40 -5 -29 4 -44 2 -41 -4 4 -6 -11 -9 -39 -7 -25 2 -43 1 -41 -3
6 -10 -31 -19 -48 -13 -8 3 -21 -2 -29 -12 -13 -17 -13 -17 6 -4 22 16 -1 -11
-70 -82 -22 -22 -29 -32 -16 -21 14 10 21 14 17 7 -3 -7 -21 -22 -38 -35 -17
-12 -28 -17 -24 -10 4 7 5 12 2 12 -3 0 -13 -14 -22 -31 -11 -23 -12 -29 -2
-23 7 4 0 -5 -15 -19 -15 -15 -32 -27 -37 -27 -5 0 -12 -5 -16 -12 -5 -7 -3
-8 5 -3 10 6 11 3 2 -14 -7 -11 -18 -21 -26 -21 -7 0 -16 -8 -19 -18 -4 -11
-19 -30 -34 -43 l-27 -24 20 25 c11 14 -6 -2 -37 -35 -31 -33 -57 -65 -58 -72
0 -6 -5 -15 -12 -19 -7 -5 -8 -3 -3 6 5 9 4 11 -4 6 -6 -4 -9 -11 -6 -15 2 -5
-7 -19 -20 -31 -14 -13 -25 -30 -25 -37 0 -8 -5 -11 -12 -7 -7 4 -8 3 -4 -4 9
-14 -4 -63 -14 -57 -12 7 -44 -81 -34 -96 5 -9 2 -10 -10 -6 -9 4 -14 3 -11
-2 6 -10 -14 -61 -24 -61 -4 0 -8 -13 -9 -29 -2 -33 -26 -84 -35 -75 -3 3 -3
-13 0 -35 4 -25 2 -41 -5 -41 -5 0 -8 -9 -5 -20 7 -25 -5 -72 -16 -66 -5 3 -6
-15 -3 -41 3 -33 2 -44 -7 -39 -8 5 -11 -20 -11 -94 0 -71 3 -99 11 -94 8 4
10 -12 7 -55 -1 -33 1 -61 5 -61 5 0 5 -4 2 -10 -3 -5 -1 -10 5 -10 8 0 11
-17 8 -49 -1 -27 1 -47 6 -44 5 3 7 -19 4 -50 -2 -31 -1 -54 3 -51 4 2 18 -10
30 -28 20 -29 21 -31 4 -19 -11 8 -2 -4 20 -25 22 -21 40 -46 40 -54 0 -9 7
-14 19 -12 13 3 17 -1 13 -12 -4 -9 -1 -15 6 -13 7 1 11 -6 11 -16 -1 -10 9
-25 21 -33 13 -9 22 -21 19 -29 -3 -7 0 -16 7 -21 8 -5 10 -3 5 7 -4 8 -1 6 7
-3 8 -10 19 -18 25 -18 6 0 16 -10 23 -21 8 -17 8 -20 -1 -14 -9 6 -10 3 -3
-10 9 -15 25 -17 127 -16 72 1 116 -2 112 -7 -9 -15 31 -22 124 -22 94 0 133
7 124 22 -4 6 2 7 16 3 17 -5 21 -4 15 6 -6 9 -2 11 13 7 12 -4 25 -1 29 4 4
7 1 8 -7 3 -9 -6 -11 -4 -5 4 4 8 20 11 36 9 16 -3 25 0 22 5 -4 6 3 8 15 5
14 -4 20 -2 15 5 -4 6 2 8 15 5 14 -4 20 -2 15 5 -4 6 2 8 15 5 12 -4 20 -2
17 3 -8 11 40 23 56 13 8 -5 9 -3 4 6 -6 10 -4 12 9 7 11 -5 15 -3 10 5 -5 8
-2 9 10 5 11 -4 15 -3 11 4 -4 6 2 13 14 16 11 3 18 9 15 14 -3 5 3 6 12 2 13
-5 16 -3 11 10 -4 12 -2 14 10 10 10 -4 14 -2 10 4 -8 12 20 26 34 17 5 -3 8
0 7 7 -2 7 2 13 9 14 6 0 15 4 20 9 5 5 3 6 -4 2 -26 -14 -12 3 19 25 18 13
28 17 23 8 -4 -7 5 1 22 18 16 18 33 30 36 26 4 -3 7 -1 7 5 0 7 7 12 16 12 9
0 14 -5 12 -12 -5 -13 10 -33 52 -75 14 -14 19 -22 12 -18 -20 11 1 -27 25
-46 15 -11 15 -9 -2 11 l-20 25 23 -19 c12 -11 22 -27 22 -36 0 -10 7 -23 15
-30 8 -7 12 -17 9 -22 -9 -14 25 -48 42 -41 7 3 28 -7 45 -21 17 -14 28 -26
24 -26 -3 0 0 -6 7 -14 7 -8 16 -12 21 -9 4 2 7 -1 7 -6 0 -6 6 -11 13 -11 6
0 23 -10 37 -21 14 -11 19 -17 11 -13 -9 4 -12 3 -7 -4 4 -6 14 -8 23 -5 11 4
14 3 9 -5 -5 -8 -1 -10 10 -5 13 5 16 3 11 -10 -3 -9 -3 -16 1 -16 20 3 33 -2
27 -11 -4 -6 1 -7 11 -3 12 4 15 3 10 -5 -5 -8 5 -12 33 -12 23 0 41 5 41 11
0 6 19 9 50 8 27 -2 53 1 57 6 5 4 1 5 -7 0 -12 -6 -12 -5 -4 5 8 7 32 11 67
8 30 -1 53 0 50 4 -4 7 38 11 129 12 14 1 24 5 21 10 -4 5 4 7 15 4 12 -4 20
-3 17 1 -6 11 102 54 115 46 5 -3 10 -1 10 5 0 6 5 8 10 5 6 -3 10 -2 10 3 0
6 11 13 25 16 14 4 23 10 21 15 -8 12 50 35 69 27 11 -4 14 -2 9 6 -5 8 -2 9
10 5 9 -4 15 -3 12 2 -7 11 22 23 36 14 6 -3 8 -1 4 5 -3 6 6 13 24 17 16 4
29 10 29 13 -5 31 3 112 9 108 5 -3 6 20 4 51 -3 34 -1 54 5 50 6 -4 8 15 5
50 -4 43 -2 54 8 48 9 -5 10 -2 5 15 -5 15 -4 20 4 16 7 -5 11 7 11 38 0 25
-5 48 -12 52 -7 4 -8 3 -4 -4 5 -8 2 -10 -8 -6 -9 3 -14 9 -11 13 2 4 -10 5
-27 3 -21 -3 -29 -1 -24 7 5 7 1 9 -10 4 -10 -4 -15 -2 -11 3 3 5 -12 8 -35 6
-23 -3 -38 0 -35 5 3 5 -10 7 -30 5 -22 -3 -33 -1 -30 5 4 6 -10 13 -33 17
-22 3 -40 11 -40 16 0 5 -6 7 -13 4 -7 -2 -47 -1 -89 4 -46 5 -74 4 -71 -1 3
-5 -14 -8 -39 -6 -29 3 -50 -1 -58 -9 -7 -7 -26 -12 -44 -11 -50 3 -68 0 -61
-12 5 -7 -9 -10 -42 -8 -27 1 -54 -1 -61 -5 -19 -12 -34 4 -29 30 2 13 0 24
-4 24 -5 0 -9 15 -9 34 0 19 -6 36 -12 38 -8 3 -12 19 -10 42 3 29 1 36 -9 31
-9 -6 -11 0 -6 24 5 22 3 30 -4 25 -8 -5 -10 3 -7 24 3 19 1 29 -6 25 -5 -4
-7 1 -3 10 4 10 2 17 -5 17 -7 0 -9 13 -5 35 4 22 2 33 -4 29 -6 -3 -9 86 -7
249 2 140 0 253 -4 250 -5 -2 -8 -3 -8 -1 0 2 -10 50 -22 108 -12 58 -22 117
-22 132 -1 14 -4 24 -8 21 -5 -2 -8 11 -8 30 0 22 -6 37 -15 41 -8 3 -12 12
-9 21 8 20 -4 67 -15 60 -11 -6 -23 23 -15 36 3 5 0 9 -6 9 -6 0 -9 4 -5 9 8
14 -27 81 -38 74 -6 -4 -8 0 -4 10 3 9 1 19 -5 23 -7 5 -8 2 -4 -7 4 -8 0 -5
-8 5 -9 11 -16 26 -16 33 0 7 -9 21 -21 32 -12 11 -18 24 -15 29 9 14 -4 43
-16 36 -5 -3 -8 2 -6 12 4 24 -25 29 -43 8z m-310 -429 c31 -25 61 -49 66 -53
6 -5 23 -17 38 -26 l27 -18 0 -199 c0 -121 -4 -200 -10 -204 -5 -3 -10 -46
-10 -95 0 -49 -4 -92 -10 -95 -5 -3 -10 -46 -10 -94 0 -67 -4 -92 -15 -101 -8
-7 -15 -17 -15 -22 0 -5 -5 -14 -10 -21 -47 -55 -60 -74 -60 -84 0 -6 -9 -19
-21 -27 -12 -8 -19 -18 -16 -23 3 -5 -5 -17 -19 -27 -13 -11 -24 -25 -24 -32
0 -8 -4 -14 -9 -14 -5 0 -13 -10 -17 -22 -4 -13 -12 -26 -18 -30 -6 -4 -107
-8 -224 -8 l-213 0 -57 37 c-31 20 -93 55 -137 79 l-80 42 2 54 c2 50 28 273
32 273 1 0 4 21 7 47 2 26 11 59 19 75 8 15 15 34 15 40 0 7 9 18 20 25 11 7
20 20 20 29 0 9 6 19 14 22 8 3 20 17 28 30 21 39 69 109 97 144 14 17 46 59
71 93 25 34 55 72 68 85 12 12 22 27 22 33 0 15 33 32 64 32 14 0 27 4 30 9 4
5 24 12 46 16 22 4 42 11 46 16 3 5 16 9 29 9 12 0 25 7 29 15 8 22 67 45 100
40 16 -3 54 -25 85 -50z"/>
</g>
</svg>
