<?xml version="1.0" standalone="no"?>
<!DOCTYPE svg PUBLIC "-//W3C//DTD SVG 20010904//EN"
 "http://www.w3.org/TR/2001/REC-SVG-20010904/DTD/svg10.dtd">
<svg version="1.0" xmlns="http://www.w3.org/2000/svg"
 width="640.000000pt" height="512.000000pt" viewBox="0 0 640.000000 512.000000"
 preserveAspectRatio="xMidYMid meet">
<metadata>
Created by potrace 1.15, written by Peter Selinger 2001-2017
</metadata>
<g transform="translate(0.000000,512.000000) scale(0.100000,-0.100000)"
fill="#000000" stroke="none">
<path d="M3235 4305 c-133 -23 -302 -61 -379 -84 -127 -38 -150 -48 -270 -126
-72 -46 -182 -120 -244 -163 -106 -75 -117 -86 -200 -203 -87 -121 -89 -127
-122 -249 -33 -126 -59 -320 -60 -441 0 -62 40 -491 76 -809 16 -141 15 -291
-2 -507 -5 -58 0 -99 24 -215 37 -173 52 -347 55 -658 l2 -235 -58 -100 c-32
-55 -57 -107 -55 -116 2 -10 34 -53 71 -97 l69 -80 146 -35 147 -36 311 -5
c297 -5 317 -4 455 19 79 14 147 25 150 25 3 0 56 38 118 84 105 79 119 93
197 208 187 271 286 499 325 747 24 154 23 196 -4 342 -21 113 -24 120 -87
213 l-65 97 -118 60 c-106 53 -117 62 -111 81 21 66 39 88 138 168 105 84 107
87 183 220 97 169 209 337 307 460 l76 95 0 114 c0 107 3 122 45 255 25 79 45
158 45 176 0 90 -43 268 -93 388 l-52 124 -95 87 c-68 63 -126 105 -205 149
l-110 61 -154 16 c-85 8 -168 15 -185 14 -17 -1 -139 -20 -271 -44z m491 -300
c254 -73 229 -56 306 -203 l66 -127 7 -145 6 -145 -50 -137 c-55 -152 -105
-246 -224 -423 -128 -189 -207 -283 -326 -384 -61 -52 -140 -127 -175 -166
-52 -58 -95 -91 -218 -167 -242 -151 -304 -180 -468 -223 -132 -33 -152 -36
-215 -28 l-70 8 3 135 c3 116 -1 168 -31 365 -20 127 -48 345 -63 485 l-27
255 22 160 23 160 92 123 91 124 110 55 c61 31 173 91 250 134 l141 79 214 40
c118 22 251 46 295 54 44 7 81 14 81 15 1 1 73 -19 160 -44z m-187 -2425 c58
-16 108 -33 111 -37 4 -5 20 -59 35 -121 24 -100 27 -123 20 -209 -4 -54 -11
-107 -16 -119 -4 -13 -34 -58 -67 -102 -32 -43 -80 -118 -107 -165 -52 -92
-37 -80 -281 -234 -11 -7 -81 -24 -155 -39 -120 -23 -149 -25 -274 -19 -203 9
-346 37 -359 70 -37 98 -75 717 -45 741 19 16 209 84 354 127 66 20 217 52
335 72 118 20 242 42 275 49 33 8 62 14 65 15 3 1 52 -12 109 -29z"/>
</g>
</svg>
