<?xml version="1.0" standalone="no"?>
<!DOCTYPE svg PUBLIC "-//W3C//DTD SVG 20010904//EN"
 "http://www.w3.org/TR/2001/REC-SVG-20010904/DTD/svg10.dtd">
<svg version="1.0" xmlns="http://www.w3.org/2000/svg"
 width="640.000000pt" height="512.000000pt" viewBox="0 0 640.000000 512.000000"
 preserveAspectRatio="xMidYMid meet">
<metadata>
Created by potrace 1.15, written by Peter Selinger 2001-2017
</metadata>
<g transform="translate(0.000000,512.000000) scale(0.100000,-0.100000)"
fill="#000000" stroke="none">
<path d="M3550 4714 c-183 -19 -363 -59 -550 -120 -147 -48 -180 -63 -303
-139 -75 -47 -185 -121 -244 -165 -89 -67 -121 -99 -202 -205 -87 -113 -102
-138 -148 -257 l-52 -133 -11 -310 -11 -310 26 -120 c34 -153 64 -443 65 -610
0 -71 5 -173 12 -226 9 -77 9 -119 -2 -212 -13 -114 -12 -120 20 -344 57 -396
52 -589 -21 -753 -44 -99 -45 -112 -21 -284 l17 -119 80 -23 c124 -36 341 -82
440 -94 50 -6 203 -14 341 -17 l250 -6 155 52 c142 47 163 57 258 125 98 70
107 80 186 198 97 146 200 333 283 513 53 117 61 143 77 256 l19 127 -24 133
c-23 133 -24 135 -93 249 -69 115 -69 115 -159 169 -72 44 -97 65 -126 109
l-36 54 49 95 c42 80 63 107 129 167 68 61 102 106 254 336 192 291 248 399
282 541 86 370 90 395 90 553 l0 151 -51 126 c-44 106 -63 139 -123 212 -46
55 -106 112 -165 156 l-93 70 -149 35 c-169 40 -233 43 -449 20z m312 -324
c66 -22 158 -52 204 -65 l83 -26 74 -117 75 -117 13 -143 13 -143 -32 -137
c-27 -117 -41 -156 -98 -267 -37 -71 -128 -222 -203 -334 -123 -185 -146 -213
-251 -310 -63 -59 -155 -135 -205 -168 -49 -34 -146 -109 -215 -168 -121 -104
-233 -186 -295 -217 -16 -8 -68 -25 -115 -37 -126 -33 -329 -100 -376 -123
-48 -24 -59 -20 -67 24 -4 18 -22 111 -42 206 -22 109 -35 202 -35 250 0 43
-9 165 -19 272 -11 107 -28 320 -37 472 l-18 277 43 153 43 153 116 118 c102
103 132 127 238 187 162 94 326 161 521 215 132 37 350 78 446 84 9 1 72 -17
139 -39z m-118 -2496 c9 -3 56 -57 106 -119 l90 -113 0 -120 0 -121 -61 -132
c-44 -96 -86 -168 -153 -261 -87 -120 -101 -134 -224 -227 -72 -54 -143 -102
-159 -105 -205 -42 -276 -47 -448 -36 -113 8 -211 21 -293 40 -67 15 -125 29
-127 32 -2 2 -7 78 -10 168 -3 91 -10 269 -17 397 -10 212 -10 238 6 297 20
74 4 66 189 91 156 21 388 68 512 104 73 22 133 31 223 36 97 6 145 14 230 40
124 38 116 37 136 29z"/>
</g>
</svg>
