<?xml version="1.0" standalone="no"?>
<!DOCTYPE svg PUBLIC "-//W3C//DTD SVG 20010904//EN"
 "http://www.w3.org/TR/2001/REC-SVG-20010904/DTD/svg10.dtd">
<svg version="1.0" xmlns="http://www.w3.org/2000/svg"
 width="640.000000pt" height="512.000000pt" viewBox="0 0 640.000000 512.000000"
 preserveAspectRatio="xMidYMid meet">
<metadata>
Created by potrace 1.15, written by Peter Selinger 2001-2017
</metadata>
<g transform="translate(0.000000,512.000000) scale(0.100000,-0.100000)"
fill="#000000" stroke="none">
<path d="M4230 4093 c-1 -22 -24 -55 -33 -46 -4 3 -12 -8 -18 -25 -6 -18 -15
-32 -20 -32 -5 0 -8 -3 -7 -7 4 -16 -14 -53 -23 -48 -5 4 -9 -3 -9 -15 0 -12
-4 -19 -9 -16 -5 3 -12 -1 -15 -10 -3 -8 -2 -12 4 -9 5 3 7 -1 4 -9 -3 -9 -9
-15 -12 -14 -20 2 -32 -3 -32 -15 0 -7 -9 -18 -21 -25 -11 -7 -18 -19 -15 -27
3 -8 -3 -22 -12 -32 -10 -11 -13 -13 -8 -3 5 8 -10 -5 -32 -30 -22 -25 -38
-48 -36 -51 5 -9 -53 -81 -62 -77 -4 2 -12 -6 -18 -17 -6 -11 -15 -23 -19 -26
-5 -3 -8 -9 -7 -13 4 -13 -22 -66 -30 -61 -4 3 -11 -2 -14 -11 -3 -8 -2 -12 4
-9 6 4 5 -5 -1 -19 -7 -14 -16 -23 -20 -20 -5 3 -16 -13 -25 -35 -9 -23 -20
-41 -26 -41 -5 0 -7 -3 -4 -8 6 -10 -20 -58 -31 -54 -4 1 -8 -4 -8 -10 0 -13
-3 -18 -35 -55 -8 -10 -13 -18 -11 -18 2 0 1 -10 -3 -23 -4 -12 -12 -19 -18
-16 -6 4 -9 1 -6 -7 5 -14 -17 -69 -28 -69 -3 0 -2 5 2 12 4 6 3 8 -4 4 -6 -3
-16 -22 -22 -41 -6 -19 -16 -35 -21 -35 -5 0 -8 -3 -7 -7 4 -16 -14 -53 -23
-48 -5 4 -9 -1 -9 -11 0 -9 -8 -23 -17 -31 -10 -8 -12 -12 -6 -8 9 4 11 1 7
-9 -3 -9 -9 -14 -13 -11 -11 6 -37 -28 -45 -58 -3 -15 -11 -27 -17 -27 -6 0
-8 -4 -5 -9 3 -4 -2 -17 -10 -27 -9 -10 -12 -13 -8 -5 5 10 3 12 -5 7 -7 -5
-10 -15 -7 -23 4 -8 1 -11 -5 -8 -6 4 -13 -2 -16 -14 -3 -12 -9 -21 -14 -21
-5 0 -9 -7 -9 -15 0 -8 -5 -15 -10 -15 -6 0 -9 -3 -9 -7 3 -20 -2 -34 -10 -28
-12 7 -30 -25 -24 -42 2 -6 -1 -15 -8 -19 -8 -5 -9 -3 -4 6 6 9 4 11 -4 6 -7
-5 -10 -14 -7 -22 3 -8 2 -13 -2 -13 -20 3 -32 -2 -32 -15 0 -8 -7 -17 -16
-20 -9 -3 -14 -12 -11 -20 6 -15 -26 -70 -35 -61 -7 7 -48 -49 -48 -65 0 -17
-36 -61 -44 -53 -5 5 -7 0 -6 -22 0 -3 -11 -16 -25 -30 -15 -13 -26 -26 -26
-29 3 -20 0 -26 -9 -21 -5 3 -10 -3 -10 -15 0 -14 -4 -19 -12 -14 -7 5 -9 2
-6 -8 7 -17 -25 -72 -35 -61 -4 3 -12 -8 -18 -25 -6 -18 -15 -32 -21 -32 -5 0
-7 -4 -4 -8 7 -11 -29 -64 -37 -55 -6 6 -11 -11 -8 -29 0 -5 -4 -8 -10 -8 -6
0 -8 -7 -5 -16 3 -8 2 -13 -2 -10 -5 3 -17 -5 -27 -17 -11 -12 -18 -22 -16
-22 2 0 1 -10 -3 -22 -4 -13 -12 -23 -17 -23 -6 0 -8 -4 -5 -8 6 -10 -28 -64
-36 -57 -6 7 -41 -44 -44 -64 -2 -8 -11 -21 -20 -30 -17 -15 -17 -15 -4 4 15
20 15 20 -8 1 -12 -11 -20 -26 -17 -33 2 -8 1 -12 -3 -10 -9 5 -36 -24 -40
-44 -2 -8 -8 -18 -14 -24 -8 -7 -8 -5 -3 5 8 13 7 13 -8 1 -9 -7 -17 -22 -17
-33 0 -12 -4 -17 -12 -12 -8 5 -9 2 -5 -9 3 -9 1 -19 -5 -23 -7 -5 -8 -2 -3 7
5 8 -8 -3 -28 -23 -21 -20 -37 -42 -37 -48 0 -7 -8 -19 -18 -28 -10 -10 -11
-12 -3 -7 12 9 12 7 1 -12 -8 -12 -17 -20 -21 -17 -8 5 -52 -53 -55 -73 -3
-17 -41 -64 -50 -62 -5 1 -13 -7 -19 -17 -5 -11 -14 -22 -18 -25 -5 -3 -8 -9
-8 -13 3 -20 0 -26 -9 -21 -6 4 -9 3 -8 -2 4 -16 -14 -53 -23 -48 -9 6 -13 -8
-10 -34 2 -8 -2 -10 -10 -5 -9 5 -10 2 -6 -10 4 -9 3 -15 -1 -12 -11 6 -42
-30 -42 -48 0 -26 -12 -46 -23 -39 -5 3 -8 2 -4 -3 7 -12 -15 -52 -28 -53 -6
-1 -10 -62 -10 -163 l0 -163 44 4 c29 2 41 -1 37 -8 -13 -20 90 -14 105 7 13
16 13 16 -5 2 -18 -14 -18 -14 -6 7 8 12 16 21 19 21 13 -2 41 15 41 25 0 6
12 24 28 41 15 17 18 24 8 16 -19 -15 -19 -14 -2 13 18 27 34 39 20 14 -4 -6
5 -1 19 12 15 14 27 28 27 33 0 5 16 23 36 40 20 18 33 37 30 45 -3 8 -2 12 3
8 10 -6 156 148 156 164 0 6 7 16 15 23 12 11 12 10 1 -7 -8 -11 1 -4 18 15
17 19 42 45 54 58 12 12 22 28 22 35 0 6 7 12 15 12 8 0 25 15 37 34 13 19 32
41 43 48 11 8 17 19 14 25 -4 7 -2 8 4 4 7 -4 23 9 39 33 16 22 35 40 44 41
23 0 65 49 82 95 8 22 25 73 37 113 12 39 27 72 32 72 5 0 6 5 3 10 -10 15 5
51 17 44 7 -5 9 -1 5 9 -3 9 0 18 9 21 8 3 14 10 14 17 0 6 10 20 23 31 12 11
16 16 9 13 -11 -6 -11 -3 -1 13 7 12 16 19 21 16 4 -3 15 8 25 23 9 15 28 38
42 51 15 13 20 20 13 17 -11 -6 -11 -3 -1 13 7 12 17 18 21 16 9 -6 11 6 8 55
-1 20 2 31 8 27 6 -4 8 9 5 34 -3 23 -2 40 3 39 20 -3 34 2 34 12 0 6 11 20
25 31 27 21 57 67 35 53 -9 -6 -9 -2 -1 14 7 11 14 21 17 21 3 0 2 -6 -3 -12
-4 -7 7 -2 24 12 18 14 32 31 32 38 1 7 11 23 24 35 17 16 18 18 2 7 -20 -15
-20 -15 -1 7 10 12 21 22 25 21 13 -2 41 15 41 25 0 6 10 22 23 35 12 14 16
22 8 17 -9 -5 -7 1 4 19 17 25 34 38 19 14 -5 -7 -3 -8 5 -4 7 5 10 15 7 23
-3 8 -1 11 4 8 6 -4 15 7 21 24 6 17 15 31 20 31 5 0 8 3 7 8 -4 15 14 52 23
47 9 -6 13 7 10 32 -1 6 4 15 10 19 8 5 9 3 4 -6 -6 -9 -4 -11 4 -6 7 5 10 15
6 24 -3 9 -3 13 1 10 10 -11 50 42 44 60 -1 5 31 62 36 62 3 0 2 -5 -2 -12 -4
-7 -3 -8 4 -4 6 4 8 14 5 23 -5 12 -3 14 7 8 10 -6 12 -4 7 8 -4 10 -2 16 5
14 6 -1 17 17 25 41 8 23 19 40 24 36 5 -3 9 5 9 18 0 14 7 33 16 44 8 10 12
13 8 5 -4 -9 -3 -12 4 -7 6 4 8 14 5 23 -4 9 -2 14 3 10 6 -3 28 36 49 88 22
51 43 91 49 88 5 -3 6 -1 3 5 -9 13 2 44 14 37 8 -6 21 34 54 163 11 39 22 72
26 72 4 0 5 9 2 20 -7 26 13 50 42 50 33 0 55 31 55 79 0 23 4 40 9 37 5 -4 7
12 4 36 -4 28 -3 39 5 34 7 -4 9 5 5 30 -4 27 -3 35 5 30 9 -5 12 16 12 79 0
61 -3 84 -11 79 -8 -4 -10 8 -8 40 2 25 0 46 -4 46 -5 0 -7 21 -6 47 3 39 0
48 -14 51 -11 2 -17 -3 -17 -15z"/>
</g>
</svg>
