<?xml version="1.0" standalone="no"?>
<!DOCTYPE svg PUBLIC "-//W3C//DTD SVG 20010904//EN"
 "http://www.w3.org/TR/2001/REC-SVG-20010904/DTD/svg10.dtd">
<svg version="1.0" xmlns="http://www.w3.org/2000/svg"
 width="640.000000pt" height="512.000000pt" viewBox="0 0 640.000000 512.000000"
 preserveAspectRatio="xMidYMid meet">
<metadata>
Created by potrace 1.15, written by Peter Selinger 2001-2017
</metadata>
<g transform="translate(0.000000,512.000000) scale(0.100000,-0.100000)"
fill="#000000" stroke="none">
<path d="M2710 4195 c0 -36 -31 -155 -40 -155 -4 0 -54 36 -110 80 -56 44
-106 80 -111 80 -5 0 -42 -21 -84 -46 -62 -39 -75 -51 -75 -73 1 -67 32 -287
55 -391 14 -63 35 -185 45 -270 11 -85 26 -191 35 -235 40 -203 55 -347 55
-529 0 -145 4 -200 20 -272 17 -78 20 -126 19 -399 0 -350 -11 -703 -30 -973
l-13 -183 35 -142 35 -142 50 2 c27 1 73 5 102 8 l53 7 48 97 c27 53 56 103
65 110 9 7 71 20 138 27 68 8 181 26 253 40 165 33 264 81 430 209 l120 93 32
128 c29 112 34 153 39 304 l6 175 -37 120 c-21 66 -61 167 -90 225 -39 79 -56
129 -70 200 -16 87 -24 106 -97 228 l-80 133 -129 64 c-118 60 -136 66 -226
76 -97 11 -99 11 -175 67 -47 35 -77 64 -78 75 0 10 10 52 21 92 21 71 21 75
5 168 -19 113 -20 193 -4 439 11 181 11 190 -12 295 -31 148 -81 240 -145 271
-56 27 -55 27 -55 -3z m518 -1809 c56 -28 76 -47 154 -147 49 -63 123 -172
163 -244 l73 -130 7 -142 8 -143 -66 -73 c-50 -56 -93 -90 -188 -149 l-124
-77 -126 -11 -127 -11 -51 25 -51 26 0 385 0 385 51 92 c50 91 180 248 203
248 6 -1 40 -16 74 -34z"/>
</g>
</svg>
