<?xml version="1.0" standalone="no"?>
<!DOCTYPE svg PUBLIC "-//W3C//DTD SVG 20010904//EN"
 "http://www.w3.org/TR/2001/REC-SVG-20010904/DTD/svg10.dtd">
<svg version="1.0" xmlns="http://www.w3.org/2000/svg"
 width="640.000000pt" height="512.000000pt" viewBox="0 0 640.000000 512.000000"
 preserveAspectRatio="xMidYMid meet">
<metadata>
Created by potrace 1.15, written by Peter Selinger 2001-2017
</metadata>
<g transform="translate(0.000000,512.000000) scale(0.100000,-0.100000)"
fill="#000000" stroke="none">
<path d="M3500 4456 c-173 -86 -530 -296 -593 -348 -26 -22 -107 -87 -178
-144 -216 -172 -304 -258 -379 -369 -164 -243 -278 -502 -346 -785 -19 -80
-57 -215 -84 -300 -27 -85 -65 -213 -85 -283 -36 -126 -37 -131 -30 -243 7
-101 5 -124 -16 -203 l-23 -88 17 -134 c12 -96 36 -201 83 -369 l67 -235 196
-134 c316 -217 445 -269 922 -371 130 -28 155 -31 254 -25 61 3 178 18 260 31
83 14 217 34 299 44 146 19 149 20 250 75 86 47 107 63 143 112 41 58 41 59
48 174 l8 116 -53 79 c-29 43 -54 81 -56 83 -1 1 -72 -20 -157 -48 -190 -64
-352 -94 -457 -85 -41 3 -138 1 -214 -5 -127 -11 -152 -10 -273 9 -73 12 -160
32 -194 46 -34 13 -113 31 -175 39 -79 11 -149 29 -235 60 -116 43 -126 48
-208 123 l-86 79 -29 102 -30 102 17 117 c12 83 17 184 17 347 1 144 6 266 15
325 17 114 75 315 119 413 18 40 41 107 50 149 9 42 38 129 64 192 43 106 55
125 147 231 182 212 493 463 705 570 90 45 157 89 240 155 l115 92 33 96 c18
54 31 104 29 112 -6 24 -91 140 -102 139 -5 0 -48 -19 -95 -43z"/>
</g>
</svg>
