<?xml version="1.0" standalone="no"?>
<!DOCTYPE svg PUBLIC "-//W3C//DTD SVG 20010904//EN"
 "http://www.w3.org/TR/2001/REC-SVG-20010904/DTD/svg10.dtd">
<svg version="1.0" xmlns="http://www.w3.org/2000/svg"
 width="640.000000pt" height="512.000000pt" viewBox="0 0 640.000000 512.000000"
 preserveAspectRatio="xMidYMid meet">
<metadata>
Created by potrace 1.15, written by Peter Selinger 2001-2017
</metadata>
<g transform="translate(0.000000,512.000000) scale(0.100000,-0.100000)"
fill="#000000" stroke="none">
<path d="M3225 3109 c-60 -8 -75 -14 -105 -44 -32 -31 -48 -37 -159 -60 -69
-14 -125 -26 -126 -28 -1 -1 -8 -24 -15 -52 -10 -36 -30 -69 -75 -120 -114
-130 -178 -220 -217 -305 -56 -118 -138 -423 -138 -509 0 -36 -12 -121 -27
-189 l-27 -122 23 -121 c22 -111 23 -128 11 -207 l-12 -87 73 -128 c67 -115
83 -136 169 -212 l95 -85 150 -49 c144 -48 156 -50 295 -56 117 -5 173 -2 294
14 82 12 151 23 153 25 2 2 33 46 69 97 l64 93 0 82 0 82 -87 7 c-313 22 -474
48 -558 89 -38 19 -112 53 -162 77 -51 24 -95 50 -98 60 -3 9 -16 21 -29 27
-22 10 -66 87 -66 115 0 5 -18 38 -40 73 -31 50 -40 73 -40 109 0 52 40 184
112 370 44 112 62 145 134 240 97 127 182 199 321 269 71 35 248 141 272 162
2 2 -2 45 -9 96 -11 82 -19 105 -69 196 -62 114 -48 107 -176 91z"/>
</g>
</svg>
