<?xml version="1.0" standalone="no"?>
<!DOCTYPE svg PUBLIC "-//W3C//DTD SVG 20010904//EN"
 "http://www.w3.org/TR/2001/REC-SVG-20010904/DTD/svg10.dtd">
<svg version="1.0" xmlns="http://www.w3.org/2000/svg"
 width="640.000000pt" height="512.000000pt" viewBox="0 0 640.000000 512.000000"
 preserveAspectRatio="xMidYMid meet">
<metadata>
Created by potrace 1.15, written by Peter Selinger 2001-2017
</metadata>
<g transform="translate(0.000000,512.000000) scale(0.100000,-0.100000)"
fill="#000000" stroke="none">
<path d="M3208 1148 c-12 -18 -58 -74 -100 -125 -43 -50 -93 -122 -111 -160
-31 -64 -87 -143 -178 -253 -80 -96 -142 -277 -137 -399 l3 -73 57 -40 57 -40
80 46 c111 66 169 139 259 331 38 83 76 173 83 202 9 36 29 73 67 120 30 37
72 103 93 146 36 71 40 84 37 145 l-3 66 -75 33 c-41 17 -83 32 -92 32 -9 1
-27 -14 -40 -31z"/>
</g>
</svg>
