<?xml version="1.0" standalone="no"?>
<!DOCTYPE svg PUBLIC "-//W3C//DTD SVG 20010904//EN"
 "http://www.w3.org/TR/2001/REC-SVG-20010904/DTD/svg10.dtd">
<svg version="1.0" xmlns="http://www.w3.org/2000/svg"
 width="640.000000pt" height="512.000000pt" viewBox="0 0 640.000000 512.000000"
 preserveAspectRatio="xMidYMid meet">
<metadata>
Created by potrace 1.15, written by Peter Selinger 2001-2017
</metadata>
<g transform="translate(0.000000,512.000000) scale(0.100000,-0.100000)"
fill="#000000" stroke="none">
<path d="M2820 4400 c-113 -10 -154 -25 -286 -103 l-121 -71 -17 -66 c-15 -53
-31 -81 -91 -155 -70 -87 -74 -94 -118 -235 -62 -199 -84 -311 -92 -475 -3
-77 -15 -187 -27 -245 -23 -117 -21 -223 8 -465 12 -94 14 -167 10 -263 l-7
-133 51 -59 c49 -57 51 -62 75 -177 37 -185 39 -234 19 -402 l-18 -151 27 -55
c15 -31 27 -61 27 -68 0 -6 -12 -43 -27 -81 l-26 -69 18 -70 18 -70 -24 -20
c-13 -11 -36 -29 -50 -41 -21 -17 -34 -48 -63 -153 -20 -73 -36 -137 -36 -143
0 -7 21 -37 46 -68 82 -102 249 -347 268 -395 10 -26 24 -47 30 -47 16 0 59
-71 49 -80 -4 -5 -17 -10 -28 -13 -11 -3 8 -5 42 -6 l63 -1 46 92 47 93 -6 85
c-4 47 -4 103 0 123 6 37 9 40 122 96 64 32 169 77 234 101 106 38 130 52 248
141 72 55 156 121 187 148 32 26 111 76 177 111 66 34 168 94 227 133 l107 72
1 93 0 93 79 117 c104 154 177 288 243 447 115 273 136 340 169 535 30 180 31
194 32 520 l2 335 -52 131 c-36 91 -54 157 -63 220 l-12 91 -72 81 c-65 74
-148 148 -273 243 -66 50 -202 116 -363 177 -133 50 -137 51 -280 57 -101 5
-174 14 -242 31 -98 24 -142 27 -278 14z m55 -360 c153 -11 435 -61 642 -114
126 -32 138 -37 260 -116 l129 -83 82 -161 82 -161 25 -170 c52 -361 44 -638
-27 -920 -39 -153 -45 -167 -131 -320 -50 -88 -135 -225 -188 -305 -128 -190
-234 -287 -437 -400 -194 -108 -291 -170 -417 -268 -60 -47 -115 -89 -121 -94
-12 -9 -206 11 -225 23 -9 5 -9 49 0 186 18 266 32 1241 19 1333 -7 50 -8 222
-3 515 l7 441 -33 123 c-32 122 -32 124 -20 219 l13 96 85 93 c47 51 93 93
102 93 9 0 79 -5 156 -10z"/>
</g>
</svg>
