<?xml version="1.0" standalone="no"?>
<!DOCTYPE svg PUBLIC "-//W3C//DTD SVG 20010904//EN"
 "http://www.w3.org/TR/2001/REC-SVG-20010904/DTD/svg10.dtd">
<svg version="1.0" xmlns="http://www.w3.org/2000/svg"
 width="640.000000pt" height="512.000000pt" viewBox="0 0 640.000000 512.000000"
 preserveAspectRatio="xMidYMid meet">
<metadata>
Created by potrace 1.15, written by Peter Selinger 2001-2017
</metadata>
<g transform="translate(0.000000,512.000000) scale(0.100000,-0.100000)"
fill="#000000" stroke="none">
<path d="M3476 4278 c-9 -51 -32 -185 -51 -298 -19 -113 -46 -245 -60 -295
-20 -74 -25 -112 -25 -219 0 -74 -7 -165 -16 -216 -16 -86 -16 -87 10 -182 14
-53 26 -103 26 -111 0 -8 -28 -33 -62 -55 -35 -22 -79 -52 -99 -67 -25 -18
-80 -38 -167 -59 -71 -18 -138 -39 -149 -47 -11 -8 -64 -51 -119 -96 -98 -80
-99 -83 -132 -167 -18 -46 -46 -131 -61 -188 -21 -77 -41 -123 -79 -183 -38
-60 -58 -108 -82 -193 l-31 -113 17 -82 c10 -45 54 -210 99 -367 l81 -285 70
-108 69 -109 118 -61 117 -62 126 65 c121 63 128 68 186 143 33 43 63 75 67
70 4 -4 42 -46 83 -93 59 -65 87 -109 121 -182 l45 -96 88 -27 c49 -15 108
-33 132 -40 l43 -13 45 68 45 68 -22 113 c-16 79 -36 143 -67 209 -65 140
-102 240 -102 276 0 18 11 83 24 146 14 62 28 156 32 208 5 70 16 120 40 189
32 87 34 102 34 217 0 92 4 134 17 165 14 36 15 52 4 118 -6 45 -11 206 -12
396 0 176 -4 392 -10 480 -5 88 -12 265 -16 393 l-6 233 -46 32 c-25 17 -61
46 -78 64 -33 32 -33 34 -33 126 l0 95 -91 113 c-50 63 -94 115 -98 117 -4 1
-15 -39 -25 -90z m-140 -2025 c-8 -119 -45 -266 -143 -568 -40 -124 -64 -181
-88 -210 -17 -22 -34 -45 -36 -52 -2 -6 -37 -51 -77 -98 -67 -79 -76 -86 -100
-80 -15 4 -32 8 -37 9 -6 1 -56 19 -112 41 l-103 40 0 123 0 124 84 151 c46
84 102 204 126 267 33 87 54 128 89 169 25 29 55 64 66 78 15 18 57 34 175 67
85 25 157 45 159 45 2 1 0 -47 -3 -106z"/>
</g>
</svg>
