<?xml version="1.0" standalone="no"?>
<!DOCTYPE svg PUBLIC "-//W3C//DTD SVG 20010904//EN"
 "http://www.w3.org/TR/2001/REC-SVG-20010904/DTD/svg10.dtd">
<svg version="1.0" xmlns="http://www.w3.org/2000/svg"
 width="640.000000pt" height="512.000000pt" viewBox="0 0 640.000000 512.000000"
 preserveAspectRatio="xMidYMid meet">
<metadata>
Created by potrace 1.15, written by Peter Selinger 2001-2017
</metadata>
<g transform="translate(0.000000,512.000000) scale(0.100000,-0.100000)"
fill="#000000" stroke="none">
<path d="M3220 975 c-153 -35 -149 -32 -180 -110 -15 -39 -33 -105 -40 -147
l-13 -78 41 -52 c22 -29 48 -79 58 -110 15 -50 26 -64 74 -102 31 -25 77 -55
102 -67 41 -20 53 -21 110 -13 l63 9 8 40 c8 37 15 44 78 78 61 34 73 46 109
107 36 62 40 75 40 137 0 46 -9 97 -28 158 l-28 90 -60 32 c-54 29 -72 33
-165 37 -73 4 -124 1 -169 -9z"/>
</g>
</svg>
