<?xml version="1.0" standalone="no"?>
<!DOCTYPE svg PUBLIC "-//W3C//DTD SVG 20010904//EN"
 "http://www.w3.org/TR/2001/REC-SVG-20010904/DTD/svg10.dtd">
<svg version="1.0" xmlns="http://www.w3.org/2000/svg"
 width="640.000000pt" height="512.000000pt" viewBox="0 0 640.000000 512.000000"
 preserveAspectRatio="xMidYMid meet">
<metadata>
Created by potrace 1.15, written by Peter Selinger 2001-2017
</metadata>
<g transform="translate(0.000000,512.000000) scale(0.100000,-0.100000)"
fill="#000000" stroke="none">
<path d="M4464 4365 c3 -13 9 -30 12 -39 7 -19 -6 -20 -56 -6 -19 5 -100 14
-179 20 -142 10 -145 10 -290 -21 -80 -17 -207 -46 -281 -64 -74 -18 -196 -41
-270 -50 -74 -8 -180 -24 -235 -35 -55 -11 -156 -24 -225 -30 -122 -11 -127
-13 -215 -60 -83 -45 -103 -51 -224 -70 -78 -12 -150 -29 -173 -41 -23 -12
-109 -41 -192 -65 -125 -37 -230 -73 -399 -140 -10 -3 -44 -59 -76 -123 l-59
-116 -7 -120 -7 -120 46 -60 45 -60 1 -105 c0 -63 8 -146 20 -208 26 -136 26
-153 -11 -245 l-31 -78 22 -115 c28 -141 26 -209 -25 -739 -29 -306 -39 -376
-65 -465 -17 -58 -37 -163 -45 -235 -19 -166 -20 -538 -2 -553 6 -5 63 -31
125 -56 l114 -45 141 25 c78 14 207 41 285 60 131 31 158 34 293 34 128 0 165
4 254 26 l105 27 95 -36 94 -36 108 30 c59 16 178 38 263 49 85 12 223 32 305
46 137 24 168 26 356 21 l206 -4 109 56 109 56 28 90 c26 85 27 94 16 155 -10
58 -20 75 -82 153 -48 61 -74 86 -86 83 -29 -9 -354 -65 -438 -76 -66 -9 -105
-8 -193 5 -106 14 -115 14 -188 -4 -42 -11 -147 -27 -232 -36 -85 -9 -198 -27
-250 -40 -52 -13 -156 -29 -230 -35 -74 -6 -238 -22 -365 -35 -270 -28 -526
-47 -533 -40 -3 3 5 49 17 103 l22 98 -26 57 c-14 32 -25 70 -24 85 0 15 19
78 42 141 l42 115 110 28 c61 15 173 39 251 52 77 13 198 40 270 60 71 19 199
47 284 61 85 14 216 41 290 60 74 18 185 43 246 54 168 32 294 90 398 185 75
69 83 79 108 151 22 63 25 81 15 94 -51 71 -134 163 -165 184 -37 26 -37 26
-97 11 -33 -9 -154 -38 -270 -65 -143 -33 -239 -62 -300 -89 -72 -32 -139 -50
-335 -90 -315 -64 -409 -77 -607 -85 l-163 -7 0 127 c0 89 7 164 22 244 21
113 21 118 5 265 -10 83 -20 236 -24 339 l-6 188 74 75 c73 73 74 74 194 113
96 32 141 41 225 46 94 6 120 12 252 61 127 48 178 60 370 94 123 21 293 56
378 78 104 27 208 45 315 57 193 20 369 64 545 135 69 28 188 74 265 102 77
27 145 55 151 62 9 8 1 40 -30 123 -23 61 -44 114 -47 117 -3 3 -70 19 -148
35 l-143 29 6 -23z"/>
</g>
</svg>
