<?xml version="1.0" standalone="no"?>
<!DOCTYPE svg PUBLIC "-//W3C//DTD SVG 20010904//EN"
 "http://www.w3.org/TR/2001/REC-SVG-20010904/DTD/svg10.dtd">
<svg version="1.0" xmlns="http://www.w3.org/2000/svg"
 width="640.000000pt" height="512.000000pt" viewBox="0 0 640.000000 512.000000"
 preserveAspectRatio="xMidYMid meet">
<metadata>
Created by potrace 1.15, written by Peter Selinger 2001-2017
</metadata>
<g transform="translate(0.000000,512.000000) scale(0.100000,-0.100000)"
fill="#000000" stroke="none">
<path d="M2955 3190 c-250 -38 -260 -42 -340 -118 -38 -37 -114 -99 -168 -137
-91 -64 -100 -73 -141 -149 -32 -59 -50 -110 -66 -186 -13 -58 -42 -160 -66
-228 -39 -110 -44 -133 -44 -211 0 -48 9 -136 20 -196 11 -60 20 -137 20 -172
0 -94 37 -310 80 -468 20 -77 41 -156 45 -175 4 -19 42 -84 84 -144 l76 -108
135 -68 c251 -125 338 -151 665 -194 66 -9 134 -18 152 -21 31 -6 33 -4 87 89
54 91 56 96 56 168 l0 73 -81 96 -80 97 -147 7 c-240 11 -347 56 -447 186 -22
29 -79 96 -127 150 -49 53 -88 102 -88 108 0 6 14 21 31 33 27 20 43 23 132
24 70 0 180 14 347 41 135 23 281 44 326 48 74 6 90 12 195 68 l113 62 44 110
44 110 -11 105 c-15 144 -14 172 9 251 20 66 20 70 3 103 -10 19 -61 82 -113
141 -52 58 -115 139 -140 180 -25 41 -93 132 -152 203 l-108 129 -76 7 c-103
8 -129 7 -269 -14z m325 -520 c133 -66 160 -84 160 -102 0 -45 -24 -155 -42
-193 -51 -107 -56 -114 -100 -125 -24 -6 -54 -15 -68 -20 -106 -39 -191 -52
-372 -57 -122 -4 -188 -2 -188 5 0 18 51 126 117 247 60 112 69 124 125 160
33 21 85 67 116 102 30 34 64 63 74 63 10 0 90 -36 178 -80z"/>
</g>
</svg>
