<?xml version="1.0" standalone="no"?>
<!DOCTYPE svg PUBLIC "-//W3C//DTD SVG 20010904//EN"
 "http://www.w3.org/TR/2001/REC-SVG-20010904/DTD/svg10.dtd">
<svg version="1.0" xmlns="http://www.w3.org/2000/svg"
 width="640.000000pt" height="512.000000pt" viewBox="0 0 640.000000 512.000000"
 preserveAspectRatio="xMidYMid meet">
<metadata>
Created by potrace 1.15, written by Peter Selinger 2001-2017
</metadata>
<g transform="translate(0.000000,512.000000) scale(0.100000,-0.100000)"
fill="#000000" stroke="none">
<path d="M3556 4649 c4 -8 -21 -10 -89 -8 -79 3 -93 2 -84 -9 9 -12 -7 -13
-96 -10 -59 1 -103 2 -97 0 5 -2 10 -8 10 -14 0 -6 -24 -9 -65 -6 -38 2 -60 0
-52 -5 8 -5 2 -7 -15 -4 -20 3 -25 0 -20 -11 4 -12 0 -14 -16 -10 -14 4 -20 2
-16 -4 5 -7 -4 -9 -24 -6 -27 4 -30 2 -19 -10 10 -13 8 -14 -15 -10 -15 3 -25
1 -22 -3 3 -5 -10 -9 -28 -9 -26 0 -30 -3 -18 -11 12 -8 9 -10 -12 -6 -20 3
-25 0 -20 -11 4 -12 0 -14 -16 -10 -12 4 -20 2 -16 -3 3 -5 -4 -9 -15 -9 -12
0 -21 -5 -21 -11 0 -7 -10 -9 -25 -7 -15 3 -22 1 -18 -5 4 -6 -2 -8 -15 -5
-16 4 -19 2 -15 -10 5 -11 1 -14 -14 -10 -15 4 -20 1 -19 -11 1 -11 -7 -16
-26 -16 -16 -1 -33 -6 -40 -13 -8 -8 -9 -12 -1 -12 6 0 14 5 16 10 3 6 4 5 3
-2 -2 -7 -15 -13 -29 -13 -19 1 -23 -2 -16 -11 12 -15 -24 -30 -43 -18 -8 5
-9 2 -5 -10 5 -13 3 -17 -7 -13 -11 4 -13 1 -9 -10 5 -13 2 -15 -15 -11 -14 4
-20 2 -15 -5 4 -6 0 -8 -10 -4 -11 4 -14 2 -10 -9 4 -11 0 -15 -13 -14 -40 5
-47 1 -34 -15 10 -12 10 -15 -3 -15 -8 0 -20 -7 -27 -15 -7 -8 -17 -15 -22
-15 -5 0 -2 7 6 16 23 23 20 30 -4 9 -13 -11 -18 -25 -14 -37 4 -14 1 -16 -13
-11 -16 6 -17 5 -3 -12 14 -17 13 -18 -4 -12 -14 6 -17 4 -12 -9 7 -19 -11
-47 -25 -38 -5 3 -8 -5 -6 -17 1 -12 -4 -24 -12 -27 -9 -3 -11 0 -6 8 6 9 4
11 -4 5 -8 -4 -10 -17 -7 -31 6 -23 -1 -29 -31 -25 -7 1 -13 -2 -13 -7 0 -4 6
-14 13 -21 10 -11 9 -13 -5 -8 -13 4 -15 2 -11 -10 5 -13 2 -15 -11 -10 -13 5
-16 3 -12 -11 6 -19 -9 -50 -20 -40 -12 13 -43 -38 -37 -61 4 -16 2 -20 -10
-15 -12 4 -14 1 -10 -17 5 -16 3 -20 -6 -14 -10 6 -11 2 -6 -15 6 -18 4 -22
-9 -17 -13 5 -14 0 -10 -26 5 -26 3 -29 -6 -17 -9 12 -10 9 -5 -14 5 -24 3
-27 -10 -22 -13 4 -15 1 -10 -14 5 -15 3 -18 -9 -14 -19 7 -21 -7 -3 -25 10
-11 9 -13 -5 -8 -15 5 -16 1 -11 -25 5 -27 4 -30 -11 -25 -14 6 -16 3 -11 -14
5 -14 3 -19 -4 -15 -7 5 -9 -3 -4 -25 5 -28 4 -31 -11 -26 -14 6 -16 3 -11
-13 5 -15 3 -18 -9 -14 -9 3 -16 1 -16 -5 0 -6 5 -11 10 -11 6 0 10 -9 10 -21
0 -15 -5 -19 -15 -15 -12 4 -14 0 -9 -19 5 -18 2 -25 -9 -25 -11 0 -13 -6 -9
-22 3 -13 1 -19 -5 -15 -6 4 -8 -4 -5 -20 4 -21 2 -25 -11 -20 -14 5 -15 1
-10 -25 4 -22 3 -29 -5 -24 -8 5 -10 -2 -5 -25 5 -28 4 -31 -11 -26 -14 6 -16
3 -11 -13 5 -15 3 -18 -9 -14 -19 7 -19 4 -6 -31 9 -22 8 -26 -4 -22 -12 5
-13 -1 -9 -30 5 -30 4 -35 -10 -30 -13 5 -15 0 -10 -30 4 -26 3 -34 -5 -29 -9
5 -10 -6 -5 -40 5 -40 4 -46 -9 -41 -13 5 -15 -1 -11 -36 3 -28 1 -38 -5 -28
-8 11 -11 11 -18 0 -4 -7 -3 -14 4 -17 9 -3 12 -59 12 -204 0 -156 -3 -199
-12 -195 -10 3 -12 -65 -10 -325 2 -267 0 -329 -10 -325 -11 4 -12 -108 -10
-590 2 -403 -1 -592 -8 -588 -7 4 -10 -32 -10 -107 0 -83 3 -109 11 -98 9 12
10 11 6 -8 -3 -15 0 -22 9 -22 8 0 14 -7 14 -15 0 -8 4 -15 9 -15 5 0 7 -10 3
-22 -3 -14 -2 -19 6 -14 8 5 12 -2 12 -18 0 -14 4 -26 10 -26 5 0 7 -7 4 -15
-4 -8 -1 -15 5 -15 6 0 11 -6 11 -14 0 -8 5 -16 11 -18 6 -2 12 -16 12 -31 0
-24 2 -26 24 -21 23 6 24 4 18 -16 -5 -17 -4 -21 6 -15 9 6 11 3 6 -9 -9 -22
13 -56 35 -56 17 0 23 15 20 54 -2 12 3 16 13 12 18 -7 20 5 3 23 -11 11 -10
13 5 8 15 -6 17 -3 12 13 -4 14 -2 20 8 20 10 0 14 7 10 22 -4 19 -3 20 7 8 9
-12 10 -9 5 14 -5 24 -3 27 10 22 13 -4 15 -1 10 14 -5 15 -3 18 9 14 19 -7
21 7 4 25 -11 11 -10 13 5 8 15 -6 17 -3 11 15 -5 17 -3 20 10 15 14 -6 16 -3
11 14 -5 16 -4 19 5 14 10 -6 11 -1 6 20 -5 20 -4 26 6 23 10 -4 13 11 13 62
0 50 -3 66 -12 63 -10 -4 -13 31 -13 156 0 101 4 161 10 161 6 0 10 30 10 71
0 38 4 68 8 65 4 -2 6 27 4 66 -4 59 -2 70 10 66 12 -5 13 5 10 53 -4 52 -2
58 12 53 16 -6 16 3 1 79 -2 9 2 17 8 17 8 0 12 21 12 57 0 34 4 57 10 56 6
-1 9 15 7 39 -3 29 -1 39 7 34 8 -6 10 4 5 35 -6 35 -5 41 8 36 13 -4 15 3 11
41 -3 32 -1 43 5 33 15 -21 22 3 12 38 -7 26 -6 32 4 28 10 -4 12 5 8 40 -5
43 -4 46 17 40 13 -3 19 -1 14 6 -4 6 2 8 16 4 17 -4 21 -2 17 9 -3 8 1 14 8
14 8 0 16 5 18 12 2 6 20 12 40 12 26 1 34 5 30 15 -4 10 0 13 16 9 14 -4 20
-2 15 5 -4 6 2 8 16 4 18 -4 21 -2 17 10 -5 11 -1 14 13 10 13 -3 18 -1 15 8
-7 16 46 29 78 20 17 -5 19 -4 8 4 -21 14 -5 25 39 26 28 0 37 4 33 14 -4 10
2 13 26 9 17 -2 29 -1 26 4 -3 4 9 8 26 8 21 0 29 4 24 12 -5 7 0 9 14 6 14
-4 19 -2 16 7 -6 15 55 29 89 21 12 -3 16 -3 10 0 -25 11 -13 26 16 22 18 -3
27 0 24 5 -3 6 7 8 25 5 23 -3 29 -1 24 10 -4 11 3 14 30 10 28 -3 35 -1 30
11 -4 10 2 13 26 9 18 -2 29 0 25 5 -3 6 7 8 25 5 23 -3 29 -1 24 10 -4 12 1
14 29 9 26 -5 30 -4 19 4 -12 8 -8 10 16 7 23 -3 31 -1 27 8 -6 15 59 30 78
18 9 -5 10 -2 6 11 -6 15 -3 17 22 13 20 -3 27 0 24 8 -5 14 58 28 90 19 17
-5 19 -4 7 4 -22 15 -3 26 45 26 31 0 41 3 34 11 -6 8 -2 14 13 19 13 4 25 7
28 7 3 0 4 16 2 35 -4 30 -2 35 11 30 14 -5 15 -1 11 26 -4 25 -3 29 5 17 9
-11 10 -4 5 29 -6 36 -4 43 7 39 11 -4 14 5 14 42 0 41 -2 46 -19 42 -12 -3
-17 -1 -13 5 4 7 -9 9 -40 5 -37 -4 -45 -2 -41 9 4 11 -4 13 -40 10 -35 -2
-44 0 -40 10 4 11 -7 13 -51 11 -36 -2 -51 0 -43 6 9 6 -5 7 -37 4 -32 -3 -51
-1 -51 6 0 6 6 12 13 15 6 2 -2 4 -19 3 -22 -1 -30 -5 -26 -15 4 -10 -3 -13
-31 -9 -21 2 -33 0 -30 -6 4 -5 -11 -7 -36 -3 -35 4 -40 3 -30 -9 9 -12 6 -14
-19 -14 -17 0 -34 -5 -38 -11 -3 -6 -21 -9 -39 -7 -20 2 -31 0 -28 -6 4 -5
-11 -7 -37 -3 -27 3 -38 2 -30 -3 24 -15 6 -21 -63 -23 -50 -2 -63 -5 -59 -16
4 -11 -3 -13 -38 -8 -31 4 -40 3 -29 -4 10 -8 5 -9 -19 -6 -26 3 -32 0 -27
-11 4 -12 -3 -14 -37 -9 -24 2 -37 3 -30 0 28 -11 10 -25 -27 -21 -22 2 -37 0
-35 -4 3 -5 -4 -8 -15 -8 -12 0 -21 -5 -21 -11 0 -7 -15 -10 -39 -7 -22 2 -37
0 -34 -5 3 -5 -8 -7 -23 -5 -26 3 -29 7 -28 35 1 24 -2 30 -13 26 -12 -5 -14
-1 -9 15 6 18 4 21 -11 15 -15 -5 -16 -3 -5 8 17 18 15 32 -4 25 -14 -5 -16
-1 -11 23 5 24 3 29 -8 24 -13 -4 -15 12 -15 102 0 84 3 106 13 102 10 -4 12
8 9 54 -4 50 -2 58 11 53 15 -5 16 11 3 104 -2 14 1 21 8 19 8 -3 10 15 8 66
-4 57 -2 69 10 65 11 -5 13 8 10 66 -2 46 0 66 6 57 6 -8 8 13 4 60 -4 62 -3
71 10 66 13 -4 14 2 10 39 -4 39 -3 44 13 38 14 -6 16 -3 11 14 -3 12 -9 32
-12 44 -5 15 -3 20 8 16 10 -4 13 2 10 28 -3 21 0 34 7 34 6 0 11 14 11 31 0
19 4 28 11 23 8 -4 9 1 4 16 -6 20 -4 22 15 17 17 -4 20 -2 16 10 -5 11 -2 13
9 9 10 -3 13 -2 9 5 -9 15 34 52 52 45 10 -4 13 -2 8 6 -5 8 -2 9 10 5 12 -5
16 -2 14 10 -2 9 4 18 12 20 13 4 13 3 0 -7 -13 -10 -13 -11 0 -7 8 2 15 10
15 18 1 24 17 41 35 36 10 -2 24 -1 31 4 10 6 11 9 2 9 -7 0 -13 5 -13 11 0 6
7 8 16 5 10 -4 13 -2 8 6 -5 8 -2 9 9 5 20 -7 23 8 5 17 -7 3 -1 4 14 2 16 -2
33 3 39 10 7 9 8 14 1 14 -6 0 -13 -5 -15 -10 -3 -6 -4 -5 -3 2 2 8 15 12 32
11 21 -2 25 0 14 7 -20 13 -6 23 34 24 24 1 32 5 28 15 -4 10 0 13 16 9 12 -4
20 -2 16 3 -3 5 4 9 16 9 13 0 19 4 14 12 -5 7 0 9 14 6 14 -4 19 -2 15 8 -3
8 7 15 31 20 20 3 36 11 36 16 0 6 11 8 25 6 14 -3 22 -1 18 5 -3 6 11 8 36 5
32 -3 40 0 36 10 -4 11 7 13 54 10 41 -2 57 0 54 9 -3 8 13 11 55 10 33 -1 58
2 55 6 -3 5 22 7 55 5 44 -2 58 0 55 10 -4 9 13 12 67 12 54 0 71 -3 67 -12
-3 -10 9 -12 49 -10 42 3 53 1 51 -10 -2 -7 -2 -10 0 -5 7 11 91 9 98 -3 3 -5
26 -10 50 -10 34 0 43 -3 39 -14 -4 -11 0 -13 15 -9 36 9 153 -7 148 -21 -3
-8 5 -11 27 -8 24 3 28 1 16 -7 -11 -8 -7 -9 19 -4 28 5 33 3 29 -9 -5 -11 0
-14 20 -11 21 4 24 2 12 -6 -12 -8 -8 -11 18 -11 18 0 31 -4 28 -8 -3 -5 9 -6
26 -4 24 4 30 1 26 -9 -4 -11 3 -14 31 -12 29 3 32 1 16 -7 l-20 -10 20 3 c19
2 20 10 20 146 0 120 -3 145 -15 148 -13 4 -13 3 0 -7 13 -10 13 -11 0 -7 -8
2 -14 11 -14 20 1 8 -14 30 -34 49 -19 18 -31 27 -27 19 5 -9 3 -12 -6 -9 -8
3 -15 11 -15 19 -1 8 -2 19 -3 25 0 7 -8 14 -15 17 -10 4 -13 1 -9 -9 3 -7 10
-14 16 -14 6 0 7 -3 4 -7 -11 -10 -44 31 -39 47 5 13 3 13 -11 2 -14 -12 -19
-11 -34 3 -16 17 -16 17 6 10 21 -6 22 -5 10 8 -8 8 -19 13 -25 10 -6 -2 -27
12 -48 32 -21 19 -33 35 -27 35 5 0 23 -14 40 -31 17 -17 31 -27 31 -23 0 11
-64 69 -77 70 -34 3 -35 4 -23 19 14 17 8 19 -44 15 -20 -1 -27 2 -24 12 4 10
-5 12 -38 9 -33 -2 -43 0 -41 10 2 8 2 11 0 7 -3 -5 -23 -8 -45 -8 -28 0 -39
4 -35 13 3 9 -9 11 -46 8 -39 -2 -49 0 -45 10 4 11 -5 13 -40 10 -31 -2 -42 0
-38 8 5 7 -9 11 -44 11 -35 0 -49 -4 -44 -11z"/>
</g>
</svg>
