<?xml version="1.0" standalone="no"?>
<!DOCTYPE svg PUBLIC "-//W3C//DTD SVG 20010904//EN"
 "http://www.w3.org/TR/2001/REC-SVG-20010904/DTD/svg10.dtd">
<svg version="1.0" xmlns="http://www.w3.org/2000/svg"
 width="640.000000pt" height="512.000000pt" viewBox="0 0 640.000000 512.000000"
 preserveAspectRatio="xMidYMid meet">
<metadata>
Created by potrace 1.15, written by Peter Selinger 2001-2017
</metadata>
<g transform="translate(0.000000,512.000000) scale(0.100000,-0.100000)"
fill="#000000" stroke="none">
<path d="M3280 4374 c0 -11 -21 -102 -46 -202 l-46 -184 16 -88 c20 -108 20
-157 2 -291 -8 -57 -17 -160 -20 -229 -4 -69 -16 -177 -28 -241 -20 -107 -24
-118 -50 -133 -32 -20 -33 -22 -13 -166 8 -58 15 -137 15 -176 0 -78 -10 -94
-86 -145 -24 -16 -48 -48 -74 -99 -27 -53 -48 -81 -71 -94 -19 -11 -106 -66
-195 -122 -89 -56 -208 -126 -265 -154 -57 -29 -106 -54 -107 -55 -10 -9 14
-47 65 -102 l58 -62 124 -11 124 -10 45 37 c160 134 155 131 237 152 43 11 81
18 84 15 2 -2 -8 -49 -24 -103 l-28 -99 -76 -45 c-42 -26 -117 -62 -166 -80
-127 -48 -343 -158 -421 -214 -94 -68 -196 -213 -214 -303 -21 -110 -5 -242
44 -376 l42 -113 141 -158 c77 -87 166 -188 198 -225 47 -56 74 -77 158 -122
l102 -54 105 19 c97 18 130 33 130 60 0 4 34 88 77 186 l76 178 23 215 c12
118 30 296 40 395 l18 180 45 65 c24 36 73 97 108 136 60 68 119 174 110 198
-3 7 -48 29 -101 51 -82 33 -96 42 -96 62 0 12 18 130 39 260 22 131 45 283
51 338 13 105 41 192 125 395 71 169 76 221 64 630 -5 184 -13 360 -17 390 -5
30 -28 119 -52 198 l-44 142 -98 80 c-110 91 -128 101 -128 74z m-287 -3068
c21 -16 21 -46 1 -200 -10 -79 -26 -147 -45 -196 -26 -67 -29 -87 -29 -188 0
-112 -1 -115 -35 -175 -19 -34 -44 -73 -55 -86 l-21 -24 -22 21 c-23 21 -85
42 -128 42 -32 0 -48 18 -147 163 -66 97 -81 127 -87 170 -4 29 -11 59 -15 67
-10 17 18 76 67 139 28 38 68 63 251 163 119 65 224 118 232 118 8 -1 23 -7
33 -14z"/>
</g>
</svg>
