<?xml version="1.0" standalone="no"?>
<!DOCTYPE svg PUBLIC "-//W3C//DTD SVG 20010904//EN"
 "http://www.w3.org/TR/2001/REC-SVG-20010904/DTD/svg10.dtd">
<svg version="1.0" xmlns="http://www.w3.org/2000/svg"
 width="640.000000pt" height="512.000000pt" viewBox="0 0 640.000000 512.000000"
 preserveAspectRatio="xMidYMid meet">
<metadata>
Created by potrace 1.15, written by Peter Selinger 2001-2017
</metadata>
<g transform="translate(0.000000,512.000000) scale(0.100000,-0.100000)"
fill="#000000" stroke="none">
<path d="M3746 4589 c5 -8 -1 -10 -19 -7 -16 3 -24 1 -20 -5 4 -6 -4 -8 -21
-5 -14 3 -26 1 -26 -4 0 -6 -6 -8 -14 -5 -8 3 -16 1 -18 -4 -2 -6 -22 -11 -45
-12 -22 -1 -38 -6 -35 -11 3 -5 -5 -7 -16 -4 -14 4 -20 2 -15 -5 4 -7 0 -8
-11 -4 -11 5 -15 3 -10 -5 5 -7 0 -9 -14 -6 -12 4 -20 2 -17 -2 7 -11 -31 -23
-45 -15 -5 3 -10 2 -10 -3 0 -13 -87 -45 -100 -37 -5 3 -10 2 -10 -4 0 -5 -16
-15 -35 -21 -19 -6 -33 -16 -30 -21 4 -5 -2 -6 -11 -2 -13 5 -15 3 -9 -7 6
-10 4 -12 -8 -7 -11 4 -22 -2 -32 -16 -8 -12 -15 -17 -15 -12 -1 6 -9 0 -19
-11 -9 -12 -26 -24 -37 -26 -10 -2 -18 -9 -17 -15 1 -6 -4 -14 -13 -17 -10 -4
-13 -1 -9 7 4 6 -3 1 -14 -12 -12 -13 -21 -19 -21 -15 0 5 -12 -5 -27 -21 -16
-16 -27 -33 -26 -36 1 -4 -4 -10 -13 -13 -10 -4 -13 -1 -9 7 4 6 -2 2 -13 -10
-11 -12 -22 -20 -25 -17 -3 3 -12 -3 -19 -15 -7 -12 -21 -21 -31 -21 -10 0
-15 -4 -12 -10 6 -9 -8 -14 -28 -11 -4 1 -10 -6 -13 -14 -4 -8 -11 -15 -18
-15 -15 0 -265 -258 -257 -266 3 -4 -2 -4 -12 -1 -11 4 -20 1 -23 -8 -4 -8
-10 -12 -15 -9 -5 3 -12 -2 -15 -10 -3 -9 -10 -13 -15 -10 -5 3 -9 0 -9 -5 0
-6 -7 -11 -15 -11 -8 0 -15 -4 -15 -10 0 -5 -7 -10 -15 -10 -8 0 -15 -4 -15
-10 0 -5 -11 -12 -24 -16 -14 -3 -33 -15 -43 -27 -10 -11 -12 -17 -4 -12 18
10 -18 -52 -39 -68 -13 -11 -13 -10 0 8 14 18 14 19 -2 7 -9 -8 -15 -19 -12
-27 3 -7 0 -16 -7 -21 -8 -5 -10 -3 -4 6 6 9 4 11 -4 6 -7 -5 -10 -15 -7 -23
3 -8 1 -11 -4 -8 -5 3 -21 -14 -36 -37 -15 -24 -33 -47 -41 -51 -7 -5 -11 -12
-8 -17 3 -4 -2 -11 -11 -14 -8 -3 -12 -10 -9 -16 3 -5 1 -10 -4 -10 -6 0 -11
-7 -11 -15 0 -8 -9 -24 -20 -35 -12 -12 -18 -25 -15 -31 6 -9 -31 -79 -41 -79
-3 0 -2 6 1 13 4 6 -1 3 -9 -8 -9 -11 -14 -25 -12 -32 3 -7 0 -12 -7 -10 -7 1
-11 -6 -11 -15 1 -10 -3 -15 -9 -11 -6 4 -8 0 -4 -11 4 -10 3 -15 -3 -11 -9 6
-14 -8 -11 -27 0 -5 -4 -8 -10 -8 -6 0 -8 -7 -5 -16 3 -8 2 -13 -2 -10 -9 5
-57 -83 -54 -96 1 -5 -3 -8 -9 -8 -5 0 -7 -4 -4 -10 3 -5 1 -10 -5 -10 -6 0
-8 -5 -5 -10 3 -6 1 -10 -5 -10 -6 0 -9 -4 -6 -9 9 -14 -5 -42 -17 -34 -5 3
-7 1 -4 -5 10 -14 -3 -43 -15 -36 -6 4 -8 -2 -3 -15 4 -12 2 -21 -4 -21 -6 0
-8 -7 -5 -15 4 -8 1 -15 -5 -15 -6 0 -8 -7 -4 -17 4 -10 2 -14 -4 -10 -7 5 -9
-1 -5 -15 4 -15 2 -19 -7 -13 -10 6 -11 2 -6 -15 5 -16 4 -20 -5 -15 -9 5 -10
1 -5 -15 4 -14 3 -20 -3 -16 -13 8 -23 -19 -15 -41 5 -11 3 -14 -6 -8 -10 5
-11 2 -6 -14 3 -11 2 -21 -3 -21 -6 0 -8 -10 -4 -22 3 -15 2 -19 -7 -14 -9 6
-10 0 -5 -20 5 -20 4 -25 -6 -19 -9 5 -10 2 -5 -15 5 -17 4 -21 -6 -15 -9 6
-11 4 -6 -8 3 -9 3 -19 -2 -21 -4 -3 -13 -30 -20 -61 -7 -30 -17 -55 -23 -55
-5 0 -8 -7 -5 -15 4 -8 2 -17 -3 -20 -5 -3 -7 -12 -4 -19 3 -8 1 -17 -5 -20
-6 -4 -8 -13 -4 -21 3 -8 1 -15 -5 -15 -6 0 -8 -10 -4 -22 3 -13 1 -19 -5 -15
-6 4 -8 -4 -5 -20 4 -19 2 -24 -8 -18 -9 5 -10 2 -5 -14 3 -11 2 -21 -3 -21
-6 0 -8 -9 -5 -20 3 -11 1 -20 -5 -20 -6 0 -8 -10 -4 -22 3 -13 1 -19 -5 -15
-6 4 -8 -4 -5 -20 3 -17 1 -24 -6 -19 -6 4 -8 -2 -4 -16 3 -15 2 -19 -7 -14
-9 6 -10 0 -5 -20 5 -19 4 -25 -5 -20 -8 6 -10 0 -5 -18 3 -15 2 -26 -4 -26
-5 0 -7 -12 -4 -26 3 -18 1 -25 -6 -20 -6 4 -8 -2 -4 -16 3 -15 2 -19 -7 -14
-9 6 -10 0 -5 -20 4 -15 3 -25 -2 -21 -5 3 -9 -27 -9 -68 0 -41 4 -71 9 -68 5
4 7 -14 4 -40 -4 -30 -2 -44 5 -40 6 4 8 -14 5 -50 -3 -35 -1 -54 5 -50 6 4 8
-10 4 -35 -3 -28 -2 -40 5 -36 7 4 9 -8 6 -35 -2 -22 1 -41 6 -41 5 0 6 -18 3
-40 -3 -26 -2 -38 5 -34 7 4 9 -8 6 -35 -2 -22 0 -41 5 -41 4 0 5 -4 2 -10 -3
-5 -1 -10 5 -10 6 0 8 -4 5 -10 -3 -5 -1 -10 5 -10 6 0 8 -4 5 -10 -3 -5 -1
-10 5 -10 7 0 9 -7 6 -16 -3 -8 -2 -12 3 -9 12 7 25 -31 16 -45 -3 -5 -1 -10
5 -10 6 0 8 -4 5 -10 -3 -5 -1 -10 5 -10 6 0 8 -4 5 -10 -3 -5 -1 -10 4 -10 6
0 10 -3 9 -7 -3 -14 35 -82 43 -78 4 3 5 -5 1 -17 -3 -13 -1 -19 5 -15 7 5 9
-1 5 -15 -4 -16 -2 -19 8 -13 10 6 12 3 8 -13 -4 -12 -2 -22 4 -22 5 0 6 -10
3 -21 -5 -16 -4 -19 5 -14 9 5 10 1 5 -15 -5 -17 -4 -21 6 -15 9 6 11 3 6 -10
-9 -22 10 -46 30 -38 12 5 14 3 8 -7 -5 -8 -4 -11 3 -7 14 9 43 -3 36 -14 -5
-9 0 -11 28 -13 7 -1 23 -11 36 -23 14 -13 28 -20 33 -17 5 3 9 0 9 -6 0 -6 5
-8 10 -5 5 3 10 1 10 -5 0 -6 4 -8 10 -5 5 3 10 1 10 -5 0 -6 4 -9 9 -6 12 8
42 -4 36 -14 -3 -5 5 -6 17 -2 13 3 19 1 15 -5 -4 -6 4 -8 20 -5 14 3 24 1 20
-4 -3 -5 11 -9 31 -10 20 0 37 -5 39 -11 2 -5 15 -8 30 -5 16 3 24 1 20 -5 -4
-6 4 -8 20 -5 17 3 24 1 19 -6 -4 -6 2 -8 16 -4 13 3 19 1 15 -5 -4 -6 4 -8
20 -5 16 3 24 1 20 -5 -4 -6 4 -8 20 -5 14 3 23 1 20 -4 -3 -5 30 -9 73 -9 43
0 76 3 73 8 -2 4 25 7 61 7 36 0 66 -4 66 -10 0 -5 6 -7 14 -4 8 3 17 1 20 -5
4 -6 13 -8 21 -5 8 3 20 2 27 -2 18 -12 138 -42 139 -35 4 54 3 99 -3 95 -4
-3 -8 14 -8 36 0 33 3 41 15 36 8 -3 15 -2 15 2 0 5 39 13 88 19 86 11 145 29
137 43 -6 10 44 32 56 25 5 -4 9 -1 9 5 0 6 5 8 10 5 6 -3 10 -2 10 3 0 11 69
44 80 37 5 -3 12 0 16 6 4 8 3 9 -4 5 -7 -4 -12 -5 -12 -2 0 10 61 37 70 31 6
-3 10 -1 10 5 0 6 5 8 10 5 6 -3 13 0 16 8 3 9 19 21 35 27 16 7 29 17 29 22
0 5 4 7 9 4 5 -3 20 3 32 15 13 11 18 18 12 14 -18 -9 -16 -3 10 33 13 17 27
29 30 26 8 -9 27 32 19 41 -4 5 -2 6 3 2 6 -3 17 3 24 15 9 14 9 18 1 13 -20
-13 5 28 32 50 22 19 22 18 -2 -9 -57 -66 4 -10 81 76 46 50 77 88 69 83 -13
-8 -13 -7 -1 8 10 12 10 17 2 17 -8 0 -10 8 -6 21 5 14 3 19 -3 15 -13 -8 -26
29 -16 45 4 8 3 9 -4 5 -9 -5 -12 8 -12 44 0 28 4 49 8 46 5 -3 6 8 4 25 -2
16 0 29 5 29 5 0 8 14 5 30 -2 17 0 30 6 30 6 0 8 10 4 22 -3 13 -1 19 5 15 6
-4 8 4 5 20 -3 17 -1 24 6 19 6 -4 8 2 4 16 -3 11 -1 19 4 16 5 -4 9 20 9 53
0 32 -4 59 -8 59 -5 0 -7 22 -5 49 1 27 0 47 -4 44 -9 -5 -11 108 -2 131 3 9
11 13 16 10 6 -4 8 2 3 15 -4 12 -2 21 4 21 6 0 8 7 5 15 -4 8 -1 15 5 15 6 0
8 6 5 14 -3 8 2 29 11 46 12 23 22 31 36 27 12 -3 17 -1 12 6 -4 6 2 8 15 5
14 -4 20 -2 15 5 -4 6 0 8 10 4 9 -3 17 -1 20 6 2 8 26 12 64 12 34 0 59 3 57
6 -2 3 50 9 115 12 124 7 343 -1 336 -12 -2 -4 12 -5 32 -3 34 4 36 3 31 -21
-3 -16 -1 -24 5 -20 6 3 8 -6 5 -26 -2 -17 -1 -31 4 -31 4 0 8 -23 8 -51 0
-30 -4 -48 -10 -44 -6 4 -7 -6 -4 -25 4 -18 2 -30 -4 -30 -5 0 -8 -9 -5 -20 3
-11 1 -20 -4 -20 -5 0 -7 -14 -5 -31 3 -20 1 -29 -5 -26 -6 4 -8 -4 -5 -20 3
-18 1 -24 -6 -19 -8 5 -10 -2 -6 -24 4 -17 2 -30 -3 -30 -6 0 -8 -12 -5 -26 3
-15 1 -24 -4 -21 -5 3 -8 -25 -6 -64 2 -38 0 -69 -5 -69 -4 0 -8 -37 -8 -82 0
-54 -4 -83 -12 -85 -7 -3 -9 -11 -6 -19 3 -8 1 -14 -5 -14 -6 0 -8 -10 -4 -22
4 -15 2 -19 -7 -13 -10 6 -11 2 -6 -15 5 -16 4 -20 -4 -15 -8 5 -10 -1 -5 -21
5 -20 4 -25 -6 -19 -9 5 -10 2 -5 -15 5 -16 4 -20 -5 -15 -9 5 -10 2 -5 -14 4
-12 2 -21 -4 -21 -6 0 -10 -3 -10 -8 1 -4 0 -10 -1 -14 -1 -5 -3 -11 -5 -15
-1 -5 -7 -21 -13 -36 -7 -16 -12 -39 -12 -52 0 -13 -4 -26 -8 -29 -5 -3 -7
-19 -4 -36 2 -16 0 -30 -5 -30 -6 0 -8 -11 -5 -25 2 -13 1 -33 -3 -42 -4 -10
-7 -30 -6 -46 2 -15 -1 -27 -6 -27 -4 0 -8 -23 -8 -50 0 -28 4 -50 8 -50 5 0
7 -7 3 -15 -3 -8 0 -15 5 -15 6 0 9 -9 6 -20 -3 -11 -1 -20 4 -20 6 0 9 -6 8
-12 -3 -19 19 -68 31 -68 5 0 10 4 10 8 0 5 27 21 61 35 34 15 58 31 54 36 -4
7 1 8 11 4 11 -4 15 -2 11 4 -8 13 20 26 35 16 6 -3 8 -2 5 4 -4 6 5 15 19 22
20 9 24 9 18 -1 -6 -9 -3 -9 9 1 9 7 17 19 17 25 0 6 8 27 18 46 11 19 17 41
15 48 -3 6 0 12 5 12 6 0 8 10 4 22 -3 13 -1 19 5 15 7 -5 9 1 5 15 -4 15 -2
19 7 13 10 -5 11 -2 6 14 -4 12 -2 21 4 21 6 0 8 7 5 15 -4 8 -1 15 6 15 6 0
8 4 5 10 -3 5 -2 10 3 10 6 0 8 10 4 22 -3 13 -1 19 5 15 7 -5 9 1 5 15 -3 13
-1 19 5 15 6 -4 8 4 5 20 -3 18 -1 24 6 19 8 -5 10 2 6 24 -4 17 -2 30 3 30 6
0 8 12 5 26 -3 16 -1 25 5 21 5 -4 8 7 5 25 -3 22 -1 29 7 24 9 -6 10 0 5 20
-5 19 -4 25 5 20 9 -6 10 0 5 20 -5 19 -4 25 4 20 8 -5 10 2 5 25 -4 21 -2 30
4 26 6 -4 8 4 5 20 -3 18 -1 24 6 19 8 -5 10 2 5 25 -4 24 -3 30 6 25 9 -6 10
0 5 20 -5 20 -4 25 6 19 9 -5 10 -2 6 13 -4 11 -2 23 4 27 6 4 9 13 6 21 -3 7
-1 16 4 19 5 3 12 46 16 95 3 50 10 90 14 90 3 0 5 13 2 30 -2 16 -1 38 3 47
5 10 7 24 6 30 -1 7 3 13 8 13 6 0 8 7 5 15 -4 8 -2 15 4 15 6 0 8 10 4 22 -3
13 -1 19 5 15 7 -5 9 1 5 15 -4 15 -2 19 7 13 10 -5 11 -2 6 14 -4 12 -2 21 4
21 6 0 8 7 5 15 -4 8 -1 15 5 15 6 0 8 7 5 15 -4 8 -2 15 4 15 6 0 8 10 4 22
-3 11 -1 19 4 16 5 -4 9 13 9 37 0 24 -4 41 -9 38 -5 -3 -7 8 -4 26 2 17 0 31
-5 31 -5 0 -7 9 -4 20 3 11 0 20 -5 20 -6 0 -8 12 -4 30 4 22 2 29 -5 24 -8
-5 -10 3 -7 24 3 19 1 29 -6 25 -5 -4 -7 1 -3 11 4 10 1 19 -8 22 -8 4 -12 10
-9 15 3 5 0 9 -5 9 -6 0 -10 3 -9 8 2 8 -61 122 -69 122 -2 0 -1 -4 2 -10 3
-5 4 -10 1 -10 -3 0 -10 10 -17 21 -9 17 -8 20 3 14 7 -5 10 -4 5 0 -10 12
-97 13 -90 2 3 -5 -29 -7 -71 -5 -42 2 -76 0 -76 -4 0 -5 -25 -8 -56 -8 -36 0
-53 4 -49 10 4 7 -2 9 -19 4 -14 -3 -34 -3 -43 1 -10 4 -32 7 -49 6 -18 -1
-35 2 -39 8 -8 14 -108 14 -122 0 -7 -7 -46 -10 -106 -7 -52 1 -93 -1 -90 -5
3 -5 -44 -7 -105 -5 -61 1 -108 -1 -105 -5 3 -5 -24 -7 -60 -5 -36 1 -63 0
-60 -4 2 -5 -16 -8 -40 -8 -24 0 -66 -3 -92 -7 -32 -4 -46 -3 -42 4 4 6 -4 8
-20 5 -17 -3 -24 -1 -19 6 4 6 -2 8 -16 4 -16 -4 -19 -2 -13 8 6 10 4 12 -9 7
-10 -4 -23 -4 -29 0 -7 4 -16 8 -22 9 -23 3 -55 17 -55 24 0 5 -9 6 -20 3 -11
-3 -20 0 -20 6 0 5 -7 8 -15 5 -8 -4 -15 -1 -15 6 0 6 -4 8 -10 5 -12 -7 -130
16 -125 25 3 4 -7 5 -22 2 -16 -3 -24 -1 -20 5 4 6 -4 8 -20 5 -16 -3 -24 -1
-20 5 4 6 -4 8 -20 5 -14 -3 -23 -1 -20 4 7 12 -40 11 -50 -1 -5 -4 -2 -5 5
-1 6 4 12 5 12 2 0 -3 -10 -10 -21 -17 -17 -9 -20 -8 -14 3 3 7 -5 1 -19 -15
-14 -15 -28 -27 -31 -27 -10 1 -95 -72 -91 -79 2 -3 -8 -15 -23 -25 l-26 -20
20 25 20 24 -22 -19 c-17 -14 -21 -25 -16 -44 4 -17 2 -23 -5 -18 -8 5 -10 -2
-6 -24 4 -17 2 -30 -3 -30 -6 0 -8 -12 -5 -26 3 -19 1 -25 -7 -20 -9 6 -10 0
-5 -20 5 -19 4 -25 -4 -20 -8 5 -10 -2 -5 -25 4 -21 3 -30 -4 -26 -17 11 -8
-50 10 -68 10 -9 17 -13 17 -8 0 4 5 0 11 -9 5 -9 16 -15 23 -12 8 3 17 0 22
-7 5 -8 3 -10 -6 -4 -9 5 -11 4 -6 -4 4 -6 11 -9 16 -6 12 8 41 -6 34 -16 -3
-5 4 -9 14 -9 11 0 23 -7 26 -16 3 -8 10 -12 16 -9 5 3 10 1 10 -6 0 -7 3 -9
7 -6 3 4 12 -1 20 -11 8 -9 12 -11 8 -5 -4 9 -1 11 9 7 9 -3 14 -9 11 -13 -2
-4 10 -5 27 -3 20 3 29 1 24 -6 -4 -7 7 -8 33 -5 23 3 41 1 45 -6 4 -6 29 -11
57 -11 27 0 49 -4 49 -9 0 -4 11 -6 25 -3 17 3 25 0 25 -10 0 -8 7 -23 16 -34
8 -10 13 -12 9 -4 -4 8 3 4 14 -10 11 -14 19 -30 16 -37 -2 -7 1 -15 7 -19 7
-5 8 -2 4 7 -4 8 0 5 8 -6 9 -11 14 -25 12 -32 -3 -7 -1 -13 5 -13 6 0 7 -4 4
-10 -3 -5 -1 -10 5 -10 7 0 10 -6 7 -14 -3 -8 1 -20 9 -27 8 -7 13 -18 10 -26
-3 -7 -2 -13 2 -13 7 0 43 -63 47 -80 8 -39 17 -60 25 -55 6 4 10 -26 10 -79
0 -91 -6 -120 -23 -109 -6 4 -8 0 -4 -11 4 -10 3 -15 -3 -11 -5 3 -18 -12 -29
-34 -12 -22 -25 -43 -31 -46 -6 -4 -8 -11 -5 -16 4 -5 1 -9 -5 -9 -6 0 -8 -4
-5 -10 3 -5 1 -10 -6 -10 -7 0 -9 -3 -6 -7 4 -3 -1 -12 -11 -20 -9 -8 -11 -11
-4 -8 11 6 12 3 3 -14 -14 -26 -48 -44 -67 -37 -10 4 -12 2 -8 -6 5 -7 0 -9
-14 -6 -14 4 -20 2 -15 -5 4 -6 0 -8 -10 -4 -10 4 -17 2 -17 -4 0 -6 -7 -9
-15 -5 -8 3 -15 2 -15 -3 0 -5 -14 -11 -30 -15 -17 -3 -49 -24 -73 -47 -23
-23 -32 -34 -19 -24 12 10 22 16 22 12 0 -3 -19 -20 -42 -38 -36 -27 -40 -29
-24 -9 11 14 1 6 -22 -16 -22 -23 -43 -39 -46 -36 -3 3 -6 1 -6 -5 0 -5 -25
-20 -55 -33 -30 -13 -52 -28 -48 -33 4 -6 -2 -8 -15 -5 -14 4 -20 2 -15 -5 4
-7 0 -8 -11 -4 -11 5 -15 3 -10 -5 5 -8 2 -9 -10 -5 -11 5 -15 3 -10 -5 5 -8
2 -9 -10 -5 -11 5 -15 3 -10 -5 5 -8 2 -9 -10 -5 -10 4 -15 3 -11 -3 8 -12
-37 -23 -101 -24 -29 -1 -50 -5 -47 -10 3 -4 -15 -7 -40 -5 -25 2 -43 1 -40
-3 2 -5 -16 -8 -41 -8 -25 0 -46 3 -46 8 0 4 -25 5 -56 4 -31 -2 -54 0 -51 5
3 4 -19 6 -49 5 -30 -2 -54 0 -54 5 0 4 -15 8 -32 8 -24 0 -33 5 -33 17 0 9
-4 20 -9 25 -5 4 -6 3 -2 -4 4 -7 5 -13 2 -13 -10 0 -37 61 -31 70 3 6 1 10
-4 10 -6 0 -10 3 -10 8 3 19 -2 33 -10 28 -11 -7 -23 22 -14 36 4 7 1 8 -7 3
-10 -6 -12 -4 -7 8 3 9 1 19 -5 23 -7 5 -8 2 -4 -7 4 -8 0 -5 -8 6 -9 11 -14
25 -12 32 3 7 1 13 -5 13 -6 0 -7 4 -4 10 3 5 1 10 -5 10 -6 0 -9 4 -5 9 3 5
1 12 -5 16 -6 4 -22 29 -35 56 -14 27 -28 49 -31 49 -3 0 -2 -4 1 -10 3 -5 4
-10 1 -10 -8 0 -37 58 -34 67 4 16 -14 53 -23 48 -5 -4 -9 30 -9 80 0 47 4 84
8 81 4 -2 6 25 4 61 -3 36 -1 63 4 60 5 -3 7 41 6 100 -4 112 2 158 19 147 8
-4 9 1 4 16 -4 14 -3 20 3 16 12 -7 25 22 15 36 -3 7 -1 8 5 4 7 -4 16 9 23
34 7 22 16 40 21 40 5 0 6 5 3 10 -3 6 -1 10 5 10 6 0 8 5 5 10 -3 6 -1 10 5
10 6 0 8 5 5 10 -9 14 4 52 16 45 5 -3 6 1 3 9 -3 9 -1 16 5 16 6 0 8 7 5 15
-4 8 -1 15 5 15 6 0 8 7 5 15 -4 8 -2 15 4 15 6 0 8 10 4 22 -4 16 -2 19 8 13
8 -5 11 -4 6 3 -9 16 4 63 16 56 6 -4 8 2 3 15 -4 12 -2 21 4 21 6 0 8 7 5 15
-4 8 -2 15 4 15 6 0 8 10 4 22 -3 13 -1 19 5 15 7 -5 9 1 5 15 -4 15 -2 19 7
13 10 -6 11 -2 6 15 -5 16 -4 20 4 15 8 -5 10 1 5 21 -5 20 -4 25 6 19 9 -5
10 -2 5 15 -5 15 -4 20 4 16 7 -5 9 3 4 25 -5 24 -3 30 7 24 9 -6 10 -2 5 15
-5 16 -4 20 4 15 8 -5 10 1 5 21 -5 18 -3 25 4 21 6 -4 15 13 22 42 6 27 18
52 26 55 9 3 13 10 10 15 -3 5 1 12 10 15 8 3 13 10 10 15 -3 5 1 12 10 15 8
3 13 10 10 15 -8 12 4 42 13 36 4 -2 15 9 25 26 9 16 14 29 10 29 -4 0 1 7 12
16 10 8 13 12 5 8 -17 -9 17 52 39 69 13 11 13 10 0 -8 -14 -19 -14 -19 3 -6
10 8 16 20 13 28 -3 8 -2 12 3 8 5 -3 19 7 30 22 11 16 25 33 31 40 5 7 10 16
10 20 0 4 12 18 28 31 15 13 20 21 12 17 -8 -4 -6 1 5 10 11 9 21 20 21 25 1
6 2 15 3 21 0 5 5 8 10 5 11 -7 63 52 56 63 -2 4 12 23 33 42 l37 34 -35 -40
c-19 -22 11 5 68 60 97 95 115 114 92 100 -6 -4 -5 4 1 19 7 14 16 23 22 19 5
-3 6 3 2 17 -4 14 -3 20 3 16 11 -7 25 21 16 35 -3 5 0 9 6 9 6 0 8 5 5 10 -3
6 -1 10 5 10 6 0 8 5 5 10 -9 14 4 52 16 45 5 -4 6 2 2 11 -5 13 -3 16 10 11
9 -3 19 -1 23 5 5 7 2 8 -6 3 -9 -6 -11 -4 -6 4 5 7 14 10 22 7 8 -3 14 -1 14
5 0 6 5 7 10 4 6 -3 13 1 16 9 3 9 15 16 26 16 10 0 16 5 13 10 -3 6 3 10 14
10 12 0 21 4 21 8 0 5 12 14 26 20 14 7 22 17 19 22 -4 6 1 7 11 3 11 -4 15
-2 11 4 -8 13 20 26 35 16 7 -3 8 -1 4 5 -7 11 -3 14 27 16 6 1 14 3 17 6 16
17 110 51 121 45 8 -6 10 -4 4 5 -6 10 -4 12 9 7 11 -5 15 -3 10 5 -5 8 -2 9
10 5 10 -4 15 -3 11 3 -6 9 -1 11 32 14 7 1 25 14 40 29 16 15 45 41 65 58 21
17 36 35 33 39 -3 5 0 12 6 16 8 5 9 3 4 -7 -8 -12 -6 -12 8 0 9 7 15 17 12
21 -3 4 2 11 11 14 10 4 13 2 9 -7 -4 -6 6 2 22 18 20 22 35 29 56 27 15 -2
27 -7 27 -11 0 -5 11 -6 25 -3 14 2 25 0 25 -5 0 -6 12 -8 26 -5 20 4 25 2 19
-8 -6 -9 -4 -11 4 -5 16 9 131 -14 131 -27 0 -5 4 -7 9 -4 13 8 42 -4 35 -15
-3 -5 3 -6 12 -2 12 4 15 3 10 -5 -5 -8 -1 -10 10 -5 13 5 15 3 9 -7 -5 -9 -4
-11 4 -6 14 9 73 -13 66 -24 -6 -10 23 -22 35 -15 4 3 10 -2 14 -10 9 -25 38
-17 75 23 19 20 34 40 33 45 -1 4 2 7 7 7 5 0 17 14 25 31 16 32 16 32 -24 75
-22 24 -46 55 -52 69 -6 13 -15 22 -21 18 -6 -3 -7 -1 -4 5 10 15 -3 43 -16
35 -6 -4 -8 0 -4 10 3 10 2 17 -4 17 -6 0 -7 5 -4 10 3 6 1 10 -5 10 -6 0 -8
4 -5 10 6 9 -31 90 -41 90 -3 0 -2 -4 1 -10 3 -6 -1 -7 -9 -4 -9 3 -14 9 -11
14 2 4 -7 5 -22 2 -14 -3 -24 -1 -21 4 3 5 -13 10 -35 11 -23 1 -43 6 -45 11
-1 5 -14 7 -29 4 -16 -3 -24 -1 -20 5 4 6 -4 8 -20 5 -16 -3 -24 -1 -20 5 4 6
-4 8 -20 5 -18 -3 -24 -1 -19 7 5 7 -3 11 -24 11 -21 0 -29 -4 -24 -11z"/>
</g>
</svg>
