<?xml version="1.0" standalone="no"?>
<!DOCTYPE svg PUBLIC "-//W3C//DTD SVG 20010904//EN"
 "http://www.w3.org/TR/2001/REC-SVG-20010904/DTD/svg10.dtd">
<svg version="1.0" xmlns="http://www.w3.org/2000/svg"
 width="640.000000pt" height="512.000000pt" viewBox="0 0 640.000000 512.000000"
 preserveAspectRatio="xMidYMid meet">
<metadata>
Created by potrace 1.15, written by Peter Selinger 2001-2017
</metadata>
<g transform="translate(0.000000,512.000000) scale(0.100000,-0.100000)"
fill="#000000" stroke="none">
<path d="M3339 3798 c-52 -44 -143 -114 -204 -157 -125 -89 -210 -178 -305
-321 -35 -52 -98 -133 -140 -180 -71 -78 -79 -91 -100 -165 -20 -72 -22 -93
-16 -215 5 -97 14 -162 33 -230 l26 -95 113 -111 114 -111 132 -48 c174 -62
167 -58 124 -85 -25 -15 -34 -26 -27 -34 5 -6 11 -22 13 -36 l3 -25 -180 -1
c-99 0 -185 -3 -191 -6 -5 -4 -52 -7 -103 -7 -55 0 -99 -5 -107 -12 -8 -6 -22
-9 -32 -7 -42 11 -259 -52 -368 -107 -38 -19 -79 -35 -91 -35 l-23 0 0 -259 0
-259 43 -6 43 -7 38 -102 c24 -64 66 -145 112 -217 65 -101 82 -121 144 -163
38 -27 70 -51 70 -55 0 -4 53 -47 118 -96 l119 -88 58 -111 c32 -62 59 -113
60 -114 1 -2 53 -14 116 -28 101 -22 128 -33 235 -95 67 -38 160 -87 207 -109
l84 -39 76 102 c77 104 155 254 177 342 11 46 10 55 -24 158 -20 60 -36 117
-36 125 0 9 12 51 27 94 l28 78 -25 19 -25 19 45 135 44 136 -34 70 -34 71 37
74 37 75 0 160 0 160 91 183 92 182 48 240 49 240 -5 175 c-3 96 -13 240 -22
320 -16 144 -17 146 -91 317 l-75 171 -79 -34 c-44 -19 -83 -34 -87 -34 -5 0
-18 36 -31 80 -13 44 -24 80 -25 80 -1 0 -42 17 -92 39 l-90 38 -94 -79z m158
-550 c40 -41 42 -47 48 -118 6 -63 2 -97 -23 -210 -17 -74 -38 -178 -48 -230
-9 -52 -18 -96 -19 -98 -1 -1 -48 -16 -104 -32 -56 -16 -117 -38 -137 -50
l-34 -22 -121 53 c-66 29 -122 56 -125 61 -3 5 6 60 21 121 35 140 93 244 207
369 69 75 96 96 182 143 55 30 103 55 106 55 3 0 25 -19 47 -42z m-142 -1675
c-4 -16 -10 -172 -14 -348 -8 -329 -15 -384 -59 -492 -18 -46 -24 -50 -44 -30
-7 7 -55 39 -106 72 -52 32 -101 69 -110 82 -10 13 -69 61 -132 107 l-115 84
-24 69 -24 70 -93 46 c-106 53 -101 36 -46 159 18 38 38 68 49 71 172 51 296
78 393 87 l115 10 20 -25 c12 -14 27 -25 35 -25 8 0 42 20 75 45 72 53 90 57
80 18z"/>
</g>
</svg>
