<?xml version="1.0" standalone="no"?>
<!DOCTYPE svg PUBLIC "-//W3C//DTD SVG 20010904//EN"
 "http://www.w3.org/TR/2001/REC-SVG-20010904/DTD/svg10.dtd">
<svg version="1.0" xmlns="http://www.w3.org/2000/svg"
 width="640.000000pt" height="512.000000pt" viewBox="0 0 640.000000 512.000000"
 preserveAspectRatio="xMidYMid meet">
<metadata>
Created by potrace 1.15, written by Peter Selinger 2001-2017
</metadata>
<g transform="translate(0.000000,512.000000) scale(0.100000,-0.100000)"
fill="#000000" stroke="none">
<path d="M2758 4507 c-65 -101 -67 -105 -136 -352 -103 -366 -108 -384 -143
-575 -30 -160 -38 -186 -91 -300 -33 -69 -92 -179 -133 -245 l-73 -120 -7
-135 c-7 -121 -11 -143 -41 -217 -51 -123 -150 -273 -284 -428 -88 -102 -119
-145 -116 -160 3 -11 19 -86 37 -167 l33 -146 -13 -164 c-11 -147 -11 -170 5
-238 17 -74 16 -133 -2 -325 l-6 -60 101 -115 c56 -63 105 -115 110 -115 5 0
50 51 100 114 l91 113 0 217 0 217 45 134 c25 74 49 144 55 155 6 11 18 45 28
75 17 51 22 56 63 70 24 8 50 19 57 23 7 5 76 26 154 48 78 21 237 75 353 118
l210 80 123 -23 c68 -13 128 -28 134 -34 7 -7 0 -53 -21 -142 -24 -101 -31
-154 -31 -228 0 -54 -9 -189 -21 -302 l-22 -205 -44 -62 c-24 -34 -46 -68 -49
-77 -3 -8 31 -99 76 -203 46 -103 89 -203 96 -221 l14 -32 60 30 c33 16 69 30
80 30 11 0 20 4 20 8 0 5 32 24 71 43 l71 34 -8 110 c-5 60 -8 209 -7 330 l2
219 47 108 47 107 -23 82 -23 81 28 127 c15 69 54 198 85 287 l58 160 7 175 7
174 93 145 c87 136 94 151 115 245 13 55 50 190 83 300 l60 200 8 190 c13 300
22 865 15 865 -15 0 -271 -32 -274 -34 -1 -2 -52 -144 -113 -317 -110 -314
-110 -314 -173 -639 l-63 -325 -135 -260 -135 -260 -204 -104 c-194 -99 -216
-108 -468 -183 -145 -43 -266 -77 -268 -74 -2 2 12 111 32 242 35 228 41 253
130 534 200 628 363 1350 305 1350 -4 0 -29 34 -56 75 -27 41 -51 75 -54 75
-3 0 -35 -46 -72 -103z"/>
</g>
</svg>
