<?xml version="1.0" standalone="no"?>
<!DOCTYPE svg PUBLIC "-//W3C//DTD SVG 20010904//EN"
 "http://www.w3.org/TR/2001/REC-SVG-20010904/DTD/svg10.dtd">
<svg version="1.0" xmlns="http://www.w3.org/2000/svg"
 width="640.000000pt" height="512.000000pt" viewBox="0 0 640.000000 512.000000"
 preserveAspectRatio="xMidYMid meet">
<metadata>
Created by potrace 1.15, written by Peter Selinger 2001-2017
</metadata>
<g transform="translate(0.000000,512.000000) scale(0.100000,-0.100000)"
fill="#000000" stroke="none">
<path d="M2733 4288 c-5 -7 -28 -47 -50 -88 -35 -66 -42 -90 -56 -201 -10 -70
-17 -176 -17 -235 0 -69 -8 -148 -21 -214 -48 -247 -59 -337 -59 -475 0 -77
-7 -187 -15 -245 -8 -58 -15 -166 -15 -240 0 -110 -5 -155 -26 -240 -35 -147
-94 -447 -94 -483 0 -19 -19 -59 -50 -109 -27 -43 -50 -88 -50 -100 0 -11 18
-54 41 -94 l40 -73 -20 -69 c-26 -86 -26 -99 0 -238 l21 -112 -27 -92 c-15
-50 -24 -94 -21 -97 3 -4 17 -1 31 5 14 7 30 12 34 12 4 0 32 -31 62 -70 30
-38 59 -69 66 -70 7 0 43 38 81 85 l69 85 16 118 c9 64 24 187 33 272 12 122
24 181 54 275 20 66 53 180 71 254 l34 133 86 79 c73 67 106 88 212 138 l126
60 83 -104 c72 -91 84 -112 103 -182 20 -74 21 -94 16 -363 -3 -157 -4 -411
-3 -566 l2 -281 48 -119 48 -119 42 -3 c30 -2 42 1 42 10 0 7 34 63 75 124
l75 112 0 87 c0 70 7 115 36 219 l36 131 -7 240 c-9 333 -9 335 0 381 9 50
-17 135 -105 344 -56 133 -85 239 -118 434 l-17 100 -135 56 c-74 31 -148 63
-165 72 -16 8 -81 28 -143 43 l-112 27 -124 -50 c-69 -27 -127 -47 -130 -44
-13 12 -5 291 10 382 23 139 46 394 51 559 4 128 1 158 -23 275 -22 104 -36
146 -68 203 -41 72 -55 84 -73 61z"/>
</g>
</svg>
