<?xml version="1.0" standalone="no"?>
<!DOCTYPE svg PUBLIC "-//W3C//DTD SVG 20010904//EN"
 "http://www.w3.org/TR/2001/REC-SVG-20010904/DTD/svg10.dtd">
<svg version="1.0" xmlns="http://www.w3.org/2000/svg"
 width="640.000000pt" height="512.000000pt" viewBox="0 0 640.000000 512.000000"
 preserveAspectRatio="xMidYMid meet">
<metadata>
Created by potrace 1.15, written by Peter Selinger 2001-2017
</metadata>
<g transform="translate(0.000000,512.000000) scale(0.100000,-0.100000)"
fill="#000000" stroke="none">
<path d="M3164 4498 c-5 -7 -3 -8 6 -3 9 6 11 4 6 -4 -5 -7 -14 -10 -21 -7 -7
2 -21 -5 -32 -17 l-18 -22 25 20 25 20 -19 -23 c-11 -12 -25 -21 -31 -19 -6 3
-21 -4 -34 -14 -13 -11 -20 -19 -15 -19 4 0 17 8 28 17 l21 17 -20 -22 c-11
-12 -30 -23 -43 -25 -12 -2 -28 -10 -35 -17 -10 -12 -9 -12 3 -5 9 6 4 0 -10
-13 -16 -15 -34 -22 -52 -19 -15 2 -24 -1 -21 -6 3 -5 -18 -8 -50 -5 -30 1
-53 0 -50 -4 2 -5 -9 -8 -25 -8 -16 0 -57 -3 -92 -7 -51 -5 -62 -4 -55 7 5 9
4 11 -4 6 -13 -9 -73 2 -67 12 2 4 -13 7 -34 7 -21 0 -36 -4 -32 -9 3 -5 -5
-7 -16 -4 -14 4 -20 2 -15 -5 4 -7 0 -8 -13 -3 -10 4 -15 4 -11 0 9 -10 -113
-55 -131 -49 -8 3 -10 0 -6 -7 5 -8 2 -9 -10 -5 -9 4 -15 3 -12 -1 2 -4 -18
-16 -45 -25 -27 -10 -47 -22 -44 -28 4 -5 1 -9 -5 -9 -6 0 -9 -4 -6 -9 3 -5
-1 -12 -10 -15 -8 -3 -13 -10 -9 -16 6 -9 -21 -70 -31 -70 -3 0 -2 5 2 12 4 7
3 8 -4 4 -6 -4 -8 -14 -5 -23 4 -11 3 -14 -5 -9 -9 5 -12 -9 -12 -49 0 -38 4
-54 11 -50 7 5 10 -13 8 -56 l-3 -64 43 4 c24 1 41 -1 38 -6 -3 -4 26 -6 65
-5 39 2 68 0 65 -5 -3 -4 19 -8 49 -8 30 0 54 4 54 8 0 5 24 7 54 5 30 -1 52
1 49 5 -3 5 22 7 55 5 33 -1 58 0 55 5 -2 4 17 7 42 7 25 0 44 -4 41 -9 -4 -5
4 -7 16 -3 14 3 19 1 14 -6 -5 -8 -1 -10 10 -5 11 4 15 3 11 -4 -5 -7 1 -9 15
-5 14 3 19 1 14 -6 -5 -8 -2 -10 8 -6 21 8 46 -19 46 -50 0 -40 -22 -126 -31
-120 -5 3 -6 -9 -3 -26 4 -20 3 -30 -5 -30 -7 0 -9 -4 -6 -10 3 -5 1 -10 -5
-10 -6 0 -8 -4 -5 -10 3 -5 2 -10 -4 -10 -6 0 -8 -7 -5 -15 4 -8 2 -15 -2 -15
-5 0 -9 -16 -9 -35 0 -19 4 -35 8 -35 5 0 5 -4 2 -10 -3 -5 -1 -10 5 -10 6 0
8 -4 5 -10 -3 -5 -1 -10 5 -10 7 0 10 -7 6 -15 -3 -8 -1 -15 5 -15 6 0 7 -4 4
-10 -3 -5 -2 -10 3 -10 26 0 45 -189 47 -477 1 -91 5 -136 14 -147 7 -9 11
-23 7 -31 -3 -8 -1 -15 5 -15 7 0 9 -10 5 -26 -5 -18 -3 -24 5 -19 8 5 9 1 4
-15 -5 -17 -4 -20 5 -15 10 6 11 1 6 -19 -4 -18 -3 -25 4 -21 6 4 10 -10 10
-39 0 -25 -4 -46 -10 -46 -5 0 -7 -7 -4 -15 4 -8 1 -15 -5 -15 -6 0 -8 -7 -5
-15 4 -8 2 -15 -4 -15 -6 0 -8 -10 -4 -22 3 -11 1 -19 -4 -16 -5 3 -9 -13 -9
-37 0 -24 3 -41 7 -39 5 3 8 -29 8 -71 0 -50 -4 -74 -10 -70 -7 4 -9 -2 -4
-19 4 -17 2 -26 -6 -26 -8 0 -10 -28 -8 -100 2 -55 0 -100 -3 -100 -4 0 -10
-33 -14 -74 -7 -75 10 -236 25 -236 13 0 12 -270 -1 -286 -6 -8 -9 -37 -7 -69
1 -30 0 -55 -4 -55 -5 0 -8 -19 -8 -42 0 -44 -27 -128 -41 -128 -5 0 -5 -7 -2
-17 4 -10 2 -14 -4 -10 -7 5 -9 0 -6 -11 6 -24 -21 -46 -47 -39 -11 3 -18 2
-15 -2 6 -11 -73 -33 -87 -25 -7 5 -8 3 -3 -6 6 -10 4 -12 -9 -7 -11 5 -15 3
-10 -5 5 -7 0 -9 -14 -6 -14 4 -20 2 -15 -5 4 -6 -2 -8 -15 -5 -12 4 -20 2
-17 -3 8 -11 -40 -23 -56 -13 -8 5 -9 3 -4 -6 6 -10 4 -12 -9 -7 -11 5 -15 3
-10 -5 5 -8 2 -9 -9 -5 -9 3 -19 1 -23 -5 -5 -7 -2 -8 6 -3 9 6 11 4 6 -4 -5
-7 -14 -10 -21 -7 -7 2 -23 -7 -36 -22 l-24 -27 30 25 30 25 -24 -27 c-14 -16
-30 -28 -37 -28 -32 0 -35 -26 -18 -151 15 -107 21 -126 44 -148 l26 -26 -26
20 -25 20 24 -27 c13 -15 28 -25 35 -22 6 2 25 -10 41 -28 l30 -33 -35 30 -35
30 27 -30 c15 -17 37 -31 50 -32 12 -1 31 -12 42 -25 l21 -22 -21 17 c-11 9
-24 17 -29 17 -4 0 4 -9 18 -20 27 -21 104 -29 92 -9 -5 7 17 10 73 7 44 -2
78 1 75 6 -3 4 18 7 46 5 28 -2 51 0 51 5 0 4 13 6 29 4 17 -2 28 -1 25 3 -4
7 160 20 297 22 44 1 74 6 71 11 -3 5 2 6 12 3 9 -4 15 -3 11 2 -7 12 51 25
66 15 8 -5 9 -3 4 6 -6 10 -3 12 13 8 14 -4 20 -2 15 5 -4 7 0 8 11 4 11 -5
15 -3 10 5 -5 7 0 9 14 6 14 -4 20 -2 15 5 -4 7 0 8 11 4 10 -4 15 -3 11 3 -7
12 40 24 56 14 8 -5 9 -3 4 6 -6 10 -4 12 9 7 11 -5 15 -3 10 5 -5 8 -2 9 10
5 9 -4 14 -3 11 2 -7 12 31 24 46 15 7 -4 9 -3 5 4 -9 14 57 35 99 30 18 -2
32 -1 29 3 -2 4 15 9 39 12 56 6 75 11 84 22 4 4 1 5 -7 0 -11 -6 -12 -5 -4 4
6 7 18 13 25 15 8 1 24 10 37 21 20 18 22 28 22 120 0 55 -5 107 -10 115 -5 8
-10 11 -10 5 0 -5 -5 -2 -11 8 -5 9 -7 22 -3 29 5 7 3 8 -6 3 -10 -6 -12 -4
-7 9 5 11 3 15 -5 10 -8 -5 -9 -2 -5 10 5 11 3 15 -5 10 -8 -5 -9 -2 -5 10 5
11 3 15 -5 10 -8 -5 -9 -2 -5 10 5 11 3 15 -5 10 -8 -5 -9 -1 -4 12 4 10 4 15
0 11 -4 -4 -13 6 -20 23 l-13 30 -155 0 c-139 0 -158 2 -190 21 -20 12 -36 23
-36 26 0 2 5 1 12 -3 7 -4 8 -3 4 5 -4 6 -11 9 -15 7 -11 -7 -162 49 -154 58
4 4 0 4 -10 0 -15 -6 -17 5 -17 116 0 103 2 121 15 117 8 -4 17 -1 21 5 5 7 2
8 -7 4 -8 -4 -5 0 5 8 18 15 39 21 59 17 5 -1 5 4 1 10 -5 9 -2 10 9 6 9 -3
19 -1 23 5 4 7 3 8 -4 4 -7 -4 -12 -5 -12 -2 0 3 14 13 31 22 23 11 29 12 24
2 -4 -7 0 -6 10 4 23 21 12 37 -21 30 -17 -3 -25 -1 -21 5 4 6 -4 8 -20 5 -14
-3 -23 -1 -20 4 3 5 -9 9 -26 9 l-32 0 -3 63 c-2 40 1 62 8 62 8 0 10 47 8
155 -2 85 0 155 5 155 4 0 7 22 7 49 0 59 8 83 24 74 6 -3 8 -3 4 2 -7 7 18
65 28 65 3 0 2 -5 -2 -12 -4 -7 -3 -8 4 -4 6 4 9 13 6 20 -3 8 0 17 7 22 8 5
10 3 4 -6 -5 -8 -4 -11 2 -7 6 4 11 18 11 32 0 14 -5 22 -11 18 -6 -3 -8 6 -5
25 3 18 0 29 -5 25 -6 -4 -8 5 -5 20 3 16 1 24 -5 20 -6 -3 -8 6 -5 25 2 17 1
29 -4 26 -4 -3 -8 15 -8 39 0 31 6 49 18 58 16 13 16 13 2 -6 -14 -18 -14 -19
2 -7 9 8 15 19 12 26 -3 7 3 19 13 27 17 13 17 13 3 -6 -15 -20 -14 -20 8 -1
15 13 19 22 11 27 -6 4 -9 11 -5 17 9 15 -4 43 -17 35 -6 -4 -8 2 -5 15 4 14
2 20 -5 15 -7 -4 -8 0 -4 11 5 11 3 15 -5 10 -7 -5 -9 0 -6 14 4 12 2 20 -3
16 -5 -3 -9 70 -9 175 0 100 3 181 8 181 4 0 5 30 4 66 -2 37 0 64 5 61 4 -3
6 24 5 60 -2 36 0 63 5 60 5 -3 7 26 5 64 -2 38 0 69 4 69 5 0 7 23 5 51 -2
28 1 49 5 46 5 -3 7 15 5 40 -2 25 1 43 5 40 5 -3 7 18 5 45 -2 32 1 48 7 44
6 -4 8 8 5 34 -3 22 -1 40 4 40 5 0 7 16 5 36 -3 28 -1 35 8 29 9 -6 11 1 8
29 -4 34 -2 36 28 42 18 3 38 3 45 -2 8 -5 10 -3 4 6 -6 9 1 12 28 8 20 -2 33
0 31 4 -3 4 10 9 28 10 18 1 42 2 53 3 13 0 19 7 17 17 -1 9 3 20 9 24 8 4 9
3 5 -4 -4 -7 -5 -12 -2 -12 10 0 37 60 31 70 -3 5 0 12 6 16 8 5 10 2 5 -7 -4
-8 0 -5 8 6 9 10 15 24 13 30 -2 5 3 17 12 25 21 20 20 41 -4 66 -11 11 -21
27 -23 35 -2 7 -13 22 -25 32 -12 10 -15 16 -7 12 8 -4 4 3 -10 15 -14 12 -18
19 -10 15 10 -4 9 -2 -2 8 -10 8 -14 17 -10 21 4 4 2 6 -3 5 -13 -4 -75 18
-75 26 0 3 5 3 12 -1 7 -4 8 -3 4 4 -4 6 -13 9 -20 6 -8 -3 -17 0 -22 7 -5 8
-3 10 6 4 8 -5 11 -4 6 3 -4 6 -14 8 -23 5 -11 -4 -14 -3 -9 5 5 8 1 10 -10 5
-10 -4 -15 -2 -11 3 3 5 -3 10 -13 10 -10 0 -16 -4 -13 -9 3 -5 -10 -8 -30 -5
-20 2 -33 0 -30 -5 3 -5 -12 -8 -35 -5 -22 2 -38 -1 -35 -6 3 -4 -10 -7 -30
-4 -20 2 -33 0 -31 -4 3 -4 -10 -8 -28 -8 -26 0 -42 9 -67 34 -18 19 -30 39
-27 44 3 6 -15 29 -41 51 -48 41 -85 52 -99 29z"/>
</g>
</svg>
