<?xml version="1.0" standalone="no"?>
<!DOCTYPE svg PUBLIC "-//W3C//DTD SVG 20010904//EN"
 "http://www.w3.org/TR/2001/REC-SVG-20010904/DTD/svg10.dtd">
<svg version="1.0" xmlns="http://www.w3.org/2000/svg"
 width="640.000000pt" height="512.000000pt" viewBox="0 0 640.000000 512.000000"
 preserveAspectRatio="xMidYMid meet">
<metadata>
Created by potrace 1.15, written by Peter Selinger 2001-2017
</metadata>
<g transform="translate(0.000000,512.000000) scale(0.100000,-0.100000)"
fill="#000000" stroke="none">
<path d="M3059 3553 l-66 -37 -47 -126 c-25 -70 -46 -136 -46 -147 0 -12 23
-40 59 -71 l58 -51 7 -73 c6 -58 16 -88 47 -145 22 -40 46 -73 52 -73 7 0 71
15 142 33 l130 33 72 109 73 110 0 144 0 145 -62 82 -63 82 -55 5 c-30 4 -95
9 -145 12 -90 6 -90 6 -156 -32z"/>
<path d="M3043 2538 c-12 -40 -25 -104 -29 -143 -4 -38 -24 -120 -45 -182 -20
-62 -43 -147 -50 -188 l-12 -76 -73 -50 c-41 -27 -74 -55 -74 -62 0 -6 27 -39
61 -73 l60 -61 -30 -109 c-16 -60 -33 -136 -37 -169 -4 -33 -20 -98 -35 -144
-16 -47 -29 -97 -29 -111 0 -15 17 -69 39 -122 21 -52 49 -137 61 -189 l23
-94 150 -89 149 -89 87 7 c76 6 93 12 141 43 41 26 64 50 87 92 58 106 123
261 123 296 0 76 -23 235 -34 235 -6 0 -68 -22 -138 -49 -114 -44 -135 -49
-220 -52 -51 -1 -108 -2 -126 -1 -32 2 -32 3 -31 50 0 26 12 126 26 222 20
139 35 200 69 296 74 204 96 246 164 305 33 28 60 60 60 70 0 10 -24 58 -54
106 -51 83 -55 94 -66 188 l-13 101 -76 53 c-42 30 -83 56 -92 58 -12 3 -20
-13 -36 -69z"/>
</g>
</svg>
