<?xml version="1.0" standalone="no"?>
<!DOCTYPE svg PUBLIC "-//W3C//DTD SVG 20010904//EN"
 "http://www.w3.org/TR/2001/REC-SVG-20010904/DTD/svg10.dtd">
<svg version="1.0" xmlns="http://www.w3.org/2000/svg"
 width="640.000000pt" height="512.000000pt" viewBox="0 0 640.000000 512.000000"
 preserveAspectRatio="xMidYMid meet">
<metadata>
Created by potrace 1.15, written by Peter Selinger 2001-2017
</metadata>
<g transform="translate(0.000000,512.000000) scale(0.100000,-0.100000)"
fill="#000000" stroke="none">
<path d="M4227 4379 c-32 -5 -111 -24 -175 -44 l-118 -35 -116 11 -116 11
-255 -66 -256 -66 -128 10 c-70 6 -199 20 -286 31 l-157 20 -143 -25 c-78 -14
-205 -28 -282 -31 -77 -4 -187 -15 -245 -26 -81 -14 -344 -48 -381 -49 -4 0
-51 -48 -104 -106 l-98 -106 49 -100 c27 -55 56 -103 64 -108 8 -4 59 -17 113
-29 l99 -23 71 31 c70 30 77 31 312 41 132 6 312 15 400 20 88 5 207 11 264
12 l105 3 13 -80 c9 -49 12 -116 9 -173 -6 -100 -1 -90 -90 -196 l-39 -47 26
-97 c42 -153 55 -244 62 -427 6 -146 4 -189 -14 -302 -18 -113 -20 -158 -15
-330 5 -165 9 -208 26 -256 19 -54 20 -71 14 -238 l-7 -179 -41 -92 c-37 -83
-40 -96 -34 -149 4 -35 3 -60 -3 -64 -12 -7 -145 31 -184 54 -16 9 -34 30 -41
46 -9 20 -49 55 -119 105 l-105 75 -17 63 -18 63 -117 89 c-111 84 -334 209
-343 192 -2 -4 -17 -45 -32 -90 l-27 -84 23 -81 c13 -45 38 -120 57 -167 33
-84 36 -88 212 -265 164 -165 182 -187 214 -257 34 -77 35 -77 108 -114 40
-20 147 -76 238 -124 91 -49 226 -112 300 -140 74 -29 138 -54 141 -56 4 -2
47 48 95 111 l89 116 36 132 c21 76 54 168 79 217 l43 85 -12 61 c-7 38 -11
199 -11 431 l0 369 -34 85 c-29 72 -35 100 -41 204 -6 106 -12 138 -56 272
-69 213 -69 218 -20 329 23 51 41 98 41 106 0 7 -18 45 -41 83 -37 63 -40 75
-35 120 3 27 10 144 16 258 9 185 13 215 36 272 28 71 22 66 149 94 187 41
359 61 513 61 l161 0 128 46 c252 90 283 102 296 112 6 5 28 17 47 27 19 10
54 32 77 49 l42 31 1 85 0 85 -53 32 c-52 31 -233 84 -279 82 -13 -1 -49 -5
-81 -10z"/>
</g>
</svg>
