<?xml version="1.0" standalone="no"?>
<!DOCTYPE svg PUBLIC "-//W3C//DTD SVG 20010904//EN"
 "http://www.w3.org/TR/2001/REC-SVG-20010904/DTD/svg10.dtd">
<svg version="1.0" xmlns="http://www.w3.org/2000/svg"
 width="640.000000pt" height="512.000000pt" viewBox="0 0 640.000000 512.000000"
 preserveAspectRatio="xMidYMid meet">
<metadata>
Created by potrace 1.15, written by Peter Selinger 2001-2017
</metadata>
<g transform="translate(0.000000,512.000000) scale(0.100000,-0.100000)"
fill="#000000" stroke="none">
<path d="M3583 3756 c-40 -39 -102 -114 -139 -166 l-66 -95 6 -90 c5 -65 2
-105 -9 -145 -25 -91 -22 -102 41 -155 l56 -48 117 18 c64 10 125 21 137 25
27 11 157 230 178 302 22 76 21 87 -15 198 l-32 96 -91 65 c-50 35 -95 64
-101 65 -5 0 -43 -31 -82 -70z"/>
<path d="M3441 2497 c-24 -89 -64 -238 -88 -332 l-44 -170 -5 -225 c-5 -202
-8 -235 -31 -323 -25 -92 -26 -101 -14 -175 20 -120 -1 -291 -47 -396 -27 -63
-33 -88 -29 -123 l5 -44 -42 24 c-32 19 -73 71 -197 247 -152 217 -156 224
-179 316 -21 81 -30 101 -73 151 -42 50 -77 77 -77 60 0 -3 -20 -79 -45 -169
-25 -89 -45 -175 -45 -191 0 -15 17 -69 38 -120 21 -50 47 -135 57 -187 16
-85 24 -104 75 -180 98 -147 157 -266 170 -347 13 -81 -1 -70 128 -102 123
-31 119 -29 151 -81 17 -28 36 -50 43 -50 7 0 49 32 92 70 79 68 80 70 123
180 34 88 43 125 43 174 1 100 28 373 49 492 25 137 51 431 51 571 0 104 1
108 37 172 l36 65 4 320 4 321 -63 104 c-35 57 -68 106 -73 108 -6 1 -30 -70
-54 -160z"/>
</g>
</svg>
