<?xml version="1.0" standalone="no"?>
<!DOCTYPE svg PUBLIC "-//W3C//DTD SVG 20010904//EN"
 "http://www.w3.org/TR/2001/REC-SVG-20010904/DTD/svg10.dtd">
<svg version="1.0" xmlns="http://www.w3.org/2000/svg"
 width="640.000000pt" height="512.000000pt" viewBox="0 0 640.000000 512.000000"
 preserveAspectRatio="xMidYMid meet">
<metadata>
Created by potrace 1.15, written by Peter Selinger 2001-2017
</metadata>
<g transform="translate(0.000000,512.000000) scale(0.100000,-0.100000)"
fill="#000000" stroke="none">
<path d="M1875 4450 c-27 -27 -45 -50 -41 -50 5 0 1 -9 -9 -20 -10 -12 -25
-18 -32 -15 -8 2 -12 1 -8 -4 3 -5 -7 -20 -23 -33 -15 -13 -26 -31 -24 -40 2
-10 -1 -18 -6 -18 -4 0 -6 -14 -4 -31 3 -20 1 -29 -5 -26 -6 4 -8 -4 -5 -20 3
-14 1 -23 -4 -20 -5 3 -9 -14 -9 -38 0 -24 4 -41 9 -37 5 3 7 -5 4 -16 -4 -14
-2 -20 4 -16 7 5 9 -2 6 -19 -3 -15 -1 -24 3 -21 5 3 9 -20 9 -51 0 -33 -4
-54 -9 -50 -6 3 -7 -9 -4 -30 3 -19 2 -35 -3 -35 -5 0 -9 -25 -9 -55 0 -30 4
-55 9 -55 4 0 6 -13 4 -30 -3 -16 0 -30 4 -30 6 0 8 -63 6 -144 -2 -82 1 -142
6 -139 5 3 7 -8 4 -25 -3 -18 0 -29 5 -25 6 4 8 -5 5 -20 -3 -15 -1 -24 3 -21
5 3 9 -27 9 -66 0 -42 -4 -69 -9 -65 -6 3 -7 -9 -4 -30 3 -19 1 -35 -4 -35 -5
0 -7 -16 -5 -35 3 -23 -3 -45 -18 -70 -20 -33 -39 -50 -25 -22 4 6 -3 1 -14
-13 -39 -47 -37 -59 20 -114 l54 -51 -45 50 -45 50 48 -45 47 -44 0 -69 c0
-49 -3 -66 -12 -61 -8 5 -9 2 -5 -9 4 -11 -3 -23 -20 -37 -14 -11 -22 -20 -17
-20 5 0 -4 -12 -21 -26 -16 -14 -24 -23 -18 -19 9 4 11 1 7 -9 -3 -9 -10 -13
-15 -10 -12 7 -11 -137 1 -156 5 -8 10 -10 10 -5 0 6 5 2 11 -8 5 -9 7 -22 3
-29 -4 -6 -3 -8 4 -4 12 7 26 -29 17 -44 -3 -5 -1 -10 5 -10 6 0 8 -5 5 -10
-3 -5 -1 -10 5 -10 6 0 8 -4 5 -10 -3 -5 -1 -10 4 -10 6 0 11 -20 11 -45 0
-25 -3 -45 -8 -45 -4 0 -6 -19 -4 -41 3 -25 1 -39 -5 -36 -6 4 -8 -4 -5 -20 3
-17 1 -24 -6 -19 -6 4 -8 -2 -4 -16 3 -15 2 -19 -7 -14 -9 6 -10 0 -5 -20 5
-20 4 -25 -6 -19 -9 5 -10 2 -5 -15 4 -12 3 -20 -1 -17 -5 3 -9 -44 -9 -103 0
-62 4 -106 9 -103 5 4 7 -12 3 -35 -3 -28 -2 -40 5 -36 7 4 9 -6 6 -30 -2 -20
0 -36 4 -36 4 0 8 -27 8 -61 0 -39 -4 -58 -10 -54 -7 4 -8 -3 -4 -21 4 -15 3
-25 -2 -21 -5 3 -9 -27 -9 -68 0 -40 4 -71 9 -68 5 4 7 -16 4 -45 -3 -32 -1
-49 5 -45 6 3 8 -10 5 -35 -2 -22 1 -38 5 -35 5 3 8 -15 6 -41 -2 -25 -1 -46
3 -46 5 0 8 -25 8 -55 0 -30 -4 -55 -10 -55 -5 0 -7 -7 -4 -15 4 -8 2 -15 -4
-15 -6 0 -8 -10 -4 -22 3 -13 1 -19 -5 -15 -7 5 -9 -1 -5 -15 3 -13 1 -19 -5
-15 -7 5 -9 -1 -5 -15 3 -11 1 -19 -4 -16 -5 4 -9 -16 -9 -42 0 -26 4 -46 9
-43 4 3 7 -13 4 -35 -2 -23 1 -38 6 -35 5 4 7 -1 3 -10 -3 -10 -2 -17 4 -17 6
0 7 -4 4 -10 -3 -5 -1 -10 5 -10 6 0 8 -4 5 -10 -3 -5 -1 -10 5 -10 6 0 8 -4
5 -10 -3 -5 -1 -10 5 -10 6 0 8 -4 5 -10 -3 -5 -1 -10 5 -10 6 0 9 -4 6 -9 -9
-13 4 -42 16 -35 5 3 8 -2 6 -12 -3 -19 1 -20 48 -23 14 0 23 -5 20 -10 -3 -4
6 -6 21 -3 16 3 24 1 20 -5 -4 -6 4 -8 20 -5 19 4 24 2 18 -8 -5 -9 -2 -10 15
-5 13 4 20 3 17 -2 -3 -5 7 -7 25 -5 17 3 28 1 25 -5 -3 -5 10 -8 31 -6 30 3
33 1 17 -7 l-20 -10 20 3 c12 2 19 9 17 19 -1 9 3 20 9 24 8 5 9 3 4 -6 -5 -8
-4 -11 3 -6 6 4 8 14 5 23 -5 12 -3 14 7 8 8 -5 11 -4 7 3 -8 13 2 44 12 37
11 -6 53 73 46 85 -3 5 -1 10 5 10 6 0 8 5 5 10 -3 5 -2 10 4 10 5 0 18 17 28
38 10 21 25 37 35 37 10 0 23 7 30 15 11 12 10 12 -7 0 -19 -14 -19 -14 -6 3
8 10 20 16 27 13 7 -3 18 3 26 12 12 16 11 16 -7 2 -19 -14 -19 -14 -6 3 8 10
20 16 28 13 10 -4 12 1 7 21 -5 19 -4 24 5 19 8 -6 10 -1 6 17 -5 18 -2 28 10
34 9 5 22 21 29 34 6 13 18 24 26 24 8 0 14 7 12 16 -1 8 10 26 25 40 l28 24
-20 -26 c-11 -14 -5 -9 13 10 19 20 43 50 55 66 20 28 20 29 2 16 -23 -16 32
35 67 62 13 10 16 15 8 11 -17 -8 -11 -2 35 36 l30 25 -20 -25 c-16 -20 -14
-20 8 3 16 16 26 35 23 43 -3 7 0 16 6 20 7 4 8 3 4 -4 -4 -7 -5 -12 -2 -12 9
0 38 61 32 67 -5 5 3 17 36 53 9 10 14 21 11 24 -8 8 17 36 31 36 7 0 21 -7
32 -16 10 -8 13 -13 7 -9 -7 3 -13 4 -13 1 0 -3 25 -17 56 -31 35 -16 52 -29
48 -37 -4 -6 -3 -8 4 -4 9 6 82 -30 82 -41 0 -2 -5 -1 -12 3 -7 4 -8 3 -4 -4
4 -6 13 -9 22 -5 18 7 54 -24 48 -41 -3 -7 3 -19 13 -27 17 -13 17 -13 3 6
-14 19 -14 19 3 6 10 -8 16 -20 13 -27 -2 -7 5 -20 17 -31 l22 -18 -20 25 -20
25 23 -19 c12 -11 21 -25 18 -31 -2 -6 5 -17 16 -24 11 -7 18 -15 15 -18 -3
-3 12 -21 33 -40 21 -20 36 -41 34 -47 -3 -7 6 -21 18 -32 l23 -19 -20 25 -20
25 23 -19 c12 -11 21 -25 18 -32 -3 -7 3 -18 12 -26 16 -12 16 -11 2 6 -9 12
-10 17 -3 12 7 -4 18 -16 24 -28 9 -16 8 -19 -3 -13 -7 3 -2 -3 11 -14 13 -12
21 -21 18 -21 -4 0 4 -10 16 -23 41 -43 62 -72 60 -82 -1 -5 7 -21 18 -35 11
-14 17 -19 13 -11 -5 10 -3 12 5 7 7 -5 10 -14 7 -21 -3 -8 11 -28 30 -44 19
-17 32 -31 28 -31 -3 0 17 -18 45 -40 28 -22 51 -43 51 -46 0 -4 -8 0 -17 7
-12 10 -10 4 5 -18 16 -22 28 -30 39 -26 10 4 14 2 10 -4 -5 -7 1 -9 15 -5 13
3 19 1 15 -5 -5 -7 1 -9 15 -5 16 4 19 2 13 -8 -5 -9 -4 -11 4 -6 15 9 73 -3
66 -14 -3 -4 5 -6 17 -2 13 3 19 1 15 -5 -5 -7 1 -9 15 -5 12 3 19 1 15 -5 -9
-14 28 -9 47 6 8 7 13 18 10 25 -3 7 6 21 18 32 l23 19 -20 -25 -20 -25 22 19
c12 10 21 23 20 29 -1 5 13 21 32 34 19 12 30 23 25 23 -5 1 4 12 21 25 28 23
29 25 12 40 -9 8 -12 10 -7 3 6 -7 10 -17 10 -22 0 -6 -7 0 -16 12 -9 13 -13
26 -10 29 3 3 -12 19 -34 35 -21 16 -37 35 -34 41 2 7 -10 26 -28 42 l-33 30
25 -31 c14 -16 6 -10 -18 15 -23 25 -40 51 -38 58 3 7 0 15 -6 19 -7 5 -8 2
-4 -7 4 -8 0 -5 -8 6 -9 10 -15 24 -13 29 2 5 -5 19 -15 30 -11 12 -27 30 -36
40 -9 11 -11 16 -4 12 20 -12 14 1 -19 38 -16 19 -36 33 -43 30 -7 -3 -31 15
-53 39 -22 24 -46 41 -53 39 -7 -3 -10 0 -6 6 4 6 -4 16 -16 23 -47 24 -97 70
-92 83 3 8 0 17 -7 22 -8 5 -10 3 -4 -7 4 -8 -3 -3 -16 11 -13 13 -23 28 -21
32 1 5 -2 8 -8 8 -5 0 -7 6 -4 14 3 8 0 17 -7 22 -8 5 -10 3 -5 -7 4 -8 -2 -3
-13 11 -11 14 -19 30 -16 37 2 6 -3 14 -11 17 -17 6 -19 52 -2 62 7 5 9 2 4
-7 -4 -8 0 -5 8 5 21 26 20 50 -1 67 -17 13 -17 13 -3 -6 14 -18 13 -18 -15 2
-16 11 -49 41 -72 64 -24 24 -56 54 -73 67 -24 19 -30 31 -30 63 0 23 4 38 9
34 6 -3 7 9 4 30 -3 19 -1 35 4 35 5 0 7 15 5 33 -2 19 3 40 13 52 9 11 13 14
9 6 -5 -9 -3 -12 5 -7 6 4 10 13 9 20 -3 11 6 24 44 66 9 10 14 21 11 24 -3 3
2 8 11 12 9 3 14 10 11 14 -3 5 6 17 21 27 14 10 38 29 53 43 24 22 24 23 1 5
-16 -13 -13 -7 10 18 19 21 41 36 50 35 22 -4 40 10 34 26 -3 8 0 17 7 22 8 5
10 3 4 -6 -6 -9 -4 -11 4 -6 7 5 10 14 7 22 -3 8 -1 14 5 14 6 0 7 5 4 10 -3
6 -1 10 5 10 6 0 8 5 5 10 -3 6 1 13 9 16 9 3 13 10 10 15 -3 5 -1 9 5 9 6 0
8 6 6 13 -3 6 5 23 16 37 11 14 17 19 13 11 -5 -10 -3 -12 5 -7 7 5 10 13 8
20 -3 7 11 28 31 47 20 19 30 25 22 14 -14 -19 -14 -19 3 -6 10 8 16 20 13 27
-3 8 2 17 10 22 9 5 15 13 13 18 -1 5 13 19 32 31 19 12 42 29 52 37 9 9 17
13 17 9 0 -4 7 3 16 15 9 13 22 21 30 18 7 -3 16 0 20 6 5 7 2 8 -6 3 -9 -5
-11 -4 -6 4 4 6 15 10 24 9 11 -2 16 3 14 13 -1 8 10 26 25 40 l28 24 -25 -30
-25 -30 28 25 c15 13 25 30 23 37 -3 7 18 31 49 54 51 38 72 60 43 43 -7 -4
-11 -5 -8 -3 85 80 121 111 132 113 21 3 39 17 33 26 -2 4 15 26 39 48 24 22
42 43 40 45 -9 9 19 56 29 50 6 -4 8 0 4 10 -6 17 29 51 43 42 4 -2 18 8 31
23 l24 27 -25 -20 c-22 -17 -22 -16 2 8 16 15 25 27 22 27 -4 0 -1 7 6 15 7 8
16 12 21 9 5 -3 8 -2 7 3 -4 10 74 89 84 86 4 -2 5 3 2 10 -2 7 8 24 23 37
l28 25 -20 -26 c-11 -14 -5 -9 13 10 44 46 81 99 61 86 -8 -5 -7 -3 3 7 15 13
18 32 18 102 0 53 -4 87 -12 92 -7 5 -8 3 -3 -5 14 -24 -28 5 -60 41 l-30 33
40 -35 40 -35 -34 37 c-18 20 -39 34 -46 32 -7 -3 -19 3 -26 13 -14 19 -54 29
-43 11 4 -7 -8 -9 -34 -6 -22 2 -38 -1 -35 -6 3 -4 -10 -7 -30 -4 -20 2 -34 1
-31 -3 5 -9 -94 -21 -108 -13 -7 5 -8 3 -3 -6 6 -10 4 -12 -9 -7 -11 5 -15 3
-10 -5 5 -7 0 -9 -14 -6 -14 4 -20 2 -15 -5 4 -7 0 -8 -11 -4 -11 5 -15 3 -10
-5 5 -7 0 -9 -14 -6 -12 4 -20 2 -17 -3 8 -11 -40 -23 -56 -13 -8 5 -9 3 -4
-6 6 -10 4 -12 -8 -7 -18 7 -42 -17 -32 -33 3 -5 1 -10 -5 -10 -6 0 -8 -5 -5
-10 3 -6 -1 -13 -9 -16 -9 -3 -13 -10 -10 -15 3 -5 0 -9 -6 -9 -6 0 -8 -4 -5
-10 3 -5 2 -10 -4 -10 -6 0 -8 -6 -5 -14 8 -20 -46 -77 -74 -79 -13 -1 -31
-10 -40 -22 l-17 -20 25 20 25 20 -19 -23 c-11 -12 -24 -21 -30 -20 -7 2 -13
-1 -15 -7 -5 -20 -35 -46 -48 -41 -7 3 -12 2 -10 -2 4 -13 -90 -105 -101 -98
-12 7 -93 -82 -90 -98 3 -11 -6 -25 -44 -67 -10 -10 -15 -19 -11 -19 4 0 -2
-7 -13 -16 -10 -8 -13 -12 -6 -9 21 11 -1 -26 -30 -50 l-23 -20 20 26 c11 14
1 5 -22 -20 -23 -25 -39 -49 -37 -53 2 -4 -31 -34 -75 -67 -44 -34 -83 -67
-87 -74 -4 -6 6 -1 22 13 28 24 28 24 9 1 -25 -29 -92 -64 -107 -55 -7 5 -8 3
-3 -6 6 -10 4 -12 -8 -7 -9 3 -19 1 -23 -5 -5 -7 -2 -8 7 -4 8 4 5 0 -6 -8
-11 -9 -25 -14 -32 -12 -7 3 -15 0 -19 -6 -5 -7 -2 -8 7 -4 8 4 5 0 -5 -8 -11
-9 -26 -16 -34 -16 -8 0 -12 -6 -8 -15 3 -8 1 -15 -4 -15 -5 0 -12 -16 -16
-35 -3 -19 -10 -33 -14 -30 -5 3 -6 -5 -2 -17 3 -13 1 -19 -5 -15 -7 5 -9 0
-6 -12 6 -23 -29 -45 -58 -38 -12 3 -17 1 -13 -5 5 -7 -3 -9 -20 -6 -14 3 -29
2 -31 -2 -8 -13 6 -40 17 -34 6 4 7 -2 3 -16 -5 -15 -4 -20 4 -16 6 4 11 0 11
-10 0 -16 -8 -26 -107 -129 -39 -42 -41 -43 -8 -5 l40 45 -38 -35 c-48 -43
-100 -117 -92 -130 12 -20 -39 -30 -160 -30 -87 0 -124 -3 -120 -11 4 -6 13
-8 21 -5 7 3 16 0 20 -6 4 -7 3 -8 -4 -4 -7 4 -12 5 -12 2 0 -2 20 -15 45 -27
25 -13 51 -30 58 -38 11 -14 10 -14 -8 -1 -17 12 -18 12 -7 0 7 -8 20 -15 30
-15 10 0 17 -8 17 -20 0 -12 -7 -20 -17 -20 -9 0 -20 -4 -25 -9 -5 -5 -2 -6 6
-1 10 6 12 4 7 -4 -5 -7 -15 -10 -23 -7 -8 3 -11 1 -8 -4 3 -5 -9 -16 -27 -25
-58 -26 -93 -50 -94 -62 -2 -29 -4 -34 -12 -29 -4 2 -6 -11 -4 -31 3 -24 1
-33 -6 -29 -7 4 -9 -6 -5 -30 5 -28 3 -35 -7 -29 -9 6 -10 2 -5 -15 5 -17 4
-21 -6 -15 -9 6 -11 3 -6 -8 3 -10 3 -17 -2 -17 -5 0 -11 -10 -15 -23 -3 -14
-13 -23 -25 -23 -11 0 -18 3 -15 7 2 4 -33 10 -79 14 -45 4 -92 11 -105 16
l-23 9 3 240 c2 133 -1 240 -6 240 -5 0 -6 22 -4 50 3 27 1 47 -4 44 -4 -3 -8
31 -8 76 0 45 4 79 9 76 4 -3 6 6 3 21 -3 14 -1 23 4 20 5 -3 8 44 6 110 -2
72 0 113 6 109 6 -4 8 3 4 16 -3 13 -1 19 5 15 14 -9 34 38 26 60 -4 10 -2 14
4 10 7 -4 10 2 9 17 0 13 -4 22 -7 20 -9 -5 -20 26 -13 37 3 5 0 9 -6 9 -7 0
-10 7 -6 15 3 8 1 15 -5 15 -6 0 -7 5 -4 10 3 6 1 10 -5 10 -6 0 -8 5 -5 10 3
6 1 10 -5 10 -8 0 -11 19 -8 59 1 33 0 57 -4 54 -5 -2 -8 32 -8 77 0 54 4 79
10 75 7 -4 9 2 4 19 -3 15 -2 26 4 26 6 0 8 9 5 20 -3 11 -1 20 3 20 5 0 9 16
9 35 0 19 -4 35 -8 35 -5 0 -5 5 -2 10 3 6 1 10 -5 10 -6 0 -10 10 -8 23 2 17
9 22 30 22 14 -1 24 3 21 8 -3 5 17 8 43 7 68 -2 74 -2 74 11 0 6 -7 9 -14 6
-11 -4 -13 -1 -9 10 4 11 3 14 -6 9 -13 -9 -54 22 -46 34 2 4 -5 16 -18 26
l-22 19 20 -25 20 -25 -23 20 c-21 17 -23 27 -21 80 3 64 -7 109 -21 100 -12
-7 -24 40 -16 60 4 10 2 14 -5 9 -8 -5 -10 3 -7 25 2 17 0 31 -5 31 -5 0 -7
11 -5 25 3 14 1 25 -5 25 -5 0 -7 13 -3 30 4 20 2 29 -5 25 -6 -5 -9 59 -7
194 3 181 1 201 -14 213 -10 7 -18 18 -18 25 0 7 -4 13 -10 13 -5 0 -7 6 -4
14 3 8 0 17 -7 22 -8 5 -10 3 -4 -6 5 -8 4 -11 -3 -6 -6 4 -9 12 -6 19 2 7 -3
21 -12 32 -8 11 -12 13 -8 5 5 -12 4 -13 -6 -3 -7 7 -14 20 -15 30 -1 22 -13
43 -23 43 -4 0 -30 -22 -57 -50z"/>
</g>
</svg>
