<?xml version="1.0" standalone="no"?>
<!DOCTYPE svg PUBLIC "-//W3C//DTD SVG 20010904//EN"
 "http://www.w3.org/TR/2001/REC-SVG-20010904/DTD/svg10.dtd">
<svg version="1.0" xmlns="http://www.w3.org/2000/svg"
 width="640.000000pt" height="512.000000pt" viewBox="0 0 640.000000 512.000000"
 preserveAspectRatio="xMidYMid meet">
<metadata>
Created by potrace 1.15, written by Peter Selinger 2001-2017
</metadata>
<g transform="translate(0.000000,512.000000) scale(0.100000,-0.100000)"
fill="#000000" stroke="none">
<path d="M2386 4264 c5 -19 3 -25 -4 -20 -14 8 -27 -35 -19 -63 5 -21 -16 -31
-70 -31 -18 0 -33 -5 -33 -11 0 -7 -12 -10 -30 -7 -16 3 -30 1 -30 -4 0 -4 -5
-7 -11 -5 -8 1 -11 -26 -10 -85 2 -59 -1 -88 -9 -88 -6 0 -8 -4 -5 -10 3 -5 1
-18 -4 -27 -6 -10 -11 -14 -11 -8 0 5 -7 -1 -16 -13 -8 -12 -13 -26 -10 -31 8
-13 -4 -42 -15 -35 -10 6 -13 -205 -3 -230 3 -9 11 -13 17 -9 6 4 8 -3 3 -21
-5 -20 -4 -26 5 -20 9 5 10 2 6 -9 -8 -22 2 -49 16 -40 6 4 8 -3 3 -21 -4 -18
-3 -25 4 -21 7 4 10 -66 10 -220 0 -154 -3 -224 -10 -220 -7 4 -8 -3 -4 -21 5
-19 4 -25 -4 -20 -8 5 -10 -2 -5 -25 5 -24 3 -30 -7 -24 -9 6 -10 2 -5 -15 5
-15 4 -20 -4 -16 -7 5 -9 -3 -4 -25 3 -18 2 -30 -3 -27 -5 4 -9 -20 -9 -52 0
-32 4 -56 9 -53 5 4 7 -12 3 -35 -3 -24 -1 -40 4 -36 5 3 9 -121 9 -301 0
-168 -4 -304 -8 -301 -5 3 -6 -9 -4 -26 3 -20 1 -29 -6 -24 -7 4 -9 -5 -5 -30
4 -27 3 -35 -5 -30 -8 5 -12 -4 -12 -29 0 -25 4 -34 12 -29 8 5 9 2 5 -10 -7
-19 15 -60 26 -49 4 3 7 -10 7 -31 0 -25 -4 -35 -11 -30 -8 4 -9 -1 -4 -16 5
-15 4 -20 -4 -16 -7 5 -9 -3 -4 -25 3 -18 2 -30 -3 -27 -5 4 -9 -34 -9 -87 0
-51 4 -91 9 -88 4 3 5 -5 1 -17 -5 -16 -4 -20 5 -15 9 5 10 1 5 -15 -5 -16 -4
-20 5 -15 9 5 10 1 5 -15 -5 -16 -4 -20 5 -15 9 5 10 1 5 -15 -5 -17 -4 -21 6
-15 9 6 11 2 6 -14 -4 -17 -2 -21 9 -17 12 4 12 2 4 -14 -10 -19 -6 -24 14
-21 5 1 6 -12 2 -29 -4 -22 -2 -29 6 -24 8 5 9 -2 5 -25 -5 -22 -3 -30 4 -25
8 5 10 -3 7 -24 -3 -19 0 -29 5 -25 6 4 8 -6 4 -26 -5 -21 -3 -30 4 -25 7 4 9
-4 7 -22 -2 -17 3 -35 12 -42 11 -10 11 -12 1 -6 -9 4 -12 3 -7 -4 4 -6 12 -9
19 -7 7 3 23 -5 37 -17 14 -13 19 -18 11 -13 -10 6 -8 0 4 -17 11 -14 22 -25
24 -23 1 2 13 -6 25 -19 14 -15 16 -15 6 -2 -11 14 -4 11 23 -8 20 -16 37 -31
37 -33 0 -3 -8 0 -17 8 -10 7 -7 1 7 -13 14 -14 31 -23 39 -20 8 3 12 1 8 -5
-4 -6 3 -8 20 -5 16 3 24 1 20 -5 -4 -6 4 -8 20 -5 18 3 24 1 19 -6 -5 -8 -1
-10 10 -5 13 5 15 3 9 -7 -5 -8 -4 -11 3 -6 14 9 93 -4 87 -14 -3 -5 4 -6 15
-3 11 3 20 0 20 -6 0 -6 9 -11 21 -11 11 0 29 -5 39 -10 18 -9 19 -7 15 17 -2
16 -10 93 -16 173 -6 80 -14 146 -18 148 -3 1 -5 22 -3 47 2 25 0 45 -5 45 -5
0 -7 17 -5 39 2 21 -1 42 -7 45 -13 9 -15 206 -2 206 5 0 8 27 8 60 -1 33 1
60 4 60 3 0 9 26 11 58 6 59 37 129 56 125 6 -2 9 4 6 12 -4 9 5 21 23 32 17
10 28 23 26 29 -2 6 7 19 19 30 22 19 23 19 8 -1 -14 -19 -14 -19 3 -6 10 8
16 20 13 26 -4 12 33 51 45 48 4 -1 6 5 5 15 0 9 5 16 12 14 6 -1 11 1 10 5
-3 17 15 43 25 36 6 -4 8 0 4 10 -7 19 26 42 45 31 7 -5 8 -3 3 6 -6 10 -4 12
9 7 10 -4 15 -3 11 3 -3 5 6 12 20 16 14 3 25 10 25 15 0 5 7 5 17 2 12 -5 14
-3 8 7 -6 10 -4 12 9 7 9 -4 15 -3 12 2 -7 11 53 33 67 24 6 -4 7 -1 2 7 -6
10 -4 12 9 7 10 -4 15 -3 11 3 -3 5 6 12 20 16 14 3 25 10 25 15 0 5 7 5 17 2
12 -5 14 -3 8 7 -6 10 -4 12 9 7 9 -4 14 -3 11 2 -7 12 31 24 46 15 8 -5 9 -3
4 6 -6 10 -3 12 13 8 12 -4 20 -3 17 2 -6 10 82 23 97 14 7 -4 8 -3 4 4 -5 8
2 12 18 12 14 0 26 4 26 9 0 4 11 7 25 6 15 -2 23 1 19 7 -4 7 6 9 29 6 20 -2
33 0 31 4 -3 4 10 8 29 8 33 0 67 -23 53 -37 -3 -3 7 -14 24 -24 18 -11 27
-24 24 -33 -3 -8 0 -17 7 -22 8 -5 10 -3 4 6 -5 9 -4 11 3 6 14 -8 16 -66 3
-66 -4 0 -6 -12 -3 -26 3 -16 1 -25 -5 -21 -5 3 -8 -6 -5 -24 2 -16 0 -29 -4
-29 -5 0 -20 -27 -34 -59 -13 -33 -28 -57 -32 -55 -4 3 -5 -2 -2 -11 4 -9 -1
-21 -11 -29 -10 -7 -15 -18 -11 -24 4 -7 4 -12 -1 -12 -8 0 -28 -45 -54 -122
-7 -21 -16 -38 -20 -38 -4 0 -5 -10 -1 -22 4 -16 2 -19 -8 -13 -10 6 -12 4 -7
-8 3 -10 3 -17 -1 -17 -5 0 -16 -27 -26 -60 -10 -33 -23 -63 -29 -67 -6 -4 -7
-1 -2 7 5 9 4 11 -4 6 -6 -4 -9 -16 -6 -26 8 -27 -12 -60 -36 -60 -11 0 -18 4
-15 9 4 5 -4 7 -16 3 -12 -3 -19 -1 -15 5 4 5 -6 8 -25 5 -23 -4 -29 -2 -23 8
5 8 4 11 -2 7 -14 -9 -74 3 -68 13 3 5 -17 14 -44 21 -28 7 -48 16 -45 21 3 4
-3 5 -12 1 -12 -4 -15 -3 -10 5 5 8 2 10 -8 6 -11 -4 -21 5 -33 30 -9 20 -21
36 -26 36 -5 0 -7 7 -3 15 3 8 0 14 -7 12 -7 -1 -11 6 -11 15 1 10 -3 15 -8
12 -6 -4 -9 -1 -6 6 4 13 -3 22 -48 72 -9 9 -13 21 -9 27 3 6 2 11 -4 11 -6 0
-8 7 -4 15 3 10 0 15 -8 13 -8 -2 -13 3 -11 10 3 18 -3 15 -37 -18 -19 -19
-39 -57 -52 -100 -13 -39 -26 -70 -31 -70 -4 0 -5 -7 -2 -15 4 -8 2 -15 -2
-15 -5 0 -8 -54 -6 -120 2 -80 0 -120 -7 -120 -7 0 -11 -33 -11 -90 0 -56 4
-90 10 -90 14 0 39 -60 33 -77 -3 -8 -2 -13 3 -11 12 4 54 -39 46 -47 -4 -4 1
-11 11 -16 9 -6 15 -15 11 -20 -3 -5 0 -8 8 -7 7 2 14 -7 16 -19 2 -14 -2 -23
-9 -23 -7 0 -9 -3 -6 -7 7 -7 13 -7 144 -17 90 -7 116 -13 107 -27 -3 -5 3 -6
12 -2 13 5 15 3 9 -7 -5 -8 -4 -11 2 -7 13 8 75 -12 69 -22 -3 -4 17 -15 44
-25 28 -10 48 -21 46 -24 -2 -4 9 -7 24 -7 15 0 26 3 24 6 -2 4 30 15 71 24
41 10 75 22 75 28 0 5 11 7 25 5 13 -3 22 -1 19 3 -10 17 56 9 73 -9 10 -11
26 -22 36 -25 11 -4 15 -12 11 -18 -4 -7 -3 -9 3 -6 14 9 76 -17 66 -27 -4 -4
1 -4 11 0 13 5 17 4 12 -4 -5 -8 -2 -10 8 -6 9 3 16 1 16 -5 0 -6 7 -11 15
-11 21 0 65 -22 60 -30 -3 -4 1 -8 8 -7 36 1 57 -4 52 -13 -4 -6 1 -7 11 -3
12 4 15 3 10 -5 -5 -8 -2 -10 8 -6 9 3 16 1 16 -5 0 -6 7 -11 16 -11 10 0 14
6 11 14 -10 26 -28 178 -23 191 3 8 1 15 -4 17 -5 2 -12 41 -16 88 -6 75 -10
88 -33 108 -14 13 -20 20 -12 16 10 -5 12 -3 7 5 -4 7 -13 10 -19 8 -14 -4
-57 46 -57 67 0 24 30 67 42 60 5 -3 8 0 7 7 -3 21 12 50 23 43 5 -3 8 1 6 9
-2 8 9 26 23 39 14 13 24 29 22 34 -2 6 4 17 14 25 17 13 17 13 3 -6 -14 -19
-14 -19 3 -6 10 8 16 20 13 27 -3 8 1 17 8 21 7 5 21 23 30 41 9 18 22 30 27
26 7 -4 9 1 4 15 -3 11 -2 21 3 21 6 0 8 10 4 22 -3 14 -1 19 6 14 8 -5 10 -1
5 9 -3 10 -1 20 4 24 6 3 20 44 32 91 12 47 26 86 31 88 5 2 6 10 3 18 -3 8
-1 14 3 14 5 0 7 28 6 61 -3 43 -1 59 7 55 8 -5 11 26 11 104 0 79 -3 109 -11
104 -8 -4 -10 8 -8 40 2 25 0 46 -5 46 -4 0 -6 9 -3 20 3 11 2 18 -2 15 -4 -2
-13 25 -20 61 -8 36 -19 71 -27 78 -7 8 -10 16 -7 20 4 3 1 6 -6 6 -8 0 -11 7
-7 15 3 8 1 15 -5 15 -6 0 -7 4 -4 10 3 6 2 10 -4 10 -6 0 -7 7 -4 17 4 11 3
14 -6 9 -8 -5 -17 6 -28 33 -9 23 -20 41 -25 41 -5 0 -6 5 -3 10 3 6 -1 10
-10 10 -9 0 -13 4 -10 10 4 6 -1 7 -11 3 -13 -5 -15 -3 -9 7 6 10 4 12 -8 7
-10 -3 -17 -2 -17 4 0 5 -13 15 -30 20 -17 6 -27 16 -23 22 3 5 1 7 -5 3 -14
-9 -65 12 -57 24 4 6 -1 7 -11 3 -13 -5 -15 -3 -9 7 6 10 4 12 -8 7 -10 -3
-17 -3 -17 2 0 4 -10 13 -23 18 -19 9 -23 17 -19 47 3 24 0 36 -8 36 -8 0 -10
8 -7 23 l6 22 -173 0 c-99 0 -172 -4 -169 -9 3 -5 -8 -7 -25 -4 -17 2 -29 1
-27 -2 3 -4 -22 -13 -55 -20 -33 -7 -60 -16 -60 -20 0 -5 -9 -6 -20 -3 -12 3
-20 0 -20 -7 0 -8 -9 -11 -25 -8 -13 3 -22 1 -19 -3 5 -8 -25 -13 -63 -12 -7
1 -10 -3 -7 -8 5 -8 -10 -13 -29 -10 -5 1 -6 -3 -2 -9 3 -5 -2 -13 -12 -17
-10 -4 -24 -15 -31 -25 -8 -10 -21 -17 -30 -16 -9 2 -16 -2 -15 -9 2 -7 -13
-19 -31 -28 -19 -9 -37 -23 -40 -31 -5 -14 -54 -39 -69 -35 -5 1 -6 -3 -3 -8
10 -16 -24 -21 -149 -21 l-123 0 -4 73 c-8 149 -9 367 -1 367 17 0 22 295 8
581 -6 129 -5 178 4 183 6 4 11 18 11 32 0 26 -36 105 -53 115 -5 4 -6 12 -2
19 6 9 4 11 -5 5 -10 -6 -12 -4 -7 9 4 9 3 15 -2 12 -5 -3 -12 31 -16 76 -7
75 -23 117 -39 101 -3 -4 -6 -2 -6 3 0 6 -31 25 -70 44 -38 19 -70 37 -70 42
0 4 -7 8 -15 8 -12 0 -14 -7 -9 -26z"/>
</g>
</svg>
