<?xml version="1.0" standalone="no"?>
<!DOCTYPE svg PUBLIC "-//W3C//DTD SVG 20010904//EN"
 "http://www.w3.org/TR/2001/REC-SVG-20010904/DTD/svg10.dtd">
<svg version="1.0" xmlns="http://www.w3.org/2000/svg"
 width="640.000000pt" height="512.000000pt" viewBox="0 0 640.000000 512.000000"
 preserveAspectRatio="xMidYMid meet">
<metadata>
Created by potrace 1.15, written by Peter Selinger 2001-2017
</metadata>
<g transform="translate(0.000000,512.000000) scale(0.100000,-0.100000)"
fill="#000000" stroke="none">
<path d="M2393 4494 c-7 -3 -10 -11 -8 -17 3 -7 -5 -23 -16 -37 -11 -14 -18
-19 -14 -12 14 27 -4 10 -29 -28 -15 -23 -24 -45 -21 -51 4 -5 1 -8 -7 -7 -8
2 -13 -6 -13 -19 0 -11 -4 -25 -9 -30 -5 -4 -6 -3 -2 4 4 8 2 11 -6 8 -9 -4
-12 -21 -10 -55 2 -28 1 -58 -3 -68 -4 -9 -6 -56 -5 -104 1 -55 -3 -88 -9 -88
-6 0 -8 -7 -5 -15 4 -8 1 -15 -5 -15 -6 0 -8 -7 -5 -15 4 -8 2 -15 -2 -15 -5
0 -9 -58 -9 -129 0 -71 3 -127 8 -124 4 2 7 -70 7 -161 0 -91 -3 -166 -7 -166
-5 0 -6 -25 -5 -56 3 -35 0 -54 -6 -50 -6 3 -8 -11 -4 -39 2 -25 1 -45 -4 -45
-5 0 -9 -31 -9 -69 0 -38 4 -67 9 -64 5 3 7 -8 4 -25 -3 -18 0 -29 5 -25 6 4
8 -5 5 -21 -3 -14 -1 -26 3 -26 5 0 9 -50 9 -111 0 -60 -3 -108 -7 -106 -5 3
-6 -42 -5 -100 2 -60 0 -103 -5 -100 -5 3 -7 -23 -5 -59 2 -35 0 -64 -4 -64
-5 0 -7 -28 -6 -61 3 -46 1 -59 -8 -54 -9 5 -10 1 -5 -15 5 -16 4 -20 -5 -15
-9 5 -10 1 -5 -15 5 -15 4 -20 -4 -16 -7 5 -9 -3 -4 -25 4 -22 3 -30 -5 -26
-6 5 -8 -1 -4 -15 3 -11 1 -19 -4 -16 -5 4 -9 -13 -9 -37 0 -24 3 -41 8 -38 4
2 7 -26 7 -62 0 -36 -4 -64 -9 -61 -5 3 -6 -15 -3 -41 4 -35 2 -44 -8 -38 -9
6 -11 -5 -9 -44 3 -31 0 -50 -6 -47 -7 2 -9 -63 -7 -186 2 -104 -1 -187 -5
-185 -5 3 -7 -13 -5 -35 3 -27 1 -38 -6 -34 -7 4 -9 -6 -5 -30 4 -21 2 -35 -3
-31 -5 3 -8 -53 -6 -135 2 -78 0 -138 -5 -135 -5 3 -7 -10 -5 -30 3 -25 1 -34
-7 -29 -8 6 -10 0 -5 -20 5 -19 4 -25 -5 -20 -9 6 -10 0 -5 -20 5 -19 4 -25
-5 -20 -8 6 -10 1 -6 -17 5 -19 -1 -33 -25 -61 -32 -36 -64 -51 -39 -18 7 9
-9 -4 -36 -30 -45 -43 -49 -51 -49 -96 -1 -28 3 -48 8 -45 5 4 7 -12 3 -35 -3
-24 -1 -40 4 -36 5 3 9 -22 9 -56 0 -40 -4 -59 -10 -55 -7 4 -8 -3 -4 -21 5
-20 4 -25 -6 -19 -9 5 -10 2 -5 -15 5 -16 4 -20 -4 -15 -8 5 -10 -1 -5 -21 5
-19 4 -25 -5 -20 -6 4 -11 1 -11 -8 0 -11 8 -13 37 -9 20 4 34 2 30 -3 -3 -5
31 -8 80 -6 47 2 83 0 80 -5 -3 -4 47 -6 110 -5 81 3 113 1 109 -7 -5 -8 19
-11 79 -11 63 0 84 3 79 12 -5 8 0 9 14 6 14 -4 20 -2 15 5 -4 6 2 8 15 5 14
-4 20 -2 16 4 -5 7 2 9 20 4 20 -5 26 -4 20 5 -5 8 1 10 19 7 16 -3 24 -1 20
5 -4 6 2 8 15 5 14 -4 20 -2 15 5 -4 6 2 8 15 5 14 -4 20 -2 16 4 -5 7 2 9 19
6 15 -3 24 -1 21 3 -3 5 13 9 36 9 23 0 39 -3 37 -8 -3 -4 141 -6 320 -4 178
1 322 -1 320 -5 -3 -5 28 -8 68 -8 40 0 71 4 68 9 -3 5 6 7 20 4 15 -3 24 -2
22 3 -7 10 71 22 86 13 8 -5 9 -3 4 6 -6 10 -1 12 18 8 15 -3 24 -1 21 3 -3 5
18 9 46 9 28 0 49 -3 47 -7 -3 -5 31 -7 75 -5 44 2 78 0 75 -5 -3 -4 19 -8 48
-8 30 0 51 4 47 9 -3 5 2 6 12 3 11 -5 15 -3 10 5 -5 8 -2 9 9 5 9 -3 19 -1
23 5 5 7 2 8 -7 4 -8 -4 -5 0 6 9 11 9 32 19 48 22 15 3 27 9 27 14 0 5 6 9
13 9 7 0 22 7 33 16 10 8 12 13 4 9 -8 -4 -6 1 5 9 11 9 25 14 31 12 8 -3 10
7 6 36 -4 30 -2 39 6 34 9 -5 12 8 12 43 0 55 -8 84 -21 75 -5 -3 -6 1 -4 8 3
8 -2 22 -11 33 -8 11 -12 14 -8 6 4 -9 3 -12 -4 -7 -6 4 -9 12 -6 19 2 7 -2
21 -9 31 -12 16 -26 19 -92 17 -42 -1 -75 1 -72 6 3 4 -35 8 -83 8 -49 0 -86
-4 -83 -9 3 -5 -8 -7 -25 -4 -19 3 -29 0 -25 -5 4 -6 -3 -8 -15 -5 -14 4 -20
2 -15 -5 4 -6 -2 -8 -15 -5 -14 4 -20 2 -16 -4 5 -7 -2 -9 -19 -6 -15 3 -24 1
-21 -3 3 -5 -7 -9 -21 -9 -14 0 -24 4 -21 8 3 5 -9 6 -26 4 -17 -3 -28 -1 -25
5 3 5 -10 7 -30 5 -20 -3 -33 -1 -30 5 3 5 -10 7 -30 5 -20 -3 -33 -1 -30 5 3
5 -10 7 -30 5 -20 -3 -33 -1 -30 4 3 5 -14 9 -38 9 -24 0 -41 -4 -38 -8 3 -5
-19 -7 -50 -5 -30 1 -53 -1 -50 -5 3 -5 -47 -7 -110 -5 -63 2 -113 -1 -110 -5
3 -5 -24 -7 -60 -5 -38 2 -63 -1 -59 -6 3 -5 -2 -6 -12 -3 -9 4 -14 3 -11 -2
7 -12 -31 -24 -46 -15 -8 5 -9 3 -4 -6 6 -10 4 -12 -9 -7 -10 4 -15 3 -11 -3
6 -9 -10 -14 -42 -13 -7 1 -10 -3 -7 -8 7 -12 -179 -11 -228 0 -22 5 -36 5
-32 0 3 -5 -21 -9 -53 -9 -50 1 -63 5 -93 31 -19 17 -29 28 -22 24 20 -10 -1
27 -25 46 -15 11 -15 9 2 -11 l20 -25 -22 19 c-18 14 -23 30 -23 63 0 24 4 42
9 39 5 -4 7 12 4 36 -4 28 -3 39 5 34 7 -4 9 5 5 29 -3 19 -1 35 4 35 5 0 7
16 5 36 -3 26 -1 35 7 30 8 -5 10 0 7 18 -3 15 -1 24 5 21 5 -4 9 7 9 23 0 49
12 122 20 117 3 -2 4 10 2 27 -3 22 -1 29 7 24 9 -6 10 0 5 20 -4 15 -3 25 2
21 5 -3 9 19 9 49 0 30 -4 54 -9 54 -5 0 -6 14 -2 30 4 22 2 29 -6 24 -7 -5
-9 1 -6 19 3 16 1 24 -6 21 -8 -3 -10 9 -8 35 3 27 12 47 30 63 l27 23 -25
-30 -25 -30 27 24 c15 13 27 26 26 30 0 3 0 8 2 11 1 3 3 39 6 80 7 135 9 147
27 165 12 11 15 23 10 34 -4 9 -8 44 -8 78 0 33 -3 59 -7 56 -5 -2 -8 80 -8
182 0 109 4 184 9 181 5 -4 7 12 4 36 -4 27 -2 39 4 35 7 -4 9 9 5 40 -3 27
-1 44 4 40 5 -3 8 12 6 35 -3 28 -1 39 7 34 7 -5 11 6 11 34 0 23 7 54 15 69
9 18 12 42 8 66 -4 27 -3 36 5 31 8 -5 10 2 5 25 -4 24 -3 30 6 25 8 -6 10 -1
5 18 -3 14 -2 26 2 26 8 0 10 35 5 88 0 7 -6 10 -12 6 -8 -4 -9 1 -4 16 5 17
4 21 -6 15 -9 -6 -11 -2 -7 13 4 14 2 20 -5 15 -6 -4 -8 0 -4 10 4 11 2 14 -8
11 -10 -4 -12 0 -8 17 5 16 3 20 -6 15 -10 -6 -12 24 -9 137 2 80 -1 143 -5
140 -5 -3 -7 56 -5 130 2 75 -1 133 -6 130 -4 -3 -7 28 -5 70 3 41 1 73 -3 71
-5 -3 -8 38 -8 91 0 64 3 94 10 90 7 -4 8 3 4 21 -5 19 -4 25 5 20 9 -6 10 0
5 20 -5 19 -4 25 4 20 8 -5 10 2 5 25 -4 23 -3 30 5 25 9 -5 12 7 12 39 0 32
-3 44 -11 39 -9 -5 -10 1 -5 20 5 20 4 26 -5 20 -8 -5 -10 1 -7 19 3 17 1 24
-5 20 -6 -4 -8 0 -4 10 3 10 2 17 -3 17 -5 0 -7 6 -4 14 3 8 0 17 -7 22 -8 5
-10 3 -4 -6 5 -9 4 -11 -4 -6 -6 4 -9 11 -6 16 6 10 -21 70 -31 70 -3 0 -2 -6
1 -12 4 -7 -1 -4 -9 7 -9 11 -14 25 -11 33 3 8 0 10 -7 6 -7 -5 -9 -2 -5 9 4
12 -15 32 -26 26 -1 0 -7 -3 -14 -5z"/>
</g>
</svg>
