<?xml version="1.0" standalone="no"?>
<!DOCTYPE svg PUBLIC "-//W3C//DTD SVG 20010904//EN"
 "http://www.w3.org/TR/2001/REC-SVG-20010904/DTD/svg10.dtd">
<svg version="1.0" xmlns="http://www.w3.org/2000/svg"
 width="640.000000pt" height="512.000000pt" viewBox="0 0 640.000000 512.000000"
 preserveAspectRatio="xMidYMid meet">
<metadata>
Created by potrace 1.15, written by Peter Selinger 2001-2017
</metadata>
<g transform="translate(0.000000,512.000000) scale(0.100000,-0.100000)"
fill="#000000" stroke="none">
<path d="M3164 4378 l-50 -31 -18 -126 c-10 -69 -33 -183 -52 -252 -20 -74
-34 -149 -34 -183 0 -85 -37 -317 -71 -441 -41 -147 -75 -338 -84 -460 -4 -55
-22 -173 -41 -263 -19 -89 -34 -178 -34 -196 0 -19 12 -81 26 -138 28 -110 48
-354 45 -540 l-1 -96 64 -102 c56 -87 87 -155 74 -164 -15 -11 -328 -84 -343
-80 -11 3 -54 55 -96 117 -60 87 -78 123 -84 162 -8 54 -89 225 -106 225 -39
0 -142 -26 -146 -37 -3 -7 10 -93 28 -190 l33 -178 64 -105 c62 -102 67 -107
174 -182 102 -71 117 -78 219 -103 107 -27 110 -27 209 -13 l100 14 91 -55
c74 -45 102 -69 152 -133 54 -68 77 -87 187 -155 129 -80 161 -93 317 -134
l93 -24 53 53 c43 42 58 66 75 121 12 37 22 77 22 88 0 16 -51 89 -126 182 -2
2 -53 -4 -114 -14 l-111 -19 -72 36 -72 36 -32 78 c-18 44 -35 102 -39 130 -6
49 -3 57 49 155 31 57 72 147 93 199 25 64 68 141 132 235 l94 140 -6 55 c-17
159 -17 221 -2 402 9 109 16 287 16 396 l0 199 -46 169 c-33 120 -48 199 -54
274 -6 84 -15 125 -45 205 -38 102 -65 234 -65 317 0 62 -89 251 -156 330 -44
51 -59 62 -139 93 -50 19 -98 35 -105 35 -8 -1 -38 -15 -66 -32z m255 -790 c7
-46 23 -127 37 -180 34 -136 35 -343 2 -470 l-23 -88 38 -76 38 -76 -7 -152
c-7 -158 -37 -335 -72 -417 -10 -24 -31 -91 -47 -149 -22 -82 -38 -119 -73
-167 -55 -78 -72 -81 -72 -13 0 28 -15 105 -34 173 -19 67 -40 154 -46 193
-17 99 -7 286 28 478 l28 158 39 20 c22 11 42 22 44 24 1 1 -9 19 -24 38 -27
36 -27 36 -15 115 11 72 16 84 66 146 30 37 54 75 54 83 0 9 -8 58 -17 110
-16 93 -16 96 7 213 13 66 27 119 30 119 4 0 12 -37 19 -82z"/>
</g>
</svg>
