<?xml version="1.0" standalone="no"?>
<!DOCTYPE svg PUBLIC "-//W3C//DTD SVG 20010904//EN"
 "http://www.w3.org/TR/2001/REC-SVG-20010904/DTD/svg10.dtd">
<svg version="1.0" xmlns="http://www.w3.org/2000/svg"
 width="640.000000pt" height="512.000000pt" viewBox="0 0 640.000000 512.000000"
 preserveAspectRatio="xMidYMid meet">
<metadata>
Created by potrace 1.15, written by Peter Selinger 2001-2017
</metadata>
<g transform="translate(0.000000,512.000000) scale(0.100000,-0.100000)"
fill="#000000" stroke="none">
<path d="M4885 4370 c-27 -22 -57 -40 -66 -40 -35 0 -77 -66 -95 -148 l-17
-79 -170 -84 -170 -84 -162 -200 c-211 -260 -547 -627 -768 -838 l-176 -167
-163 -79 -164 -78 -139 185 c-182 241 -390 462 -645 684 -210 184 -222 197
-440 484 -69 90 -71 92 -265 214 -110 69 -199 119 -204 114 -9 -10 -61 -352
-61 -400 0 -17 27 -152 60 -300 80 -356 135 -760 144 -1054 3 -113 13 -368 23
-567 16 -342 16 -376 0 -595 -32 -444 -33 -401 7 -628 20 -113 38 -210 41
-217 3 -8 30 -12 82 -11 43 0 99 -3 125 -7 l47 -7 85 171 86 171 0 221 c0 132
-7 287 -16 383 -13 127 -15 219 -10 441 5 230 3 306 -11 423 l-17 142 24 113
c15 68 25 144 25 194 0 45 3 84 6 88 8 7 161 -123 437 -369 173 -154 220 -203
319 -329 64 -81 127 -156 139 -165 12 -9 46 -38 76 -64 l54 -47 194 -11 195
-12 97 48 96 47 7 87 7 86 109 130 108 129 148 74 148 73 58 87 c32 47 85 135
120 195 34 60 68 111 75 114 7 2 27 -30 52 -83 l40 -87 0 -159 0 -158 -70
-111 c-38 -61 -70 -115 -70 -121 0 -5 16 -41 35 -79 19 -38 35 -75 35 -83 0
-7 -25 -92 -55 -188 l-55 -174 0 -155 c0 -133 -4 -176 -32 -315 l-32 -162 14
-159 13 -159 46 -86 c84 -158 154 -279 161 -279 4 0 48 66 97 148 l90 147 42
180 c80 345 219 800 282 927 22 43 39 81 39 85 0 5 -21 23 -45 42 -25 18 -45
40 -45 47 0 8 25 108 55 223 l55 209 0 184 0 184 55 189 c30 105 76 248 101
319 l47 129 -13 127 -13 128 62 153 c33 85 61 161 61 170 0 9 -16 61 -36 115
-31 83 -53 121 -138 236 -55 76 -103 137 -106 138 -3 0 -27 -18 -55 -40z"/>
</g>
</svg>
