<?xml version="1.0" standalone="no"?>
<!DOCTYPE svg PUBLIC "-//W3C//DTD SVG 20010904//EN"
 "http://www.w3.org/TR/2001/REC-SVG-20010904/DTD/svg10.dtd">
<svg version="1.0" xmlns="http://www.w3.org/2000/svg"
 width="640.000000pt" height="512.000000pt" viewBox="0 0 640.000000 512.000000"
 preserveAspectRatio="xMidYMid meet">
<metadata>
Created by potrace 1.15, written by Peter Selinger 2001-2017
</metadata>
<g transform="translate(0.000000,512.000000) scale(0.100000,-0.100000)"
fill="#000000" stroke="none">
<path d="M2415 3167 c-2 -7 -5 -23 -7 -36 -3 -21 -17 -30 -88 -59 -47 -19 -91
-39 -97 -44 -8 -6 -13 -34 -13 -66 0 -55 -1 -58 -57 -114 l-58 -59 -7 -117
c-11 -193 -19 -228 -71 -319 -55 -96 -55 -98 -30 -326 l17 -159 58 -29 c32
-16 61 -29 66 -29 4 0 35 37 69 83 52 70 63 93 78 161 16 73 27 94 139 262
l121 183 68 11 c38 7 70 10 71 9 72 -90 115 -163 129 -216 23 -85 22 -110 -12
-270 -16 -76 -33 -170 -37 -210 -3 -39 -12 -74 -18 -76 -6 -2 -41 -10 -78 -17
-64 -13 -83 -30 -33 -30 51 0 55 -7 55 -91 0 -51 -11 -128 -31 -221 -45 -205
-49 -325 -14 -454 15 -55 30 -102 33 -106 4 -4 39 -12 77 -17 39 -6 84 -13
102 -16 31 -5 32 -4 82 88 49 90 51 98 51 171 0 96 36 261 94 433 31 92 46
157 51 215 l7 84 114 57 c63 31 117 57 120 57 3 0 3 -39 -1 -87 -5 -73 -3
-100 15 -158 22 -71 49 -327 50 -458 0 -66 -2 -70 -42 -118 -48 -57 -51 -44
37 -164 30 -40 79 -94 110 -120 l56 -48 53 52 c47 47 54 59 70 128 10 41 36
119 58 172 43 103 67 241 68 392 l0 75 35 17 c34 16 35 19 35 72 0 45 12 85
61 208 34 84 65 156 68 160 7 7 166 -24 176 -34 2 -2 30 -68 63 -145 37 -88
64 -170 72 -215 8 -47 23 -91 41 -122 35 -56 35 -76 8 -176 l-21 -77 47 -104
c33 -74 46 -113 43 -137 -2 -19 0 -33 7 -33 5 1 46 20 89 43 l79 42 47 125
c25 69 61 157 79 197 l33 72 -33 218 c-28 186 -39 237 -80 348 -25 72 -57 177
-70 234 l-23 103 -85 65 c-63 47 -90 74 -100 101 -13 34 -157 252 -166 252 -2
0 -47 15 -99 34 l-94 35 -59 -76 c-32 -42 -60 -80 -63 -84 -3 -5 -53 -18 -110
-30 -58 -12 -108 -25 -112 -29 -5 -3 28 -19 72 -35 44 -16 80 -34 80 -41 0
-11 -127 -204 -135 -204 -2 0 -23 9 -48 19 -42 18 -44 21 -57 82 -9 45 -27 85
-60 134 -26 39 -51 90 -56 115 l-9 45 -95 23 c-88 22 -97 26 -124 63 -17 21
-32 39 -35 39 -3 -1 -26 -31 -51 -67 -40 -60 -51 -69 -99 -85 -30 -10 -58 -15
-61 -11 -4 5 -13 24 -20 43 -7 19 -51 86 -98 147 l-84 113 -117 64 c-89 50
-137 69 -204 85 -64 14 -89 16 -92 8z"/>
</g>
</svg>
