<?xml version="1.0" standalone="no"?>
<!DOCTYPE svg PUBLIC "-//W3C//DTD SVG 20010904//EN"
 "http://www.w3.org/TR/2001/REC-SVG-20010904/DTD/svg10.dtd">
<svg version="1.0" xmlns="http://www.w3.org/2000/svg"
 width="640.000000pt" height="512.000000pt" viewBox="0 0 640.000000 512.000000"
 preserveAspectRatio="xMidYMid meet">
<metadata>
Created by potrace 1.15, written by Peter Selinger 2001-2017
</metadata>
<g transform="translate(0.000000,512.000000) scale(0.100000,-0.100000)"
fill="#000000" stroke="none">
<path d="M1776 4356 c3 -8 0 -17 -7 -22 -8 -4 -10 -3 -5 4 4 7 5 12 3 12 -11
0 -57 -82 -51 -92 4 -6 3 -9 -2 -6 -5 3 -18 -4 -29 -15 -12 -11 -14 -17 -5
-13 9 5 8 2 -2 -7 -10 -8 -15 -17 -11 -20 3 -4 1 -7 -5 -7 -6 0 -9 -6 -7 -12
3 -7 -5 -24 -16 -38 -11 -14 -18 -19 -14 -12 16 30 -5 7 -39 -43 -35 -54 -48
-93 -24 -79 8 5 9 0 6 -14 -4 -14 -2 -20 4 -16 7 5 9 -2 4 -20 -5 -20 -4 -26
5 -20 9 5 10 -1 5 -20 -5 -20 -3 -26 5 -21 8 5 9 1 4 -15 -5 -16 -4 -20 5 -15
9 5 10 1 5 -15 -5 -16 -4 -20 5 -15 9 5 10 1 5 -15 -5 -17 -4 -21 6 -15 9 6
11 2 7 -13 -4 -14 -2 -20 5 -15 6 4 8 -2 5 -15 -4 -12 -2 -22 4 -22 5 0 6 -10
3 -21 -5 -16 -4 -19 5 -14 9 5 10 1 5 -15 -5 -17 -4 -20 5 -15 10 6 12 1 8
-18 -3 -16 -1 -24 5 -20 6 4 8 -2 5 -15 -4 -14 -2 -20 5 -15 6 4 8 -2 5 -15
-4 -12 -2 -22 4 -22 6 0 8 -7 4 -15 -3 -8 -1 -15 4 -15 6 0 10 -97 10 -255 0
-140 -4 -255 -8 -255 -4 0 -6 -16 -4 -36 3 -21 1 -34 -5 -31 -5 3 -7 -10 -5
-30 3 -23 1 -33 -6 -29 -7 4 -8 -8 -5 -34 3 -22 1 -40 -4 -40 -5 0 -7 -16 -5
-36 3 -21 1 -34 -5 -31 -5 3 -7 -10 -5 -30 3 -20 0 -33 -4 -30 -5 3 -9 -12 -9
-33 0 -21 4 -36 9 -33 5 4 7 -3 4 -15 -4 -14 -2 -20 5 -15 6 4 8 -2 5 -15 -4
-12 -2 -22 4 -22 6 0 8 -9 5 -20 -3 -11 -1 -20 5 -20 5 0 6 -10 3 -21 -5 -16
-4 -19 5 -14 9 5 10 2 5 -14 -5 -16 -3 -20 9 -15 11 4 13 0 9 -17 -4 -14 -2
-20 4 -16 7 5 9 -1 5 -15 -4 -16 -2 -19 8 -13 10 6 12 3 8 -13 -4 -12 -2 -22
4 -22 6 0 7 -11 4 -26 -5 -18 -3 -24 5 -19 8 5 9 1 4 -15 -5 -15 -4 -20 4 -16
8 5 11 -13 11 -59 0 -36 -4 -64 -8 -61 -4 2 -6 -11 -4 -31 3 -24 1 -33 -6 -29
-7 4 -9 -6 -5 -30 4 -25 3 -35 -4 -31 -8 5 -9 -7 -6 -35 5 -32 3 -39 -7 -33
-9 6 -12 -1 -8 -28 2 -20 0 -33 -4 -31 -4 3 -8 -11 -8 -30 0 -20 -4 -36 -8
-36 -5 0 -7 -13 -4 -30 2 -16 0 -30 -4 -30 -5 0 -9 -18 -9 -40 0 -22 4 -40 9
-40 4 0 5 -11 2 -25 -5 -18 -3 -23 7 -19 10 4 12 -3 9 -27 -3 -20 -1 -29 5
-26 6 4 8 -4 5 -18 -3 -16 0 -25 8 -25 8 0 10 -9 6 -26 -5 -18 -3 -24 5 -18 9
5 10 -1 5 -20 -5 -20 -4 -26 5 -20 9 5 10 -1 6 -25 -5 -23 -3 -30 5 -25 7 5 9
-1 6 -19 -3 -16 -1 -24 5 -20 6 4 8 -5 4 -26 -5 -23 -3 -30 5 -25 8 5 9 -1 4
-20 -5 -20 -4 -26 5 -20 9 5 10 -1 6 -25 -5 -23 -3 -30 5 -25 7 5 9 -1 6 -19
-3 -16 -1 -24 5 -20 6 4 8 -4 5 -21 -3 -14 -1 -26 4 -26 6 0 7 -11 4 -26 -5
-18 -3 -24 5 -19 8 5 9 1 4 -15 -5 -17 -4 -20 5 -15 10 6 12 1 8 -18 -3 -16
-1 -24 5 -20 6 4 8 -4 5 -20 -3 -16 -1 -24 5 -20 6 4 8 -2 5 -15 -4 -12 -2
-22 3 -22 5 0 9 -12 9 -26 0 -14 4 -23 9 -20 4 3 6 -6 3 -21 -4 -19 -2 -24 8
-18 9 5 10 2 5 -15 -5 -17 -4 -20 5 -15 10 6 11 1 6 -19 -5 -20 -4 -26 5 -20
8 5 10 -1 7 -19 -3 -16 -1 -24 5 -20 6 4 8 -5 4 -26 -5 -22 -3 -30 4 -25 8 4
9 -1 4 -16 -5 -17 -4 -20 5 -15 10 6 11 1 6 -19 -5 -20 -4 -26 5 -20 9 5 10
-1 5 -20 -5 -20 -4 -26 5 -20 9 5 10 1 7 -14 -4 -14 -2 -20 4 -16 7 5 9 -2 6
-20 -3 -14 -1 -26 4 -26 6 0 7 -11 4 -26 -5 -18 -3 -24 5 -19 8 5 9 1 4 -15
-5 -17 -4 -20 5 -15 10 6 11 1 6 -19 -9 -37 13 -34 50 6 l29 33 -31 -27 c-16
-16 -33 -28 -37 -28 -4 0 8 14 27 31 20 17 40 28 45 25 11 -7 94 81 87 93 -3
5 4 17 17 27 l22 19 -19 -22 c-11 -13 -17 -23 -13 -23 3 0 20 19 38 43 27 34
28 38 9 22 l-25 -20 19 23 c11 12 25 21 32 18 14 -6 108 89 101 102 -4 5 8 22
26 38 l32 29 -30 -34 -30 -35 34 28 c34 27 54 80 27 70 -10 -4 -12 2 -8 22 3
16 1 25 -5 21 -5 -4 -8 7 -5 25 4 23 2 29 -8 23 -10 -6 -12 0 -7 29 4 25 2 34
-5 30 -7 -5 -9 2 -4 20 5 20 4 26 -5 20 -9 -5 -10 1 -6 25 5 23 3 30 -5 25 -8
-5 -9 1 -4 20 5 20 4 26 -5 20 -8 -5 -10 2 -7 25 2 17 0 31 -5 31 -5 0 -7 14
-3 30 4 22 2 29 -6 24 -8 -5 -9 1 -4 20 5 20 4 26 -5 20 -8 -5 -10 2 -7 24 3
18 0 29 -5 25 -6 -3 -8 7 -5 26 2 17 0 31 -5 31 -5 0 -6 12 -3 26 5 19 3 24
-5 18 -9 -5 -10 1 -6 25 5 22 3 30 -4 25 -8 -5 -10 3 -7 24 3 18 0 29 -5 25
-6 -4 -8 5 -5 21 3 14 1 26 -5 26 -5 0 -7 11 -5 25 3 14 1 25 -3 25 -5 0 -9
12 -9 26 0 14 -4 23 -8 20 -5 -3 -6 9 -4 26 4 23 2 29 -8 23 -10 -6 -12 0 -8
24 2 17 0 31 -5 31 -5 0 -7 14 -3 30 3 19 2 29 -4 25 -6 -4 -10 8 -10 29 0 26
6 38 21 47 17 9 20 8 14 -3 -3 -7 0 -5 8 4 7 10 26 22 41 28 15 5 24 14 21 20
-4 6 1 7 11 3 11 -4 15 -2 11 4 -8 12 20 26 33 18 5 -3 12 0 16 6 4 8 3 9 -4
5 -7 -4 -12 -5 -12 -2 0 10 55 34 92 41 36 7 37 6 47 -31 6 -20 8 -41 6 -45
-3 -4 7 -17 22 -28 16 -11 35 -26 43 -33 8 -7 17 -12 20 -11 6 2 98 -248 141
-379 13 -40 26 -65 32 -61 6 4 8 -2 5 -15 -4 -12 -3 -20 2 -17 4 3 21 -35 38
-83 16 -48 49 -142 72 -209 26 -73 47 -120 53 -116 6 4 8 -2 5 -15 -4 -12 -3
-20 1 -18 7 5 37 -83 33 -97 -1 -5 2 -6 8 -2 5 3 11 1 11 -4 1 -6 2 -15 3 -20
0 -5 5 -13 10 -18 5 -5 6 -3 2 5 -14 24 0 12 24 -20 13 -18 17 -28 9 -23 -8 6
-7 3 3 -7 10 -9 18 -20 18 -25 1 -4 15 -24 32 -43 17 -19 27 -28 24 -20 -4 8
-1 6 8 -4 8 -10 13 -22 11 -26 -3 -4 3 -14 13 -21 15 -12 16 -12 7 1 -5 9 -2
7 7 -3 10 -11 16 -23 13 -27 -3 -5 0 -12 6 -16 8 -5 9 -3 4 7 -6 11 -5 11 4 3
7 -6 13 -18 14 -26 3 -17 17 -35 75 -94 24 -24 41 -48 38 -53 -4 -5 -1 -13 5
-17 8 -5 10 -2 4 7 -4 8 4 1 19 -16 14 -16 25 -38 26 -47 0 -9 8 -23 18 -30 9
-7 28 -29 42 -49 15 -24 29 -35 39 -31 9 3 12 1 7 -6 -5 -8 -1 -10 10 -5 12 4
15 3 10 -5 -5 -8 -1 -10 10 -5 12 4 15 3 10 -5 -4 -7 -2 -10 6 -7 8 3 22 -2
33 -11 11 -8 13 -13 5 -9 -8 4 -6 -1 4 -9 12 -9 28 -13 39 -10 13 4 17 2 13
-5 -4 -6 0 -11 11 -11 20 0 419 418 416 435 -2 6 16 29 40 50 l42 40 -40 -45
-40 -45 42 39 c33 31 44 49 49 83 3 24 10 43 14 43 5 0 6 10 2 22 -3 13 -1 19
5 15 6 -4 8 4 5 20 -3 18 -1 24 7 19 8 -6 10 0 5 18 -3 15 -2 26 4 26 6 0 8 9
5 20 -3 11 -1 20 4 20 6 0 8 12 5 26 -3 18 -1 25 6 20 6 -4 8 2 4 16 -3 15 -2
19 7 14 9 -6 10 0 5 20 -5 19 -4 25 5 20 9 -6 10 0 5 20 -4 17 -3 25 3 21 12
-7 36 40 28 54 -4 5 -1 9 5 9 6 0 8 4 5 10 -3 5 -1 18 4 27 6 10 11 14 11 8 0
-5 7 1 16 13 8 12 12 27 8 34 -5 7 -2 9 9 5 12 -4 14 -2 10 10 -5 12 -3 14 7
8 10 -6 12 -4 7 8 -3 10 -2 17 4 17 6 0 7 5 4 10 -3 6 -1 10 5 10 6 0 8 5 5
10 -3 6 -1 10 5 10 6 0 8 5 5 10 -3 6 -1 10 5 10 6 0 9 4 6 9 -8 12 4 42 13
36 10 -5 53 84 46 95 -3 5 0 12 6 16 8 5 9 3 4 -6 -5 -8 -4 -11 3 -6 6 3 16
22 22 41 6 19 16 35 21 35 6 0 8 4 4 9 -7 12 15 62 25 56 3 -2 5 20 2 50 -2
30 -1 55 4 55 5 0 7 25 6 56 -3 34 0 54 6 51 5 -4 7 13 4 42 -4 45 -2 51 30
82 29 29 30 30 3 9 l-30 -25 30 33 c16 18 35 30 41 28 7 -3 20 5 31 17 l18 22
-22 -19 c-13 -11 -23 -17 -23 -13 0 3 19 20 42 38 35 27 39 28 23 9 -19 -24
-19 -25 0 -7 17 15 19 28 16 88 -1 39 1 69 6 66 4 -3 7 29 4 70 -2 50 0 73 7
69 6 -4 8 2 4 16 -3 13 -1 19 5 15 6 -4 8 4 5 20 -4 19 -2 24 8 18 9 -5 10 -2
5 15 -5 16 -4 20 4 15 8 -5 10 1 5 21 -5 20 -4 25 6 19 9 -5 10 -2 5 15 -5 15
-4 20 4 16 7 -5 9 3 4 25 -5 24 -3 30 7 24 9 -6 10 -2 5 15 -5 16 -4 20 4 15
8 -5 10 1 5 21 -5 19 -4 25 5 20 8 -5 11 69 11 289 0 210 -3 294 -11 289 -7
-4 -10 32 -7 124 2 72 -1 128 -5 125 -4 -2 -7 175 -7 394 1 378 0 398 -17 400
-16 3 -15 1 2 -7 16 -8 10 -9 -27 -7 -25 1 -44 -2 -41 -7 3 -5 -10 -7 -30 -4
-20 2 -33 0 -30 -5 3 -5 -12 -8 -35 -5 -22 2 -38 -1 -35 -6 3 -4 -10 -7 -30
-4 -20 2 -33 0 -30 -5 3 -6 -8 -8 -25 -5 -18 2 -28 0 -25 -5 3 -5 -11 -8 -35
-5 -22 2 -38 -1 -35 -6 3 -4 -10 -7 -30 -4 -20 2 -34 1 -31 -3 5 -9 -113 -22
-126 -14 -6 3 -10 1 -10 -6 0 -7 -11 -10 -30 -7 -16 3 -30 1 -30 -3 0 -4 -10
-9 -22 -11 -18 -2 -22 -8 -20 -27 2 -13 -1 -21 -6 -17 -6 4 -8 -3 -4 -16 3
-13 1 -19 -5 -15 -7 5 -9 -1 -5 -15 4 -15 2 -19 -7 -13 -10 6 -11 2 -6 -15 5
-16 4 -20 -4 -15 -8 5 -10 -1 -5 -19 3 -15 2 -26 -4 -26 -6 0 -8 -10 -4 -22 3
-13 1 -19 -5 -15 -7 5 -9 -1 -5 -15 4 -15 2 -19 -7 -13 -10 6 -11 2 -6 -15 5
-16 4 -20 -5 -15 -9 5 -10 1 -5 -15 5 -16 4 -20 -5 -15 -9 5 -10 1 -5 -15 5
-16 4 -20 -5 -15 -9 5 -10 1 -5 -15 5 -16 4 -20 -4 -15 -8 5 -10 -1 -5 -21 5
-18 3 -25 -4 -20 -6 4 -8 -2 -4 -16 4 -16 2 -19 -8 -13 -10 6 -12 2 -8 -18 3
-16 1 -24 -5 -20 -6 4 -8 -2 -4 -16 4 -17 2 -21 -9 -17 -12 4 -14 1 -9 -14 4
-11 2 -20 -4 -20 -6 0 -8 -7 -5 -15 4 -8 2 -15 -4 -15 -6 0 -8 -10 -4 -22 4
-16 2 -19 -8 -13 -9 5 -11 4 -6 -4 10 -16 -3 -53 -16 -45 -6 4 -8 -1 -3 -16 5
-16 4 -20 -5 -15 -9 5 -10 1 -5 -15 4 -14 3 -20 -3 -16 -13 8 -23 -19 -15 -41
4 -11 3 -14 -6 -9 -9 6 -10 0 -5 -20 5 -18 3 -25 -4 -20 -6 4 -8 -2 -4 -16 3
-13 1 -19 -5 -15 -14 9 -24 -18 -16 -40 5 -11 3 -14 -6 -8 -10 6 -11 2 -6 -15
4 -14 3 -20 -3 -16 -5 3 -13 -1 -16 -10 -9 -23 -7 -166 2 -161 4 3 6 -31 4
-75 -3 -56 0 -78 7 -73 8 4 11 -46 11 -169 0 -119 -4 -176 -11 -176 -7 0 -9
-30 -7 -89 2 -49 0 -87 -4 -84 -5 2 -8 -41 -8 -96 0 -56 -4 -101 -9 -101 -5 0
-7 -9 -4 -20 3 -11 1 -20 -4 -20 -6 0 -8 -12 -5 -26 3 -18 1 -25 -6 -20 -6 4
-8 -2 -4 -16 3 -13 1 -19 -5 -15 -6 4 -8 -4 -5 -20 3 -18 1 -24 -7 -19 -9 6
-10 0 -5 -20 5 -19 4 -25 -4 -20 -8 5 -10 -2 -5 -25 4 -21 2 -30 -4 -26 -6 4
-8 -4 -5 -20 4 -19 2 -24 -8 -18 -9 5 -10 2 -5 -15 5 -16 4 -20 -4 -15 -8 5
-10 -1 -5 -21 5 -19 4 -25 -5 -20 -7 5 -10 -1 -8 -16 2 -19 -3 -23 -25 -23
-14 1 -25 -2 -23 -6 3 -3 -27 -12 -65 -18 -39 -7 -68 -16 -65 -20 2 -5 -7 -6
-22 -3 -20 4 -24 2 -18 -8 6 -10 1 -12 -24 -7 -23 5 -30 3 -25 -5 5 -7 -1 -9
-19 -6 -15 3 -24 1 -21 -3 3 -5 -2 -9 -12 -9 -12 0 -15 6 -12 25 3 14 1 25 -5
25 -5 0 -7 9 -4 20 3 11 0 20 -5 20 -6 0 -8 12 -4 30 4 22 2 29 -6 24 -7 -5
-9 1 -6 19 3 16 1 24 -5 20 -6 -3 -8 6 -5 26 2 17 1 31 -4 31 -4 0 -8 12 -8
26 0 14 -4 23 -8 20 -5 -3 -6 9 -4 26 4 23 2 29 -8 23 -10 -6 -12 -1 -7 24 5
23 3 30 -5 25 -7 -5 -9 1 -6 19 3 16 1 24 -5 20 -7 -4 -8 7 -4 31 4 25 2 34
-5 30 -7 -5 -9 2 -4 20 5 20 4 26 -5 20 -9 -5 -10 1 -6 24 7 33 -3 45 -36 47
-10 1 -23 8 -30 15 -10 10 -9 11 3 6 8 -4 6 0 -4 8 -11 9 -25 16 -32 16 -6 0
-15 7 -18 16 -4 9 -9 14 -13 11 -3 -4 -12 1 -20 11 -8 9 -11 11 -8 4 5 -10 -1
-9 -24 2 -17 9 -31 19 -31 22 0 3 5 2 12 -2 7 -4 8 -3 4 4 -4 6 -14 8 -23 5
-11 -4 -14 -3 -9 5 5 8 1 10 -10 5 -14 -5 -16 -3 -11 11 5 11 3 15 -5 10 -7
-5 -9 -2 -5 9 4 12 2 14 -11 10 -15 -6 -16 -5 -2 12 14 17 13 18 -2 12 -13 -4
-15 -2 -11 10 4 11 2 14 -5 9 -8 -5 -10 -1 -5 10 4 12 3 15 -6 10 -8 -5 -12
-3 -10 5 3 28 -1 40 -13 33 -6 -4 -8 -3 -4 4 7 12 -44 123 -54 117 -10 -6 -32
44 -25 56 4 5 1 9 -5 9 -6 0 -8 5 -5 10 3 6 1 10 -5 10 -6 0 -9 3 -7 8 7 10
-19 32 -29 24 -4 -4 -4 -2 0 5 7 13 -34 104 -45 98 -9 -6 -21 24 -13 36 3 5 1
9 -5 9 -6 0 -7 7 -4 17 5 12 3 14 -7 8 -10 -6 -12 -4 -7 9 7 18 -22 88 -33 81
-11 -7 -33 52 -25 64 3 6 1 11 -5 11 -6 0 -8 5 -5 10 3 6 1 10 -4 10 -6 0 -11
7 -11 16 0 9 -5 12 -12 8 -6 -4 -8 -3 -4 4 9 15 -15 63 -27 55 -6 -4 -8 0 -4
10 7 20 -2 49 -13 42 -10 -6 -22 24 -14 36 3 5 0 9 -6 9 -6 0 -8 5 -5 10 3 6
2 10 -4 10 -6 0 -7 7 -4 17 5 12 3 14 -7 8 -10 -6 -12 -4 -7 8 7 20 -2 49 -13
42 -11 -7 -33 52 -24 66 5 8 3 9 -6 4 -10 -6 -12 -1 -8 19 3 14 1 26 -3 26 -5
0 -9 9 -9 21 0 11 -4 18 -9 15 -4 -3 -6 6 -3 21 4 19 2 24 -8 18 -9 -5 -10 -2
-5 15 5 17 4 20 -5 15 -10 -6 -11 -1 -6 19 5 20 4 26 -5 20 -9 -5 -10 -1 -7
14 4 14 2 20 -4 15 -8 -4 -9 4 -5 26 5 22 3 30 -4 25 -8 -4 -9 1 -4 16 5 17 4
20 -5 15 -10 -6 -11 -1 -6 19 5 20 3 26 -5 21 -8 -5 -9 -1 -4 15 5 17 4 20 -5
15 -10 -6 -12 -1 -8 18 3 16 1 24 -5 20 -6 -4 -8 2 -5 15 4 12 2 22 -4 22 -6
0 -8 10 -5 22 8 28 -8 47 -32 41 -10 -3 -22 1 -26 8 -6 8 -4 10 5 4 8 -5 11
-4 6 3 -4 6 -13 9 -20 6 -8 -3 -17 0 -22 7 -5 8 -3 10 6 4 9 -5 11 -4 6 4 -4
6 -12 9 -17 5 -9 -5 -79 32 -79 42 0 3 5 2 12 -2 7 -5 8 -3 4 5 -5 7 -15 10
-23 7 -8 -3 -12 -2 -9 3 3 5 -7 17 -22 27 -15 10 -28 16 -29 13 -1 -2 -9 5
-18 16 -9 11 -13 14 -10 7 5 -10 -1 -9 -24 2 -17 9 -31 19 -31 22 0 3 5 2 12
-2 7 -4 8 -3 4 4 -4 6 -13 9 -20 6 -8 -3 -17 0 -22 7 -5 8 -3 10 6 4 8 -5 11
-4 6 3 -4 6 -14 8 -23 5 -11 -4 -14 -3 -9 5 4 7 2 10 -6 7 -8 -3 -22 2 -33 11
-11 8 -14 12 -6 8 9 -5 12 -3 7 5 -4 6 -12 9 -17 5 -9 -5 -79 32 -79 42 0 3 5
2 12 -2 7 -4 8 -3 4 4 -11 17 -47 15 -40 -2z"/>
</g>
</svg>
