<?xml version="1.0" standalone="no"?>
<!DOCTYPE svg PUBLIC "-//W3C//DTD SVG 20010904//EN"
 "http://www.w3.org/TR/2001/REC-SVG-20010904/DTD/svg10.dtd">
<svg version="1.0" xmlns="http://www.w3.org/2000/svg"
 width="640.000000pt" height="512.000000pt" viewBox="0 0 640.000000 512.000000"
 preserveAspectRatio="xMidYMid meet">
<metadata>
Created by potrace 1.15, written by Peter Selinger 2001-2017
</metadata>
<g transform="translate(0.000000,512.000000) scale(0.100000,-0.100000)"
fill="#000000" stroke="none">
<path d="M2790 2881 c-58 -12 -215 -117 -271 -182 -28 -31 -85 -84 -126 -115
-66 -51 -79 -66 -107 -128 -21 -46 -37 -103 -45 -161 -17 -117 -54 -267 -74
-295 -14 -20 -13 -27 20 -98 19 -43 48 -122 64 -177 16 -55 31 -105 33 -111 5
-13 113 -1 128 14 5 5 4 38 -4 79 -7 46 -8 78 -2 91 5 11 43 49 85 86 47 40
96 95 125 141 l49 74 127 32 c70 17 133 29 140 26 7 -2 37 -49 67 -103 l54
-98 -7 -111 c-22 -321 -23 -330 -56 -440 -30 -103 -32 -113 -19 -155 7 -25 15
-108 18 -185 l6 -140 58 -28 c67 -33 45 -42 179 77 l78 70 0 115 0 116 55 120
c56 119 57 121 128 171 l72 52 50 161 c27 89 52 166 55 171 8 12 124 34 143
27 6 -2 23 -33 36 -67 22 -54 34 -69 92 -113 37 -29 68 -60 68 -69 1 -10 -15
-42 -34 -72 l-35 -55 38 -21 c26 -15 55 -48 95 -111 l57 -89 0 -137 0 -136 46
-126 c26 -69 72 -170 103 -224 l55 -97 76 0 76 0 16 98 c15 82 16 143 11 392
l-6 295 -50 135 c-49 134 -50 136 -54 275 -4 127 -7 147 -35 218 -17 42 -47
128 -67 191 -35 112 -38 117 -121 211 -81 93 -90 100 -200 154 -107 53 -118
57 -159 50 -24 -5 -89 -34 -145 -65 -76 -43 -123 -78 -192 -146 -53 -53 -98
-89 -107 -86 -9 1 -47 39 -85 82 -61 69 -76 95 -117 199 -43 108 -51 120 -82
133 -54 23 -256 94 -262 93 -3 -1 -22 -4 -41 -8z"/>
</g>
</svg>
