<?xml version="1.0" standalone="no"?>
<!DOCTYPE svg PUBLIC "-//W3C//DTD SVG 20010904//EN"
 "http://www.w3.org/TR/2001/REC-SVG-20010904/DTD/svg10.dtd">
<svg version="1.0" xmlns="http://www.w3.org/2000/svg"
 width="640.000000pt" height="512.000000pt" viewBox="0 0 640.000000 512.000000"
 preserveAspectRatio="xMidYMid meet">
<metadata>
Created by potrace 1.15, written by Peter Selinger 2001-2017
</metadata>
<g transform="translate(0.000000,512.000000) scale(0.100000,-0.100000)"
fill="#000000" stroke="none">
<path d="M2956 4310 l-70 -19 -268 -268 c-233 -233 -310 -318 -586 -651 l-317
-382 -127 -418 c-70 -229 -127 -430 -128 -447 0 -16 21 -258 47 -536 l48 -506
275 -282 275 -281 498 -21 498 -20 87 47 c494 269 608 338 942 567 l345 236
208 238 207 238 0 65 c0 36 -5 223 -10 415 l-11 350 -97 394 -97 393 -387 380
-386 379 -418 74 c-230 41 -427 75 -438 74 -12 0 -52 -9 -90 -19z m784 -685
l175 -105 309 -353 309 -353 4 -205 c3 -197 2 -214 -38 -489 l-42 -285 -44
-46 c-39 -41 -45 -53 -56 -119 l-12 -73 -162 -101 c-89 -56 -172 -111 -185
-123 -13 -11 -43 -31 -68 -43 -25 -12 -196 -116 -380 -230 l-335 -209 -155 -6
c-97 -4 -234 -20 -365 -41 l-210 -33 -36 25 c-35 24 -42 25 -159 22 l-122 -3
-67 142 c-64 138 -68 144 -127 188 l-62 45 -7 107 c-7 106 -8 108 -87 281
l-79 175 137 447 138 448 339 379 c186 208 346 386 356 396 9 9 106 45 216 79
110 34 215 71 233 84 25 16 44 21 70 17 26 -3 80 10 177 41 77 24 144 45 150
45 5 1 88 -46 185 -104z"/>
</g>
</svg>
