<?xml version="1.0" standalone="no"?>
<!DOCTYPE svg PUBLIC "-//W3C//DTD SVG 20010904//EN"
 "http://www.w3.org/TR/2001/REC-SVG-20010904/DTD/svg10.dtd">
<svg version="1.0" xmlns="http://www.w3.org/2000/svg"
 width="640.000000pt" height="512.000000pt" viewBox="0 0 640.000000 512.000000"
 preserveAspectRatio="xMidYMid meet">
<metadata>
Created by potrace 1.15, written by Peter Selinger 2001-2017
</metadata>
<g transform="translate(0.000000,512.000000) scale(0.100000,-0.100000)"
fill="#000000" stroke="none">
<path d="M3115 3101 c7 -12 -31 -25 -46 -15 -8 5 -9 3 -4 -6 6 -10 4 -12 -9
-7 -9 4 -15 3 -12 -2 9 -15 -52 -31 -116 -31 -40 0 -57 -4 -53 -11 5 -7 -15
-10 -61 -8 -61 2 -69 0 -66 -15 2 -12 -1 -16 -9 -10 -9 5 -10 2 -6 -9 4 -10 2
-17 -4 -17 -6 0 -9 -6 -7 -12 3 -7 -4 -22 -15 -33 -11 -11 -16 -14 -12 -6 6
10 4 12 -4 7 -7 -5 -10 -14 -7 -22 3 -8 1 -14 -5 -14 -6 0 -8 -4 -5 -9 9 -14
-5 -42 -17 -34 -6 4 -8 0 -4 -10 3 -10 2 -17 -3 -17 -6 0 -10 -6 -10 -13 0 -7
-7 -22 -16 -33 -8 -10 -12 -13 -8 -5 5 10 3 12 -5 7 -7 -5 -10 -14 -7 -22 3
-8 1 -14 -4 -14 -5 0 -6 -7 -3 -17 5 -12 3 -14 -7 -8 -10 6 -12 4 -7 -7 3 -10
-3 -23 -18 -34 -13 -9 -21 -23 -18 -30 2 -7 -4 -21 -14 -31 -15 -15 -18 -32
-15 -105 2 -76 1 -87 -13 -82 -8 4 -15 1 -15 -6 0 -7 -7 -10 -16 -6 -10 4 -13
2 -8 -6 5 -8 2 -9 -10 -5 -9 4 -14 3 -11 -2 7 -12 -31 -24 -46 -15 -8 4 -9 3
-5 -4 4 -7 -3 -14 -19 -18 -14 -3 -22 -11 -18 -17 4 -6 0 -8 -10 -4 -10 4 -17
2 -17 -4 0 -6 -7 -8 -16 -5 -10 4 -13 2 -8 -6 5 -7 2 -9 -8 -6 -8 4 -21 2 -29
-4 -11 -8 -9 -8 6 -4 18 5 18 5 4 -7 -12 -9 -18 -34 -21 -91 -2 -46 -8 -81
-15 -83 -6 -2 -8 -13 -5 -25 3 -15 2 -19 -7 -14 -8 6 -10 1 -5 -18 3 -15 2
-26 -4 -26 -6 0 -8 -10 -4 -22 3 -14 2 -19 -6 -14 -9 5 -12 -24 -12 -109 0
-85 3 -114 11 -109 8 5 10 -1 7 -19 -3 -16 -1 -24 5 -20 7 4 8 -7 4 -31 -3
-22 -2 -34 4 -31 5 4 9 -27 9 -75 0 -46 -4 -79 -9 -76 -5 4 -7 -12 -4 -36 4
-24 2 -39 -3 -35 -12 7 -11 -80 1 -90 4 -5 5 -2 1 5 -4 6 -5 12 -2 12 3 0 10
-10 17 -21 9 -17 8 -20 -3 -14 -7 4 -1 -3 13 -16 14 -13 24 -29 22 -36 -2 -6
1 -15 8 -19 8 -5 9 -3 4 6 -5 9 -4 11 4 6 7 -4 10 -13 8 -19 -2 -7 13 -25 34
-40 21 -15 36 -34 33 -41 -3 -7 3 -19 12 -27 16 -12 17 -12 9 1 -6 11 -5 12 4
4 7 -6 13 -19 15 -27 3 -20 36 -58 45 -52 4 2 13 -6 21 -18 12 -20 12 -21 -3
-8 -34 27 -16 4 30 -39 26 -25 41 -36 33 -25 -13 19 -13 19 4 4 9 -9 18 -24
20 -33 3 -21 76 -96 94 -96 7 0 10 -5 7 -11 -10 -15 24 -49 43 -42 9 4 13 2 9
-4 -4 -7 14 -13 48 -18 31 -3 53 -10 50 -14 -2 -5 7 -6 22 -3 16 3 24 1 20 -5
-4 -6 4 -8 20 -5 16 3 24 1 20 -5 -4 -6 4 -8 20 -5 15 3 24 1 20 -5 -4 -5 7
-8 25 -5 21 3 29 1 24 -7 -5 -8 39 -11 164 -11 108 0 169 4 165 10 -7 12 40
24 56 14 8 -5 9 -3 4 6 -6 10 -3 12 13 8 12 -4 20 -2 17 2 -3 4 17 14 44 21
28 7 47 17 44 22 -4 6 3 8 15 5 14 -4 20 -2 15 5 -4 7 0 8 11 4 11 -5 15 -3
10 5 -5 8 -2 9 10 5 10 -4 15 -3 11 3 -6 9 17 15 40 10 6 -1 7 1 3 5 -11 11
20 37 33 29 8 -5 9 -3 4 6 -6 10 -3 12 13 8 12 -4 25 -1 29 4 4 7 1 8 -7 3 -9
-6 -11 -4 -6 4 5 7 15 10 23 7 8 -3 12 -2 9 3 -7 11 49 32 60 23 4 -4 5 0 2 9
-4 11 4 20 28 31 18 8 31 11 27 5 -3 -6 -1 -7 6 -3 6 4 9 16 6 25 -7 22 4 53
15 46 5 -3 6 5 2 17 -4 15 -2 19 7 13 10 -5 11 -2 6 14 -3 11 -2 21 3 21 6 0
13 11 16 25 4 14 11 25 16 25 5 0 7 6 4 14 -7 18 31 40 57 33 12 -3 17 -1 12
6 -4 6 2 8 15 5 12 -4 20 -2 16 3 -3 5 4 9 15 9 11 0 26 7 34 15 8 8 17 11 21
8 3 -4 6 1 6 10 0 9 -4 17 -10 17 -5 0 -6 7 -3 17 4 10 2 14 -4 10 -13 -8 -33
44 -33 85 0 19 10 40 28 57 15 15 27 33 27 41 0 7 11 19 25 27 l25 15 -24 -21
c-13 -11 -19 -21 -14 -21 12 0 36 27 53 59 8 15 8 21 1 17 -7 -5 -9 -1 -5 8 3
9 10 13 16 10 5 -4 8 5 6 22 -2 22 -11 30 -45 43 -37 13 -43 19 -43 44 0 18 4
26 11 21 7 -4 10 -1 7 7 -3 8 0 19 6 26 23 26 31 38 32 51 2 29 5 33 16 26 8
-5 9 -2 5 9 -3 10 -2 17 3 17 6 0 10 18 10 41 0 26 -4 38 -11 34 -7 -5 -9 12
-8 49 2 37 -2 61 -11 69 -10 10 -11 9 -5 -3 8 -13 7 -13 -9 0 -15 12 -17 24
-12 65 3 27 10 51 15 53 5 2 6 12 3 24 -3 14 -1 19 6 14 7 -4 9 5 6 31 -4 29
-3 34 5 23 14 -20 14 -4 0 23 -17 33 -51 67 -60 61 -5 -3 -6 1 -4 9 3 7 -5 22
-17 33 l-23 19 20 -25 20 -25 -22 19 c-13 11 -23 24 -23 31 0 6 -7 20 -16 31
-8 10 -13 12 -9 4 4 -8 -1 -6 -9 5 -9 11 -14 25 -12 32 3 7 1 13 -4 13 -5 0
-6 7 -3 17 5 12 3 14 -7 8 -10 -6 -12 -3 -8 13 4 12 3 20 -2 17 -4 -3 -11 6
-14 20 -4 14 -11 25 -17 25 -6 0 -8 9 -4 21 5 16 4 19 -6 14 -9 -6 -11 -2 -7
13 4 12 2 22 -4 22 -6 0 -8 9 -5 20 3 13 1 18 -6 13 -6 -4 -8 2 -5 15 4 12 2
22 -3 22 -5 0 -9 6 -9 14 0 8 -9 18 -20 21 -11 4 -17 11 -14 17 5 7 1 9 -9 5
-10 -3 -17 -3 -17 2 0 5 -14 11 -31 15 -17 3 -28 10 -24 16 4 6 -1 7 -11 3
-12 -4 -15 -3 -10 5 5 8 2 10 -9 6 -22 -9 -75 15 -69 31 3 7 0 16 -7 21 -8 5
-10 3 -4 -6 12 -19 -53 21 -73 45 -17 20 -17 20 8 0 14 -11 8 -1 -14 22 -21
23 -44 39 -51 37 -7 -3 -16 0 -21 7 -5 8 -3 10 6 4 8 -5 11 -4 6 3 -4 6 -14 8
-23 5 -10 -4 -14 -2 -10 4 7 11 -15 17 -110 29 -32 4 -50 11 -46 17 3 6 1 7
-6 3 -14 -9 -113 3 -107 13 2 3 -14 5 -36 3 -28 -3 -39 -1 -34 7 5 7 -1 11
-14 11 -12 0 -19 -4 -15 -9z m337 -437 c6 -13 15 -24 19 -24 4 0 23 -21 40
-47 18 -27 41 -54 51 -61 10 -7 18 -19 18 -26 0 -7 16 -28 35 -47 19 -19 35
-38 35 -43 0 -5 11 -24 25 -42 14 -19 26 -36 26 -39 -1 -2 11 -16 24 -29 25
-25 25 -27 25 -201 0 -174 -17 -299 -43 -316 -5 -4 -6 -12 -3 -18 4 -6 3 -11
-2 -11 -8 0 -23 -53 -28 -100 0 -8 -6 -28 -13 -43 -6 -16 -11 -32 -11 -37 0
-5 -6 -15 -13 -22 -7 -7 -26 -40 -42 -73 -17 -33 -33 -62 -38 -63 -4 -2 -5 -8
-1 -13 3 -5 1 -9 -4 -9 -6 0 -12 -10 -15 -22 -4 -13 -25 -35 -49 -50 -24 -15
-54 -36 -68 -48 -95 -80 -128 -93 -305 -121 -82 -13 -151 -27 -153 -31 -5 -11
-42 -10 -42 1 0 4 -16 11 -35 14 -33 5 -134 51 -145 65 -3 4 -30 20 -60 36
-73 40 -78 45 -86 105 -4 28 -10 51 -13 51 -4 0 -16 54 -26 121 -17 114 -17
125 -2 207 10 48 17 95 17 105 0 9 4 17 9 17 5 0 12 21 16 48 6 45 48 132 63
132 4 0 12 10 18 23 34 67 46 87 55 87 6 0 8 4 5 9 -3 5 1 11 9 15 8 3 15 12
15 21 0 8 19 28 43 43 23 15 51 35 62 45 45 41 171 128 192 133 13 4 23 10 23
14 0 4 30 23 68 41 37 18 69 36 72 40 3 3 24 16 47 27 23 12 44 31 48 42 3 11
11 20 16 20 6 0 7 5 4 10 -3 6 -2 10 3 10 5 0 18 17 27 38 27 57 34 63 57 51
10 -6 24 -21 30 -35z"/>
</g>
</svg>
