<?xml version="1.0" standalone="no"?>
<!DOCTYPE svg PUBLIC "-//W3C//DTD SVG 20010904//EN"
 "http://www.w3.org/TR/2001/REC-SVG-20010904/DTD/svg10.dtd">
<svg version="1.0" xmlns="http://www.w3.org/2000/svg"
 width="640.000000pt" height="512.000000pt" viewBox="0 0 640.000000 512.000000"
 preserveAspectRatio="xMidYMid meet">
<metadata>
Created by potrace 1.15, written by Peter Selinger 2001-2017
</metadata>
<g transform="translate(0.000000,512.000000) scale(0.100000,-0.100000)"
fill="#000000" stroke="none">
<path d="M3440 4659 c0 -6 -9 -8 -21 -4 -16 5 -19 4 -14 -5 6 -10 1 -12 -18
-8 -16 3 -24 1 -20 -5 4 -6 -2 -8 -15 -5 -14 4 -20 2 -15 -5 4 -6 -2 -8 -15
-5 -14 4 -20 2 -16 -4 5 -7 -2 -9 -19 -6 -16 3 -24 1 -20 -5 4 -6 -2 -8 -15
-5 -12 4 -20 3 -17 -2 6 -10 -62 -23 -77 -14 -7 5 -8 3 -3 -6 6 -10 3 -12 -13
-8 -14 4 -20 2 -15 -5 4 -6 -2 -8 -15 -5 -14 4 -20 2 -16 -4 5 -7 -2 -9 -19
-6 -16 3 -24 1 -20 -5 4 -6 -2 -8 -15 -5 -12 4 -20 3 -17 -2 2 -4 -22 -13 -55
-20 -34 -7 -57 -17 -54 -22 4 -6 -2 -7 -16 -3 -17 5 -20 4 -15 -5 6 -10 1 -12
-18 -8 -17 3 -24 1 -20 -5 4 -6 0 -8 -9 -4 -10 3 -25 -5 -39 -21 l-24 -27 29
25 c16 14 26 19 22 12 -4 -7 -30 -31 -58 -52 -27 -22 -47 -40 -44 -40 3 0 -30
-35 -72 -77 -69 -69 -71 -71 -12 -18 l66 60 -71 -70 c-38 -39 -83 -81 -100
-94 -16 -12 -24 -19 -17 -16 32 17 -12 -37 -96 -116 -48 -46 -74 -73 -57 -59
16 13 10 3 -15 -22 -25 -25 -49 -43 -54 -40 -5 3 -6 0 -2 -6 3 -6 -15 -29 -42
-51 -45 -38 -47 -43 -44 -82 3 -26 1 -39 -6 -35 -6 3 -8 -11 -4 -41 3 -27 1
-44 -4 -40 -6 3 -8 -9 -6 -30 3 -23 1 -33 -6 -29 -7 4 -8 -8 -5 -36 4 -27 2
-39 -4 -35 -7 4 -9 -9 -5 -40 3 -31 1 -44 -6 -39 -7 4 -8 -8 -5 -36 4 -27 2
-39 -4 -35 -7 4 -9 -9 -5 -40 3 -31 1 -44 -6 -39 -7 4 -8 -8 -5 -36 4 -27 3
-39 -4 -35 -12 8 -29 -116 -18 -133 3 -5 1 -10 -4 -10 -7 0 -11 -31 -11 -83 0
-135 13 -387 19 -383 3 2 5 -43 3 -101 -2 -73 0 -103 7 -98 8 4 11 -28 11
-104 0 -121 4 -112 -75 -149 -12 -6 -27 -18 -35 -28 -13 -17 -12 -16 10 1 l25
20 -19 -23 c-11 -12 -25 -21 -32 -18 -7 3 -20 -5 -31 -17 l-18 -22 25 20 25
20 -19 -23 c-11 -12 -25 -21 -32 -18 -7 3 -18 -3 -26 -12 -12 -15 -11 -16 5
-3 9 7 17 11 17 8 0 -3 -15 -16 -32 -28 -19 -13 -29 -17 -23 -8 6 8 1 5 -10
-8 -12 -13 -26 -23 -32 -23 -7 0 -15 -5 -19 -12 -5 -7 -3 -8 7 -3 12 8 12 6 0
-8 -9 -12 -10 -17 -2 -17 7 0 10 -4 7 -8 -3 -5 6 -16 19 -26 14 -10 22 -22 20
-27 -8 -11 16 -59 26 -53 5 3 10 -1 11 -8 0 -7 2 -17 3 -23 2 -5 3 -16 4 -24
0 -8 4 -12 7 -8 7 6 74 -121 74 -140 0 -7 4 -13 10 -13 13 0 41 -56 32 -65 -4
-5 -2 -5 5 -1 7 3 14 -2 18 -14 3 -11 11 -20 16 -20 6 0 7 -4 4 -10 -3 -5 -2
-10 4 -10 6 0 7 -7 4 -17 -5 -12 -3 -14 7 -8 8 5 11 4 7 -3 -10 -15 3 -43 16
-35 5 3 7 1 3 -5 -9 -14 14 -63 27 -55 6 3 8 -25 6 -75 -2 -44 0 -78 4 -75 5
3 7 -27 5 -66 -1 -39 1 -71 5 -71 5 0 7 -34 5 -75 -2 -41 1 -75 5 -75 5 0 7
-31 5 -69 -2 -38 1 -67 5 -64 5 3 7 -31 5 -75 -2 -44 -1 -79 2 -77 7 4 64
-441 65 -499 1 -42 24 -64 26 -24 1 12 1 26 0 31 0 4 4 7 10 7 5 0 7 5 4 10
-3 6 -1 10 5 10 7 0 10 7 6 15 -3 8 -2 15 3 15 5 0 13 12 19 28 106 276 175
447 183 458 5 6 6 14 2 17 -3 4 -1 7 6 7 7 0 9 4 6 10 -3 5 -2 10 3 10 9 0 19
33 26 86 1 11 5 24 8 30 3 5 6 23 6 39 1 17 22 143 47 280 26 138 49 267 52
287 6 40 43 74 69 64 10 -4 12 -2 8 6 -5 8 -1 9 12 4 10 -4 15 -4 11 0 -9 10
64 35 81 29 8 -3 10 0 6 7 -5 8 -2 9 10 5 11 -5 15 -3 10 5 -5 7 0 9 14 6 12
-4 20 -2 17 2 -7 11 31 23 45 15 5 -3 10 -2 10 4 0 6 18 15 40 21 24 7 38 15
34 22 -4 7 1 8 16 3 15 -5 20 -3 16 3 -8 13 29 26 45 16 8 -5 9 -3 4 6 -6 10
-4 12 9 7 11 -5 15 -3 10 5 -5 7 0 9 14 6 14 -4 20 -2 15 5 -4 6 2 8 15 5 14
-4 20 -2 15 5 -4 7 0 8 13 3 10 -4 15 -4 11 0 -9 10 64 35 81 29 8 -3 10 0 6
7 -5 8 -2 9 10 5 11 -5 15 -3 10 5 -5 7 0 9 14 6 12 -4 20 -3 17 1 -2 5 14 13
36 20 24 7 37 16 33 23 -5 7 0 9 14 6 12 -4 22 -2 22 3 0 4 7 5 17 2 12 -5 14
-3 8 7 -6 10 -3 12 13 8 14 -4 20 -2 15 5 -4 7 0 8 11 4 11 -5 15 -3 10 5 -5
7 0 9 14 6 14 -4 20 -2 15 5 -4 7 0 8 11 4 11 -5 15 -3 10 5 -5 7 0 9 14 6 14
-4 20 -2 15 5 -4 7 0 8 11 4 11 -5 15 -3 10 5 -5 7 -2 9 7 6 9 -4 34 14 64 45
28 28 41 44 30 36 -34 -25 17 40 72 91 l48 45 -50 -55 -50 -56 58 58 c32 32
56 62 53 67 -3 5 2 15 12 22 16 13 16 13 2 -6 -15 -19 -15 -19 12 0 14 11 25
23 25 26 -2 9 131 156 211 233 34 34 62 66 62 72 0 6 12 21 28 35 l27 24 -25
-30 c-42 -51 12 4 70 70 37 43 50 66 47 82 -2 13 0 20 6 16 6 -4 8 4 5 21 -3
14 -1 26 3 26 5 0 9 9 9 20 0 11 4 20 9 20 4 0 6 12 3 26 -3 17 -1 25 5 21 6
-4 8 4 5 20 -3 16 -1 24 5 20 6 -4 8 4 5 20 -3 18 -1 24 7 19 8 -6 10 0 5 18
-3 15 -2 26 4 26 5 0 7 12 4 26 -3 17 -1 25 5 21 6 -4 8 4 5 20 -3 16 -1 24 5
20 6 -4 8 4 5 20 -4 19 -2 24 8 18 9 -5 10 -2 5 14 -3 11 -2 21 3 21 5 0 7 12
4 26 -3 17 -1 25 5 21 6 -4 8 4 5 20 -3 18 -1 24 7 19 9 -6 10 0 5 20 -5 19
-4 25 5 20 9 -6 10 0 5 20 -5 19 -4 25 4 20 8 -5 10 2 5 25 -4 21 -2 30 4 26
6 -4 8 4 5 20 -3 18 -1 24 7 19 9 -6 10 0 5 20 -5 19 -4 25 5 20 9 -6 10 0 5
20 -5 19 -4 25 4 20 8 -5 10 2 5 25 -3 18 -2 30 3 27 8 -5 10 21 5 70 0 7 -6
10 -13 6 -8 -5 -9 -2 -5 9 7 20 -2 49 -13 42 -10 -6 -22 24 -14 36 3 5 0 9 -6
9 -7 0 -10 7 -6 15 7 18 -13 67 -25 60 -11 -7 -22 32 -13 46 4 7 3 9 -3 6 -12
-8 -26 20 -17 34 3 5 0 9 -6 9 -6 0 -8 5 -5 10 3 6 1 10 -5 10 -7 0 -10 7 -6
15 3 8 1 15 -4 15 -5 0 -6 7 -3 17 4 10 2 14 -4 10 -11 -7 -14 1 -48 95 -10
28 -22 45 -28 41 -6 -4 -8 0 -4 10 7 20 -12 69 -24 62 -10 -7 -22 32 -14 45 3
5 2 10 -4 10 -6 0 -8 6 -5 13 2 7 -3 21 -12 32 -8 11 -13 14 -9 8 4 -9 1 -11
-9 -7 -9 3 -13 10 -10 15 3 5 -3 6 -12 2 -12 -4 -15 -3 -10 5 5 8 1 10 -10 5
-12 -4 -15 -3 -10 5 5 8 1 10 -10 5 -12 -4 -15 -3 -10 5 5 8 2 10 -8 6 -9 -3
-16 -1 -16 6 0 6 -4 9 -9 6 -13 -8 -42 4 -35 15 3 5 -1 6 -8 4 -8 -3 -22 2
-33 11 -11 8 -13 12 -5 8 10 -4 12 -4 5 3 -5 5 -49 27 -97 49 -47 21 -84 42
-82 46 3 4 -1 5 -8 3 -8 -3 -22 2 -33 11 -11 8 -14 12 -6 8 9 -4 12 -3 7 4 -4
6 -14 8 -23 5 -12 -5 -14 -3 -8 7 5 8 4 11 -3 7 -13 -9 -44 2 -37 13 2 4 -27
20 -66 35 -38 16 -73 33 -76 38 -4 6 -1 7 7 2 8 -5 11 -4 6 3 -4 6 -14 8 -23
5 -11 -4 -14 -3 -9 5 5 8 1 10 -10 5 -12 -4 -15 -3 -10 5 5 8 1 10 -10 5 -12
-4 -15 -3 -10 5 5 8 1 10 -10 5 -12 -4 -15 -3 -10 5 5 8 1 10 -10 5 -13 -5
-15 -3 -9 7 5 8 4 11 -3 7 -15 -10 -43 3 -35 16 4 6 0 8 -10 4 -10 -3 -17 -2
-17 3 0 5 -7 6 -17 3 -11 -4 -14 -3 -9 5 4 7 1 12 -8 12 -9 0 -16 -5 -16 -11z
m-37 -576 c18 -10 34 -21 35 -25 2 -5 9 -8 16 -8 6 0 26 -13 44 -29 17 -17 41
-36 51 -43 11 -8 54 -46 96 -86 42 -40 79 -72 81 -72 12 0 214 -152 214 -161
0 -5 5 -9 11 -9 6 0 56 -32 111 -72 l99 -72 -7 -41 c-3 -22 -10 -44 -15 -49
-15 -16 -10 -53 7 -60 14 -6 16 -18 9 -99 -4 -50 -11 -98 -17 -104 -6 -7 -8
-31 -6 -53 2 -22 1 -40 -3 -40 -3 0 -12 -63 -19 -140 l-14 -140 -47 -31 c-26
-16 -51 -38 -55 -47 -4 -9 -17 -62 -29 -116 l-20 -100 -65 -27 c-196 -81 -266
-109 -274 -109 -5 0 -17 -6 -25 -14 -9 -8 -68 -35 -131 -61 -242 -100 -266
-110 -293 -126 -23 -14 -36 -15 -65 -7 -21 6 -43 15 -50 21 -9 7 -19 7 -35 -1
-12 -5 -87 -29 -167 -52 -80 -23 -158 -45 -174 -51 -16 -5 -30 -8 -31 -7 -2 2
-8 194 -15 428 l-13 425 37 305 c31 259 36 336 36 512 l0 207 38 10 c80 21
159 39 197 46 22 4 42 10 45 14 3 5 88 27 190 51 102 23 187 44 189 46 9 9 34
3 64 -13z"/>
</g>
</svg>
