<?xml version="1.0" standalone="no"?>
<!DOCTYPE svg PUBLIC "-//W3C//DTD SVG 20010904//EN"
 "http://www.w3.org/TR/2001/REC-SVG-20010904/DTD/svg10.dtd">
<svg version="1.0" xmlns="http://www.w3.org/2000/svg"
 width="640.000000pt" height="512.000000pt" viewBox="0 0 640.000000 512.000000"
 preserveAspectRatio="xMidYMid meet">
<metadata>
Created by potrace 1.15, written by Peter Selinger 2001-2017
</metadata>
<g transform="translate(0.000000,512.000000) scale(0.100000,-0.100000)"
fill="#000000" stroke="none">
<path d="M2529 3933 c-16 -40 -89 -296 -89 -311 0 -6 29 -64 65 -127 73 -128
141 -309 199 -525 61 -232 127 -405 199 -521 35 -57 100 -174 145 -259 55
-104 107 -187 159 -252 l78 -97 34 -133 c64 -251 217 -552 504 -991 49 -76 93
-136 98 -135 20 8 169 143 169 154 0 7 -17 77 -39 156 -46 173 -121 320 -267
524 -65 91 -115 176 -167 285 -41 85 -111 213 -157 284 -88 137 -98 162 -225
535 -34 102 -92 255 -128 340 -36 85 -84 207 -107 270 -68 191 -179 449 -236
550 -50 90 -197 280 -216 280 -4 0 -13 -12 -19 -27z"/>
</g>
</svg>
