<?xml version="1.0" standalone="no"?>
<!DOCTYPE svg PUBLIC "-//W3C//DTD SVG 20010904//EN"
 "http://www.w3.org/TR/2001/REC-SVG-20010904/DTD/svg10.dtd">
<svg version="1.0" xmlns="http://www.w3.org/2000/svg"
 width="640.000000pt" height="512.000000pt" viewBox="0 0 640.000000 512.000000"
 preserveAspectRatio="xMidYMid meet">
<metadata>
Created by potrace 1.15, written by Peter Selinger 2001-2017
</metadata>
<g transform="translate(0.000000,512.000000) scale(0.100000,-0.100000)"
fill="#000000" stroke="none">
<path d="M2624 4173 c-11 -16 -34 -78 -52 -140 -31 -108 -32 -119 -32 -297 0
-162 2 -190 20 -231 17 -40 20 -69 20 -198 l0 -151 -56 -143 -57 -143 28 -76
c26 -73 27 -81 19 -173 -5 -53 -8 -157 -6 -233 l2 -136 -60 -101 -59 -102 34
-78 c41 -93 43 -132 19 -341 -9 -74 -19 -202 -24 -285 -5 -99 -15 -175 -29
-225 -11 -41 -21 -98 -21 -125 0 -45 -6 -60 -54 -128 l-54 -78 44 -75 c24 -41
44 -87 44 -102 0 -15 -7 -76 -16 -137 l-16 -110 29 -99 c27 -96 30 -101 87
-150 l58 -51 25 30 c14 17 44 50 67 75 22 25 54 63 70 85 l29 39 -6 184 c-6
175 -6 189 18 283 29 113 74 239 85 239 4 0 53 -5 107 -10 85 -9 120 -7 239
10 125 18 153 26 279 80 130 56 147 67 238 148 63 56 115 113 146 160 32 49
75 96 127 139 44 35 85 70 92 77 11 11 10 27 -7 92 -11 43 -25 150 -32 237
-12 141 -11 166 3 220 9 34 14 65 11 70 -2 4 -39 25 -81 46 -52 27 -97 59
-137 101 -49 50 -84 73 -185 124 -139 70 -227 95 -430 125 l-131 20 -72 -34
c-84 -40 -157 -55 -157 -34 0 8 7 58 17 111 16 95 16 98 -5 172 -24 82 -27
131 -12 222 40 246 49 496 25 689 -8 65 -15 146 -15 178 0 57 -2 62 -72 158
-39 54 -74 99 -78 99 -3 0 -15 -12 -26 -27z m723 -1937 c19 -30 30 -36 100
-50 114 -25 119 -27 177 -75 40 -33 63 -63 87 -113 l33 -69 -34 -100 c-31 -87
-45 -112 -114 -197 -74 -91 -86 -101 -205 -172 -161 -95 -245 -119 -434 -123
l-128 -2 -41 95 -41 95 11 115 c7 63 28 181 49 261 l37 146 106 66 c72 46 144
80 230 111 69 25 130 45 135 45 6 1 20 -14 32 -33z"/>
</g>
</svg>
