<?xml version="1.0" standalone="no"?>
<!DOCTYPE svg PUBLIC "-//W3C//DTD SVG 20010904//EN"
 "http://www.w3.org/TR/2001/REC-SVG-20010904/DTD/svg10.dtd">
<svg version="1.0" xmlns="http://www.w3.org/2000/svg"
 width="640.000000pt" height="512.000000pt" viewBox="0 0 640.000000 512.000000"
 preserveAspectRatio="xMidYMid meet">
<metadata>
Created by potrace 1.15, written by Peter Selinger 2001-2017
</metadata>
<g transform="translate(0.000000,512.000000) scale(0.100000,-0.100000)"
fill="#000000" stroke="none">
<path d="M3015 4441 c7 -12 -31 -25 -46 -15 -8 5 -9 3 -4 -6 6 -10 4 -12 -9
-7 -11 5 -15 3 -10 -5 5 -7 0 -9 -14 -6 -14 4 -20 2 -15 -5 4 -6 0 -8 -10 -4
-10 4 -17 2 -17 -4 0 -6 -7 -8 -16 -5 -11 4 -15 2 -11 -8 4 -11 1 -13 -10 -9
-12 5 -14 3 -8 -7 6 -10 3 -12 -13 -8 -14 4 -20 2 -15 -5 4 -7 0 -8 -11 -4
-11 5 -15 3 -10 -5 5 -7 0 -9 -14 -6 -12 4 -20 2 -17 -2 7 -11 -31 -23 -45
-15 -5 3 -10 1 -10 -5 0 -7 -7 -9 -16 -6 -11 4 -15 2 -11 -8 4 -11 1 -13 -10
-9 -12 5 -14 3 -8 -7 6 -10 3 -12 -13 -8 -14 4 -20 2 -15 -5 4 -7 0 -8 -11 -4
-11 5 -15 3 -10 -5 5 -7 0 -9 -14 -6 -14 4 -20 2 -15 -5 4 -7 0 -8 -11 -4 -11
5 -15 3 -10 -5 5 -7 0 -9 -14 -6 -14 4 -20 2 -15 -5 4 -7 0 -8 -11 -4 -14 6
-17 3 -12 -9 5 -14 4 -15 -9 -4 -14 11 -19 7 -16 -12 0 -4 -7 -4 -16 -1 -11 5
-14 3 -8 -6 6 -10 2 -11 -15 -6 -14 4 -20 3 -16 -3 6 -11 -21 -25 -33 -17 -9
5 -49 -34 -51 -50 -1 -5 -7 -9 -15 -7 -7 1 -17 -3 -21 -9 -5 -8 -3 -9 7 -4 12
8 12 6 0 -8 -7 -9 -17 -15 -21 -12 -11 7 -41 -30 -33 -40 5 -4 3 -5 -4 -1 -6
3 -19 -4 -27 -16 -9 -12 -16 -18 -16 -13 0 5 -20 -12 -45 -37 -25 -26 -45 -44
-45 -40 -1 4 -9 -3 -19 -15 -10 -12 -20 -20 -23 -18 -2 2 -10 -6 -17 -18 -13
-21 -13 -21 4 -7 11 9 16 10 11 3 -4 -7 -16 -18 -28 -24 -16 -9 -19 -8 -13 3
3 7 -2 3 -13 -9 -11 -12 -21 -21 -23 -19 -2 2 -13 -8 -24 -22 -15 -21 -15 -24
-2 -13 9 7 17 11 17 8 0 -3 -15 -16 -32 -28 -19 -13 -29 -17 -23 -8 6 8 3 7
-6 -3 -9 -9 -18 -15 -21 -13 -2 2 -10 -6 -17 -18 -14 -21 -13 -21 5 -7 18 14
18 14 5 -3 -8 -10 -20 -16 -27 -13 -7 3 -18 -3 -26 -12 -12 -16 -11 -16 7 -2
19 14 19 14 6 -3 -7 -9 -21 -16 -30 -15 -9 2 -16 -4 -16 -13 0 -20 -58 -71
-77 -67 -7 2 -13 -5 -13 -14 0 -10 -16 -29 -35 -43 -38 -28 -45 -31 -34 -12 5
8 2 7 -10 -2 -9 -8 -15 -20 -12 -27 3 -8 0 -11 -8 -8 -7 3 -19 -3 -27 -13 -13
-16 -12 -17 4 -4 9 7 17 11 17 8 0 -3 -15 -16 -32 -28 -29 -20 -31 -21 -18 -4
14 19 14 19 -3 6 -10 -8 -15 -21 -12 -32 3 -9 0 -21 -6 -25 -8 -4 -9 -3 -5 4
4 7 5 12 2 12 -11 0 -36 -59 -30 -73 3 -8 0 -18 -7 -23 -8 -5 -10 -3 -5 7 4 8
0 5 -8 -6 -9 -11 -14 -25 -12 -32 3 -7 0 -12 -7 -10 -7 1 -11 -7 -10 -21 2
-16 -1 -21 -9 -16 -8 5 -9 2 -5 -9 3 -9 1 -19 -5 -23 -7 -5 -8 -2 -4 7 4 8 0
5 -8 -5 -9 -11 -14 -27 -11 -36 3 -9 -2 -25 -11 -36 -8 -10 -12 -13 -8 -5 5
10 3 12 -5 7 -7 -5 -10 -14 -7 -22 3 -8 1 -14 -4 -14 -5 0 -7 -6 -4 -14 3 -8
0 -17 -7 -22 -8 -5 -10 -3 -4 6 5 8 4 11 -3 6 -6 -4 -8 -14 -5 -23 5 -12 3
-14 -7 -8 -10 6 -12 4 -7 -8 3 -9 0 -18 -9 -21 -9 -3 -13 -10 -10 -15 9 -14
-5 -42 -17 -34 -6 4 -8 0 -4 -10 3 -9 0 -18 -9 -21 -9 -3 -12 -10 -9 -16 3 -5
2 -10 -4 -10 -6 0 -8 -6 -5 -14 3 -7 -2 -16 -11 -20 -9 -3 -13 -10 -10 -16 3
-5 1 -10 -5 -10 -6 0 -8 -4 -5 -10 3 -5 1 -10 -5 -10 -6 0 -9 -4 -6 -9 3 -5
-1 -14 -9 -21 -8 -7 -12 -16 -9 -21 3 -5 0 -9 -6 -9 -6 0 -9 -4 -5 -9 3 -6 -3
-14 -12 -20 -10 -6 -14 -11 -9 -11 5 0 4 -6 -2 -12 -6 -7 -11 -16 -11 -21 0
-4 -12 -29 -26 -57 -14 -27 -25 -63 -25 -79 0 -16 14 -114 30 -217 17 -103 29
-193 26 -200 -3 -8 0 -16 5 -20 6 -3 8 -17 5 -30 -4 -15 -2 -24 5 -24 8 0 10
-12 6 -35 -4 -21 -2 -35 5 -35 6 0 8 -11 6 -25 -3 -14 -1 -28 4 -31 5 -3 8
-18 7 -32 -1 -15 2 -35 6 -44 4 -10 5 -25 1 -33 -3 -8 0 -15 6 -15 7 0 9 -13
5 -35 -4 -22 -2 -35 5 -35 6 0 8 -12 5 -30 -4 -18 -2 -30 4 -30 6 0 9 -14 7
-30 -2 -18 3 -34 11 -39 7 -5 10 -14 7 -20 -4 -6 0 -14 8 -17 9 -3 13 -10 10
-15 -3 -5 1 -12 10 -15 8 -3 12 -12 10 -19 -3 -7 0 -16 7 -21 8 -5 10 -3 4 6
-6 9 -4 11 4 6 7 -5 10 -14 7 -22 -3 -8 3 -19 13 -26 11 -6 17 -17 14 -24 -2
-6 1 -15 8 -20 8 -5 10 -3 4 6 -6 9 -4 11 4 6 7 -5 10 -14 7 -21 -3 -8 2 -19
10 -26 8 -7 13 -18 10 -26 -3 -8 -2 -12 3 -9 5 3 15 -2 22 -11 12 -14 12 -16
-1 -9 -8 4 -6 -1 6 -11 11 -10 19 -23 18 -28 -2 -6 6 -21 17 -35 11 -14 17
-19 13 -11 -5 10 -3 12 5 7 6 -4 10 -15 7 -24 -3 -10 4 -28 15 -42 11 -14 17
-19 13 -11 -5 10 -3 12 5 7 6 -4 9 -16 6 -25 -3 -11 2 -24 12 -32 14 -12 16
-12 8 0 -5 9 -4 12 3 7 6 -4 9 -13 6 -20 -3 -8 0 -17 7 -22 8 -5 10 -3 4 7 -5
8 -4 11 1 6 5 -5 9 -19 9 -30 0 -12 5 -21 12 -20 7 2 10 -3 7 -11 -3 -8 0 -17
7 -22 8 -5 10 -3 4 6 -5 8 -4 11 3 6 6 -4 8 -14 5 -23 -4 -10 -2 -14 4 -10 6
4 10 -1 9 -11 0 -9 4 -16 11 -15 7 2 10 -3 7 -11 -3 -8 0 -17 7 -22 8 -5 10
-3 4 6 -5 9 -4 11 4 6 6 -4 9 -11 6 -16 -6 -10 21 -70 31 -70 3 0 2 6 -2 13
-4 7 -3 8 2 4 5 -5 9 -16 9 -25 0 -10 7 -16 17 -16 10 1 14 -4 11 -12 -4 -10
0 -12 11 -8 9 3 16 2 16 -4 0 -6 10 -8 22 -4 13 3 19 1 15 -5 -5 -7 1 -9 15
-5 13 3 19 1 15 -5 -5 -7 1 -9 15 -5 13 3 19 1 15 -5 -5 -7 1 -9 15 -5 13 3
19 1 15 -5 -5 -7 0 -9 13 -6 16 4 19 2 14 -12 -6 -15 -4 -16 14 -6 18 10 21 9
16 -4 -5 -11 -2 -13 10 -9 9 3 16 1 16 -5 0 -6 7 -8 15 -5 8 4 15 2 15 -4 0
-6 10 -8 22 -4 13 3 19 1 15 -5 -5 -7 1 -9 15 -5 13 3 19 1 15 -5 -5 -7 1 -9
15 -5 14 3 19 1 14 -6 -5 -8 -2 -10 8 -6 11 4 16 0 16 -11 0 -9 4 -14 9 -10 5
3 12 1 16 -4 3 -6 12 -8 20 -4 8 3 15 1 15 -5 0 -6 9 -8 20 -5 11 3 20 0 20
-6 0 -5 7 -8 15 -5 8 4 15 1 15 -5 0 -6 7 -8 15 -5 8 4 15 1 15 -5 0 -6 7 -8
17 -4 11 5 14 3 8 -6 -5 -10 -2 -11 14 -6 12 3 21 3 20 -2 -3 -20 2 -24 17
-13 12 11 15 11 12 -1 -2 -9 4 -13 16 -11 10 2 15 -1 12 -6 -4 -6 3 -8 16 -4
13 3 19 1 15 -5 -5 -7 1 -9 15 -5 13 3 19 1 15 -5 -5 -7 1 -9 15 -5 13 3 19 1
15 -5 -5 -7 1 -9 15 -5 15 4 19 2 13 -7 -6 -10 -2 -11 15 -6 17 5 21 4 15 -6
-6 -9 -2 -11 13 -7 14 4 19 2 15 -7 -3 -10 2 -12 18 -8 14 4 20 2 16 -4 -5 -7
1 -9 15 -5 13 3 19 1 15 -5 -5 -7 1 -9 15 -5 11 3 19 1 15 -4 -3 -5 25 -8 65
-6 39 2 68 0 65 -5 -3 -4 49 -7 115 -5 66 2 118 0 115 -5 -3 -4 44 -7 104 -5
79 2 109 0 107 -8 -2 -9 28 -11 106 -10 61 0 113 3 118 6 4 3 6 -1 3 -8 -4
-10 10 -12 65 -10 38 2 70 0 70 -5 0 -5 14 -7 31 -5 20 3 29 1 26 -5 -4 -6 4
-8 20 -5 15 3 24 1 20 -5 -4 -5 7 -8 25 -5 18 3 28 1 25 -5 -4 -5 7 -8 25 -5
18 3 28 1 25 -5 -3 -5 6 -8 24 -5 23 3 28 1 24 -11 -5 -11 0 -13 19 -10 14 3
26 1 26 -5 0 -6 9 -8 20 -5 11 3 20 1 20 -4 0 -6 11 -8 25 -5 14 2 25 0 25 -5
0 -6 11 -8 25 -5 14 2 25 0 25 -5 0 -6 11 -8 25 -5 14 2 25 0 25 -6 0 -6 9 -8
20 -5 11 3 20 1 20 -4 0 -6 12 -8 26 -5 19 3 25 1 20 -7 -11 -17 39 -14 54 4
6 8 9 19 6 24 -4 5 -1 13 5 17 8 5 9 3 4 -7 -8 -12 -6 -12 9 0 9 8 15 20 12
27 -3 7 0 16 6 20 7 5 8 2 3 -6 -6 -9 -4 -11 4 -6 7 5 10 14 7 21 -3 8 3 19
12 27 16 12 16 11 2 -7 -15 -20 -15 -20 8 -1 12 11 20 26 17 33 -3 9 0 11 7 7
7 -5 9 -2 5 8 -3 10 3 24 16 35 l22 18 -20 -25 -20 -25 28 24 c16 15 25 31 22
41 -3 10 6 26 22 41 l28 24 -25 -30 -25 -30 28 24 c16 15 25 31 22 41 -3 10 6
26 22 41 l28 24 -20 -25 c-16 -20 -14 -20 8 3 16 16 26 35 23 42 -2 7 5 21 17
32 l22 18 -20 -25 -20 -25 23 19 c12 11 20 26 18 33 -3 7 0 12 7 10 7 -1 11 6
11 15 -1 10 3 15 8 12 6 -4 7 2 3 16 -5 15 -4 20 4 16 7 -5 9 3 4 25 -5 24 -3
30 7 24 9 -6 10 -2 5 15 -5 15 -4 20 4 16 7 -5 9 3 4 25 -5 24 -3 30 7 24 9
-6 10 -2 5 15 -5 15 -4 20 4 16 7 -5 9 3 4 25 -5 24 -3 30 7 24 9 -6 10 -2 5
15 -5 16 -4 20 5 15 9 -5 10 -1 5 15 -5 15 -4 20 4 16 7 -5 9 3 4 25 -5 24 -3
30 7 24 9 -6 10 -2 5 15 -5 15 -4 20 4 16 7 -5 9 3 4 25 -5 24 -3 30 7 24 9
-6 10 -2 5 15 -5 15 -4 20 4 16 7 -5 9 3 4 25 -5 24 -3 30 7 24 9 -5 10 -2 5
14 -3 11 -2 21 3 21 6 0 8 10 4 22 -3 15 -2 19 7 14 8 -6 10 -1 5 18 -3 15 -2
26 4 26 6 0 8 10 4 22 -3 15 -2 19 7 14 8 -6 10 -1 5 18 -3 15 -2 26 4 26 6 0
8 10 4 22 -3 15 -2 19 7 14 8 -6 10 -1 5 18 -3 15 -2 26 4 26 6 0 8 10 4 22
-3 14 -1 19 6 14 8 -5 10 2 6 24 -4 17 -2 30 3 30 6 0 8 11 5 25 -2 15 0 25 7
25 7 0 9 9 5 25 -4 16 -2 25 6 25 7 0 9 8 5 19 -3 11 -2 28 4 38 5 10 26 110
46 223 19 113 40 225 45 250 5 25 12 69 15 99 3 29 15 103 25 165 26 144 25
152 -9 219 -16 31 -26 59 -23 62 3 3 0 5 -7 5 -7 0 -10 4 -7 9 3 5 -1 14 -9
21 -8 7 -12 16 -9 21 3 5 0 9 -6 9 -6 0 -8 5 -5 10 3 6 1 10 -5 10 -6 0 -9 4
-6 9 3 5 -1 14 -9 21 -8 7 -12 16 -9 21 3 5 0 9 -6 9 -6 0 -8 5 -5 10 3 6 1
10 -5 10 -6 0 -8 5 -5 10 3 6 0 13 -9 16 -9 3 -12 12 -9 21 5 12 3 14 -7 8
-10 -6 -12 -4 -7 9 4 10 1 19 -8 22 -8 4 -12 10 -9 15 3 5 1 9 -5 9 -6 0 -7 7
-4 17 5 12 3 14 -7 8 -10 -6 -12 -4 -7 8 3 9 1 19 -5 23 -7 5 -8 2 -3 -6 6 -9
4 -11 -4 -6 -7 5 -10 14 -7 22 3 8 1 14 -4 14 -5 0 -7 6 -4 14 3 8 0 17 -7 22
-8 5 -10 3 -5 -7 4 -8 0 -5 -8 5 -9 11 -14 27 -11 36 3 9 -2 25 -11 36 -8 10
-12 13 -8 5 4 -9 3 -12 -4 -7 -6 4 -8 14 -5 23 4 11 3 14 -5 9 -8 -5 -11 0 -9
16 1 15 -3 22 -11 20 -8 -1 -11 2 -8 7 8 13 -4 42 -15 35 -5 -3 -8 5 -6 18 1
15 -3 22 -11 20 -8 -1 -11 2 -8 7 8 13 -4 42 -15 35 -5 -3 -8 5 -6 18 1 14 -3
22 -10 21 -7 -2 -10 3 -7 10 2 7 -3 21 -12 32 -8 11 -12 14 -8 6 5 -10 3 -12
-5 -7 -7 5 -10 15 -7 23 6 14 -19 73 -30 73 -3 0 -2 -5 2 -12 4 -7 3 -8 -5 -4
-6 4 -9 16 -6 26 3 10 0 22 -6 26 -8 4 -9 3 -5 -4 11 -18 4 -15 -34 13 -19 14
-35 33 -35 43 0 9 -7 16 -15 15 -8 -2 -26 7 -40 20 -14 12 -19 18 -10 12 13
-9 13 -8 1 8 -8 10 -20 16 -27 13 -8 -3 -11 0 -8 8 3 7 -3 19 -12 27 -15 12
-17 12 -9 0 10 -18 -52 18 -68 39 -11 13 -10 13 7 0 18 -14 19 -14 5 7 -7 12
-15 20 -17 18 -3 -2 -12 4 -21 13 -9 10 -11 11 -6 3 6 -8 -8 -3 -30 12 -22 15
-40 33 -40 40 0 6 -4 13 -8 14 -4 1 -16 10 -25 21 -9 10 -12 11 -7 3 7 -10 2
-10 -17 3 -25 17 -42 36 -18 21 6 -3 7 1 4 10 -4 9 -9 14 -11 11 -3 -3 -14 5
-24 17 -10 12 -18 18 -19 12 0 -5 -7 1 -16 13 -8 12 -19 20 -24 17 -4 -3 -10
5 -13 17 -4 12 -9 19 -13 15 -4 -4 -14 2 -21 13 -8 11 -19 18 -24 15 -5 -4 -9
-1 -9 4 0 19 -39 51 -55 45 -8 -4 -15 -2 -15 4 0 6 -10 8 -22 4 -15 -3 -19 -2
-14 7 6 9 0 10 -20 5 -19 -5 -25 -4 -20 5 6 9 0 10 -20 5 -19 -5 -25 -4 -20 5
6 9 0 10 -20 5 -19 -5 -25 -4 -20 5 6 8 0 10 -19 5 -14 -3 -25 -2 -24 2 3 20
-2 24 -21 14 -15 -8 -18 -8 -14 3 4 11 -2 13 -22 9 -17 -3 -25 -1 -21 5 4 6
-4 8 -20 5 -16 -3 -24 -1 -20 5 4 6 -4 8 -20 5 -16 -3 -24 -1 -20 5 4 6 -4 8
-20 5 -16 -3 -24 -1 -20 5 4 6 -4 8 -20 5 -16 -3 -24 -1 -20 5 4 6 -4 8 -20 5
-19 -4 -24 -2 -18 8 6 10 1 12 -18 8 -18 -3 -24 -1 -20 8 3 9 -2 11 -16 7 -12
-3 -21 -1 -21 4 0 6 -12 8 -26 5 -17 -3 -25 -1 -21 5 4 6 -4 8 -20 5 -16 -3
-24 -1 -20 5 4 6 -4 8 -20 5 -16 -3 -24 -1 -20 5 4 6 -4 8 -20 5 -17 -3 -24
-1 -19 6 4 6 -2 8 -14 5 -11 -3 -20 0 -20 6 0 6 -12 11 -26 11 -14 0 -23 -4
-19 -9z m653 -1023 c6 -6 12 -7 12 -2 0 5 4 4 8 -2 4 -6 50 -24 102 -39 52
-15 100 -31 107 -37 7 -5 17 -7 23 -3 5 3 10 2 10 -3 0 -6 12 -13 28 -17 15
-3 57 -15 94 -26 63 -20 66 -22 73 -57 4 -20 15 -62 25 -92 10 -30 42 -131 70
-225 81 -268 119 -393 152 -498 18 -56 27 -102 22 -105 -5 -4 -18 -25 -29 -47
-11 -22 -23 -41 -27 -43 -5 -2 -8 -12 -8 -23 0 -10 -4 -19 -8 -19 -5 0 -19
-25 -33 -55 -13 -30 -27 -55 -31 -55 -5 0 -8 -9 -8 -20 0 -11 -4 -20 -8 -20
-5 0 -17 -20 -28 -45 -10 -25 -21 -45 -25 -45 -3 0 -14 -20 -25 -45 -10 -25
-21 -45 -25 -45 -4 0 -10 -12 -14 -27 -3 -15 -10 -30 -13 -33 -4 -3 -29 -49
-57 -102 -27 -54 -53 -98 -57 -98 -7 0 -72 62 -234 223 -78 77 -94 92 -120
117 -11 9 -26 26 -35 36 -40 47 -118 114 -133 114 -9 0 -24 -8 -34 -18 -10
-10 -43 -33 -73 -50 -30 -17 -63 -40 -75 -50 -12 -11 -40 -30 -62 -41 -22 -11
-43 -25 -47 -30 -3 -5 -31 -24 -63 -42 -87 -50 -87 -51 -72 -117 8 -31 13 -61
12 -66 -2 -4 3 -14 9 -22 6 -8 8 -14 3 -14 -4 0 -3 -5 3 -11 6 -6 9 -18 6 -25
-3 -8 0 -14 6 -14 6 0 8 -6 5 -14 -3 -8 -1 -17 5 -20 6 -4 8 -13 4 -21 -3 -8
-1 -15 5 -15 5 0 7 -11 4 -25 -2 -14 0 -25 7 -25 5 0 8 -7 5 -15 -4 -8 -2 -15
2 -15 5 0 10 -13 11 -30 1 -16 14 -67 27 -112 14 -45 24 -83 23 -84 -2 -2 -76
6 -166 16 l-162 19 -54 -30 -53 -30 -59 30 c-32 17 -69 40 -83 50 -20 16 -66
24 -230 42 -113 12 -207 26 -210 30 -3 4 -16 9 -30 10 -20 3 -27 12 -34 44 -4
22 -12 49 -16 60 -4 11 -17 56 -29 100 -13 44 -26 81 -31 83 -4 2 -17 11 -29
21 -11 10 -37 25 -58 35 l-38 17 0 177 c0 190 1 180 -72 404 l-25 77 21 33
c11 18 32 45 46 60 25 27 25 29 25 200 l0 173 66 40 c37 22 87 54 113 71 25
17 62 39 81 49 19 10 40 24 48 32 8 7 36 25 62 38 27 13 50 28 52 33 1 5 31
23 66 42 34 18 62 36 62 40 0 4 18 15 40 25 22 10 40 22 40 27 0 4 6 8 14 8 8
0 21 6 28 13 37 38 71 48 224 67 87 12 168 25 179 30 11 5 117 21 235 36 118
15 217 30 220 33 3 3 19 7 35 8 17 1 50 6 75 12 49 10 108 5 128 -11z"/>
</g>
</svg>
