<?xml version="1.0" standalone="no"?>
<!DOCTYPE svg PUBLIC "-//W3C//DTD SVG 20010904//EN"
 "http://www.w3.org/TR/2001/REC-SVG-20010904/DTD/svg10.dtd">
<svg version="1.0" xmlns="http://www.w3.org/2000/svg"
 width="640.000000pt" height="512.000000pt" viewBox="0 0 640.000000 512.000000"
 preserveAspectRatio="xMidYMid meet">
<metadata>
Created by potrace 1.15, written by Peter Selinger 2001-2017
</metadata>
<g transform="translate(0.000000,512.000000) scale(0.100000,-0.100000)"
fill="#000000" stroke="none">
<path d="M3665 3430 c-4 -6 -25 -8 -53 -4 -26 3 -115 1 -197 -5 -119 -9 -169
-18 -240 -42 -80 -26 -93 -34 -120 -72 -16 -23 -63 -79 -103 -124 -71 -80 -75
-83 -158 -110 l-85 -27 6 -76 c6 -68 3 -84 -28 -177 -19 -55 -54 -133 -76
-171 -39 -67 -41 -74 -41 -155 0 -78 -3 -93 -45 -190 -25 -58 -45 -110 -45
-114 0 -5 13 -27 29 -49 36 -49 81 -194 81 -262 0 -44 7 -64 49 -135 32 -54
63 -92 88 -109 63 -42 173 -78 322 -103 77 -13 145 -26 150 -29 19 -12 31
-123 23 -226 l-7 -104 -40 -23 c-39 -22 -43 -33 -4 -13 17 9 22 3 51 -54 l32
-65 -56 -63 -55 -63 -13 -102 c-11 -85 -11 -115 0 -172 11 -61 11 -92 -5 -236
-10 -96 -14 -170 -9 -174 5 -5 47 -16 95 -26 l85 -17 67 33 c86 44 149 117
229 269 34 63 81 143 104 178 24 35 50 75 58 90 8 15 46 63 85 107 47 54 77
99 92 138 18 49 33 67 98 120 42 35 113 89 157 120 118 82 235 183 293 252 41
50 66 68 139 104 l89 44 16 76 c9 42 36 123 59 179 54 132 49 145 -62 180 -70
21 -85 23 -231 16 l-157 -6 -43 -44 c-35 -35 -66 -53 -159 -89 l-115 -45 -48
-67 c-42 -59 -47 -72 -42 -103 6 -35 3 -39 -67 -102 -71 -63 -169 -123 -182
-111 -3 4 -6 29 -6 56 0 63 69 197 101 197 20 0 20 1 -2 31 -21 30 -21 35 -9
78 7 25 16 65 20 87 3 24 22 63 43 92 20 27 37 52 37 55 0 3 -16 1 -35 -3 -21
-5 -38 -4 -41 2 -3 5 9 74 27 153 30 132 31 148 19 185 -16 49 -5 125 45 305
19 66 41 161 50 210 8 50 30 131 47 182 18 51 30 94 28 96 -3 2 -36 29 -74 61
-62 52 -238 176 -250 176 -3 0 -8 -5 -11 -10z m-237 -517 l49 -38 17 -95 c9
-55 16 -147 16 -218 l0 -123 -62 -149 -62 -149 -162 -162 -162 -162 -129 45
-128 45 -17 94 c-9 52 -17 108 -17 124 -1 17 25 96 57 176 50 126 74 172 192
351 l135 206 100 50 c55 28 105 49 112 47 7 -2 34 -21 61 -42z"/>
</g>
</svg>
