<?xml version="1.0" standalone="no"?>
<!DOCTYPE svg PUBLIC "-//W3C//DTD SVG 20010904//EN"
 "http://www.w3.org/TR/2001/REC-SVG-20010904/DTD/svg10.dtd">
<svg version="1.0" xmlns="http://www.w3.org/2000/svg"
 width="640.000000pt" height="512.000000pt" viewBox="0 0 640.000000 512.000000"
 preserveAspectRatio="xMidYMid meet">
<metadata>
Created by potrace 1.15, written by Peter Selinger 2001-2017
</metadata>
<g transform="translate(0.000000,512.000000) scale(0.100000,-0.100000)"
fill="#000000" stroke="none">
<path d="M3315 4599 c-225 -18 -326 -31 -615 -75 l-164 -25 -241 -124 -240
-124 -141 -268 -141 -268 -13 -273 -14 -273 29 -237 c39 -331 39 -340 25 -597
l-12 -230 30 -136 c28 -125 40 -155 144 -370 l114 -234 43 -300 42 -300 53
-115 c29 -63 58 -116 64 -118 12 -4 134 233 146 283 4 16 2 127 -5 246 -11
198 -11 218 4 240 9 13 17 42 17 65 0 23 6 46 13 52 15 13 312 112 335 112 10
0 119 -27 242 -60 124 -34 241 -65 260 -70 19 -5 120 -68 224 -140 l190 -130
138 -172 c125 -156 148 -191 237 -363 94 -182 99 -193 105 -270 4 -44 9 -101
13 -128 l6 -47 121 0 122 0 17 67 c31 127 57 253 57 283 0 28 -74 222 -141
368 -16 35 -40 89 -53 121 -35 88 -231 371 -358 519 -107 124 -126 141 -318
281 -175 127 -219 165 -300 255 -52 59 -96 111 -98 115 -6 18 318 307 513 458
l210 163 151 257 c138 235 152 263 157 318 4 33 16 134 27 225 11 91 19 183
19 205 0 29 -31 109 -117 298 l-117 257 -255 140 c-153 84 -265 139 -280 139
-14 -1 -124 -10 -245 -20z m25 -360 c30 -5 109 -16 175 -25 127 -16 122 -14
204 -95 31 -31 71 -57 122 -78 l76 -33 7 -65 c6 -57 12 -71 48 -114 l42 -50
-28 -92 c-73 -242 -128 -393 -154 -421 -15 -16 -133 -117 -262 -226 -129 -109
-300 -254 -380 -324 -121 -106 -178 -146 -346 -247 l-202 -120 -113 57 c-69
34 -108 49 -98 38 8 -11 41 -48 73 -84 l58 -65 -62 -28 c-34 -15 -64 -26 -67
-24 -2 3 -19 63 -38 136 -34 129 -35 134 -35 332 l0 202 -40 72 c-22 40 -40
79 -40 88 0 8 -7 20 -15 27 -20 17 -155 266 -155 287 0 10 17 98 37 196 l38
179 155 120 c85 67 178 143 205 170 l51 48 274 80 c298 86 310 87 470 59z"/>
</g>
</svg>
