<?xml version="1.0" standalone="no"?>
<!DOCTYPE svg PUBLIC "-//W3C//DTD SVG 20010904//EN"
 "http://www.w3.org/TR/2001/REC-SVG-20010904/DTD/svg10.dtd">
<svg version="1.0" xmlns="http://www.w3.org/2000/svg"
 width="640.000000pt" height="512.000000pt" viewBox="0 0 640.000000 512.000000"
 preserveAspectRatio="xMidYMid meet">
<metadata>
Created by potrace 1.15, written by Peter Selinger 2001-2017
</metadata>
<g transform="translate(0.000000,512.000000) scale(0.100000,-0.100000)"
fill="#000000" stroke="none">
<path d="M2895 3203 c-38 -20 -75 -43 -81 -51 -7 -9 -39 -67 -73 -129 l-61
-113 0 -116 c0 -64 -5 -134 -11 -155 -9 -30 -9 -52 2 -101 7 -35 12 -83 11
-107 -1 -24 3 -50 8 -57 6 -6 19 -41 29 -77 35 -123 89 -173 217 -202 63 -14
72 -19 88 -50 l19 -35 -35 -52 c-19 -29 -43 -78 -53 -108 -10 -30 -26 -60 -35
-67 -10 -7 -30 -41 -45 -75 -30 -69 -74 -109 -155 -143 -25 -11 -55 -26 -67
-35 -12 -9 -43 -25 -68 -35 l-47 -17 -76 53 c-43 29 -94 66 -115 82 -34 26
-36 30 -21 42 15 11 11 13 -31 19 -26 4 -55 10 -64 12 -9 3 -1 -3 17 -12 17
-10 32 -22 32 -27 0 -5 -18 -16 -41 -25 -37 -14 -40 -18 -34 -41 4 -14 10 -61
12 -104 4 -71 9 -84 49 -149 24 -40 44 -78 44 -86 0 -7 22 -37 49 -65 33 -35
51 -64 56 -89 10 -54 57 -62 191 -29 44 11 100 22 126 24 45 5 108 38 108 57
0 6 12 13 28 16 15 4 53 21 85 38 50 27 63 40 97 101 21 39 62 97 90 130 28
33 74 100 102 149 45 78 51 96 55 159 4 69 6 72 60 134 30 35 61 63 67 63 22
0 231 -61 240 -70 14 -14 -21 -133 -64 -220 -20 -41 -45 -104 -55 -140 -9 -36
-31 -84 -48 -107 l-30 -43 18 -39 18 -40 -43 -51 c-35 -42 -39 -51 -25 -56 14
-6 15 -15 10 -54 -4 -26 -3 -68 0 -94 7 -43 11 -48 66 -81 53 -33 58 -39 65
-80 8 -59 20 -71 79 -85 28 -6 79 -18 114 -26 35 -8 69 -21 75 -29 7 -10 64
-25 156 -41 80 -14 179 -32 220 -39 103 -19 102 -20 94 12 -5 20 -4 25 7 21 8
-3 40 -11 72 -18 59 -14 69 -22 40 -38 -14 -9 -14 -10 5 -16 32 -10 58 1 119
50 30 24 58 44 62 44 5 0 34 -11 65 -25 31 -14 66 -25 77 -25 11 0 47 27 82
63 34 34 78 71 97 82 43 25 56 75 19 75 -20 0 -21 3 -15 41 4 24 0 70 -9 112
-27 130 -28 132 -63 135 -35 4 -42 16 -16 26 25 10 13 16 -52 26 -67 11 -154
-8 -271 -61 -35 -16 -67 -29 -70 -29 -3 0 -2 11 1 25 l7 26 -42 -22 c-40 -20
-52 -21 -239 -16 -180 5 -201 8 -252 30 l-55 25 -6 53 c-4 30 -7 92 -7 138 0
77 2 86 30 121 17 21 30 45 30 54 0 41 49 122 94 156 26 19 63 60 81 90 19 30
59 75 89 99 31 24 56 46 56 49 0 3 -15 23 -33 46 -19 23 -42 65 -52 95 -9 29
-35 79 -57 110 -55 79 -110 105 -279 130 -186 28 -227 42 -286 99 -44 42 -51
54 -57 101 -6 44 -15 64 -52 107 -45 52 -45 53 -39 111 6 54 4 62 -30 118 -20
33 -55 105 -78 160 -22 55 -41 101 -42 103 -1 1 -30 7 -63 13 -61 11 -62 12
-74 53 -7 22 -17 44 -23 48 -5 4 -35 8 -65 7 -43 0 -70 -8 -125 -36z m215
-473 c0 -5 13 -24 29 -42 45 -52 61 -198 21 -198 -5 0 -10 -13 -10 -29 0 -27
-3 -29 -42 -33 -25 -3 -54 1 -70 9 -15 7 -35 13 -46 13 -15 0 -22 15 -37 79
-19 85 -21 80 40 159 35 47 43 52 77 52 21 0 38 -4 38 -10z"/>
</g>
</svg>
