<?xml version="1.0" standalone="no"?>
<!DOCTYPE svg PUBLIC "-//W3C//DTD SVG 20010904//EN"
 "http://www.w3.org/TR/2001/REC-SVG-20010904/DTD/svg10.dtd">
<svg version="1.0" xmlns="http://www.w3.org/2000/svg"
 width="640.000000pt" height="512.000000pt" viewBox="0 0 640.000000 512.000000"
 preserveAspectRatio="xMidYMid meet">
<metadata>
Created by potrace 1.15, written by Peter Selinger 2001-2017
</metadata>
<g transform="translate(0.000000,512.000000) scale(0.100000,-0.100000)"
fill="#000000" stroke="none">
<path d="M3120 4426 c-102 -35 -241 -90 -310 -123 -115 -55 -143 -74 -340
-237 -118 -97 -231 -191 -250 -209 -19 -18 -73 -65 -120 -105 l-86 -72 -87
-212 c-82 -202 -88 -223 -124 -412 l-37 -198 49 -244 50 -244 200 -147 c230
-169 160 -141 660 -258 281 -66 341 -83 495 -145 l175 -70 34 -199 34 -199
-31 -38 c-18 -22 -41 -50 -52 -64 -15 -19 -18 -21 -13 -5 4 11 -46 -25 -113
-80 -65 -55 -126 -106 -135 -113 -10 -7 -142 -46 -295 -87 -273 -73 -285 -76
-559 -105 -154 -17 -297 -33 -317 -36 l-38 -6 0 -234 c0 -204 2 -234 15 -234
9 0 126 -5 260 -11 l245 -10 315 46 316 46 255 125 256 124 152 144 151 144
23 218 c28 276 28 439 0 781 l-22 272 -118 163 c-65 89 -124 165 -131 169 -6
3 -127 43 -267 88 l-256 81 -289 30 -289 30 -81 51 c-44 29 -106 68 -137 88
-32 20 -58 40 -58 44 0 5 37 95 81 200 50 118 92 202 108 217 14 14 112 75
216 137 l190 112 270 45 c149 25 362 55 475 66 112 12 205 22 206 23 0 1 23
65 49 143 l49 141 -29 194 c-15 107 -29 195 -30 196 -1 3 -495 43 -515 42 -8
0 -98 -29 -200 -63z"/>
</g>
</svg>
