<?xml version="1.0" standalone="no"?>
<!DOCTYPE svg PUBLIC "-//W3C//DTD SVG 20010904//EN"
 "http://www.w3.org/TR/2001/REC-SVG-20010904/DTD/svg10.dtd">
<svg version="1.0" xmlns="http://www.w3.org/2000/svg"
 width="640.000000pt" height="512.000000pt" viewBox="0 0 640.000000 512.000000"
 preserveAspectRatio="xMidYMid meet">
<metadata>
Created by potrace 1.15, written by Peter Selinger 2001-2017
</metadata>
<g transform="translate(0.000000,512.000000) scale(0.100000,-0.100000)"
fill="#000000" stroke="none">
<path d="M2980 3263 c-20 -62 -31 -77 -131 -178 -63 -64 -109 -118 -109 -130
0 -10 12 -60 27 -111 24 -83 35 -104 133 -239 l106 -147 48 -154 47 -154 -48
-156 -48 -156 -145 -106 c-170 -124 -148 -118 -452 -128 l-207 -7 -16 -68 c-8
-37 -15 -79 -15 -94 0 -27 67 -136 169 -275 54 -74 71 -90 139 -127 42 -24 83
-43 91 -43 8 0 78 20 155 45 l141 44 120 131 120 131 66 162 65 162 130 76
c71 43 134 74 139 71 6 -3 75 -56 154 -116 l144 -111 74 -154 74 -154 -17 -51
c-9 -28 -19 -54 -23 -58 -4 -4 -67 -26 -141 -48 l-135 -41 -205 2 c-117 1
-249 -4 -307 -11 l-101 -13 -36 -143 c-20 -79 -36 -155 -36 -168 0 -13 26 -68
58 -122 47 -80 63 -100 87 -106 97 -24 441 -68 570 -73 146 -6 154 -6 309 29
87 20 164 39 170 44 6 5 76 61 156 124 139 111 146 119 166 175 12 32 35 97
53 144 30 82 31 92 31 239 0 153 0 155 -47 319 l-47 166 -155 118 c-246 184
-420 352 -748 717 -82 91 -233 309 -319 460 -106 187 -210 350 -223 350 -5 0
-19 -30 -31 -67z"/>
</g>
</svg>
