<?xml version="1.0" standalone="no"?>
<!DOCTYPE svg PUBLIC "-//W3C//DTD SVG 20010904//EN"
 "http://www.w3.org/TR/2001/REC-SVG-20010904/DTD/svg10.dtd">
<svg version="1.0" xmlns="http://www.w3.org/2000/svg"
 width="640.000000pt" height="512.000000pt" viewBox="0 0 640.000000 512.000000"
 preserveAspectRatio="xMidYMid meet">
<metadata>
Created by potrace 1.15, written by Peter Selinger 2001-2017
</metadata>
<g transform="translate(0.000000,512.000000) scale(0.100000,-0.100000)"
fill="#000000" stroke="none">
<path d="M4480 4540 c-85 -21 -181 -34 -365 -50 -153 -13 -413 -46 -670 -85
-600 -91 -649 -100 -960 -160 -254 -49 -304 -56 -534 -70 l-255 -16 -105 -102
c-58 -56 -121 -119 -140 -140 l-34 -38 48 -122 c26 -67 49 -123 51 -125 1 -2
132 2 291 8 208 8 369 21 578 46 285 34 293 35 475 24 102 -5 193 -10 203 -10
30 0 22 -212 -27 -731 -25 -255 -52 -556 -61 -669 -15 -191 -37 -421 -66 -685
l-11 -110 50 -220 c36 -163 54 -268 67 -405 17 -172 20 -188 47 -227 15 -23
32 -51 36 -62 13 -34 147 -220 159 -221 6 0 14 8 17 18 130 446 133 460 141
647 5 121 17 226 41 365 31 179 34 212 34 400 0 192 2 216 34 381 44 226 56
493 35 795 l-13 199 42 165 c24 91 43 170 42 177 0 7 -27 71 -60 144 -34 72
-59 134 -56 136 9 9 422 63 716 93 178 19 300 36 306 43 39 40 237 274 241
283 8 21 -150 354 -167 353 -8 -1 -67 -14 -130 -29z"/>
</g>
</svg>
