<?xml version="1.0" standalone="no"?>
<!DOCTYPE svg PUBLIC "-//W3C//DTD SVG 20010904//EN"
 "http://www.w3.org/TR/2001/REC-SVG-20010904/DTD/svg10.dtd">
<svg version="1.0" xmlns="http://www.w3.org/2000/svg"
 width="640.000000pt" height="512.000000pt" viewBox="0 0 640.000000 512.000000"
 preserveAspectRatio="xMidYMid meet">
<metadata>
Created by potrace 1.15, written by Peter Selinger 2001-2017
</metadata>
<g transform="translate(0.000000,512.000000) scale(0.100000,-0.100000)"
fill="#000000" stroke="none">
<path d="M3495 3936 l-70 -22 -3 -71 c-2 -52 2 -83 17 -120 l19 -50 -47 -59
c-43 -53 -50 -70 -69 -159 -18 -81 -22 -133 -22 -271 0 -159 -2 -175 -25 -232
-19 -47 -24 -76 -22 -124 l2 -63 -62 -79 c-35 -43 -63 -84 -63 -90 0 -5 7 -30
17 -54 16 -42 15 -46 -7 -118 l-24 -74 -130 -41 -131 -41 -145 7 c-84 4 -206
2 -290 -4 -136 -11 -150 -14 -236 -52 -88 -39 -92 -43 -125 -100 -25 -46 -44
-66 -80 -86 l-47 -25 4 -137 c3 -75 10 -153 16 -174 15 -50 59 -72 161 -82 76
-7 81 -6 182 35 l103 41 114 -30 c62 -17 145 -35 183 -41 121 -18 117 -15 109
-58 -4 -20 -18 -66 -31 -101 -43 -114 -63 -224 -63 -342 0 -102 -2 -115 -35
-196 -34 -84 -35 -91 -35 -219 0 -167 15 -211 119 -351 75 -100 77 -102 154
-134 l79 -32 314 5 315 6 117 71 c64 39 140 77 167 86 43 12 59 25 109 85 34
40 92 94 137 125 l79 55 0 55 c0 48 3 56 31 75 27 20 30 27 27 67 l-3 44 -86
50 -86 50 -144 -24 c-97 -17 -148 -21 -159 -15 -11 7 -48 -3 -135 -36 -107
-40 -136 -47 -272 -61 -121 -12 -161 -13 -198 -4 -53 13 -50 9 -96 163 l-29
100 55 83 55 83 0 108 0 108 73 54 c149 113 345 153 611 125 l149 -16 111 44
c61 24 162 57 224 73 61 16 112 33 112 39 -1 5 -41 41 -91 79 -62 48 -105 91
-140 140 -41 58 -63 79 -137 123 -55 34 -111 80 -153 124 l-66 71 -134 -21
c-74 -11 -137 -17 -141 -13 -4 4 -20 37 -37 74 l-30 67 45 26 c24 14 44 31 44
37 0 6 -14 33 -31 59 -30 47 -31 51 -24 126 7 90 55 244 127 412 45 106 49
122 55 224 l6 109 63 46 c35 26 63 54 63 62 0 8 -22 33 -50 55 l-50 39 7 91 6
91 -53 43 c-51 40 -179 112 -196 110 -5 -1 -39 -11 -78 -23z"/>
</g>
</svg>
