<?xml version="1.0" standalone="no"?>
<!DOCTYPE svg PUBLIC "-//W3C//DTD SVG 20010904//EN"
 "http://www.w3.org/TR/2001/REC-SVG-20010904/DTD/svg10.dtd">
<svg version="1.0" xmlns="http://www.w3.org/2000/svg"
 width="640.000000pt" height="512.000000pt" viewBox="0 0 640.000000 512.000000"
 preserveAspectRatio="xMidYMid meet">
<metadata>
Created by potrace 1.15, written by Peter Selinger 2001-2017
</metadata>
<g transform="translate(0.000000,512.000000) scale(0.100000,-0.100000)"
fill="#000000" stroke="none">
<path d="M2420 4092 c0 -13 -68 -73 -197 -175 l-198 -156 -147 -383 -147 -383
-7 -445 -6 -445 66 -355 67 -355 79 -196 c59 -146 359 -809 374 -826 1 -2 143
-12 315 -23 l313 -21 357 212 c196 117 494 299 662 406 l306 194 174 195 174
195 103 262 103 262 50 335 c43 291 129 1038 129 1125 0 26 -11 39 -72 87 -40
32 -93 76 -118 98 -24 23 -58 47 -75 54 -16 8 -61 39 -100 69 -38 31 -71 54
-73 53 -2 -2 -40 -99 -86 -215 l-82 -212 -204 -264 -204 -265 -179 -457 c-98
-252 -182 -467 -187 -478 -5 -11 -57 -75 -117 -143 l-108 -122 -34 -133 c-18
-72 -37 -136 -41 -142 -4 -5 -13 -34 -20 -64 l-12 -53 -85 -39 c-75 -34 -100
-54 -220 -170 -74 -72 -138 -127 -142 -123 -4 5 -48 107 -97 228 -83 205 -92
220 -129 246 l-40 28 -33 273 c-18 151 -40 395 -49 542 l-17 269 33 261 c62
483 63 390 -5 857 -32 225 -62 410 -66 410 -5 0 -8 -8 -8 -18z"/>
</g>
</svg>
