<?xml version="1.0" standalone="no"?>
<!DOCTYPE svg PUBLIC "-//W3C//DTD SVG 20010904//EN"
 "http://www.w3.org/TR/2001/REC-SVG-20010904/DTD/svg10.dtd">
<svg version="1.0" xmlns="http://www.w3.org/2000/svg"
 width="640.000000pt" height="512.000000pt" viewBox="0 0 640.000000 512.000000"
 preserveAspectRatio="xMidYMid meet">
<metadata>
Created by potrace 1.15, written by Peter Selinger 2001-2017
</metadata>
<g transform="translate(0.000000,512.000000) scale(0.100000,-0.100000)"
fill="#000000" stroke="none">
<path d="M2714 2972 c-6 -9 -41 -112 -77 -227 -70 -225 -111 -435 -122 -630
-3 -55 -15 -178 -27 -273 -22 -171 -22 -176 -5 -310 21 -163 38 -257 82 -452
19 -80 39 -170 45 -200 39 -178 60 -233 127 -320 56 -74 78 -93 171 -152 59
-37 114 -68 123 -68 8 0 47 11 85 24 51 17 105 25 197 31 124 7 130 8 252 60
109 47 135 63 206 127 89 79 190 201 264 318 44 69 51 88 86 245 20 94 51 222
67 285 25 94 33 159 47 355 24 319 16 504 -26 688 -17 73 -32 133 -34 135 -4
4 -201 -15 -247 -24 l-28 -6 0 -126 c0 -169 -21 -392 -65 -702 -20 -140 -38
-265 -40 -276 -15 -69 -313 -439 -387 -480 -12 -7 -44 -13 -69 -14 -28 0 -75
-12 -118 -30 -63 -26 -79 -28 -139 -23 -89 8 -114 22 -163 95 -34 50 -48 86
-75 192 -44 170 -46 321 -10 526 13 74 27 196 31 270 3 74 15 213 26 307 10
95 19 230 19 299 l0 126 -87 124 c-48 68 -89 124 -93 124 -3 0 -10 -8 -16 -18z"/>
</g>
</svg>
