<?xml version="1.0" standalone="no"?>
<!DOCTYPE svg PUBLIC "-//W3C//DTD SVG 20010904//EN"
 "http://www.w3.org/TR/2001/REC-SVG-20010904/DTD/svg10.dtd">
<svg version="1.0" xmlns="http://www.w3.org/2000/svg"
 width="640.000000pt" height="512.000000pt" viewBox="0 0 640.000000 512.000000"
 preserveAspectRatio="xMidYMid meet">
<metadata>
Created by potrace 1.15, written by Peter Selinger 2001-2017
</metadata>
<g transform="translate(0.000000,512.000000) scale(0.100000,-0.100000)"
fill="#000000" stroke="none">
<path d="M4600 3920 c-64 -48 -72 -60 -376 -552 -172 -277 -401 -658 -511
-848 -110 -190 -254 -426 -320 -526 -67 -99 -151 -234 -188 -300 -78 -138
-138 -234 -146 -234 -3 0 -43 102 -89 228 l-83 227 -187 270 -187 270 -124
317 -124 318 -199 0 -198 0 -192 -61 c-105 -34 -195 -65 -199 -69 -18 -16 171
-583 297 -893 l123 -302 43 -237 44 -237 141 -180 c105 -135 196 -271 360
-536 121 -195 225 -353 230 -351 6 2 132 90 280 195 l269 190 253 323 253 323
349 700 c340 681 621 1281 621 1327 1 45 -65 688 -70 688 -3 0 -34 -23 -70
-50z"/>
</g>
</svg>
