<?xml version="1.0" standalone="no"?>
<!DOCTYPE svg PUBLIC "-//W3C//DTD SVG 20010904//EN"
 "http://www.w3.org/TR/2001/REC-SVG-20010904/DTD/svg10.dtd">
<svg version="1.0" xmlns="http://www.w3.org/2000/svg"
 width="640.000000pt" height="512.000000pt" viewBox="0 0 640.000000 512.000000"
 preserveAspectRatio="xMidYMid meet">
<metadata>
Created by potrace 1.15, written by Peter Selinger 2001-2017
</metadata>
<g transform="translate(0.000000,512.000000) scale(0.100000,-0.100000)"
fill="#000000" stroke="none">
<path d="M2324 2695 l-95 -95 21 -112 c12 -62 36 -162 55 -223 19 -60 44 -162
56 -225 17 -88 33 -137 69 -210 43 -86 48 -106 60 -210 l13 -115 77 -125 c72
-115 80 -133 100 -230 13 -58 48 -172 80 -255 33 -87 62 -183 70 -229 6 -44
14 -86 17 -93 4 -10 35 -13 123 -13 l118 0 7 46 c6 41 26 71 159 238 84 105
192 245 241 311 48 66 129 170 180 230 50 61 107 133 125 160 19 28 82 118
141 201 107 149 109 151 227 235 l120 83 36 131 c27 98 38 157 42 240 l6 110
-82 95 c-46 52 -89 97 -98 98 -20 5 -175 -150 -282 -283 -56 -70 -132 -148
-209 -214 -126 -109 -162 -156 -333 -433 -79 -128 -232 -311 -317 -379 -40
-32 -76 -59 -80 -59 -8 0 -104 271 -137 389 -14 52 -47 142 -73 200 -28 62
-56 149 -70 211 -12 58 -41 168 -63 245 -34 119 -51 158 -111 258 -38 64 -76
117 -84 117 -7 0 -56 -43 -109 -95z"/>
</g>
</svg>
