<?xml version="1.0" standalone="no"?>
<!DOCTYPE svg PUBLIC "-//W3C//DTD SVG 20010904//EN"
 "http://www.w3.org/TR/2001/REC-SVG-20010904/DTD/svg10.dtd">
<svg version="1.0" xmlns="http://www.w3.org/2000/svg"
 width="640.000000pt" height="512.000000pt" viewBox="0 0 640.000000 512.000000"
 preserveAspectRatio="xMidYMid meet">
<metadata>
Created by potrace 1.15, written by Peter Selinger 2001-2017
</metadata>
<g transform="translate(0.000000,512.000000) scale(0.100000,-0.100000)"
fill="#000000" stroke="none">
<path d="M5511 3719 c-134 -153 -360 -491 -770 -1151 -297 -478 -336 -535
-660 -973 -189 -256 -345 -464 -346 -463 -1 2 -73 224 -160 493 l-158 490
-210 290 c-115 160 -213 294 -217 298 -17 19 -122 -198 -322 -663 l-110 -255
-73 -75 c-40 -41 -77 -83 -82 -93 -19 -37 -308 -356 -316 -348 -10 10 -285
642 -359 826 -34 83 -115 331 -182 552 l-121 403 -225 320 c-196 279 -225 317
-228 292 -2 -16 4 -107 12 -203 9 -96 25 -286 37 -424 l21 -250 130 -410 c127
-399 135 -419 278 -730 81 -176 223 -502 315 -725 92 -223 169 -407 170 -408
4 -4 212 79 485 192 l135 56 199 344 200 344 131 -66 132 -65 93 -287 93 -286
208 -220 c114 -120 211 -220 216 -221 4 -2 100 69 213 157 l205 160 183 347
c287 545 473 882 730 1324 228 394 247 422 500 766 144 196 261 362 258 369
-3 7 -66 99 -140 204 -75 106 -136 196 -136 201 0 27 -36 -4 -129 -112z"/>
</g>
</svg>
