<?xml version="1.0" standalone="no"?>
<!DOCTYPE svg PUBLIC "-//W3C//DTD SVG 20010904//EN"
 "http://www.w3.org/TR/2001/REC-SVG-20010904/DTD/svg10.dtd">
<svg version="1.0" xmlns="http://www.w3.org/2000/svg"
 width="640.000000pt" height="512.000000pt" viewBox="0 0 640.000000 512.000000"
 preserveAspectRatio="xMidYMid meet">
<metadata>
Created by potrace 1.15, written by Peter Selinger 2001-2017
</metadata>
<g transform="translate(0.000000,512.000000) scale(0.100000,-0.100000)"
fill="#000000" stroke="none">
<path d="M1812 2813 c-6 -2 -9 -10 -6 -15 4 -7 2 -8 -4 -4 -6 4 -27 0 -47 -8
l-35 -15 0 -71 c0 -49 3 -69 11 -64 7 4 10 -14 7 -59 -1 -36 1 -63 5 -60 5 3
7 -40 5 -95 -2 -56 1 -98 6 -95 5 3 7 -8 4 -25 -2 -17 -1 -29 4 -26 4 3 8 -9
8 -26 0 -21 4 -29 11 -24 8 5 10 -4 7 -29 -2 -20 0 -33 5 -30 6 3 8 -8 5 -25
-3 -18 0 -29 5 -25 6 3 8 -7 5 -25 -3 -18 0 -29 5 -25 6 4 8 -5 5 -21 -3 -14
-1 -26 3 -26 5 0 9 -7 9 -16 0 -9 5 -12 11 -8 8 5 10 -1 7 -19 -3 -16 -1 -24
5 -20 6 4 8 -2 5 -15 -4 -12 -3 -20 2 -17 4 3 13 -17 20 -43 6 -26 17 -54 24
-62 18 -20 34 -73 42 -137 4 -29 11 -50 16 -47 6 4 8 -37 6 -104 -2 -61 1
-108 5 -105 5 3 7 -19 5 -50 -1 -30 1 -53 5 -50 5 3 7 -19 5 -50 -1 -30 1 -53
5 -50 5 3 7 -42 5 -100 -2 -74 1 -108 10 -116 6 -7 12 -8 12 -4 0 4 5 0 11
-10 5 -9 7 -22 3 -29 -5 -7 -3 -8 6 -3 10 6 12 4 7 -9 -4 -9 -3 -15 2 -12 5 3
12 -6 15 -19 4 -14 10 -23 15 -20 11 6 23 -24 14 -37 -4 -7 -1 -8 7 -3 10 6
12 4 7 -9 -4 -9 -3 -15 2 -12 5 3 12 -6 15 -19 4 -16 11 -23 18 -19 7 5 9 0 6
-14 -4 -14 -2 -20 5 -15 7 4 8 0 4 -11 -5 -11 -3 -15 5 -10 8 5 9 2 5 -10 -4
-10 -3 -15 3 -11 6 3 10 1 10 -4 0 -6 9 -20 21 -32 12 -12 19 -29 16 -40 -3
-12 -1 -17 6 -12 7 4 8 0 4 -11 -4 -10 -3 -15 3 -11 6 3 10 -3 10 -14 0 -24
10 -25 108 -15 34 4 59 11 56 15 -3 5 2 6 11 3 26 -10 123 6 143 24 10 9 11
13 2 7 -13 -9 -13 -8 -2 7 8 9 19 15 26 12 7 -3 33 11 57 32 51 42 60 50 40
39 -10 -5 -12 -4 -7 4 4 6 12 9 17 5 5 -3 26 7 46 23 53 42 80 66 65 58 -11
-6 -12 -3 -3 13 6 12 17 24 24 28 7 5 6 0 -3 -11 -9 -12 0 -8 23 9 20 16 37
31 37 33 0 3 -8 -1 -17 -8 -14 -12 -14 -10 1 13 18 28 33 39 21 15 -4 -6 0 -5
7 3 8 8 20 21 28 29 12 11 12 12 1 6 -10 -6 -8 1 4 23 10 17 22 29 27 26 4 -3
8 0 8 6 0 6 4 8 10 5 5 -3 7 0 4 8 -3 8 0 18 7 23 8 5 10 3 4 -6 -5 -9 -4 -11
4 -6 6 4 9 11 6 16 -8 12 6 41 16 34 5 -3 9 4 9 16 0 12 4 18 10 15 6 -4 7 1
3 11 -4 12 -3 15 5 10 8 -5 10 -1 5 10 -4 12 -3 15 5 10 7 -4 10 -2 6 7 -3 8
2 20 11 27 8 7 15 19 15 27 0 8 4 11 10 8 6 -4 7 1 3 11 -4 12 -3 15 5 10 8
-5 10 -1 5 10 -4 11 -3 15 4 11 7 -5 9 1 5 15 -3 14 -2 19 6 14 7 -4 12 -3 12
1 0 5 7 18 16 29 8 10 12 13 8 5 -5 -10 7 -6 32 9 37 22 77 53 45 35 -10 -6
-12 -4 -7 4 5 7 10 10 13 7 3 -3 14 -1 25 5 18 10 19 4 16 -194 -2 -121 1
-203 6 -199 5 3 7 -5 4 -16 -4 -12 -2 -22 3 -22 5 0 9 -9 9 -21 0 -13 4 -18
11 -13 8 5 10 -1 7 -19 -3 -16 -1 -24 5 -20 6 4 8 -4 5 -20 -3 -16 -1 -24 5
-20 6 4 8 -2 5 -15 -4 -14 -2 -20 4 -16 7 5 9 -2 6 -20 -3 -14 -1 -26 3 -26 5
0 9 -9 9 -21 0 -13 4 -18 12 -13 8 5 9 0 6 -14 -4 -14 -2 -20 4 -16 7 5 9 -2
6 -19 -3 -16 -1 -24 5 -20 6 4 8 -4 5 -20 -3 -15 -1 -24 3 -21 8 5 13 -19 12
-54 -1 -6 8 -12 19 -12 37 0 157 23 153 29 -2 4 12 5 32 3 22 -3 33 -1 30 5
-4 6 4 8 20 5 18 -3 24 -1 19 7 -9 13 13 45 34 49 8 2 20 8 25 14 7 8 6 9 -4
3 -10 -6 -8 1 4 23 10 17 22 29 25 27 4 -2 16 3 26 11 10 9 13 12 5 8 -10 -5
-8 2 5 24 10 17 20 30 22 27 2 -2 16 9 30 24 23 23 24 23 7 2 -11 -14 7 -3 41
25 34 27 59 54 57 59 -2 6 9 22 24 35 l28 25 -25 -29 c-22 -26 -19 -25 23 8
26 21 47 41 47 44 0 3 -10 -3 -22 -14 -12 -10 8 15 45 57 37 42 78 82 91 89
14 7 32 32 41 56 9 24 20 42 23 40 9 -5 27 15 28 32 2 29 5 33 16 26 6 -4 8
-3 5 4 -8 12 2 44 12 38 8 -5 26 15 27 32 2 29 5 33 16 26 6 -4 8 -3 5 4 -9
14 3 43 14 36 5 -3 9 0 9 6 0 6 4 8 10 5 6 -4 7 1 3 11 -5 13 -3 15 7 9 9 -5
11 -4 6 3 -10 16 12 52 27 46 7 -2 21 3 32 12 11 8 13 12 5 8 -8 -4 -12 -3 -7
1 4 5 17 10 30 12 12 2 26 9 32 15 7 8 6 9 -4 3 -10 -5 -12 -4 -7 4 4 6 11 9
16 6 10 -6 70 21 70 31 0 3 -6 2 -12 -2 -8 -4 -10 -3 -5 2 8 9 13 10 40 13 8
1 12 20 12 58 0 51 2 56 23 58 12 1 28 8 35 15 10 10 9 11 -2 5 -10 -5 -12 -4
-7 4 4 6 11 9 15 6 11 -6 68 22 78 38 4 7 -2 5 -13 -3 -17 -14 -18 -14 -6 1 7
10 21 15 32 12 15 -4 18 -1 13 18 -4 15 -3 20 5 15 8 -5 10 -1 5 10 -4 11 -3
15 4 11 7 -5 9 1 5 15 -3 13 -1 19 5 15 7 -5 9 1 5 15 -3 14 -2 19 6 14 7 -4
12 -1 12 9 0 9 4 14 9 11 5 -4 7 4 3 16 -4 16 -2 19 8 13 9 -5 11 -4 6 4 -10
15 3 53 15 46 5 -4 9 12 9 35 0 29 -4 39 -12 34 -8 -5 -9 0 -6 14 4 14 2 20
-5 15 -7 -4 -8 0 -4 11 5 11 3 15 -5 10 -7 -5 -9 0 -6 14 4 12 2 20 -3 16 -5
-3 -9 4 -9 16 0 13 -4 19 -12 14 -8 -5 -9 0 -6 14 4 14 2 20 -5 15 -7 -4 -8 0
-4 11 5 11 3 15 -5 10 -7 -5 -9 0 -6 14 5 17 -5 30 -48 63 -50 39 -57 41 -99
35 -29 -5 -43 -11 -39 -18 4 -7 2 -8 -5 -4 -18 11 -63 -2 -55 -16 5 -7 3 -8
-5 -3 -19 11 -98 -14 -118 -39 l-18 -21 25 20 25 20 -18 -22 c-11 -12 -25 -19
-32 -17 -7 3 -16 0 -21 -7 -5 -8 -3 -10 6 -4 8 5 11 4 6 -3 -4 -6 -12 -9 -19
-6 -7 2 -32 -13 -57 -33 l-45 -38 3 -66 c2 -58 0 -67 -20 -85 l-23 -19 20 25
20 25 -30 -25 c-44 -37 -52 -44 -36 -35 9 5 12 4 7 -3 -4 -6 -12 -9 -19 -6 -7
2 -26 -8 -43 -23 -16 -16 -21 -21 -10 -13 21 15 21 15 2 -7 -10 -13 -23 -20
-27 -17 -13 8 -50 -6 -44 -16 3 -4 -3 -6 -14 -3 -10 3 -22 -1 -26 -8 -6 -8 -4
-10 5 -4 8 5 11 4 6 -3 -4 -6 -14 -8 -23 -5 -12 5 -14 3 -8 -7 5 -9 4 -11 -4
-6 -6 4 -19 5 -29 2 -14 -5 -16 -16 -14 -72 3 -44 0 -70 -9 -78 -9 -8 -10 -8
-4 3 5 9 -1 7 -19 -4 -25 -17 -38 -34 -14 -19 7 4 8 3 4 -4 -4 -6 -12 -9 -19
-6 -7 2 -26 -8 -43 -23 -16 -16 -21 -21 -10 -13 20 15 20 14 4 -5 -9 -12 -27
-21 -39 -22 -12 -1 -27 -7 -33 -14 -8 -9 -7 -10 4 -4 8 5 12 4 7 0 -14 -16
-47 -12 -64 9 l-18 21 25 -19 c14 -11 -1 6 -32 38 -33 32 -63 54 -69 50 -8 -5
-10 6 -7 34 2 22 -1 38 -6 35 -4 -3 -7 10 -4 30 2 20 0 33 -5 30 -5 -3 -8 12
-5 35 2 22 0 38 -3 36 -4 -2 -10 21 -14 51 -4 35 -10 53 -17 49 -7 -5 -9 4 -6
24 3 18 0 29 -5 25 -6 -3 -8 7 -5 25 3 19 1 29 -6 25 -6 -4 -7 1 -2 13 4 10 4
15 0 12 -9 -10 -47 29 -40 41 4 5 1 13 -5 17 -8 5 -10 2 -5 -7 4 -8 0 -5 -8 6
-9 11 -14 25 -12 31 3 7 -2 15 -10 18 -10 4 -13 1 -9 -7 4 -6 -1 -3 -10 8 -9
11 -14 30 -12 42 2 13 0 20 -6 16 -6 -3 -8 6 -5 26 2 17 0 31 -5 31 -5 0 -7 7
-3 15 4 11 -2 15 -25 15 -17 0 -28 -4 -25 -9 3 -5 0 -9 -7 -8 -35 1 -58 -4
-53 -12 3 -5 0 -9 -7 -8 -39 1 -58 -4 -51 -15 4 -7 3 -8 -5 -4 -18 11 -63 -2
-55 -16 4 -7 3 -8 -5 -4 -16 10 -63 -2 -56 -14 3 -6 -1 -7 -9 -4 -11 4 -16 0
-16 -14 0 -12 -5 -24 -12 -28 -7 -5 -8 -3 -3 6 5 8 4 11 -3 6 -6 -4 -9 -13 -6
-20 6 -16 -40 -69 -50 -59 -4 4 -4 -1 0 -11 6 -15 4 -17 -6 -11 -9 5 -11 4 -6
-3 7 -12 -6 -44 -17 -43 -20 3 -28 0 -23 -8 8 -13 -4 -42 -15 -35 -5 3 -6 -3
-2 -12 4 -11 3 -15 -4 -11 -7 5 -9 -1 -6 -15 3 -13 3 -20 -2 -16 -9 8 -35 -14
-28 -25 8 -13 -8 -48 -19 -41 -7 4 -8 2 -4 -4 7 -12 -6 -44 -17 -43 -20 3 -28
0 -23 -8 9 -14 -5 -42 -17 -34 -6 3 -7 1 -3 -5 4 -7 3 -18 -1 -26 -8 -14 -12
-16 -34 -16 -5 0 -8 -4 -5 -9 9 -14 -5 -42 -17 -34 -6 3 -7 1 -3 -5 4 -7 2
-20 -3 -29 -6 -10 -11 -14 -11 -10 0 4 -6 2 -14 -5 -7 -7 -11 -19 -8 -27 4
-10 1 -12 -8 -6 -9 5 -11 4 -6 -4 10 -15 -13 -73 -25 -65 -5 3 -9 -2 -9 -11 0
-9 -4 -13 -10 -10 -5 3 -7 0 -4 -8 3 -8 0 -18 -7 -23 -8 -5 -10 -3 -4 6 5 8 4
11 -3 6 -6 -4 -9 -13 -6 -21 4 -8 -1 -18 -10 -21 -9 -3 -16 -11 -16 -18 0 -6
-10 -22 -23 -36 -12 -14 -17 -19 -12 -11 9 12 7 12 -12 1 -11 -8 -19 -19 -17
-25 3 -6 -6 -20 -18 -31 l-23 -19 20 25 20 25 -30 -25 c-44 -36 -52 -44 -37
-35 11 6 12 3 4 -12 -6 -11 -20 -19 -31 -18 -25 2 -53 25 -47 40 2 6 -5 17
-16 24 -16 10 -18 10 -13 0 6 -8 4 -10 -5 -4 -9 5 -11 24 -7 63 4 32 0 81 -8
116 -7 34 -16 87 -20 119 -4 36 -10 55 -17 51 -7 -5 -9 4 -6 24 3 18 0 29 -5
25 -6 -4 -8 5 -5 20 3 16 1 24 -5 20 -6 -3 -8 6 -5 25 3 18 0 29 -5 25 -6 -4
-8 5 -5 21 3 14 1 26 -3 26 -5 0 -9 9 -9 21 0 13 -4 18 -11 13 -8 -5 -10 1 -7
19 3 16 1 24 -5 20 -6 -4 -8 4 -5 20 3 16 1 24 -5 20 -6 -4 -8 2 -5 15 4 12 3
20 -2 17 -4 -3 -11 15 -15 40 -3 25 -10 43 -16 40 -5 -4 -9 18 -9 50 0 35 4
54 10 50 6 -4 10 13 10 45 0 37 -3 49 -12 44 -7 -5 -9 -2 -5 9 3 9 -1 21 -11
29 -16 12 -16 11 -2 -7 14 -19 14 -19 -3 -6 -10 8 -16 20 -13 27 3 7 -2 15
-10 18 -10 4 -12 2 -8 -6 5 -7 3 -8 -5 -3 -7 4 -11 18 -8 31 2 14 0 21 -6 17
-6 -3 -8 6 -5 25 3 18 0 29 -5 25 -6 -4 -8 5 -5 20 3 15 1 24 -3 21 -5 -3 -9
5 -9 18 0 13 -7 34 -16 46 -9 13 -14 34 -11 47 2 15 0 22 -6 18 -6 -4 -8 4 -5
20 4 20 0 28 -13 32 -11 4 -24 3 -30 -1 -7 -4 -9 -3 -5 4 8 13 -29 26 -45 16
-8 -5 -9 -3 -4 6 6 10 4 12 -9 7 -10 -4 -15 -3 -11 3 6 9 -10 14 -42 13 -7 -1
-11 3 -8 7 7 12 -32 23 -46 14 -8 -4 -9 -3 -5 4 7 12 -45 16 -72 5z"/>
</g>
</svg>
