<?xml version="1.0" standalone="no"?>
<!DOCTYPE svg PUBLIC "-//W3C//DTD SVG 20010904//EN"
 "http://www.w3.org/TR/2001/REC-SVG-20010904/DTD/svg10.dtd">
<svg version="1.0" xmlns="http://www.w3.org/2000/svg"
 width="640.000000pt" height="512.000000pt" viewBox="0 0 640.000000 512.000000"
 preserveAspectRatio="xMidYMid meet">
<metadata>
Created by potrace 1.15, written by Peter Selinger 2001-2017
</metadata>
<g transform="translate(0.000000,512.000000) scale(0.100000,-0.100000)"
fill="#000000" stroke="none">
<path d="M4090 4675 c0 -8 -5 -15 -11 -15 -7 0 -9 -10 -7 -24 4 -18 1 -23 -10
-18 -12 4 -14 -1 -9 -26 5 -25 3 -32 -9 -32 -13 0 -15 -7 -11 -30 5 -20 3 -28
-6 -25 -7 3 -21 -2 -31 -10 -16 -12 -17 -18 -8 -27 16 -16 15 -29 0 -23 -7 2
-22 -2 -33 -11 -16 -12 -18 -18 -7 -34 9 -15 9 -18 -1 -15 -6 2 -25 -7 -41
-21 -26 -23 -28 -29 -17 -46 7 -11 10 -23 7 -26 -3 -3 -6 0 -6 6 0 7 -5 12
-11 12 -14 0 -39 -26 -39 -41 0 -6 -9 -20 -21 -30 -16 -14 -20 -26 -16 -53 3
-24 0 -36 -10 -40 -10 -4 -13 -19 -10 -56 4 -39 2 -50 -10 -50 -12 0 -13 -8
-8 -40 5 -27 3 -40 -5 -40 -6 0 -42 -31 -80 -70 -38 -38 -73 -70 -79 -70 -5 0
-55 -45 -110 -100 l-101 -100 7 -45 c5 -37 3 -45 -10 -45 -14 0 -16 -9 -10
-60 5 -53 4 -60 -12 -60 -13 0 -16 -6 -13 -25 4 -18 1 -25 -10 -25 -9 0 -13
-7 -9 -20 3 -13 0 -20 -10 -20 -11 0 -14 -7 -9 -25 5 -20 3 -23 -10 -18 -14 5
-16 1 -12 -19 4 -19 1 -25 -9 -21 -7 3 -13 0 -13 -6 0 -6 -7 -11 -16 -11 -9 0
-14 -6 -11 -12 7 -19 14 -44 10 -35 -3 4 -11 7 -19 7 -16 0 -19 -26 -4 -35 6
-3 10 -12 9 -18 0 -9 -2 -9 -6 1 -2 6 -11 12 -19 12 -16 0 -19 -26 -4 -35 6
-3 10 -12 10 -18 0 -7 -4 -6 -10 3 -7 12 -12 11 -28 -8 -11 -12 -28 -22 -39
-22 -33 0 -85 -31 -79 -46 4 -10 -2 -14 -22 -13 -15 0 -21 3 -14 6 18 7 14 36
-8 56 -15 12 -38 17 -85 17 -37 0 -65 4 -65 10 0 6 -30 10 -70 10 -57 0 -70 3
-70 16 0 18 -23 44 -39 44 -6 0 -11 -5 -11 -12 0 -6 -3 -9 -6 -6 -3 3 0 15 7
26 11 17 9 23 -17 46 -16 14 -36 23 -44 20 -12 -4 -13 -3 -2 7 17 18 15 39 -3
39 -8 0 -15 5 -15 11 0 6 -7 9 -15 5 -13 -4 -13 -2 -5 14 13 24 13 30 -1 30
-7 0 -20 9 -30 21 -10 11 -23 18 -29 14 -7 -4 -9 2 -4 19 5 20 1 31 -15 45
-11 10 -21 24 -21 31 0 6 -13 25 -30 40 -17 15 -30 32 -30 38 0 5 -86 96 -190
201 l-190 191 -45 0 c-25 0 -45 -4 -45 -10 0 -5 -22 -10 -50 -10 -27 0 -50 -4
-50 -10 0 -5 -18 -10 -40 -10 -22 0 -40 -4 -40 -10 0 -5 -22 -10 -49 -10 -28
0 -53 -4 -56 -10 -3 -5 -14 -10 -25 -10 -10 0 -21 -7 -24 -16 -9 -23 -7 -114
2 -114 4 0 6 -18 4 -40 -3 -29 0 -40 10 -40 10 0 13 -11 10 -39 -3 -33 -1 -39
20 -45 14 -4 18 -9 11 -13 -7 -2 -13 -14 -13 -25 0 -15 5 -19 20 -15 21 5 28
-7 10 -18 -5 -3 -10 -20 -10 -37 0 -25 3 -29 20 -25 16 4 18 2 10 -13 -15 -27
-12 -70 4 -76 8 -3 12 -12 10 -19 -7 -18 16 -31 27 -14 5 8 9 9 9 4 0 -6 -5
-16 -12 -23 -9 -9 -9 -15 0 -24 10 -10 15 -10 23 2 9 12 10 11 4 -5 -11 -34
-10 -40 6 -39 12 1 14 -5 11 -24 -4 -19 -1 -24 10 -20 11 5 14 0 10 -20 -4
-19 -2 -24 10 -20 11 5 14 0 10 -18 -3 -17 0 -24 11 -24 10 0 13 -6 10 -20 -4
-14 0 -20 11 -20 9 0 13 -6 10 -14 -3 -8 8 -29 25 -47 17 -17 31 -38 31 -46 0
-15 64 -83 79 -83 5 0 7 -9 4 -20 -3 -11 -1 -20 4 -20 6 0 24 -14 42 -30 18
-18 37 -28 44 -24 9 5 9 3 0 -7 -16 -16 -17 -39 -2 -39 7 0 20 -9 30 -21 10
-12 23 -18 30 -14 8 5 9 1 4 -14 -4 -15 1 -28 22 -48 15 -16 30 -27 34 -26 4
1 5 -6 2 -17 -4 -14 10 -34 46 -69 28 -27 51 -55 51 -61 0 -18 113 -120 127
-115 10 3 10 0 1 -14 -9 -16 -6 -23 23 -49 23 -21 36 -27 41 -19 4 7 8 -18 8
-55 0 -61 -1 -66 -20 -61 -18 5 -20 1 -19 -43 1 -43 2 -45 9 -19 7 27 8 26 9
-15 0 -30 -2 -40 -8 -31 -7 11 -40 -16 -141 -118 -115 -115 -131 -135 -126
-156 5 -19 2 -25 -10 -25 -13 0 -15 -6 -11 -30 5 -23 3 -30 -9 -30 -12 0 -15
-7 -12 -24 4 -18 1 -23 -10 -18 -12 4 -14 -1 -9 -25 5 -25 2 -32 -13 -36 -12
-3 -20 -14 -20 -27 0 -11 5 -18 10 -15 6 3 10 -4 10 -17 0 -14 -3 -19 -8 -11
-5 8 -13 9 -22 3 -12 -7 -12 -12 -2 -22 6 -6 12 -17 12 -22 0 -7 -3 -6 -8 1
-5 8 -14 5 -31 -9 -21 -16 -23 -22 -13 -38 9 -15 9 -18 -1 -15 -13 5 -127 -97
-127 -114 0 -6 -28 -40 -62 -76 -116 -118 -128 -133 -128 -157 0 -18 2 -20 10
-8 8 12 10 9 10 -12 0 -21 -4 -25 -20 -21 -15 4 -20 0 -20 -16 0 -11 5 -21 10
-21 6 0 10 -6 10 -14 0 -9 -7 -12 -20 -9 -17 5 -20 0 -20 -30 0 -19 6 -38 13
-40 6 -3 2 -6 -10 -6 -18 -1 -23 -7 -23 -27 0 -14 4 -23 10 -19 5 3 10 2 10
-3 0 -5 -9 -12 -20 -15 -18 -5 -20 -14 -20 -96 0 -87 1 -91 23 -92 12 0 16 -3
10 -6 -18 -7 -17 -73 1 -73 8 0 17 6 19 13 3 6 6 -4 6 -23 1 -26 -2 -31 -9
-20 -7 11 -10 7 -10 -19 0 -28 3 -33 20 -28 18 5 20 1 19 -46 l-2 -52 -7 40
c-7 40 -7 40 -9 -13 -1 -46 2 -55 19 -59 11 -3 20 -10 20 -15 0 -5 -4 -6 -10
-3 -5 3 -10 -4 -10 -15 0 -14 8 -24 21 -27 18 -5 19 -11 14 -44 l-7 -39 56 0
c31 0 56 5 56 10 0 6 11 10 25 10 14 0 25 5 25 10 0 6 9 10 20 10 11 0 20 5
20 10 0 6 9 10 20 10 11 0 20 5 20 10 0 6 8 10 18 10 10 0 24 9 32 20 8 11 22
20 32 20 10 0 18 5 18 10 0 6 10 10 21 10 16 0 20 5 16 20 -3 11 -1 20 4 20 5
0 9 -5 9 -10 0 -7 7 -7 20 0 11 6 17 16 14 22 -4 7 -2 8 5 4 16 -10 67 15 111
54 30 28 33 33 21 52 -7 11 -10 23 -7 26 3 3 6 0 6 -6 0 -7 5 -12 10 -12 15 0
60 47 60 62 0 8 9 20 20 28 11 8 20 21 20 28 0 8 14 27 31 43 25 24 30 34 25
57 -4 15 -3 22 1 15 6 -8 15 -5 31 12 14 14 19 26 12 30 -18 11 -11 23 10 18
22 -6 25 0 10 27 -8 15 -6 17 10 13 22 -6 28 15 9 34 -9 9 -7 10 10 6 15 -4
21 -1 21 10 0 9 -4 19 -10 22 -5 3 -10 12 -9 18 0 9 2 9 6 0 2 -7 11 -13 19
-13 16 0 19 26 4 35 -5 3 -10 12 -9 18 0 9 2 9 6 0 2 -7 11 -13 19 -13 16 0
19 26 4 35 -5 3 -10 12 -9 18 0 9 2 9 6 0 8 -22 36 -15 30 7 -3 13 0 20 9 20
8 0 14 9 14 19 0 11 5 23 10 26 6 3 10 13 10 22 0 9 10 24 22 35 19 16 20 22
10 38 -10 16 -9 18 3 14 19 -8 49 22 41 41 -3 8 -1 15 5 15 14 0 39 26 39 40
0 7 14 25 31 41 22 20 30 35 26 49 -3 11 -1 17 4 14 5 -3 33 20 63 50 29 31
59 56 65 56 7 0 35 23 62 51 27 28 49 47 49 42 0 -13 227 -243 240 -243 6 0
29 -18 50 -40 21 -22 44 -40 52 -40 7 -1 31 -19 53 -40 22 -22 47 -40 55 -40
8 -1 33 -21 55 -47 85 -97 280 -283 292 -279 10 4 10 1 0 -15 -10 -17 -9 -22
7 -31 25 -14 96 -88 96 -100 0 -6 6 -8 14 -5 9 4 12 0 9 -13 -5 -19 34 -60
251 -269 42 -40 76 -75 76 -77 0 -12 51 -54 65 -54 8 0 15 -4 15 -10 0 -5 18
-10 40 -10 22 0 40 -4 40 -10 0 -5 14 -10 30 -10 17 0 30 -4 30 -10 0 -5 20
-10 45 -10 25 0 45 -4 45 -10 0 -5 14 -10 30 -10 17 0 30 -4 30 -9 0 -11 134
-24 161 -16 19 6 20 14 18 96 -1 49 1 92 5 96 3 3 6 116 6 249 0 237 -1 244
-22 264 -25 23 -38 26 -38 8 0 -6 -3 -9 -6 -6 -3 3 1 16 8 28 11 18 11 22 -5
31 -10 6 -33 26 -53 45 -19 19 -39 32 -45 28 -8 -5 -9 -2 -1 11 8 15 3 26 -29
59 -132 140 -179 186 -188 186 -5 0 -7 8 -5 18 2 10 -8 26 -27 41 -25 20 -32
22 -40 10 -5 -8 -9 -11 -9 -6 0 4 5 16 12 27 10 16 8 22 -15 40 -15 12 -34 28
-42 36 -8 9 -19 12 -25 9 -5 -3 -10 -2 -10 4 0 5 5 13 10 16 15 9 12 25 -5 25
-8 0 -15 5 -15 11 0 16 -28 41 -39 35 -5 -3 -7 3 -4 13 4 14 -18 42 -81 105
-83 83 -106 99 -106 74 0 -6 -3 -9 -6 -6 -3 3 0 15 6 25 11 17 -15 46 -245
276 -141 141 -261 257 -266 257 -5 0 -9 7 -9 16 0 8 5 12 10 9 18 -11 31 5 20
25 -8 16 -8 18 5 14 8 -4 15 -1 15 5 0 6 7 11 15 11 17 0 20 25 5 35 -5 3 -10
12 -10 18 0 7 4 6 11 -3 8 -11 12 -12 16 -2 2 6 11 12 19 12 16 0 19 26 4 35
-5 3 -10 12 -10 18 0 8 3 8 9 -1 12 -20 53 7 47 31 -2 9 0 17 6 17 14 0 77 72
78 88 0 8 18 31 41 53 25 24 39 45 35 54 -3 8 -1 15 4 15 6 0 24 13 40 29 30
28 30 29 28 127 l-2 99 -6 -90 -6 -90 -1 105 c-1 58 1 99 4 92 4 -10 8 -10 19
-1 16 13 19 39 4 39 -5 0 -10 6 -10 14 0 9 7 12 20 9 15 -4 20 0 20 16 0 11
-4 21 -10 21 -5 0 -10 6 -10 14 0 9 7 12 20 9 15 -4 20 0 20 16 0 11 -4 21
-10 21 -5 0 -10 10 -9 23 0 12 3 16 6 10 9 -23 33 -14 33 13 0 14 -4 23 -10
19 -5 -3 -10 -1 -10 4 0 6 4 11 10 11 16 0 110 92 110 108 0 7 18 31 40 52 38
37 40 40 34 84 -6 39 -4 46 10 46 14 0 16 7 10 50 -6 42 -4 50 10 50 14 0 15
8 10 55 -6 46 -4 55 9 55 13 0 15 10 10 70 -5 59 -3 70 10 70 13 0 14 12 10
80 -5 64 -3 80 8 80 11 0 14 22 14 105 0 72 -3 104 -11 101 -7 -3 -9 5 -6 22
4 19 2 24 -10 20 -11 -5 -14 0 -10 18 3 17 0 24 -11 24 -10 0 -13 6 -10 20 4
14 0 20 -10 20 -10 0 -13 6 -10 20 4 14 0 20 -11 20 -10 0 -13 6 -10 15 4 9
-3 23 -15 34 -11 10 -21 25 -21 34 0 9 -4 19 -10 22 -5 3 -10 15 -10 26 0 10
-7 19 -15 19 -11 0 -14 7 -9 25 6 24 -13 55 -35 55 -6 0 -8 7 -5 15 5 12 -4
15 -45 15 -39 0 -51 -4 -51 -15z"/>
</g>
</svg>
