<?xml version="1.0" standalone="no"?>
<!DOCTYPE svg PUBLIC "-//W3C//DTD SVG 20010904//EN"
 "http://www.w3.org/TR/2001/REC-SVG-20010904/DTD/svg10.dtd">
<svg version="1.0" xmlns="http://www.w3.org/2000/svg"
 width="640.000000pt" height="512.000000pt" viewBox="0 0 640.000000 512.000000"
 preserveAspectRatio="xMidYMid meet">
<metadata>
Created by potrace 1.15, written by Peter Selinger 2001-2017
</metadata>
<g transform="translate(0.000000,512.000000) scale(0.100000,-0.100000)"
fill="#000000" stroke="none">
<path d="M2059 2625 l-65 -33 -22 -119 c-12 -65 -24 -185 -28 -268 l-6 -150
43 -73 c23 -41 52 -77 63 -82 12 -4 49 -11 83 -15 55 -6 71 -3 133 21 l71 28
122 -29 122 -28 63 -66 c81 -85 327 -398 327 -416 0 -8 -51 -61 -112 -117
-120 -110 -353 -373 -353 -398 1 -12 74 -75 216 -183 24 -18 26 -18 137 14 61
18 117 35 122 39 22 15 106 29 208 35 l108 6 92 -55 92 -56 152 -16 151 -16
114 63 114 63 57 103 c31 57 57 112 57 121 0 9 -28 58 -62 108 l-63 92 -162 7
-163 7 -84 96 -84 96 19 48 c13 33 19 74 19 124 l0 75 73 112 c40 62 101 150
135 196 l62 85 0 130 0 131 -78 54 c-42 30 -84 56 -93 58 -10 3 -78 -26 -152
-63 l-136 -68 -57 -124 c-32 -68 -62 -125 -66 -128 -4 -3 -41 18 -81 46 -53
36 -96 78 -151 148 -42 53 -118 134 -169 179 -91 82 -92 82 -237 132 -140 49
-410 122 -447 121 -10 -1 -48 -16 -84 -35z"/>
</g>
</svg>
