<?xml version="1.0" standalone="no"?>
<!DOCTYPE svg PUBLIC "-//W3C//DTD SVG 20010904//EN"
 "http://www.w3.org/TR/2001/REC-SVG-20010904/DTD/svg10.dtd">
<svg version="1.0" xmlns="http://www.w3.org/2000/svg"
 width="640.000000pt" height="512.000000pt" viewBox="0 0 640.000000 512.000000"
 preserveAspectRatio="xMidYMid meet">
<metadata>
Created by potrace 1.15, written by Peter Selinger 2001-2017
</metadata>
<g transform="translate(0.000000,512.000000) scale(0.100000,-0.100000)"
fill="#000000" stroke="none">
<path d="M1645 4200 c-3 -5 -3 -15 1 -22 5 -7 3 -8 -6 -3 -10 6 -12 4 -7 -9 4
-10 3 -15 -3 -11 -11 7 -11 6 -14 -47 -2 -21 1 -35 7 -31 5 3 6 -4 2 -17 -5
-17 -4 -21 6 -15 9 6 11 2 7 -13 -4 -12 -2 -22 3 -22 4 0 5 -7 2 -17 -5 -12
-3 -14 7 -8 10 6 12 3 8 -13 -4 -13 -2 -20 4 -16 5 3 9 -2 8 -12 -3 -29 11
-65 22 -58 6 4 7 -2 3 -16 -5 -17 -4 -21 6 -15 9 6 11 2 6 -14 -7 -28 1 -53
15 -45 6 4 7 -2 3 -16 -5 -17 -4 -20 5 -15 10 6 11 1 6 -19 -4 -15 -2 -26 3
-26 6 0 7 -7 4 -17 -5 -12 -3 -14 7 -8 10 6 12 3 8 -13 -4 -12 -2 -22 3 -22 6
0 9 -8 7 -17 -2 -11 2 -17 11 -15 8 2 11 -3 8 -13 -8 -20 2 -47 16 -38 6 4 8
-3 3 -21 -5 -20 -3 -26 5 -21 8 5 9 1 4 -15 -5 -16 -4 -20 5 -15 9 5 10 1 5
-15 -5 -17 -4 -21 6 -15 9 6 11 3 6 -8 -3 -9 0 -23 8 -31 8 -7 11 -17 7 -21
-4 -5 1 -5 10 -2 13 4 15 2 11 -10 -4 -10 -2 -14 4 -10 6 4 14 0 17 -9 3 -9 2
-12 -5 -9 -6 4 1 -16 15 -44 15 -28 31 -51 36 -51 6 0 9 -3 8 -7 -3 -10 30
-73 38 -73 3 0 2 6 -1 13 -4 6 1 3 9 -7 9 -11 14 -28 11 -37 -4 -11 2 -26 14
-38 10 -10 17 -22 13 -25 -3 -3 0 -6 6 -6 7 0 11 -6 9 -12 -1 -7 3 -12 10 -11
7 2 10 -3 7 -11 -3 -8 0 -17 7 -22 8 -5 10 -3 4 6 -5 9 -4 11 4 6 6 -4 9 -11
6 -16 -8 -13 6 -41 17 -34 5 3 9 0 7 -7 -3 -28 1 -40 13 -33 8 5 9 2 5 -9 -3
-10 -2 -17 4 -17 6 0 7 -5 3 -12 -5 -7 -2 -9 9 -5 12 4 14 2 10 -10 -5 -12 -3
-14 7 -8 9 5 11 4 6 -3 -11 -18 18 -63 75 -117 30 -27 45 -39 34 -26 l-20 25
26 -20 c15 -10 25 -22 23 -25 -1 -3 36 -43 83 -90 48 -46 80 -75 72 -65 -14
19 -13 19 14 2 26 -18 39 -35 15 -20 -9 5 -8 2 1 -9 7 -10 21 -16 30 -15 10 2
16 -4 16 -17 0 -11 6 -19 13 -17 9 1 12 -17 12 -69 0 -44 -4 -68 -10 -64 -5 3
-10 2 -10 -4 0 -5 5 -13 11 -16 6 -4 8 -13 5 -21 -3 -8 -2 -14 2 -14 4 -1 25
-17 47 -37 22 -20 33 -32 25 -27 -9 5 -7 1 3 -8 23 -22 17 -41 -20 -64 -15
-10 -37 -27 -48 -39 -11 -11 -15 -14 -10 -5 9 13 8 13 -7 1 -10 -7 -15 -18
-12 -23 7 -12 -54 -71 -65 -63 -5 2 -17 -5 -27 -18 l-19 -22 25 20 c14 11 -3
-9 -37 -44 -34 -34 -67 -60 -73 -56 -6 4 -10 3 -8 -2 1 -4 -18 -28 -42 -53
-24 -25 -38 -36 -30 -25 14 19 14 19 -3 6 -9 -7 -16 -19 -15 -25 3 -13 -52
-71 -67 -71 -5 0 -10 -7 -10 -16 0 -17 -64 -85 -76 -82 -5 2 -6 -3 -3 -11 3
-7 -8 -24 -24 -37 -16 -13 -37 -36 -47 -51 -9 -15 -21 -25 -26 -22 -5 3 -8 0
-7 -8 2 -7 -3 -12 -10 -10 -9 1 -11 -5 -6 -23 4 -16 2 -25 -6 -25 -6 0 -8 -4
-5 -10 3 -5 2 -10 -3 -10 -4 0 -16 -27 -26 -60 -10 -33 -22 -60 -28 -60 -5 0
-7 -4 -4 -9 3 -5 -1 -11 -9 -15 -8 -3 -12 -12 -9 -21 3 -8 1 -15 -6 -15 -6 0
-8 -4 -5 -10 3 -5 1 -10 -5 -10 -6 0 -18 -16 -26 -35 -8 -20 -19 -33 -24 -30
-6 4 -7 -1 -3 -11 5 -13 3 -15 -7 -9 -10 6 -12 4 -7 -9 4 -10 1 -19 -9 -23 -8
-3 -13 -12 -10 -19 3 -8 2 -14 -3 -14 -4 0 -19 -20 -32 -44 -13 -25 -27 -42
-31 -40 -4 3 -5 -2 -2 -10 3 -8 -3 -23 -14 -34 -10 -10 -30 -41 -43 -67 -13
-26 -29 -50 -36 -52 -6 -3 -9 -12 -6 -20 4 -11 2 -14 -5 -9 -9 5 -12 -48 -12
-217 l0 -225 38 -28 c20 -16 65 -57 100 -91 35 -35 69 -63 76 -63 8 0 21 11
30 25 10 15 22 23 29 19 7 -4 9 -4 5 0 -4 5 -3 13 3 20 5 6 19 23 30 39 11 15
25 24 31 21 7 -4 8 -2 4 4 -4 7 -2 12 5 12 7 0 9 3 6 7 -4 3 1 12 11 20 10 9
11 12 2 7 -8 -4 11 18 43 49 33 31 56 60 53 65 -3 5 8 19 24 31 17 12 30 28
30 35 0 8 12 25 28 38 15 12 35 34 45 48 10 14 23 25 30 25 6 0 11 8 9 17 -1
9 7 23 19 32 12 8 27 25 33 38 6 13 17 23 23 23 6 0 15 4 20 9 5 5 2 6 -7 2
-8 -4 -6 0 4 8 11 9 17 16 14 16 -7 0 31 47 74 92 15 16 27 32 26 36 -2 4 11
21 27 39 17 17 71 75 120 128 114 123 330 341 376 380 19 17 26 23 15 15 -38
-29 -5 9 36 42 23 18 38 27 34 19 -7 -10 -5 -12 3 -7 7 5 10 14 7 21 -4 11 29
13 179 12 101 -1 181 1 178 6 -7 11 8 118 16 113 3 -2 5 14 3 36 -3 23 0 38 5
35 5 -3 7 10 5 30 -3 24 -1 34 7 29 7 -5 9 3 4 25 -3 17 -2 34 4 38 5 3 16 49
24 101 12 78 18 95 32 94 9 -1 14 3 10 9 -4 6 0 8 11 4 10 -4 15 -3 11 3 -3 6
1 10 9 10 8 0 24 9 35 21 11 13 24 18 32 14 8 -6 10 -4 4 5 -6 10 -4 12 9 7
10 -4 15 -3 11 3 -6 9 11 14 43 13 7 -1 11 2 8 5 -7 6 23 42 36 42 5 0 23 16
40 36 17 19 37 33 44 30 8 -3 13 -2 11 2 -4 13 56 72 72 70 9 -2 16 2 16 7 1
16 53 67 63 61 5 -3 18 4 28 17 19 22 19 22 -2 7 -11 -8 -6 -2 10 13 47 42
128 123 155 154 13 16 17 19 10 8 -13 -18 -13 -19 3 -6 10 7 16 17 13 21 -3 5
4 15 16 24 12 8 27 25 33 38 6 13 18 23 26 23 8 1 14 6 13 13 -2 6 8 19 22 28
14 9 25 22 25 29 0 8 18 29 40 48 22 19 40 38 40 44 0 16 36 44 45 36 4 -5 5
0 2 9 -4 12 10 34 47 72 29 31 51 58 48 61 -4 3 6 17 21 31 15 14 36 43 47 64
11 22 23 40 26 40 3 0 2 -4 -1 -10 -3 -5 -4 -10 -1 -10 3 0 10 10 17 21 9 17
8 20 -3 14 -8 -4 -8 -2 2 7 8 7 22 26 30 41 8 16 24 39 35 51 12 13 19 28 18
33 -2 6 1 15 8 19 8 5 9 3 4 -6 -5 -9 -4 -11 4 -6 7 4 10 13 8 19 -1 5 7 21
20 35 13 14 23 31 23 38 0 7 5 16 12 20 7 5 8 3 3 -6 -5 -8 -4 -11 3 -6 6 4 9
13 6 20 -3 8 3 20 14 27 10 8 29 42 42 76 14 34 28 59 32 57 4 -3 5 3 1 12 -4
11 -3 15 4 11 7 -5 9 1 5 15 -4 16 -2 19 8 13 10 -6 12 -4 7 8 -3 10 -3 17 1
17 4 0 20 34 36 75 16 41 33 72 38 69 6 -4 7 2 3 15 -4 12 -2 21 4 21 19 0 12
22 -14 42 -14 11 -23 24 -20 29 4 5 0 6 -8 3 -7 -2 -25 5 -38 16 -13 12 -17
18 -9 14 24 -11 -52 55 -82 71 -15 8 -32 24 -37 34 -6 10 -22 21 -36 23 -14 3
-24 3 -21 1 9 -9 -32 -45 -43 -38 -7 4 -10 1 -9 -7 2 -7 -5 -13 -14 -13 -9 0
-20 -4 -25 -9 -5 -5 -2 -6 7 -1 8 5 12 5 8 0 -9 -9 -44 -30 -75 -44 -13 -6
-23 -13 -23 -16 0 -4 5 -3 12 1 7 5 8 3 4 -5 -5 -7 -15 -10 -23 -7 -8 3 -11 2
-8 -4 7 -12 -32 -33 -47 -24 -7 4 -8 3 -4 -4 4 -6 -4 -16 -16 -23 -13 -7 -34
-23 -47 -36 -14 -13 -30 -22 -37 -19 -8 3 -16 0 -20 -6 -5 -7 -2 -9 7 -4 8 4
5 1 -5 -6 -11 -7 -27 -20 -36 -29 -9 -8 -21 -14 -27 -12 -5 2 -16 -4 -24 -14
-13 -16 -12 -17 4 -4 9 7 17 11 17 8 0 -7 -98 -77 -109 -77 -5 0 -15 -8 -22
-17 -13 -17 -13 -17 6 -3 20 15 20 15 0 -8 -11 -14 -27 -21 -37 -19 -9 3 -16
2 -15 -2 5 -15 -43 -62 -55 -55 -7 4 -10 4 -6 -1 4 -4 -9 -21 -30 -37 -20 -15
-47 -38 -59 -49 -13 -12 -28 -17 -35 -13 -7 4 -10 3 -5 -1 9 -10 -31 -55 -49
-55 -7 0 -22 -14 -34 -30 -12 -17 -25 -28 -30 -25 -4 3 -14 -3 -21 -13 -13
-16 -12 -16 6 -3 21 15 5 -3 -116 -129 -40 -41 -66 -66 -58 -55 13 18 13 19
-4 6 -9 -7 -16 -19 -15 -25 4 -16 -63 -87 -75 -79 -6 3 -7 1 -3 -5 4 -7 2 -12
-5 -12 -7 0 -10 -3 -7 -6 9 -9 -59 -77 -70 -70 -5 3 -16 -2 -23 -12 -12 -15
-12 -16 1 -7 9 6 7 2 -5 -7 -11 -10 -28 -26 -38 -35 -10 -10 -26 -18 -35 -18
-9 -1 -16 -7 -14 -13 1 -7 -18 -22 -42 -33 -25 -11 -48 -25 -53 -32 -4 -7 2
-5 13 3 18 14 18 14 5 -2 -7 -10 -17 -18 -22 -18 -17 0 -88 -57 -81 -65 4 -5
2 -5 -5 -1 -6 3 -14 2 -18 -4 -10 -17 -42 -11 -56 10 -14 19 -105 47 -93 29 3
-5 -7 -10 -23 -11 -15 -1 -39 -2 -53 -3 -20 -2 -57 30 -182 154 -87 86 -158
152 -158 147 0 -5 -6 -3 -14 4 -8 6 -12 19 -9 27 5 12 3 14 -7 8 -10 -6 -12
-3 -7 14 7 26 -1 53 -13 46 -9 -5 -22 26 -19 41 4 17 -13 44 -24 37 -5 -3 -7
-1 -4 5 10 15 -3 43 -16 35 -6 -4 -8 2 -4 16 7 27 -12 73 -26 64 -6 -4 -8 2
-5 15 4 12 2 22 -4 22 -5 0 -7 4 -4 9 3 4 -95 104 -217 222 -122 117 -213 203
-202 189 l20 -24 -26 20 c-15 10 -25 22 -23 25 2 3 -43 52 -100 108 -69 68
-108 99 -119 95 -8 -3 -18 0 -23 7 -4 8 -3 10 4 5 30 -18 7 17 -34 53 -47 41
-68 49 -79 31z"/>
</g>
</svg>
