<?xml version="1.0" standalone="no"?>
<!DOCTYPE svg PUBLIC "-//W3C//DTD SVG 20010904//EN"
 "http://www.w3.org/TR/2001/REC-SVG-20010904/DTD/svg10.dtd">
<svg version="1.0" xmlns="http://www.w3.org/2000/svg"
 width="640.000000pt" height="512.000000pt" viewBox="0 0 640.000000 512.000000"
 preserveAspectRatio="xMidYMid meet">
<metadata>
Created by potrace 1.15, written by Peter Selinger 2001-2017
</metadata>
<g transform="translate(0.000000,512.000000) scale(0.100000,-0.100000)"
fill="#000000" stroke="none">
<path d="M3178 3587 c-39 -36 -79 -89 -129 -172 -39 -66 -97 -159 -130 -207
-39 -57 -59 -96 -59 -116 0 -16 11 -78 24 -138 13 -60 27 -147 31 -194 4 -65
18 -121 57 -235 29 -82 59 -155 67 -162 9 -7 40 -29 69 -49 l52 -37 139 62
c150 68 399 140 406 118 2 -7 9 -51 16 -99 12 -86 12 -87 -19 -165 -21 -53
-34 -112 -42 -183 -24 -213 -57 -359 -119 -531 -32 -91 -73 -188 -89 -215 -40
-66 -92 -237 -92 -305 0 -48 -6 -62 -48 -125 -36 -55 -199 -254 -207 -254 -14
0 -142 74 -206 120 -82 58 -259 247 -259 276 0 7 9 36 20 64 11 28 20 56 20
63 0 7 -29 44 -63 82 -56 62 -87 104 -87 118 0 21 252 65 410 72 133 6 204 18
351 61 9 2 49 29 90 60 l74 55 13 72 c28 162 33 138 -42 195 -61 46 -71 50
-143 58 -43 5 -278 7 -523 5 l-445 -2 -105 -59 c-98 -54 -105 -60 -108 -92 -2
-18 4 -118 14 -223 16 -181 19 -196 65 -321 96 -265 122 -316 300 -584 165
-248 172 -257 272 -342 56 -48 147 -119 202 -158 l100 -70 175 1 175 0 -53 27
c-29 14 -51 29 -50 33 2 4 34 32 72 63 106 87 195 225 256 396 26 74 64 176
84 225 20 50 50 153 67 230 40 188 96 328 171 429 32 44 58 90 58 103 0 12
-10 66 -21 119 -21 95 -21 100 -5 178 10 45 32 133 51 196 43 149 60 290 51
439 -6 103 -4 129 19 230 29 132 30 166 11 299 -8 53 -18 136 -22 184 -7 86
-7 87 -74 188 -53 80 -81 111 -140 155 -40 30 -78 55 -84 55 -6 0 -24 -33 -40
-73 -69 -170 -111 -238 -198 -323 -75 -73 -236 -184 -267 -184 -25 0 -12 142
24 266 19 65 35 129 35 141 0 30 -92 233 -105 233 -5 0 -36 -24 -67 -53z"/>
</g>
</svg>
