<?xml version="1.0" standalone="no"?>
<!DOCTYPE svg PUBLIC "-//W3C//DTD SVG 20010904//EN"
 "http://www.w3.org/TR/2001/REC-SVG-20010904/DTD/svg10.dtd">
<svg version="1.0" xmlns="http://www.w3.org/2000/svg"
 width="640.000000pt" height="512.000000pt" viewBox="0 0 640.000000 512.000000"
 preserveAspectRatio="xMidYMid meet">
<metadata>
Created by potrace 1.15, written by Peter Selinger 2001-2017
</metadata>
<g transform="translate(0.000000,512.000000) scale(0.100000,-0.100000)"
fill="#000000" stroke="none">
<path d="M3930 4034 c-85 -27 -148 -38 -329 -59 -164 -18 -250 -33 -320 -55
-53 -16 -188 -52 -300 -80 l-204 -51 -234 55 -234 55 -239 -44 c-148 -27 -350
-56 -526 -74 -158 -16 -291 -34 -296 -39 -6 -6 -7 -114 -3 -287 8 -269 8 -277
29 -285 12 -5 118 -25 237 -44 l216 -36 303 20 302 20 62 34 61 33 419 -1 418
-2 54 -59 c29 -33 53 -64 54 -70 0 -5 -91 -37 -203 -69 -111 -33 -205 -62
-209 -65 -4 -3 35 -40 87 -81 52 -41 94 -81 94 -87 1 -7 -70 -48 -156 -92
-155 -77 -159 -80 -237 -167 -305 -342 -420 -453 -622 -606 -6 -5 -80 -28
-163 -53 -83 -24 -155 -46 -160 -49 -5 -3 -12 -70 -16 -149 l-7 -143 -197
-177 -198 -177 -21 -123 c-12 -67 -29 -205 -38 -307 l-16 -185 50 -108 c28
-59 52 -107 54 -107 2 0 73 -14 158 -30 l155 -30 179 15 c200 18 275 33 517
105 l166 50 165 0 c123 0 211 7 349 26 170 24 200 25 399 19 l215 -7 122 31
c72 18 209 41 335 56 303 36 522 78 674 129 140 47 514 228 514 249 1 29 -54
443 -59 449 -3 4 -114 25 -247 47 l-240 41 -200 -26 c-135 -17 -231 -35 -299
-56 -81 -25 -132 -33 -270 -43 -112 -8 -253 -28 -415 -58 -242 -45 -274 -49
-888 -98 l-132 -10 -75 67 c-41 36 -75 72 -75 78 0 7 24 23 53 38 28 14 120
77 202 141 l150 114 39 112 39 112 171 87 171 87 40 101 40 101 135 113 c74
62 188 153 253 202 86 65 212 183 456 427 l337 336 28 200 28 200 -67 145
c-37 80 -70 148 -74 152 -5 6 -445 80 -454 77 -1 0 -49 -16 -107 -35z"/>
</g>
</svg>
