<?xml version="1.0" standalone="no"?>
<!DOCTYPE svg PUBLIC "-//W3C//DTD SVG 20010904//EN"
 "http://www.w3.org/TR/2001/REC-SVG-20010904/DTD/svg10.dtd">
<svg version="1.0" xmlns="http://www.w3.org/2000/svg"
 width="640.000000pt" height="512.000000pt" viewBox="0 0 640.000000 512.000000"
 preserveAspectRatio="xMidYMid meet">
<metadata>
Created by potrace 1.15, written by Peter Selinger 2001-2017
</metadata>
<g transform="translate(0.000000,512.000000) scale(0.100000,-0.100000)"
fill="#000000" stroke="none">
<path d="M4209 3915 c-11 -25 -24 -45 -30 -45 -5 0 -33 12 -61 26 -49 25 -55
25 -127 15 -166 -22 -198 -23 -280 -6 l-82 16 -44 -26 c-42 -24 -50 -25 -122
-19 -47 4 -100 16 -132 31 -56 24 -66 22 -73 -11 -2 -14 -26 -27 -95 -50 -69
-24 -107 -43 -155 -82 -35 -28 -86 -66 -114 -83 -117 -71 -298 -318 -386 -524
-17 -39 -48 -103 -71 -141 l-40 -70 13 -63 c13 -69 17 -60 -61 -154 -30 -37
-43 -68 -74 -184 -63 -233 -74 -287 -75 -355 0 -37 -11 -104 -25 -155 -18 -65
-25 -115 -25 -180 0 -136 27 -330 57 -409 24 -63 25 -72 13 -120 l-12 -52 54
-109 c31 -61 61 -128 68 -150 31 -97 78 -171 141 -222 53 -44 75 -55 149 -73
82 -20 90 -21 152 -6 l67 15 75 -34 c41 -19 78 -35 83 -35 4 0 43 13 86 29 76
28 80 29 112 14 33 -16 34 -15 78 20 36 30 59 40 125 52 105 20 321 94 420
144 42 21 129 74 192 116 63 42 144 88 180 101 48 19 80 40 125 83 33 33 87
73 120 89 44 22 73 46 106 89 111 142 193 290 225 403 10 37 31 82 50 105 24
31 33 54 39 100 10 92 35 183 72 263 31 68 33 81 33 176 0 57 5 140 11 186 18
131 -7 290 -100 640 -44 163 -59 206 -94 260 -55 86 -236 266 -292 291 -36 16
-45 25 -52 57 -8 35 -12 37 -53 43 -25 3 -62 13 -84 22 -56 25 -65 22 -87 -28z
m-249 -506 c69 -5 136 -13 150 -16 34 -8 149 -94 183 -138 18 -22 57 -50 102
-72 70 -35 74 -39 85 -82 6 -24 35 -79 65 -120 39 -57 55 -89 61 -126 4 -27
19 -78 35 -112 27 -61 27 -62 22 -220 l-6 -158 -49 -125 c-26 -69 -58 -143
-69 -165 -100 -187 -301 -404 -444 -477 -44 -22 -107 -60 -140 -83 -185 -129
-600 -299 -795 -325 -47 -6 -120 -18 -162 -26 -71 -14 -85 -14 -160 1 -45 10
-114 33 -153 52 -64 32 -75 43 -117 107 -26 39 -58 98 -73 131 -24 54 -26 68
-20 135 6 69 4 80 -23 142 -17 36 -36 100 -43 141 -12 69 -11 82 9 154 11 43
32 143 47 223 14 80 35 172 47 205 63 179 277 619 321 661 21 20 143 44 221
44 62 0 88 6 155 34 44 19 104 51 132 72 62 45 159 74 250 74 62 0 69 2 125
45 47 36 65 44 89 40 17 -3 86 -10 155 -16z"/>
</g>
</svg>
