<?xml version="1.0" standalone="no"?>
<!DOCTYPE svg PUBLIC "-//W3C//DTD SVG 20010904//EN"
 "http://www.w3.org/TR/2001/REC-SVG-20010904/DTD/svg10.dtd">
<svg version="1.0" xmlns="http://www.w3.org/2000/svg"
 width="640.000000pt" height="512.000000pt" viewBox="0 0 640.000000 512.000000"
 preserveAspectRatio="xMidYMid meet">
<metadata>
Created by potrace 1.15, written by Peter Selinger 2001-2017
</metadata>
<g transform="translate(0.000000,512.000000) scale(0.100000,-0.100000)"
fill="#000000" stroke="none">
<path d="M4039 3913 c-32 -4 -38 -8 -43 -35 -3 -17 -6 -41 -6 -53 0 -17 -7
-25 -27 -29 -76 -15 -220 -36 -320 -46 -87 -9 -135 -20 -215 -50 l-103 -39
-102 -108 -102 -108 -1 -152 0 -153 110 -55 c60 -30 116 -55 123 -55 22 0 210
85 324 146 104 56 216 94 351 120 115 22 112 23 112 -43 0 -32 -12 -109 -27
-171 l-28 -114 -85 -68 c-47 -37 -109 -96 -139 -129 -74 -86 -223 -195 -371
-274 -72 -38 -141 -82 -163 -105 l-39 -39 6 -139 c3 -77 9 -201 12 -277 l6
-138 99 -49 c54 -28 104 -50 111 -50 7 0 60 32 118 70 58 38 108 70 113 70 4
0 28 -32 53 -72 l47 -72 -7 -101 c-4 -55 -14 -167 -23 -250 -16 -138 -20 -157
-60 -242 l-42 -93 -86 -42 c-91 -46 -95 -51 -70 -110 14 -35 14 -35 -43 -118
-48 -70 -72 -93 -160 -155 l-104 -72 -116 -8 -117 -7 -67 74 c-37 40 -68 82
-68 93 0 11 -34 62 -75 114 -41 51 -75 98 -75 103 0 5 34 56 75 113 l76 104
57 11 c31 7 95 20 141 30 77 17 89 17 173 3 72 -12 104 -13 166 -4 l77 11 62
67 c34 38 63 75 63 83 0 9 -19 35 -42 57 l-43 42 -125 16 c-69 8 -200 27 -292
41 l-167 26 -163 -16 c-90 -9 -191 -24 -225 -34 l-63 -16 0 -62 c0 -54 -5 -71
-39 -131 -39 -67 -40 -69 -47 -204 -9 -183 12 -278 96 -424 32 -55 81 -147
110 -205 l52 -105 117 -67 117 -67 164 -17 165 -16 104 46 c159 70 265 142
337 228 34 40 134 190 224 333 89 143 173 274 186 292 26 35 30 60 13 96 -8
18 -6 37 7 83 13 45 19 114 23 294 l6 235 33 14 c17 8 32 21 32 29 0 8 -27 65
-59 126 -54 101 -121 283 -121 328 0 10 31 50 69 88 100 100 202 250 275 403
56 119 64 144 75 233 7 54 23 135 37 180 28 92 29 121 10 185 -8 25 -17 79
-21 120 -6 68 -12 83 -73 186 -38 63 -104 153 -152 207 -93 106 -85 102 -211
89z"/>
</g>
</svg>
