<?xml version="1.0" standalone="no"?>
<!DOCTYPE svg PUBLIC "-//W3C//DTD SVG 20010904//EN"
 "http://www.w3.org/TR/2001/REC-SVG-20010904/DTD/svg10.dtd">
<svg version="1.0" xmlns="http://www.w3.org/2000/svg"
 width="640.000000pt" height="512.000000pt" viewBox="0 0 640.000000 512.000000"
 preserveAspectRatio="xMidYMid meet">
<metadata>
Created by potrace 1.15, written by Peter Selinger 2001-2017
</metadata>
<g transform="translate(0.000000,512.000000) scale(0.100000,-0.100000)"
fill="#000000" stroke="none">
<path d="M3315 3894 c-16 -15 -23 -23 -15 -19 11 6 12 5 4 -4 -8 -9 -39 -12
-98 -9 -47 2 -86 0 -86 -4 0 -5 -43 -8 -95 -8 -52 0 -94 -3 -93 -7 3 -14 -13
-53 -20 -49 -4 2 -20 -29 -36 -70 -15 -40 -31 -72 -35 -70 -3 2 -19 -29 -35
-70 -15 -40 -33 -71 -38 -68 -6 4 -8 -2 -4 -14 4 -11 3 -23 -2 -26 -5 -3 -17
-46 -27 -95 -10 -50 -22 -88 -26 -85 -4 2 -5 -6 -1 -18 3 -11 1 -19 -4 -16 -5
4 -9 -68 -9 -172 0 -102 4 -176 9 -173 5 3 7 -6 4 -20 -3 -15 -2 -25 2 -22 3
2 15 -45 25 -105 11 -63 23 -106 28 -103 6 4 8 -8 4 -31 -4 -25 -2 -34 5 -30
7 5 9 -2 6 -19 -3 -15 -1 -24 3 -21 8 5 14 -18 10 -39 -1 -5 3 -6 9 -2 9 6 15
-8 11 -29 -1 -5 5 -6 14 -2 9 3 14 2 10 -3 -7 -13 5 -42 15 -36 8 5 26 -33 22
-47 -1 -5 2 -8 7 -8 5 0 11 -9 14 -21 3 -12 10 -18 17 -14 7 4 10 0 8 -11 -2
-14 2 -18 16 -16 10 2 15 -1 12 -7 -3 -5 7 -12 24 -16 18 -4 27 -11 24 -17 -4
-6 -2 -8 3 -5 14 9 75 -12 68 -23 -3 -4 3 -7 12 -6 10 0 19 -7 21 -18 3 -16
-2 -18 -46 -15 -28 2 -48 0 -45 -5 3 -4 -17 -7 -45 -5 -27 2 -48 1 -45 -3 2
-5 -19 -8 -47 -8 -28 0 -49 3 -47 8 3 4 -20 5 -50 4 -31 -2 -53 0 -50 5 3 4
-22 6 -55 5 -33 -2 -58 0 -55 5 3 4 -9 8 -25 7 l-31 -1 -1 -70 c-1 -39 3 -69
7 -66 5 3 7 -29 6 -70 -1 -41 1 -79 5 -85 3 -6 20 -13 36 -17 16 -4 33 -11 36
-17 5 -7 2 -8 -6 -3 -8 5 -11 4 -6 -3 4 -6 14 -8 23 -5 12 5 14 3 8 -8 -4 -8
-5 -11 -1 -7 4 3 21 2 36 -4 20 -7 27 -14 23 -25 -4 -11 -2 -14 5 -9 6 3 21
-4 33 -16 12 -13 18 -17 14 -10 -6 11 -3 12 14 3 11 -7 21 -17 21 -24 0 -8 -3
-8 -9 1 -6 10 -10 9 -14 -7 -3 -12 -1 -19 4 -15 5 3 9 3 9 0 0 -3 -10 -10 -21
-17 -17 -9 -20 -8 -14 3 4 7 -3 2 -16 -12 -13 -14 -20 -19 -14 -10 6 10 2 8
-13 -4 -23 -20 -31 -42 -9 -30 9 6 8 3 -1 -8 -8 -9 -19 -15 -27 -12 -7 3 -16
0 -21 -7 -4 -8 -3 -10 4 -5 7 4 12 5 12 2 0 -3 -10 -10 -21 -17 -17 -9 -20 -8
-14 3 5 7 -8 -3 -28 -21 -37 -35 -47 -48 -26 -36 6 4 5 -2 -2 -13 -7 -12 -17
-18 -21 -16 -8 5 -12 -9 -9 -32 1 -7 -6 -11 -16 -10 -10 0 -18 -5 -19 -11 -1
-7 -2 -18 -3 -24 0 -5 -5 -8 -10 -5 -5 3 -12 -1 -15 -10 -4 -9 -2 -13 5 -8 8
4 7 0 0 -15 -7 -11 -14 -21 -17 -21 -3 0 -2 4 1 10 3 6 -1 7 -9 4 -9 -3 -15
-9 -14 -12 2 -21 -3 -32 -14 -26 -7 5 -9 2 -5 -9 3 -9 -2 -24 -11 -34 -9 -11
-15 -14 -12 -8 3 6 -5 0 -17 -14 -12 -14 -21 -27 -21 -30 2 -20 -3 -31 -12
-26 -6 4 -10 3 -9 -2 5 -27 -2 -63 -11 -58 -7 4 -8 -3 -4 -21 5 -19 4 -25 -5
-20 -7 5 -11 0 -11 -13 0 -12 -10 -69 -22 -127 l-21 -105 23 -109 c14 -61 28
-106 34 -103 5 4 7 -7 3 -26 -4 -20 -3 -30 3 -26 9 6 15 -22 11 -53 -1 -7 2
-11 6 -10 11 3 73 -20 73 -27 0 -3 -5 -3 -12 1 -7 4 -8 3 -4 -4 4 -6 14 -8 23
-5 10 4 14 2 10 -4 -5 -7 1 -9 15 -5 11 3 19 1 16 -4 -6 -9 10 -28 25 -32 43
-10 56 -15 53 -21 -2 -3 6 -6 19 -6 13 0 21 4 18 9 -3 5 8 7 25 4 17 -2 29 -1
27 3 -6 9 74 21 87 13 7 -4 8 -2 4 4 -5 8 2 12 19 12 17 0 24 -4 19 -12 -4 -6
-3 -8 3 -5 16 10 74 -4 66 -16 -3 -5 -1 -7 4 -4 13 8 74 -3 69 -12 -2 -3 6 -6
19 -6 13 0 21 3 18 8 -4 6 15 11 44 10 7 -1 10 4 6 10 -4 6 0 8 11 4 9 -4 15
-3 11 2 -3 5 8 12 25 16 17 4 28 10 25 15 -6 9 53 32 64 25 12 -7 134 122 138
144 1 12 -4 49 -13 83 -8 35 -16 72 -17 83 -2 17 -7 19 -42 15 -22 -3 -68 -5
-102 -5 -33 0 -59 -4 -56 -8 3 -5 -26 -7 -65 -5 -39 1 -68 0 -65 -4 5 -10 -43
-10 -86 -2 -17 4 -28 11 -24 17 3 5 1 7 -4 4 -14 -9 -74 3 -68 13 2 4 -7 5
-22 2 -19 -4 -24 -2 -18 8 6 10 1 12 -18 8 -19 -4 -24 -1 -19 10 3 9 1 13 -5
9 -17 -11 -73 4 -73 19 0 8 4 14 10 14 5 0 6 7 3 17 -4 10 -2 14 4 10 7 -5 9
0 6 13 -3 11 -1 20 4 20 6 0 18 20 27 45 10 25 22 45 27 45 4 0 5 7 2 17 -4
10 -2 14 4 10 7 -5 9 1 5 15 -3 13 -1 19 5 15 6 -4 15 10 21 31 6 21 19 46 27
57 9 11 13 14 9 6 -5 -9 -3 -12 5 -7 7 5 9 16 5 28 -4 14 -2 18 5 14 6 -4 11
0 11 9 0 11 5 15 16 11 10 -4 13 -2 8 6 -5 8 -2 9 10 5 9 -4 15 -3 12 2 -3 5
5 12 19 15 14 4 25 11 25 16 0 5 7 6 17 3 12 -5 14 -3 8 7 -6 10 -4 12 8 7 10
-4 17 -2 17 4 0 6 7 8 16 5 10 -4 13 -2 8 6 -5 8 -2 9 10 5 9 -4 15 -3 12 2
-3 4 12 14 34 21 22 7 37 17 33 23 -4 6 0 8 10 4 10 -4 17 -2 17 4 0 6 7 8 16
5 10 -4 13 -2 8 6 -5 7 -2 9 9 5 19 -7 33 8 42 51 3 18 13 45 21 60 13 28 58
72 72 72 4 0 8 9 8 21 1 11 7 26 14 32 10 9 11 9 5 -1 -6 -11 -3 -11 12 -2 10
7 20 22 20 33 1 11 12 30 25 41 22 21 22 21 8 0 -8 -11 -3 -7 12 9 15 17 26
33 25 36 -5 17 36 120 46 114 6 -4 8 0 4 9 -3 9 -2 19 2 24 4 5 16 35 25 67
10 31 22 55 27 51 13 -8 6 39 -9 54 -7 8 -10 17 -7 22 3 5 0 12 -6 16 -8 5 -9
3 -4 -6 5 -9 4 -11 -3 -6 -7 4 -12 15 -12 25 0 10 -7 24 -15 31 -8 7 -15 9
-15 4 0 -4 -7 1 -15 12 -8 10 -15 29 -15 42 0 12 -4 22 -10 22 -19 0 -25 4
-43 27 -10 12 -19 32 -20 43 -1 11 -7 22 -15 25 -7 2 -10 0 -7 -5 15 -24 -4
-7 -21 18 -17 26 -17 27 1 12 17 -14 18 -14 7 7 -7 12 -17 25 -24 29 -7 5 -9
2 -4 -7 4 -8 1 -6 -7 3 -8 10 -17 15 -21 11 -4 -4 -4 0 -1 9 4 9 1 19 -6 24
-8 5 -10 3 -4 -6 5 -9 4 -11 -4 -6 -6 4 -9 12 -5 17 7 12 -12 36 -39 51 -14 7
-17 7 -13 -1 4 -6 5 -11 2 -11 -3 0 -10 10 -17 21 -8 16 -8 20 1 14 27 -17
-11 35 -42 56 -29 20 -31 21 -19 4 14 -18 14 -19 -2 -5 -9 8 -18 26 -20 39 -2
13 -11 29 -20 36 -9 7 -17 20 -17 29 0 10 -5 14 -11 10 -9 -5 -10 1 -5 20 4
16 3 25 -2 22 -5 -3 -20 41 -33 98 -13 58 -28 102 -33 99 -5 -4 -6 6 -2 21 4
18 3 25 -4 21 -6 -4 -10 7 -10 30 0 23 4 34 10 30 7 -4 8 3 4 21 -4 17 -3 25
3 21 5 -3 20 23 32 58 13 36 27 65 32 65 5 0 6 8 2 18 -3 9 -2 13 2 9 5 -4 16
11 25 35 13 35 21 43 50 50 19 4 41 5 48 3 8 -3 10 0 6 6 -5 8 3 10 24 7 19
-3 29 0 25 5 -4 6 3 8 15 5 14 -4 20 -2 16 4 -5 7 4 9 24 6 21 -3 29 -1 25 8
-3 9 2 12 16 9 12 -2 21 1 21 7 0 6 11 8 25 6 15 -3 22 -1 18 5 -4 6 0 8 11 4
10 -4 15 -3 11 3 -6 9 10 14 42 13 7 -1 11 3 8 7 -2 4 14 12 36 19 22 7 37 16
34 21 -6 10 54 32 68 23 6 -3 7 -1 3 5 -5 8 1 12 14 12 16 0 20 -4 16 -16 -4
-10 -2 -13 6 -8 8 5 9 2 5 -10 -4 -10 -3 -15 3 -11 9 5 15 -16 11 -38 -1 -5 3
-6 8 -2 6 3 15 -12 22 -34 7 -22 16 -38 21 -35 5 3 8 -2 6 -11 -2 -10 4 -20
12 -22 13 -4 13 -3 0 7 -13 9 -12 10 5 8 11 -1 29 4 40 12 24 18 56 57 38 46
-7 -4 -13 -5 -13 -2 0 3 10 10 21 17 17 9 20 8 13 -2 -4 -7 7 -3 25 10 18 13
30 29 27 36 -3 8 3 19 12 27 16 12 16 11 2 -7 -14 -19 -14 -19 3 -6 19 15 23
46 5 57 -7 5 -8 3 -3 -6 5 -9 4 -11 -4 -6 -7 4 -10 13 -8 19 2 6 -5 19 -15 29
-10 10 -16 23 -13 28 4 6 2 10 -3 10 -5 0 -12 9 -15 21 -3 12 -10 18 -16 14
-6 -3 -9 0 -5 8 3 8 0 18 -7 23 -8 5 -10 3 -5 -7 4 -8 1 -5 -8 5 -8 10 -13 23
-10 27 3 5 -5 19 -17 31 -12 13 -19 17 -15 11 4 -7 5 -13 2 -13 -3 0 -10 10
-17 21 -8 16 -8 20 1 14 9 -6 9 -3 1 12 -8 15 -17 19 -37 15 -20 -4 -25 -2
-19 8 5 9 4 11 -3 6 -14 -9 -104 3 -98 13 3 4 -11 5 -31 3 -20 -3 -33 -1 -30
5 3 5 -10 7 -30 5 -25 -3 -34 -1 -29 7 14 22 -39 10 -69 -15z"/>
</g>
</svg>
