<?xml version="1.0" standalone="no"?>
<!DOCTYPE svg PUBLIC "-//W3C//DTD SVG 20010904//EN"
 "http://www.w3.org/TR/2001/REC-SVG-20010904/DTD/svg10.dtd">
<svg version="1.0" xmlns="http://www.w3.org/2000/svg"
 width="640.000000pt" height="512.000000pt" viewBox="0 0 640.000000 512.000000"
 preserveAspectRatio="xMidYMid meet">
<metadata>
Created by potrace 1.15, written by Peter Selinger 2001-2017
</metadata>
<g transform="translate(0.000000,512.000000) scale(0.100000,-0.100000)"
fill="#000000" stroke="none">
<path d="M3502 4013 c-45 -31 -62 -53 -117 -154 -36 -65 -65 -124 -65 -132 0
-7 11 -42 25 -77 14 -35 25 -69 25 -76 0 -7 -30 -56 -67 -110 l-67 -97 13 -86
c26 -170 26 -160 -18 -277 -33 -90 -46 -145 -72 -319 -29 -196 -31 -221 -24
-380 l6 -170 -49 -140 c-45 -128 -50 -150 -55 -260 -4 -66 -14 -206 -24 -312
-19 -214 -14 -307 33 -619 31 -209 47 -278 65 -281 8 -1 59 21 114 50 l100 52
27 145 c32 174 34 261 11 515 l-17 190 41 155 c53 198 93 450 93 583 0 105 30
366 74 637 13 85 27 196 31 245 4 50 20 151 36 225 59 265 99 462 99 481 0 19
-147 249 -160 249 -3 0 -29 -16 -58 -37z"/>
</g>
</svg>
