<?xml version="1.0" standalone="no"?>
<!DOCTYPE svg PUBLIC "-//W3C//DTD SVG 20010904//EN"
 "http://www.w3.org/TR/2001/REC-SVG-20010904/DTD/svg10.dtd">
<svg version="1.0" xmlns="http://www.w3.org/2000/svg"
 width="640.000000pt" height="512.000000pt" viewBox="0 0 640.000000 512.000000"
 preserveAspectRatio="xMidYMid meet">
<metadata>
Created by potrace 1.15, written by Peter Selinger 2001-2017
</metadata>
<g transform="translate(0.000000,512.000000) scale(0.100000,-0.100000)"
fill="#000000" stroke="none">
<path d="M3315 3999 c4 -6 1 -9 -7 -7 -15 3 -78 -39 -78 -53 0 -12 -37 -49
-43 -42 -3 2 -13 -11 -22 -31 -10 -20 -21 -33 -26 -31 -4 3 -19 -11 -33 -32
-15 -21 -26 -31 -26 -23 -1 8 -8 2 -16 -14 -13 -22 -13 -31 -3 -40 9 -8 10 -8
4 3 -5 9 -4 12 3 7 6 -4 8 -14 5 -22 -4 -10 4 -24 19 -37 13 -12 17 -17 8 -12
-13 9 -13 8 -1 -7 7 -10 19 -18 26 -18 7 0 16 -7 19 -16 6 -14 4 -15 -10 -4
-9 8 -6 -1 8 -23 13 -21 31 -36 43 -37 17 0 17 -2 5 -10 -10 -7 -11 -10 -2
-10 7 0 17 11 22 25 12 32 55 76 66 67 4 -4 4 -2 1 4 -4 6 2 22 13 34 11 13
20 27 20 32 0 5 9 4 21 -2 33 -18 58 -43 53 -52 -3 -4 2 -5 11 -2 9 4 15 3 13
-2 -2 -5 -1 -9 2 -9 11 0 38 -30 33 -37 -2 -5 2 -8 9 -8 8 0 23 -7 34 -16 10
-8 13 -12 5 -8 -9 5 -12 3 -7 -4 4 -7 18 -12 32 -12 13 0 24 -4 24 -10 0 -5 7
-10 15 -10 8 0 12 -6 9 -13 -3 -9 3 -13 18 -12 24 2 49 -15 41 -28 -2 -4 -1
-7 4 -6 24 4 43 -2 37 -13 -4 -7 -3 -8 4 -4 13 7 48 -8 71 -32 8 -8 15 -29 16
-46 1 -17 4 -38 7 -46 7 -16 19 -102 19 -133 0 -10 5 -15 11 -11 7 5 8 2 3 -6
-4 -7 -7 -31 -7 -52 1 -24 -2 -37 -8 -33 -6 4 -10 3 -9 -2 4 -25 -3 -52 -21
-71 -11 -12 -20 -28 -20 -37 0 -8 -4 -15 -8 -15 -5 0 -17 -24 -27 -54 -10 -30
-22 -53 -27 -50 -4 3 -8 -5 -8 -18 0 -13 -10 -34 -21 -48 -11 -14 -18 -18 -14
-10 3 8 -1 6 -9 -5 -31 -42 -47 -59 -40 -45 6 11 2 10 -13 -3 -11 -9 -22 -15
-25 -12 -3 3 -11 -3 -19 -12 -13 -17 -13 -17 6 -3 19 14 19 14 6 -2 -7 -10
-19 -18 -26 -18 -7 0 -19 -8 -26 -17 -13 -17 -13 -17 5 -3 12 9 17 10 12 3 -4
-7 -16 -18 -28 -24 -16 -9 -19 -8 -13 3 7 13 -30 -26 -43 -46 -4 -6 -20 -22
-36 -36 l-29 -25 18 28 c9 15 15 27 12 27 -3 0 -15 -16 -27 -35 -12 -19 -27
-32 -32 -29 -6 4 -9 3 -5 -2 3 -5 -1 -18 -9 -29 -9 -12 -14 -14 -14 -5 0 13
-15 5 -15 -8 -1 -4 -7 -18 -14 -31 -10 -19 -15 -21 -22 -10 -6 10 -9 10 -9 2
0 -7 -16 -30 -36 -50 -20 -21 -33 -32 -29 -24 6 10 4 12 -4 7 -6 -4 -10 -15
-9 -23 2 -9 -3 -18 -11 -21 -8 -3 -11 0 -7 7 4 6 5 11 2 11 -3 0 -13 -14 -22
-31 -12 -24 -14 -45 -9 -88 4 -31 9 -72 10 -91 1 -19 5 -46 9 -60 4 -14 8 -45
10 -70 2 -25 5 -45 6 -45 1 0 3 -8 5 -18 6 -33 15 -48 24 -43 4 3 8 -7 7 -22
0 -16 5 -26 11 -25 8 2 10 -4 6 -14 -5 -11 -3 -14 6 -8 10 6 11 2 6 -15 -5
-15 -4 -20 4 -16 7 5 9 1 5 -8 -3 -9 -2 -16 4 -16 5 0 12 -14 16 -31 3 -17 10
-28 16 -24 7 4 9 -3 6 -19 -3 -15 -1 -24 3 -21 12 7 20 -40 10 -58 -6 -10 -3
-22 9 -34 9 -10 13 -12 7 -4 -12 18 20 -6 79 -59 78 -71 89 -80 98 -80 5 0 6
-4 3 -10 -3 -5 -1 -10 4 -10 15 0 51 -37 43 -44 -3 -3 2 -6 11 -6 11 0 14 -5
10 -17 -4 -10 -2 -14 4 -10 6 4 8 -4 6 -21 -3 -19 -2 -23 5 -14 9 13 24 -61
24 -115 0 -13 3 -21 7 -19 3 2 7 -10 9 -27 4 -46 7 -60 16 -75 4 -7 5 -25 2
-38 -4 -14 -3 -23 1 -21 4 3 9 -6 9 -19 2 -20 -14 -32 -28 -22 -2 1 -13 -4
-26 -11 -19 -10 -26 -10 -40 1 -12 10 -14 10 -8 0 5 -9 0 -12 -21 -10 -16 1
-34 -1 -41 -6 -6 -4 -21 -2 -33 5 -15 8 -19 8 -15 0 16 -25 -115 0 -209 39
-11 5 -36 12 -55 16 -19 3 -40 10 -45 14 -6 5 -24 10 -40 12 -25 2 -31 -1 -33
-20 -2 -13 -9 -25 -17 -28 -7 -3 -11 -14 -8 -25 3 -11 0 -19 -6 -19 -17 0 -46
-73 -32 -78 6 -2 11 -8 11 -13 0 -6 -5 -7 -10 -4 -11 7 24 -57 51 -92 9 -12
18 -20 21 -18 3 3 4 -5 4 -18 -1 -12 4 -21 10 -20 7 1 24 -9 38 -22 15 -14 32
-25 37 -25 6 0 7 -5 4 -10 -3 -6 -1 -10 5 -10 6 0 8 -5 5 -10 -4 -6 -3 -10 2
-9 14 4 63 -24 57 -32 -5 -9 30 -14 51 -9 6 2 21 5 35 7 49 7 65 10 82 17 21
9 41 -1 32 -16 -5 -7 -1 -9 9 -5 9 3 23 0 31 -8 8 -8 19 -15 24 -15 17 0 62
-27 56 -33 -3 -3 7 -3 23 -1 15 3 38 6 50 6 12 1 20 5 17 9 -9 15 32 29 46 16
10 -9 11 -9 6 1 -5 7 -1 12 11 12 10 1 33 9 52 18 27 13 39 28 51 65 9 26 20
44 23 40 4 -3 7 3 7 14 0 11 7 26 15 33 8 7 12 16 9 21 -3 5 0 9 5 9 6 0 11
11 11 25 0 14 3 25 8 25 4 0 14 15 22 33 21 46 23 407 2 415 -11 4 -11 6 0 13
10 7 10 9 1 9 -7 0 -13 7 -13 16 0 8 -5 25 -12 37 -11 21 -14 29 -22 66 -1 8
-8 17 -14 19 -7 2 -9 8 -6 13 3 6 1 16 -6 23 -6 8 -13 24 -15 36 -2 13 -12 32
-22 43 -10 11 -12 17 -5 13 18 -10 15 4 -5 27 -10 11 -12 17 -4 12 14 -8 -13
38 -39 66 -8 9 -21 24 -28 35 -7 10 -10 13 -6 5 5 -9 3 -12 -4 -7 -6 4 -8 14
-5 22 3 10 -7 27 -28 46 -19 17 -25 24 -14 17 l20 -14 -20 25 c-11 14 -24 28
-29 31 -11 8 11 22 23 15 5 -3 11 0 14 8 3 8 16 12 31 11 17 -2 24 1 19 8 -4
7 0 8 11 4 9 -4 15 -3 12 2 -3 5 6 12 21 16 16 3 31 11 34 17 4 6 24 12 45 13
35 2 39 5 41 33 3 31 6 46 42 182 11 41 19 75 18 77 -2 1 -32 4 -67 7 -36 3
-87 8 -115 11 -27 3 -57 6 -65 6 -36 0 -80 11 -75 18 2 5 -1 9 -8 8 -41 -1
-67 4 -62 13 4 6 3 10 -2 9 -4 -1 -27 2 -50 6 -44 8 -47 17 -11 36 16 8 19 8
13 -1 -4 -7 4 -4 18 5 15 9 30 14 36 11 5 -3 11 -1 13 6 3 7 22 13 44 14 31 0
38 4 36 18 -2 11 1 15 7 11 6 -3 14 2 18 12 4 10 20 32 37 50 17 18 39 42 49
53 10 11 22 18 28 15 5 -4 9 -3 8 2 -3 8 22 65 31 73 3 3 12 25 20 49 8 24 20
49 27 57 7 7 13 22 13 33 0 12 5 21 10 21 6 0 10 9 10 19 0 11 5 23 10 26 6 3
10 15 10 26 0 18 3 27 28 75 5 11 22 81 36 155 15 74 31 144 36 157 5 12 6 22
2 22 -4 0 -7 46 -7 103 0 56 -3 105 -8 108 -5 4 -4 16 2 27 6 12 7 22 1 24 -8
3 -18 45 -23 101 -1 9 -4 17 -7 17 -3 0 -6 12 -7 28 -4 46 -15 92 -23 92 -4 0
-7 17 -6 38 1 20 -4 43 -11 50 -7 8 -11 18 -7 23 3 5 2 8 -3 7 -4 -1 -43 4
-86 11 -54 10 -77 18 -73 26 3 8 -4 13 -17 13 -12 0 -35 3 -52 6 -16 4 -37 7
-47 7 -20 0 -53 35 -53 57 0 8 -12 19 -28 23 -15 4 -25 4 -22 0 4 -8 -95 -4
-103 4 -2 2 -15 0 -28 -5 -15 -6 -34 -6 -50 0 -17 7 -23 7 -19 -1z"/>
</g>
</svg>
